<svg width="57" height="57" viewBox="0 0 57 57" fill="none" xmlns="http://www.w3.org/2000/svg">
<path d="M1.3 55.3V34.2L12.3 27.7C12.9 29.2 14.4 30.3 16.1 30.3C17.8 30.3 19.2 29.3 19.9 27.8L32 33.8C32 34 31.9 34.2 31.9 34.3C31.9 36.6 33.8 38.5 36 38.5C38.2 38.5 40.1 36.6 40.1 34.3C40.1 33.8 40 33.3 39.8 32.8L50.1 22.5C50.6 22.8 51.3 22.9 51.9 22.9C54.2 22.9 56 21 56 18.7C56 16.4 54.1 14.5 51.9 14.5C49.7 14.5 48 16.5 48 18.8C48 20 48.5 21 49.3 21.8L39.4 31.7C38.6 30.8 37.5 30.2 36.2 30.2C34.6 30.2 33.2 31.2 32.5 32.5L20.3 26.5C20.3 26.4 20.3 26.2 20.3 26.1C20.3 23.8 18.4 21.9 16.2 21.9C14 21.9 12 23.9 12 26.1C12 26.2 12 26.2 12 26.3L1.3 32.7V0H0V56.6H56.6V55.3H1.3ZM52.1 16C53.7 16 55 17.3 55 18.8C55 20.3 53.7 21.6 52.1 21.6C50.5 21.6 49.2 20.3 49.2 18.8C49.2 17.3 50.6 16 52.1 16ZM36.1 31.5C37.7 31.5 39 32.8 39 34.3C39 35.8 37.7 37.1 36.1 37.1C34.5 37.1 33.2 35.8 33.2 34.3C33.2 32.8 34.6 31.5 36.1 31.5ZM20.1 27.3V27.2V27.3ZM16.1 23.3C17.7 23.3 19 24.6 19 26.1C19 27.6 17.7 29 16.1 29C14.5 29 13.2 27.7 13.2 26.2C13.2 24.7 14.6 23.3 16.1 23.3Z" fill="#5091CD"/>
</svg>
