<svg width="70" height="64" viewBox="0 0 70 64" fill="none" xmlns="http://www.w3.org/2000/svg">
<path d="M56.1 5.79999V7.09999H63.8V15H5.10002V7.09999H13.1V5.79999H3.90002V16.3H65.1V5.79999H56.1Z" fill="#5091CD"/>
<path d="M49.6 5.79999H19V7.09999H49.6V5.79999Z" fill="#5091CD"/>
<path d="M3.90002 60.4H54.5L65.2 50.5V19.6H3.90002V60.4ZM54.8 58.3V50.5H63.2L54.8 58.3ZM5.10002 20.9H63.8V49.2H53.5V59.2H5.10002V20.9Z" fill="#5091CD"/>
<path d="M16.1 10.6C16.9 10.6 17.6 9.89999 17.6 9.09999V3.79999C17.6 2.99999 16.9 2.29999 16.1 2.29999C15.3 2.29999 14.6 2.99999 14.6 3.79999V9.19999C14.6 9.89999 15.2 10.6 16.1 10.6Z" fill="#5091CD"/>
<path d="M52.8 10.6C53.6 10.6 54.3 9.89999 54.3 9.09999V3.79999C54.3 2.99999 53.6 2.29999 52.8 2.29999C52 2.29999 51.3 2.99999 51.3 3.79999V9.19999C51.3 9.89999 52 10.6 52.8 10.6Z" fill="#5091CD"/>
<path d="M10.2001 32.2H16.6001V25.8H10.2001V32.2ZM11.5001 27.1H15.3001V30.9H11.5001V27.1Z" fill="#5091CD"/>
<path d="M20.7001 31.9H27.1001V25.5H20.7001V31.9ZM22.0001 26.9H25.8001V30.7H22.0001V26.9Z" fill="#5091CD"/>
<path d="M31.2001 32H37.6001V25.6H31.2001V32ZM32.5001 26.9H36.3001V30.7H32.5001V26.9Z" fill="#5091CD"/>
<path d="M58.6001 25.7H52.2001V32.1H58.6001V25.7ZM57.3001 30.8H53.5001V27H57.3001V30.8Z" fill="#5091CD"/>
<path d="M41.7001 31.9H48.1001V25.5H41.7001V31.9ZM43.0001 26.8H46.8001V30.6H43.0001V26.8Z" fill="#5091CD"/>
<path d="M10.2001 41.3H16.6001V35H10.2001V41.3ZM11.5001 36.3H15.3001V40H11.5001V36.3Z" fill="#5091CD"/>
<path d="M20.7001 41.1H27.1001V34.7H20.7001V41.1ZM22.0001 36H25.8001V39.8H22.0001V36Z" fill="#5091CD"/>
<path d="M31.2001 41.2H37.6001V34.8H31.2001V41.2ZM32.5001 36.1H36.3001V39.9H32.5001V36.1Z" fill="#5091CD"/>
<path d="M58.6001 34.9H52.2001V41.3H58.6001V34.9ZM57.3001 40H53.5001V36.2H57.3001V40Z" fill="#5091CD"/>
<path d="M41.7001 41.1H48.1001V34.7H41.7001V41.1ZM43.0001 36H46.8001V39.8H43.0001V36Z" fill="#5091CD"/>
<path d="M10.2001 51.5H16.6001V45.1H10.2001V51.5ZM11.5001 46.4H15.3001V50.2H11.5001V46.4Z" fill="#5091CD"/>
<path d="M20.7001 51.2H27.1001V44.8H20.7001V51.2ZM22.0001 46.2H25.8001V50H22.0001V46.2Z" fill="#5091CD"/>
<path d="M31.2001 51.3H37.6001V44.9H31.2001V51.3ZM32.5001 46.2H36.3001V50H32.5001V46.2Z" fill="#5091CD"/>
</svg>
