<svg width="12" height="18" viewBox="0 0 12 18" fill="none" xmlns="http://www.w3.org/2000/svg">
<path d="M0 7.18655V17.5866H11.8V7.18655H0ZM6.4 12.5866V13.8866C6.4 14.1866 6.2 14.3866 5.9 14.3866C5.6 14.3866 5.4 14.1866 5.4 13.8866V12.5866C5 12.3866 4.7 11.9866 4.7 11.4866C4.7 10.7866 5.2 10.2866 5.9 10.2866C6.6 10.2866 7.1 10.7866 7.1 11.4866C7.1 11.9866 6.8 12.4866 6.4 12.5866Z" fill="#777777"/>
<path d="M9.5 8.18655C9.5 6.08655 9.9 3.48655 8.3 1.88655C7.5 0.986553 6 0.886553 4.9 1.08655C4 1.28655 3.4 1.78655 3 2.58655C2 4.28655 2.3 6.28655 2.3 8.18655" stroke="#777777" stroke-width="1.2" stroke-miterlimit="10"/>
</svg>
