<svg width="23" height="19" viewBox="0 0 23 19" fill="none" xmlns="http://www.w3.org/2000/svg">
<path d="M7.09999 4.10001C4.19999 4.10001 1.89999 6.40001 1.89999 9.30001C1.89999 12.2 4.19999 14.5 7.09999 14.5C9.99999 14.5 12.3 12.2 12.3 9.30001C12.3 6.40001 9.99999 4.10001 7.09999 4.10001ZM7.09999 12.3C6.79999 12.3 6.49999 12 6.49999 11.7C6.49999 11.4 6.79999 11.1 7.09999 11.1C7.39999 11.1 7.69999 11.4 7.69999 11.7C7.69999 12 7.49999 12.3 7.09999 12.3Z" stroke="#5091CD" stroke-width="0.2" stroke-miterlimit="10"/>
<path d="M7.1 3.20001C3.7 3.20001 1 5.90001 1 9.30001C1 12.7 3.7 15.4 7.1 15.4C10.5 15.4 13.2 12.7 13.2 9.30001C13.2 5.90001 10.5 3.20001 7.1 3.20001ZM7.1 4.10001C10 4.10001 12.3 6.40001 12.3 9.30001C12.3 12.2 10 14.5 7.1 14.5C4.2 14.5 1.9 12.2 1.9 9.30001C1.9 6.40001 4.2 4.10001 7.1 4.10001Z" fill="#5091CD" stroke="#5091CD" stroke-width="0.2" stroke-miterlimit="10"/>
<path d="M6.39999 11.6C6.39999 11.2 6.69999 10.9 7.09999 10.9C7.49999 10.9 7.79999 11.2 7.79999 11.6C7.79999 12 7.49999 12.3 7.09999 12.3C6.69999 12.3 6.39999 12 6.39999 11.6ZM6.59999 10.3L6.39999 6.30002H7.79999L7.59999 10.3H6.59999Z" fill="#5091CD" stroke="#5091CD" stroke-width="0.2" stroke-miterlimit="10"/>
<path d="M15.6 1V7.2H21.7" stroke="#5091CD" stroke-width="1.1" stroke-miterlimit="10"/>
<path d="M7.10001 15.2V17.6H21.7V7.00001L15.8 1.10001H7.10001V3.60001" stroke="#5091CD" stroke-width="1.1" stroke-miterlimit="10"/>
</svg>
