<svg width="18" height="18" viewBox="0 0 18 18" fill="none" xmlns="http://www.w3.org/2000/svg">
<path d="M8.9 0C4 0 0 4 0 8.9C0 13.8 4 17.8 8.9 17.8C13.8 17.8 17.8 13.8 17.8 8.9C17.8 4 13.8 0 8.9 0ZM8.9 16.5C4.7 16.5 1.3 13.1 1.3 8.9C1.3 4.7 4.7 1.3 8.9 1.3C13.1 1.3 16.5 4.7 16.5 8.9C16.5 13.1 13.1 16.5 8.9 16.5Z" fill="#5091CD"/>
<path d="M8.9 11.5C8.4 11.5 8 11.9 8 12.4C8 12.9 8.4 13.3 8.9 13.3C9.4 13.3 9.8 12.9 9.8 12.4C9.8 11.9 9.4 11.5 8.9 11.5Z" fill="#5091CD"/>
<path d="M9.00001 4.5C7.90001 4.5 6.90001 5 6.20001 5.8L7.10001 6.8C7.50001 6.3 8.10001 5.9 8.90001 5.9C9.70001 5.9 10.1 6.3 10.1 6.8C10.1 7.9 8.00001 8 8.00001 9.6C8.00001 10 8.20001 10.4 8.50001 10.7L9.60001 10.3C9.40001 10.2 9.30001 9.9 9.30001 9.7C9.30001 8.6 11.6 8.4 11.6 6.5C11.6 5.4 10.6 4.5 9.00001 4.5Z" fill="#5091CD"/>
</svg>
