<svg width="25" height="23" fill="none" xmlns="http://www.w3.org/2000/svg"><path d="M2.7 17.515c.9 0 1.7-.859 1.7-1.825s-.8-1.824-1.7-1.824c-.9 0-1.7.858-1.7 1.824-.1.966.7 1.825 1.7 1.825zm6.1-6.654c.9 0 1.7-.751 1.7-1.824 0-.966-.8-1.825-1.7-1.825-1 0-1.7.859-1.7 1.825 0 1.073.7 1.824 1.7 1.824zm7.1 2.897c.9 0 1.7-.858 1.7-1.824 0-.966-.8-1.824-1.7-1.824-.9 0-1.7.858-1.7 1.824.1.966.8 1.825 1.7 1.825zm6.7-9.121c.9 0 1.7-.859 1.7-1.825S23.5.988 22.6.988c-.9 0-1.7.858-1.7 1.824.1.966.8 1.825 1.7 1.825zM1.2 21.915h23.7m-7.6-11.483l4.5-6.01M10.6 9.788l4 1.61m-11 2.897l3.9-3.756" stroke="#fff" stroke-width=".9" stroke-miterlimit="10"/></svg>