<svg width="32" height="24" viewBox="0 0 32 24" stroke="#777777" fill="none" xmlns="http://www.w3.org/2000/svg">
<path d="M7.40002 14.2H18.2" stroke-width="0.75" stroke-miterlimit="10"/>
<path d="M7.40002 17.1H18.2" stroke-width="0.75" stroke-miterlimit="10"/>
<path d="M18.2 21.6H3V2.29999H7.9V8.79999H17.6V2.29999H19.6L22.6 5.19999V8.29999" stroke-width="0.75" stroke-miterlimit="10"/>
<path d="M3 2.29999H19.6" stroke-width="0.75" stroke-miterlimit="10"/>
<path d="M27 15.6C24.6 17.1 22.4 15.6 22.4 15.6C21.2 16.3 20.4 17.7 20.4 19.2V21.7H28.9V19.2C28.9 17.7 28.2 16.3 27 15.6Z" stroke-width="0.75" stroke-miterlimit="10"/>
<path d="M24.7001 15C26.0808 15 27.2001 13.7911 27.2001 12.3C27.2001 10.8088 26.0808 9.59998 24.7001 9.59998C23.3194 9.59998 22.2001 10.8088 22.2001 12.3C22.2001 13.7911 23.3194 15 24.7001 15Z" stroke-width="0.75" stroke-miterlimit="10"/>
</svg>
