<svg width="20" height="26" viewBox="0 0 20 26" fill="none" xmlns="http://www.w3.org/2000/svg">
<path d="M19.1 0.841461H1V24.6658H19.1V0.841461Z" stroke="white" stroke-miterlimit="10"/>
<path d="M15.5 5.34879H5" stroke="white" stroke-miterlimit="10"/>
<path d="M6.1 12.2171C6.7 12.2171 7.2 11.6805 7.2 11.0366C7.2 10.3927 6.7 9.85608 6.1 9.85608C5.5 9.85608 5 10.3927 5 11.0366C5 11.6805 5.5 12.2171 6.1 12.2171Z" fill="white"/>
<path d="M10.1 12.2171C10.7 12.2171 11.2 11.6805 11.2 11.0366C11.2 10.3927 10.7 9.85608 10.1 9.85608C9.5 9.85608 9 10.3927 9 11.0366C9 11.6805 9.5 12.2171 10.1 12.2171Z" fill="white"/>
<path d="M14.1 12.2171C14.7 12.2171 15.2 11.6805 15.2 11.0366C15.2 10.3927 14.7 9.85608 14.1 9.85608C13.5 9.85608 13 10.3927 13 11.0366C13 11.6805 13.5 12.2171 14.1 12.2171Z" fill="white"/>
<path d="M6.1 16.5097C6.7 16.5097 7.2 15.9732 7.2 15.3293C7.2 14.6854 6.7 14.1488 6.1 14.1488C5.5 14.1488 5 14.6854 5 15.3293C5 15.9732 5.5 16.5097 6.1 16.5097Z" fill="white"/>
<path d="M10.1 16.5097C10.7 16.5097 11.2 15.9732 11.2 15.3293C11.2 14.6854 10.7 14.1488 10.1 14.1488C9.5 14.1488 9 14.6854 9 15.3293C9 15.9732 9.5 16.5097 10.1 16.5097Z" fill="white"/>
<path d="M14.1 16.5097C14.7 16.5097 15.2 15.9732 15.2 15.3293C15.2 14.6854 14.7 14.1488 14.1 14.1488C13.5 14.1488 13 14.6854 13 15.3293C13 15.9732 13.5 16.5097 14.1 16.5097Z" fill="white"/>
<path d="M6.1 20.8024C6.7 20.8024 7.2 20.2659 7.2 19.622C7.2 18.9781 6.7 18.4415 6.1 18.4415C5.5 18.4415 5 18.9781 5 19.622C5 20.2659 5.5 20.8024 6.1 20.8024Z" fill="white"/>
<path d="M10.1 20.8024C10.7 20.8024 11.2 20.2659 11.2 19.622C11.2 18.9781 10.7 18.4415 10.1 18.4415C9.5 18.4415 9 18.9781 9 19.622C9 20.2659 9.5 20.8024 10.1 20.8024Z" fill="white"/>
<path d="M14.1 20.8024C14.7 20.8024 15.2 20.2659 15.2 19.622C15.2 18.9781 14.7 18.4415 14.1 18.4415C13.5 18.4415 13 18.9781 13 19.622C13 20.2659 13.5 20.8024 14.1 20.8024Z" fill="white"/>
</svg>
