<svg width="25" height="26" viewBox="0 0 25 26" fill="none" xmlns="http://www.w3.org/2000/svg">
<path d="M12.8001 20.9C11.5001 21 10.7001 21 10.5001 20.6C10.2001 20.1 10.2001 18.9 9.60008 17.5C8.50008 15.1 7.60008 14.3 7.50008 12.5C7.40008 8.90001 10.3001 7.10001 12.4001 7.10001C14.5001 7.00001 17.5001 8.50001 17.7001 12.2C17.8001 14 16.8001 14.9 15.9001 17.3C15.4001 18.8 15.5001 20 15.2001 20.5C14.9001 20.8 14.1001 20.8 12.8001 20.9Z" stroke="white" stroke-miterlimit="10"/>
<path d="M3.6001 4L6.9001 7.1" stroke="white" stroke-miterlimit="10"/>
<path d="M0.5 11.8L5.1 12" stroke="white" stroke-miterlimit="10"/>
<path d="M21.5001 4L18.1001 7.1" stroke="white" stroke-miterlimit="10"/>
<path d="M24.4999 11.8L19.8999 12" stroke="white" stroke-miterlimit="10"/>
<path d="M12.5 4.8V0.5" stroke="white" stroke-miterlimit="10"/>
<path d="M10.6001 23.5H14.8001" stroke="white" stroke-miterlimit="10"/>
<path d="M10.6001 25.3H14.8001" stroke="white" stroke-miterlimit="10"/>
</svg>
