<svg width="27" height="16" viewBox="0 0 27 16" fill="none" xmlns="http://www.w3.org/2000/svg">
<path d="M4.80001 9.60001C4.60001 9.80001 4.40001 10 4.20001 10.1C4.20001 10.1 4.20001 10.1 4.20001 10.2C4.20001 10.4 4.20001 10.6 4.20001 10.9V11.6V11.7H5.00001C5.20001 11.7 5.40001 11.7 5.60001 11.7H5.70001C5.90001 11.5 6.10001 11.3 6.20001 11.2C5.70001 10.6 5.30001 10.1 4.80001 9.60001Z" fill="#5091CD"/>
<path d="M0 0V16H26.6V0H0ZM5.9 12.5C5.1 12.5 4.2 12.5 3.4 12.5C3.4 12.5 3.4 12.5 3.3 12.5V12.4C3.3 11.6 3.3 10.8 3.3 10C3.3 9.9 3.3 9.9 3.4 9.8C5.1 8.1 6.8 6.4 8.4 4.8L9 5.4L5.3 9.2L5.8 9.7L9.6 5.9L11.2 7.5C9.5 9.2 7.8 10.9 6.2 12.5C6 12.4 6 12.5 5.9 12.5ZM12.8 5.7C12.4 6.1 12.1 6.5 11.7 6.8C10.8 5.9 10 5.1 9.1 4.2C9.1 4.2 9.1 4.2 9.2 4.1C9.4 3.8 9.7 3.5 10 3.2C10.3 2.8 10.9 2.8 11.2 3.2C11.5 3.5 11.8 3.8 12.1 4.1C12.3 4.3 12.5 4.5 12.6 4.7C13 5 13 5.4 12.8 5.7ZM19.1 14H15.1V11.2H19.1V14ZM19.1 9.5H15.1V6.6H19.1V9.5ZM19.1 5H15.1V2H19.1V5ZM24.8 14H20.8V11.2H24.8V14ZM24.8 9.5H20.8V6.6H24.8V9.5ZM24.8 5H20.8V2H24.8V5Z" fill="#5091CD"/>
</svg>
