<svg width="13" height="17" viewBox="0 0 13 17" fill="none" xmlns="http://www.w3.org/2000/svg">
<path d="M6.96617 7.86616C6.36617 7.46616 5.56617 7.56616 5.06617 8.06616L4.86617 8.26616C4.16617 8.86616 4.26617 9.96616 4.96617 10.6662L8.36616 14.0662C9.06616 14.7662 10.0662 14.7662 10.6662 14.1662L10.9662 13.8662C11.5662 13.2662 11.5662 12.1662 10.8662 11.5662L8.96617 9.76616L9.96617 8.76616L11.8662 10.6662C13.1662 11.9662 13.2662 13.8662 12.0662 14.9662L11.7662 15.2662C10.6662 16.3662 8.66617 16.2662 7.46617 15.0662L3.96617 11.5662C2.66617 10.2662 2.56617 8.36616 3.76617 7.26616L3.96617 6.96616C4.96617 5.96616 6.66617 5.96616 7.86617 6.86616" fill="#5091CD"/>
<path d="M5.86617 8.26616C6.46617 8.66616 7.26617 8.56616 7.76617 8.06616L7.96617 7.86617C8.56616 7.26617 8.56616 6.16616 7.86617 5.56616L4.36617 2.06616C3.76617 1.36616 2.66616 1.26617 2.06616 1.96616L1.86617 2.16616C1.16617 2.76616 1.26617 3.86617 1.96617 4.46617L3.86617 6.36617L2.86617 7.36617L0.966165 5.46617C-0.233835 4.16617 -0.333835 2.26617 0.766165 1.06616L1.06617 0.766165C2.16617 -0.333835 4.16617 -0.233835 5.36617 0.966165L8.86616 4.46617C10.1662 5.76616 10.2662 7.66616 9.06616 8.76616L8.76616 9.16617C7.76616 10.1662 6.06616 10.1662 4.86617 9.26616" fill="#5091CD"/>
</svg>
