<svg width="21" height="18" viewBox="0 0 21 18" fill="none" xmlns="http://www.w3.org/2000/svg">
<path d="M14.1 0.100006V6.20001H20.1L14.1 0.100006Z" fill="#5091CD"/>
<path d="M5.4 13.9C5.5 13.9 5.7 13.9 5.8 13.9H5.9C6.1 13.9 6.2 13.8 6.4 13.8C6.5 13.8 6.5 13.8 6.6 13.8C6.8 13.7 6.9 13.7 7.1 13.6C7.7 13.3 8.2 13 8.7 12.5C9.2 12 9.5 11.5 9.8 10.9C9.9 10.7 9.9 10.5 10 10.4V10.3C10 10.1 10.1 10 10.1 9.8V9.7C10.1 9.5 10.1 9.4 10.1 9.2C10.1 9.1 10.1 9.1 10.1 9C10.1 8.9 10.1 8.7 10.1 8.6C10.1 8.5 10.1 8.4 10.1 8.3C10.1 8.2 10.1 8.2 10.1 8.1C10 7.6 9.9 7.1 9.7 6.7C9.6 6.4 9.5 6.2 9.4 6.1C9.4 6.1 9.4 6.1 9.4 6C9.3 5.9 9.2 5.7 9.1 5.6C8.7 5.2 8.3 4.8 7.9 4.5C7.9 4.5 7.8 4.5 7.8 4.4C7.6 4.4 7.5 4.3 7.4 4.2C7.4 4.2 7.3 4.2 7.3 4.1C7.1 4.1 7 4 6.8 4H6.7C6.4 3.9 6 3.8 5.7 3.7C5.5 3.7 5.3 3.7 5.1 3.7C4.8 3.7 4.6 3.7 4.3 3.8C4.2 3.8 4.2 3.8 4.1 3.8C3.9 3.9 3.6 3.9 3.4 4C3.3 4 3.2 4 3.2 4.1C2.9 4.2 2.7 4.3 2.5 4.4C2.5 4.5 2.4 4.5 2.3 4.6C2 4.7 1.8 4.9 1.5 5.2C1.3 5.4 1.1 5.6 0.9 5.9C0.9 6 0.8 6 0.8 6.1C0.7 6.3 0.5 6.5 0.4 6.8V6.9C0.3 7.2 0.2 7.4 0.1 7.6C0.1 7.7 0.1 7.8 0 7.9C0 8.2 0 8.5 0 8.8C0 9 0 9.1 0 9.3V9.4C0 9.5 0 9.7 0.1 9.8C0.1 10 0.2 10.2 0.2 10.4C0.2 10.5 0.2 10.5 0.2 10.6C0.3 10.7 0.3 10.9 0.4 11C0.4 11 0.4 11.1 0.5 11.1C0.6 11.2 0.6 11.4 0.7 11.5C0.7 11.5 0.7 11.6 0.8 11.6C1.1 12 1.4 12.5 1.9 12.8C2 12.9 2.2 13 2.3 13.1C2.3 13.1 2.3 13.1 2.4 13.1C2.6 13.2 2.7 13.3 2.9 13.4C3.4 13.6 3.9 13.8 4.4 13.9H4.5C4.6 13.9 4.7 13.9 4.8 13.9C4.9 13.9 5 13.9 5.1 13.9C5.2 13.9 5.3 13.9 5.4 13.9ZM5.9 5.7L5.7 9.7H4.5V9.6L4.3 5.7H5.9ZM4.3 11.1C4.3 10.6 4.7 10.3 5.1 10.3C5.5 10.3 5.9 10.7 5.9 11.1C5.9 11.5 5.5 11.9 5.1 11.9C4.7 11.9 4.3 11.6 4.3 11.1Z" fill="#5091CD"/>
<path d="M13 7.3V0H4.60001V2.7C5.20001 2.6 5.90001 2.7 6.60001 2.8C8.90001 3.3 10.7 5.2 11.2 7.4C11.7 9.5 11.1 11.7 9.50001 13.2C8.30001 14.4 6.70001 15 5.10001 15C4.90001 15 4.80001 15 4.60001 15V17.6H20.2V7.3H13Z" fill="#5091CD"/>
</svg>
