<svg xmlns="http://www.w3.org/2000/svg" xmlns:xlink="http://www.w3.org/1999/xlink" width="0" height="0" style="position:absolute">
    <defs>
       <!-- ALLL Icons -->
        <svg id="advanced-analysis" width="57" height="57" viewBox="0 0 57 57">
            <path d="M1.3 55.3V34.2L12.3 27.7C12.9 29.2 14.4 30.3 16.1 30.3C17.8 30.3 19.2 29.3 19.9 27.8L32 33.8C32 34 31.9 34.2 31.9 34.3C31.9 36.6 33.8 38.5 36 38.5C38.2 38.5 40.1 36.6 40.1 34.3C40.1 33.8 40 33.3 39.8 32.8L50.1 22.5C50.6 22.8 51.3 22.9 51.9 22.9C54.2 22.9 56 21 56 18.7C56 16.4 54.1 14.5 51.9 14.5C49.7 14.5 48 16.5 48 18.8C48 20 48.5 21 49.3 21.8L39.4 31.7C38.6 30.8 37.5 30.2 36.2 30.2C34.6 30.2 33.2 31.2 32.5 32.5L20.3 26.5C20.3 26.4 20.3 26.2 20.3 26.1C20.3 23.8 18.4 21.9 16.2 21.9C14 21.9 12 23.9 12 26.1C12 26.2 12 26.2 12 26.3L1.3 32.7V0H0V56.6H56.6V55.3H1.3ZM52.1 16C53.7 16 55 17.3 55 18.8C55 20.3 53.7 21.6 52.1 21.6C50.5 21.6 49.2 20.3 49.2 18.8C49.2 17.3 50.6 16 52.1 16ZM36.1 31.5C37.7 31.5 39 32.8 39 34.3C39 35.8 37.7 37.1 36.1 37.1C34.5 37.1 33.2 35.8 33.2 34.3C33.2 32.8 34.6 31.5 36.1 31.5ZM20.1 27.3V27.2V27.3ZM16.1 23.3C17.7 23.3 19 24.6 19 26.1C19 27.6 17.7 29 16.1 29C14.5 29 13.2 27.7 13.2 26.2C13.2 24.7 14.6 23.3 16.1 23.3Z" />
        </svg>

        <svg id="allowance-forecasting" width="70" height="64" viewBox="0 0 70 64">
            <path d="M56.1 5.79999V7.09999H63.8V15H5.10002V7.09999H13.1V5.79999H3.90002V16.3H65.1V5.79999H56.1Z" />
            <path d="M49.6 5.79999H19V7.09999H49.6V5.79999Z" />
            <path d="M3.90002 60.4H54.5L65.2 50.5V19.6H3.90002V60.4ZM54.8 58.3V50.5H63.2L54.8 58.3ZM5.10002 20.9H63.8V49.2H53.5V59.2H5.10002V20.9Z" />
            <path d="M16.1 10.6C16.9 10.6 17.6 9.89999 17.6 9.09999V3.79999C17.6 2.99999 16.9 2.29999 16.1 2.29999C15.3 2.29999 14.6 2.99999 14.6 3.79999V9.19999C14.6 9.89999 15.2 10.6 16.1 10.6Z" />
            <path d="M52.8 10.6C53.6 10.6 54.3 9.89999 54.3 9.09999V3.79999C54.3 2.99999 53.6 2.29999 52.8 2.29999C52 2.29999 51.3 2.99999 51.3 3.79999V9.19999C51.3 9.89999 52 10.6 52.8 10.6Z" />
            <path d="M10.2001 32.2H16.6001V25.8H10.2001V32.2ZM11.5001 27.1H15.3001V30.9H11.5001V27.1Z" />
            <path d="M20.7001 31.9H27.1001V25.5H20.7001V31.9ZM22.0001 26.9H25.8001V30.7H22.0001V26.9Z" />
            <path d="M31.2001 32H37.6001V25.6H31.2001V32ZM32.5001 26.9H36.3001V30.7H32.5001V26.9Z" />
            <path d="M58.6001 25.7H52.2001V32.1H58.6001V25.7ZM57.3001 30.8H53.5001V27H57.3001V30.8Z" />
            <path d="M41.7001 31.9H48.1001V25.5H41.7001V31.9ZM43.0001 26.8H46.8001V30.6H43.0001V26.8Z" />
            <path d="M10.2001 41.3H16.6001V35H10.2001V41.3ZM11.5001 36.3H15.3001V40H11.5001V36.3Z" />
            <path d="M20.7001 41.1H27.1001V34.7H20.7001V41.1ZM22.0001 36H25.8001V39.8H22.0001V36Z" />
            <path d="M31.2001 41.2H37.6001V34.8H31.2001V41.2ZM32.5001 36.1H36.3001V39.9H32.5001V36.1Z" />
            <path d="M58.6001 34.9H52.2001V41.3H58.6001V34.9ZM57.3001 40H53.5001V36.2H57.3001V40Z" />
            <path d="M41.7001 41.1H48.1001V34.7H41.7001V41.1ZM43.0001 36H46.8001V39.8H43.0001V36Z" />
            <path d="M10.2001 51.5H16.6001V45.1H10.2001V51.5ZM11.5001 46.4H15.3001V50.2H11.5001V46.4Z" />
            <path d="M20.7001 51.2H27.1001V44.8H20.7001V51.2ZM22.0001 46.2H25.8001V50H22.0001V46.2Z" />
            <path d="M31.2001 51.3H37.6001V44.9H31.2001V51.3ZM32.5001 46.2H36.3001V50H32.5001V46.2Z" />
        </svg>

        <svg id="data-audit" width="64" height="57" viewBox="0 0 64 57">
            <path d="M45.3 55.6H1.3V1.3H45.3V10.5H46.6V0H0V56.9H46.6V32.4H45.3V55.6Z" />
            <path d="M26.8 34.6L23 44.7L32.7 41.3L57 17.1L50.9 11L26.8 34.6ZM32.2 40.1C26.5 40.6 28 35.3 28 35.3L50.9 12.8L55.2 17.1L32.2 40.1Z" />
            <path d="M62.9 9.90001L57.7 4.70001C57.2 4.20001 56.5 4.20001 56.1 4.70001L52.7 8.00001C52.5 8.20001 52.4 8.50001 52.4 8.80001C52.4 9.10001 52.5 9.40001 52.7 9.60001L58 14.9C58.2 15.1 58.5 15.2 58.8 15.2C59.1 15.2 59.4 15.1 59.6 14.9L62.9 11.6C63.1 11.4 63.2 11.1 63.2 10.8C63.3 10.4 63.2 10.1 62.9 9.90001Z" />
        </svg>

        <svg id="model-validation" width="85" height="64" viewBox="0 0 85 64" >
            <path d="M42.1 35.3H11.1V36.6H42.1V35.3Z" />
            <path d="M42.1 27.8H11.1V29.1H42.1V27.8Z" />
            <path d="M42.1 42.4H11.1V43.7H42.1V42.4Z" />
            <path d="M34.5 49.6H11.1V50.9H34.5V49.6Z" />
            <path d="M62.7 16.9C58.6 16.9 54.7999 18.3 51.7 20.7V14.5L41 3.10001H3.69995V60H51.7999V48.6C54.7999 51 58.5999 52.4 62.7999 52.4C72.6 52.4 80.6 44.4 80.6 34.6C80.6 24.8 72.5 16.9 62.7 16.9ZM41.2999 5.30001L49.7 14.2H41.2999V5.30001ZM50.4 47.5V58.6H4.99995V4.40001H40V15.6H50.4V21.9C47 25.1 44.9 29.7 44.9 34.7C44.9 39.7 47 44.3 50.4 47.5ZM62.7 51.1C53.6 51.1 46.2 43.7 46.2 34.6C46.2 25.5 53.6 18.1 62.7 18.1C71.7999 18.1 79.2 25.5 79.2 34.6C79.2 43.7 71.7999 51.1 62.7 51.1Z" />
            <path d="M60.7999 40.2L55.4999 35.1L53.7999 36.8L61.1999 43.9L71.7999 28L69.7999 26.6L60.7999 40.2Z" />
        </svg>

        <svg id="policy-review" width="74" height="58" viewBox="0 0 74 58">
            <path d="M38.3999 32.2H7.3999V33.5H38.3999V32.2Z" />
            <path d="M38.3999 24.7H7.3999V26H38.3999V24.7Z" />
            <path d="M38.3999 39.4H7.3999V40.7H38.3999V39.4Z" />
            <path d="M30.7999 46.6H7.3999V47.9H30.7999V46.6Z" />
            <path d="M73.1 53.8L63.7 45.3C65 43.3 65.8 40.9 65.8 38.3C65.8 31.4 60.2 25.8 53.3 25.8C51.4 25.8 49.7 26.2 48.1 26.9V11.4L37.3 0H0V56.9H48.1V49.8C49.7 50.5 51.4 50.9 53.3 50.9C56.2 50.9 58.9 49.9 61 48.2L70.4 56.7C70.8 57 71.2 57.2 71.7 57.2C72.2 57.2 72.8 57 73.2 56.6C73.9 55.8 73.9 54.5 73.1 53.8ZM37.7 2.3L46.1 11.2H37.7V2.3ZM46.8 55.6H1.3V1.3H36.4V12.5H46.8V27.7C43.2 29.9 40.8 33.9 40.8 38.4C40.8 42.9 43.2 46.9 46.8 49.1V55.6ZM53.3 49.4C47.2 49.4 42.3 44.5 42.3 38.4C42.3 32.3 47.2 27.4 53.3 27.4C59.4 27.4 64.3 32.3 64.3 38.4C64.3 44.4 59.3 49.4 53.3 49.4Z" />
        </svg>

        <svg id="scenario-building">
            <path d="M38.6427 31.5769V31.1947C38.256 31.1947 38.1271 31.1947 37.7403 31.1947C35.5488 31.1947 33.8729 29.5384 33.8729 27.3726C33.8729 26.0985 34.5175 24.9519 35.5488 24.1875C34.2597 22.4038 32.7127 20.875 31.0368 19.7283L30.3923 19.3461C29.7477 20.3654 28.5875 20.875 27.2983 20.875C25.1068 20.875 23.4309 19.2187 23.4309 17.0529C23.4309 16.9255 23.4309 16.7981 23.4309 16.6707H15.4383C15.1805 16.6707 15.5672 16.6707 15.3094 16.6707C15.3094 16.7981 15.3094 17.0529 15.3094 17.0529C15.3094 19.2187 13.6335 20.875 11.442 20.875C10.4107 20.875 9.50829 20.4928 8.86372 19.8558C7.05893 21.1298 5.51197 22.786 4.22284 24.5697C5.25414 25.2067 5.89871 26.3533 5.89871 27.7548C5.89871 29.9207 4.22284 31.5769 2.03131 31.5769C1.77348 31.5769 1.51565 31.5769 1.38674 31.4495C1.12891 32.5961 1 33.8702 1 35.1442C1 36.4183 1.12891 37.5649 1.38674 38.8389C1.64457 38.8389 1.77348 38.7115 2.03131 38.7115C4.22284 38.7115 5.89871 40.3678 5.89871 42.5336C5.89871 43.8077 5.25414 44.9543 4.22284 45.7187C5.38306 47.5024 6.93002 49.0312 8.73481 50.3053C9.37937 49.5408 10.4107 49.1586 11.442 49.1586C13.6335 49.1586 15.3094 50.8149 15.3094 52.9807C15.3094 53.1082 15.3094 53.2356 15.3094 53.363C16.8564 53.7452 18.4033 54 20.0792 54C21.2394 54 22.3996 53.8726 23.5599 53.6178C23.5599 53.363 23.5599 53.1082 23.5599 52.8533C23.5599 50.6875 25.2357 49.0312 27.4273 49.0312C28.7164 49.0312 30.0055 49.6683 30.6501 50.6875C32.7127 49.286 34.5175 47.5024 35.9355 45.4639C34.7753 44.8269 34.0018 43.5529 34.0018 42.1514C34.0018 39.9856 35.6777 38.3293 37.8692 38.3293C38.256 38.3293 38.5138 38.3293 38.7716 38.4567C39.0295 37.3101 39.1584 36.1634 39.1584 35.0168C39.0295 33.8702 38.9006 32.7235 38.6427 31.5769ZM19.6925 41.0048C16.2118 41.0048 13.3757 38.2019 13.3757 34.762C13.3757 31.3221 16.2118 28.5192 19.6925 28.5192C23.1731 28.5192 26.0092 31.3221 26.0092 34.762C26.0092 38.2019 23.1731 41.0048 19.6925 41.0048Z" stroke="#5091CD" stroke-width="1.25" stroke-miterlimit="10" stroke-linejoin="round"/>
            <path d="M52.5654 14.887L52.6943 14.6322C52.5654 14.6322 52.4365 14.5048 52.3076 14.3774C51.4052 13.7404 51.1473 12.4663 51.7919 11.5745C52.1786 11.0649 52.8232 10.6827 53.4678 10.6827C53.4678 9.53606 53.3389 8.51683 52.9521 7.37019L52.8232 6.98798C52.1786 7.24279 51.663 7.11539 51.0184 6.73317C50.116 6.09615 49.8582 4.82212 50.5028 3.93029C50.5028 3.93029 50.5028 3.80288 50.6317 3.80288L47.151 1.63702C47.0221 1.50962 47.2799 1.63702 47.151 1.63702L47.0221 1.76442C46.3775 2.65625 45.0884 2.91106 44.186 2.27404C43.7993 2.01923 43.5414 1.50962 43.4125 1C42.2523 1 41.0921 1.25481 40.0608 1.63702C40.3186 2.27404 40.1897 2.91106 39.803 3.42067C39.1584 4.3125 37.8693 4.56731 36.9669 3.93029C36.8379 3.80289 36.8379 3.80288 36.709 3.67548C36.1934 4.05769 35.8066 4.56731 35.4199 5.07692C35.0332 5.58654 34.7753 6.22356 34.5175 6.73317C34.6464 6.73317 34.7753 6.86058 34.7753 6.86058C35.6777 7.4976 35.9356 8.77164 35.291 9.66346C34.9042 10.1731 34.2597 10.5553 33.6151 10.5553C33.6151 11.7019 33.744 12.8486 34.1308 13.8678C34.6464 13.7404 35.1621 13.8678 35.6777 14.25C36.5801 14.887 36.8379 16.1611 36.1934 17.0529C36.1934 17.1803 36.0645 17.1803 36.0645 17.1803C36.5801 17.8173 37.2247 18.3269 37.8693 18.8365C38.3849 19.2188 38.9006 19.4736 39.4162 19.7284C39.4162 19.601 39.5451 19.4736 39.674 19.4736C40.3186 18.5817 41.6077 18.3269 42.5101 18.9639C43.0258 19.3462 43.4125 19.9832 43.4125 20.6202C44.7017 20.6202 45.9908 20.4928 47.2799 19.9832C47.0221 19.3462 47.0221 18.5817 47.4089 17.9447C48.0534 17.0529 49.3426 16.7981 50.2449 17.4351C50.3739 17.5625 50.5028 17.6899 50.6317 17.8173C51.0184 17.4351 51.4052 16.9255 51.7919 16.4159C51.9208 15.9063 52.3076 15.3966 52.5654 14.887Z" stroke="#5091CD" stroke-width="1.25" stroke-miterlimit="10" stroke-linejoin="round"/>
            <path d="M43.4127 14.25C45.335 14.25 46.8933 12.7099 46.8933 10.8101C46.8933 8.91031 45.335 7.37021 43.4127 7.37021C41.4904 7.37021 39.932 8.91031 39.932 10.8101C39.932 12.7099 41.4904 14.25 43.4127 14.25Z" stroke="#5091CD" stroke-width="1.25" stroke-miterlimit="10" stroke-linejoin="round"/>
            <path d="M65.9725 24.9519L65.7147 24.8245C65.5858 24.9519 65.4569 25.0793 65.3279 25.2067C64.1677 26.226 62.4918 26.0986 61.4605 24.9519C60.816 24.3149 60.6871 23.2957 60.9449 22.5312C59.5268 22.149 57.9799 22.0216 56.4329 22.149H55.9173C56.0462 23.0409 55.6594 23.8053 55.0149 24.3149C53.8546 25.3341 52.1788 25.2067 51.1475 24.0601C51.0185 23.9327 51.0185 23.9327 50.8896 23.8053L46.6355 27.3726C46.5066 27.5 46.7644 27.2452 46.6355 27.5L46.7644 27.7548C47.7957 28.9014 47.6668 30.5577 46.5066 31.5769C45.9909 32.0865 45.3464 32.2139 44.5729 32.2139C44.1861 33.7428 44.0572 35.2716 44.315 36.8005C45.2174 36.6731 45.9909 37.0553 46.6355 37.6923C47.6668 38.8389 47.5379 40.4952 46.3777 41.5144C46.2487 41.6418 46.1198 41.6418 45.9909 41.7692C46.3777 42.5337 46.8933 43.1707 47.5379 43.9351C48.0535 44.5721 48.6981 45.2091 49.4716 45.7187C49.6005 45.5913 49.7294 45.4639 49.8583 45.3365C51.0185 44.3173 52.6944 44.4447 53.7257 45.5913C54.3703 46.2284 54.4992 47.2476 54.2414 48.012C55.6594 48.3942 57.2064 48.5216 58.7534 48.3942C58.7534 47.6298 59.1401 46.9928 59.6557 46.4832C60.816 45.4639 62.4918 45.5913 63.5232 46.738C63.6521 46.8654 63.6521 46.8654 63.6521 46.9928C64.6834 46.4832 65.5858 45.9736 66.4882 45.2091C67.1327 44.6995 67.6484 44.0625 68.164 43.4255C68.0351 43.2981 67.9062 43.1707 67.7773 43.0433C66.746 41.8966 66.8749 40.2404 68.0351 39.2211C68.8086 38.5841 69.711 38.4567 70.4845 38.7115C71.0001 37.0553 71.129 35.2716 70.8712 33.488C69.9688 33.6154 68.9375 33.3606 68.2929 32.5962C67.2616 31.4495 67.3906 29.7933 68.5508 28.774C68.6797 28.6466 68.9375 28.5192 69.0664 28.3918C68.6797 27.7548 68.164 26.9904 67.6484 26.3534C67.2616 26.0986 66.6171 25.4615 65.9725 24.9519Z" stroke="#5091CD" stroke-width="1.25" stroke-miterlimit="10" stroke-linejoin="round"/>
            <path d="M57.593 39.8582C60.0849 39.8582 62.105 37.8618 62.105 35.399C62.105 32.9363 60.0849 30.9399 57.593 30.9399C55.1011 30.9399 53.0811 32.9363 53.0811 35.399C53.0811 37.8618 55.1011 39.8582 57.593 39.8582Z" stroke="#5091CD" stroke-width="1.25" stroke-miterlimit="10" stroke-linejoin="round"/>
        </svg>
    </defs>
</svg>


        <!-- Checkbox -->
<svg xmlns="http://www.w3.org/2000/svg" xmlns:xlink="http://www.w3.org/1999/xlink" fill="none" width="0" height="0" style="position:absolute">
    <defs>
        <!-- TODO in stylesheet make sure disabled is defined by stroke and fill being #A2A3A3 while default remains brand icon color -->
        <svg id="checked" width="23" height="23" viewBox="0 0 23 23">
            <path d="M21.4 1H1V21.4H21.4V1Z" stroke-width="1.25" stroke-miterlimit="10"/>
            <path d="M4.3 10.3L10.4 15.6L18.3 5.20001" stroke="white" stroke-width="1.8996" stroke-miterlimit="10"/>
        </svg>

        <!-- previously 'Checked-Styled' -->
        <svg id="checked-outlined" width="24" height="23" viewBox="0 0 24 23">
            <path d="M4.4 7.79999L11.3 15.7L22.7 1.79999" stroke-width="1.25" stroke-miterlimit="10"/>
            <path d="M21.4 10.1V21.4H1V1H17.4" stroke-width="1.25" stroke-miterlimit="10"/>
        </svg>

        <svg id="partial-selection" width="23" height="23" viewBox="0 0 23 23">
            <path d="M21.4 1H1V21.4H21.4V1Z" stroke-width="1.25" stroke-miterlimit="10"/>
            <path d="M5 11H17.2" stroke="white" stroke-width="1.9"/>
        </svg>

        <!-- TODO in stylesheet make sure disabled is defined by stroke and fill being #A2A3A3 (or brand specified color) while default remains brand icon color -->
        <svg id="unchecked" width="23" height="23" viewBox="0 0 23 23">
            <path d="M21.4 1H1V21.4H21.4V1Z" stroke-width="1.25" stroke-miterlimit="10"/>
        </svg>
    </defs>
</svg>

<svg xmlns="http://www.w3.org/2000/svg" xmlns:xlink="http://www.w3.org/1999/xlink" width="0" height="0" style="position:absolute">
    <defs>
        <!-- Credit Memo -->

        <svg id="edit-merge-field-mapping" width="32" height="24" viewBox="0 0 32 24" stroke="#777777" fill="none">
            <path d="M23.2 1.89999L25.9 4.59999L10.5 20.1L6.19995 21.6L7.89995 17.1L23.2 1.89999Z" stroke-width="0.75" stroke-miterlimit="10"/>
            <path d="M21.5 3.69998L24.2 6.49998" stroke-width="0.75" stroke-miterlimit="10"/>
            <path d="M7.79993 17.2L10.4999 19.9" stroke-width="0.75" stroke-miterlimit="10"/>
        </svg>

        <svg id="refresh-template" width="23" height="22" fill="none" viewBox="0 0 23 22">
            <path d="M13.629 20.629C8.22897 22.129 2.72897 18.929 1.32897 13.629C-0.0710286 8.32897 3.12897 2.72897 8.42897 1.32897C13.729 -0.0710286 19.229 3.12897 20.629 8.42897C21.129 10.329 21.029 12.229 20.529 14.029" stroke-width="0.75" stroke-miterlimit="10" stroke="#777777"/>
            <path d="M20.529 14.029C20.229 15.029 19.729 15.929 19.129 16.829" stroke-width="0.75" stroke-miterlimit="10" stroke="#777777"/>
            <path d="M18.129 13.829L18.729 13.729L19.229 16.629L22.129 15.829L22.229 16.429L18.729 17.329L18.129 13.829Z" fill="#777777"/>
        </svg>

        <svg id="report-mapping-panel" stroke="#777777" fill="none" width="32" height="24" viewBox="0 0 32 24">
            <path d="M13.2 6.39999V21.5"  stroke-width="0.75" stroke-miterlimit="10"/>
            <path d="M25.7 2.29999H6.5V21.5H25.7V2.29999Z"  stroke-width="0.75" stroke-miterlimit="10"/>
            <path d="M6.5 6.19998H25.6"  stroke-width="0.75" stroke-miterlimit="10"/>
            <path d="M8.5 11.1H11.2"  stroke-width="0.75" stroke-miterlimit="10"/>
            <path d="M8.5 15.7H11.2"  stroke-width="0.75" stroke-miterlimit="10"/>
        </svg>

        <svg id="save-customer-specific-memo" stroke="#777777" fill="none" width="16" height="16" viewBox="0 0 16 16">
            <path d="M7.40002 14.2H18.2" stroke-width="0.75" stroke-miterlimit="10"/>
            <path d="M7.40002 17.1H18.2" stroke-width="0.75" stroke-miterlimit="10"/>
            <path d="M18.2 21.6H3V2.29999H7.9V8.79999H17.6V2.29999H19.6L22.6 5.19999V8.29999" stroke-width="0.75" stroke-miterlimit="10"/>
            <path d="M3 2.29999H19.6" stroke-width="0.75" stroke-miterlimit="10"/>
            <path d="M27 15.6C24.6 17.1 22.4 15.6 22.4 15.6C21.2 16.3 20.4 17.7 20.4 19.2V21.7H28.9V19.2C28.9 17.7 28.2 16.3 27 15.6Z" stroke-width="0.75" stroke-miterlimit="10"/>
            <path d="M24.7001 15C26.0808 15 27.2001 13.7911 27.2001 12.3C27.2001 10.8088 26.0808 9.59998 24.7001 9.59998C23.3194 9.59998 22.2001 10.8088 22.2001 12.3C22.2001 13.7911 23.3194 15 24.7001 15Z" stroke-width="0.75" stroke-miterlimit="10"/>
        </svg>

        <svg width="16" height="16" viewBox="0 0 16 16" id="cross"><path d="M15.854 12.854L11 8l4.854-4.854a.503.503 0 0 0 0-.707L13.561.146a.499.499 0 0 0-.707 0L8 5 3.146.146a.5.5 0 0 0-.707 0L.146 2.439a.499.499 0 0 0 0 .707L5 8 .146 12.854a.5.5 0 0 0 0 .707l2.293 2.293a.499.499 0 0 0 .707 0L8 11l4.854 4.854a.5.5 0 0 0 .707 0l2.293-2.293a.499.499 0 0 0 0-.707z"></path></svg>

        <svg width="16" height="16" viewBox="0 0 16 16" id="facebook"><path d="M10.5 3A2.5 2.5 0 0 0 8 5.5V7H6v2h2v7h2V9h2.25l.5-2H10V5.5a.5.5 0 0 1 .5-.5H13V3h-2.5z"></path></svg>

        <svg width="16" height="16" viewBox="0 0 16 16" id="gear"><title>gear</title><path d="M8.034 5.085a2.88 2.88 0 0 0 0 5.76c1.59 0 2.87-1.292 2.87-2.88 0-1.591-1.28-2.88-2.87-2.88zm5.772 4.534l-.518 1.25 1.047 2.058-1.283 1.284-2.106-.995-1.25.514-.635 1.942-.081.258H7.166l-.785-2.192-1.25-.516-2.06 1.043-1.283-1.282.993-2.107-.515-1.25L.07 8.91V7.097l2.194-.786.515-1.248-.923-1.821-.121-.24 1.28-1.28 2.109.993 1.248-.517.634-1.94L7.088 0H8.9l.785 2.195 1.247.516 2.063-1.045 1.283 1.28-.994 2.106.513 1.25 2.2.716V8.83l-2.193.789h.001z" mask="url(#mask-2)"></path></svg>

        <svg height="16" width="16" viewBox="0 0 32 32" id="google"><title>google-plus</title><path d="M10.181 14.294v3.494h5.775c-.231 1.5-1.744 4.394-5.775 4.394-3.475 0-6.313-2.881-6.313-6.431S6.706 9.32 10.181 9.32c1.981 0 3.3.844 4.056 1.569l2.762-2.662c-1.775-1.656-4.075-2.662-6.819-2.662C4.549 5.571-.001 10.121-.001 15.753s4.55 10.181 10.181 10.181c5.875 0 9.775-4.131 9.775-9.95a9.27 9.27 0 0 0-.163-1.688h-9.613zM32 14h-3v-3h-3v3h-3v3h3v3h3v-3h3z"></path></svg>

        <svg width="16" height="16" viewBox="0 0 16 16" id="link"><path d="M6.879 9.934a.81.81 0 0 1-.575-.238 3.818 3.818 0 0 1 0-5.392l3-3C10.024.584 10.982.187 12 .187s1.976.397 2.696 1.117a3.818 3.818 0 0 1 0 5.392l-1.371 1.371a.813.813 0 0 1-1.149-1.149l1.371-1.371A2.19 2.19 0 0 0 12 1.812c-.584 0-1.134.228-1.547.641l-3 3a2.19 2.19 0 0 0 0 3.094.813.813 0 0 1-.575 1.387z"></path><path d="M4 15.813a3.789 3.789 0 0 1-2.696-1.117 3.818 3.818 0 0 1 0-5.392l1.371-1.371a.813.813 0 0 1 1.149 1.149l-1.371 1.371A2.19 2.19 0 0 0 4 14.188c.585 0 1.134-.228 1.547-.641l3-3a2.19 2.19 0 0 0 0-3.094.813.813 0 0 1 1.149-1.149 3.818 3.818 0 0 1 0 5.392l-3 3A3.789 3.789 0 0 1 4 15.813z"></path></svg>

        <svg width="16" height="16" viewBox="0 0 16 16" id="linkedin2"><path d="M6 6h2.767v1.418h.04C9.192 6.727 10.134 6 11.539 6 14.46 6 15 7.818 15 10.183V15h-2.885v-4.27c0-1.018-.021-2.329-1.5-2.329-1.502 0-1.732 1.109-1.732 2.255V15H6V6zM1 6h3v9H1V6zM4 3.5a1.5 1.5 0 1 1-3.001-.001A1.5 1.5 0 0 1 4 3.5z"></path></svg>

        <svg id="list-countdown" width="16" height="16" viewBox="-6 8 16 16"><style>.st0{fill:#444}</style><path class="st0" d="M0 21h10v2H0v-2zm0-6h10v2H0v-2zm0-6h10v2H0V9zm-3 11v4h-1v-3h-1v-1h2zm-1-2.8v.8h2v1h-3v-2.3l2-.9V15h-2v-1h3v2.3l-2 .9zM-2 8v5h-3v-1h2v-1h-2v-1h2V9h-2V8h3z"></path></svg>

        <svg width="16" height="16" viewBox="0 0 16 16" id="list-numbered"><path d="M6 13h10v2H6zm0-6h10v2H6zm0-6h10v2H6zM3 0v4H2V1H1V0zM2 8.219V9h2v1H1V7.719l2-.938V6H1V5h3v2.281zM4 11v5H1v-1h2v-1H1v-1h2v-1H1v-1z"></path></svg>

        <svg width="16" height="16" viewBox="0 0 16 16" id="list2"><path d="M6 1h10v2H6V1zm0 6h10v2H6V7zm0 6h10v2H6v-2zM0 2a2 2 0 1 1 3.999-.001A2 2 0 0 1 0 2zm0 6a2 2 0 1 1 3.999-.001A2 2 0 0 1 0 8zm0 6a2 2 0 1 1 3.999-.001A2 2 0 0 1 0 14z"></path></svg>

        <svg width="16" height="16" viewBox="0 0 16 16" id="minus"><path d="M0 6.5v3a.5.5 0 0 0 .5.5h15a.5.5 0 0 0 .5-.5v-3a.5.5 0 0 0-.5-.5H.5a.5.5 0 0 0-.5.5z"></path></svg>

        <svg width="16" height="16" viewBox="0 0 16 16" id="plus"><path d="M15.5 6H10V.5a.5.5 0 0 0-.5-.5h-3a.5.5 0 0 0-.5.5V6H.5a.5.5 0 0 0-.5.5v3a.5.5 0 0 0 .5.5H6v5.5a.5.5 0 0 0 .5.5h3a.5.5 0 0 0 .5-.5V10h5.5a.5.5 0 0 0 .5-.5v-3a.5.5 0 0 0-.5-.5z"></path></svg>

        <svg width="16" height="16" viewBox="0 0 16 16" id="radio-checked"><path d="M8 0a8 8 0 1 0 0 16A8 8 0 0 0 8 0zm0 14A6 6 0 1 1 8 2a6 6 0 0 1 0 12zM5 8a3 3 0 1 1 6 0 3 3 0 0 1-6 0z"></path></svg>

        <svg width="16" height="16" viewBox="0 0 16 16" id="radio-checked2"><path d="M8 0a8 8 0 1 0 0 16A8 8 0 0 0 8 0zm0 10a2 2 0 1 1-.001-3.999A2 2 0 0 1 8 10z"></path></svg>

        <svg width="16" height="16" viewBox="0 0 16 16" id="radio-unchecked"><path d="M8 0a8 8 0 1 0 0 16A8 8 0 0 0 8 0zm0 14A6 6 0 1 1 8 2a6 6 0 0 1 0 12z"></path></svg>

        <svg width="15" height="16" viewBox="0 0 15 16" id="search"><path d="M15 13l-3.893-3.893A5.921 5.921 0 0 0 12 6c0-3.313-2.688-6-6-6S0 2.687 0 6a6 6 0 0 0 6 6c1.143 0 2.2-.337 3.107-.891L13 15a.715.715 0 0 0 1 0l1-1a.713.713 0 0 0 0-1zm-9-3a4 4 0 1 1 0-8 4 4 0 0 1 0 8z"></path></svg>

        <svg width="12" height="16" viewBox="0 0 12 16" id="triangle-down"><title>triangle-down</title><path fill="#444" d="M0 6l5.996 5.996L11.992 6H0z"></path></svg>

        <svg width="6" height="16" viewBox="0 0 6 16" id="triangle-left"><title>triangle-left</title><path fill="#444" d="M0 7.998l5.996 5.996V2.002L0 7.998z"></path></svg>

        <svg width="6" height="16" viewBox="0 0 6 16" id="triangle-right"><title>triangle-right</title><path fill="#444" d="M.001 2.004L5.997 8 .001 13.996V2.004z"></path></svg>

        <svg width="12" height="16" viewBox="0 0 12 16" id="triangle-up"><title>triangle-up</title><path fill="#444" d="M5.996 4L0 9.996h11.992L5.996 4z"></path></svg>

        <svg width="16" height="16" viewBox="0 0 16 16" id="twitter"><path d="M16 3.038a6.555 6.555 0 0 1-1.885.517 3.291 3.291 0 0 0 1.443-1.816 6.594 6.594 0 0 1-2.085.797 3.283 3.283 0 0 0-5.594 2.993 9.32 9.32 0 0 1-6.766-3.43 3.263 3.263 0 0 0-.444 1.65c0 1.139.579 2.144 1.46 2.732A3.27 3.27 0 0 1 .642 6.07v.041A3.286 3.286 0 0 0 3.275 9.33a3.283 3.283 0 0 1-1.483.056 3.287 3.287 0 0 0 3.066 2.28 6.588 6.588 0 0 1-4.86 1.359A9.295 9.295 0 0 0 5.03 14.5c6.038 0 9.34-5.002 9.34-9.34a8.58 8.58 0 0 0-.01-.425 6.665 6.665 0 0 0 1.638-1.699z"></path></svg>

  </defs>
</svg>
