<svg width="48" height="49" viewBox="0 0 48 49" fill="none" xmlns="http://www.w3.org/2000/svg">
<path d="M44.7 33.6C43.5 33.6 42.4 34.3 41.8 35.3L35.5 31.7C35.8 31.4 36 31 36 30.6V26.9V26.6V26.3V22.7V19.7V19V18.7L42.1 15.2C42.7 15.9 43.6 16.4 44.6 16.4C46.4 16.4 47.9 14.9 47.9 13.1C47.9 11.3 46.4 9.8 44.6 9.8C42.8 9.8 41.3 11.3 41.3 13.1C41.3 13.6 41.4 14.1 41.7 14.6L35.8 18C34.8 16 29.4 14.9 24.2 14.8V6.6C25.8 6.4 27.1 5 27.1 3.3C27.1 1.5 25.6 0 23.8 0C22 0 20.5 1.5 20.5 3.3C20.5 5 21.8 6.4 23.5 6.6V14.8C18.3 14.8 13 15.9 11.9 17.9L6.4 14.7C6.5 14.5 6.6 14.3 6.7 14.1C7.1 12.4 6.2 10.5 4.5 10C4.1 9.9 3.8 9.8 3.4 9.8C2 9.8 0.7 10.7 0.2 12.1C-0.4 13.8 0.6 15.7 2.3 16.3C2.6 16.4 3 16.5 3.3 16.5C4.2 16.5 5.1 16.1 5.7 15.4L11.5 18.7V30.6C11.5 31 11.7 31.4 12 31.7L6.1 35.1C5.5 34.2 4.5 33.6 3.3 33.6C1.5 33.6 -1.49011e-09 35.1 -1.49011e-09 36.9C-1.49011e-09 38.7 1.5 40.2 3.3 40.2C5.1 40.2 6.6 38.7 6.6 36.9C6.6 36.5 6.5 36.1 6.4 35.8L12.6 32.2C14.6 33.5 19 34.2 23.3 34.2V41.8C21.6 42 20.4 43.4 20.4 45.1C20.4 46.9 21.9 48.4 23.7 48.4C25.5 48.4 27 46.9 27 45.1C27 43.4 25.7 42 24 41.8V34.2C28.3 34.2 32.7 33.5 34.7 32.1L41.3 35.9C41.2 36.2 41.2 36.5 41.2 36.8C41.2 38.6 42.7 40.1 44.5 40.1C46.3 40.1 47.8 38.6 47.8 36.8C48 35.1 46.5 33.6 44.7 33.6ZM44.7 10.5C46.1 10.5 47.3 11.7 47.3 13.1C47.3 14.5 46.1 15.7 44.7 15.7C43.3 15.7 42.1 14.6 42.1 13.1C42.1 11.6 43.3 10.5 44.7 10.5ZM5.9 13.9C5.5 15 4.5 15.7 3.5 15.7C3.2 15.7 3 15.7 2.7 15.6C1.3 15.2 0.6 13.7 1.1 12.3C1.5 11.2 2.5 10.5 3.5 10.5C3.8 10.5 4 10.5 4.3 10.6C5.6 11.1 6.3 12.6 5.9 13.9ZM3.4 39.5C2 39.5 0.8 38.3 0.8 36.9C0.8 35.5 2 34.3 3.4 34.3C4.8 34.3 6 35.5 6 36.9C6 38.3 4.8 39.5 3.4 39.5ZM21.2 3.3C21.2 1.9 22.4 0.7 23.8 0.7C25.2 0.7 26.4 1.9 26.4 3.3C26.4 4.7 25.2 5.9 23.8 5.9C22.4 5.9 21.2 4.7 21.2 3.3ZM23.8 15.6C30.6 15.6 35.3 17.3 35.3 18.8C35.3 20.3 30.6 22 23.8 22C17 22 12.3 20.3 12.3 18.8C12.3 17.3 17 15.6 23.8 15.6ZM23.8 22.7C28.5 22.7 33.4 21.8 35.3 20.2V22.8C35.3 24.2 30.6 25.7 23.8 25.7C17.2 25.7 12.5 24.2 12.4 22.9V20.2C14.2 21.8 19.1 22.7 23.8 22.7ZM12.3 24.1C14.1 25.6 19.1 26.4 23.8 26.4C28.5 26.4 33.4 25.6 35.3 24.1V26.4V26.7C35.3 28.2 30.6 29.9 23.8 29.9C17 29.9 12.3 28.2 12.3 26.7V24.1ZM12.3 28C14.1 29.6 19.1 30.5 23.8 30.5C28.5 30.5 33.4 29.6 35.3 28V30.6C35.3 32 30.6 33.5 23.8 33.5C17 33.5 12.3 32 12.3 30.6V28ZM26.4 45.1C26.4 46.5 25.2 47.7 23.8 47.7C22.4 47.7 21.2 46.5 21.2 45.1C21.2 43.7 22.4 42.5 23.8 42.5C25.2 42.5 26.4 43.7 26.4 45.1ZM44.7 39.5C43.3 39.5 42.1 38.3 42.1 36.9C42.1 35.5 43.3 34.3 44.7 34.3C46.1 34.3 47.3 35.5 47.3 36.9C47.3 38.3 46.1 39.5 44.7 39.5Z" fill="#5091CD"/>
</svg>
