<svg width="58" height="34" viewBox="0 0 58 34" fill="none" xmlns="http://www.w3.org/2000/svg">
<path d="M46.4756 16.2C49.5132 16.2 51.9756 13.7376 51.9756 10.7C51.9756 7.66245 49.5132 5.20001 46.4756 5.20001C43.438 5.20001 40.9756 7.66245 40.9756 10.7C40.9756 13.7376 43.438 16.2 46.4756 16.2Z" stroke="#5091CD" stroke-width="0.75" stroke-miterlimit="10"/>
<path d="M44.2756 30.9C49.6756 31.1 55.8756 30.6 57.1756 29.3C57.1756 29.3 59.0756 19.5 50.3756 18.2C50.0756 18.2 49.7756 18.1 49.4756 18.1C48.5756 18.5 47.6756 18.8 46.5756 18.8C45.5756 18.8 44.5756 18.6 43.6756 18.2C43.3756 18.2 43.1756 18.3 42.8756 18.3C42.2756 18.4 41.7756 18.5 41.3756 18.6" stroke="#5091CD" stroke-width="0.75" stroke-miterlimit="10"/>
<path d="M11.6756 16.2C14.7132 16.2 17.1756 13.7376 17.1756 10.7C17.1756 7.66245 14.7132 5.20001 11.6756 5.20001C8.63803 5.20001 6.1756 7.66245 6.1756 10.7C6.1756 13.7376 8.63803 16.2 11.6756 16.2Z" stroke="#5091CD" stroke-width="0.75" stroke-miterlimit="10"/>
<path d="M17.0756 18.6C16.5756 18.4 16.0756 18.3 15.4756 18.2C15.1756 18.2 14.8756 18.1 14.5756 18.1C13.6756 18.5 12.7756 18.8 11.6756 18.8C10.6756 18.8 9.67559 18.6 8.77559 18.2C8.47559 18.2 8.27559 18.3 7.97559 18.3C-0.724409 19.6 1.17559 29.4 1.17559 29.4C2.37559 30.6 8.47559 31.2 13.8756 31" stroke="#5091CD" stroke-width="0.75" stroke-miterlimit="10"/>
<path d="M29.1756 14.8C32.9863 14.8 36.0756 11.7108 36.0756 7.9C36.0756 4.08924 32.9863 1 29.1756 1C25.3648 1 22.2756 4.08924 22.2756 7.9C22.2756 11.7108 25.3648 14.8 29.1756 14.8Z" stroke="#5091CD" stroke-width="0.75" stroke-miterlimit="10"/>
<path d="M33.8756 17.3C33.4756 17.2 33.0756 17.2 32.6756 17.1C31.5756 17.6 30.3756 17.9 29.0756 17.9C27.7756 17.9 26.5756 17.6 25.4756 17.1C25.1756 17.1 24.7756 17.2 24.4756 17.2C13.5756 18.8 15.9756 31.1 15.9756 31.1C18.6756 33.8 39.6756 33.8 42.4756 31.1C42.4756 31.2 44.8756 18.9 33.8756 17.3Z" stroke="#5091CD" stroke-width="0.75" stroke-miterlimit="10"/>
</svg>
