<svg width="54" height="38" viewBox="0 0 54 38" fill="none" xmlns="http://www.w3.org/2000/svg">
<path d="M7.1 37.1H1V1H53.2V37.1H7.1Z" stroke="#5091CD" stroke-width="0.75" stroke-miterlimit="10"/>
<path d="M1.29999 4.70001H53.5" stroke="#5091CD" stroke-width="0.75" stroke-miterlimit="10"/>
<path d="M34.1 20.8H47" stroke="#5091CD" stroke-width="0.75" stroke-miterlimit="10"/>
<path d="M34.1 15.5H47" stroke="#5091CD" stroke-width="0.75" stroke-miterlimit="10"/>
<path d="M34.1 26H47" stroke="#5091CD" stroke-width="0.75" stroke-miterlimit="10"/>
<path d="M18.4 24.3C21.3823 24.3 23.8 21.8823 23.8 18.9C23.8 15.9177 21.3823 13.5 18.4 13.5C15.4177 13.5 13 15.9177 13 18.9C13 21.8823 15.4177 24.3 18.4 24.3Z" stroke="#5091CD" stroke-width="0.75" stroke-miterlimit="10"/>
<path d="M28.8 37.1C28.8 37.1 30.7 27.5 22.1 26.2C21.8 26.2 21.5 26.1 21.2 26.1C20.3 26.5 19.4 26.7 18.4 26.7C17.4 26.7 16.5 26.5 15.6 26.1C15.3 26.1 15.1 26.2 14.8 26.2C6.2 27.5 8.1 37.1 8.1 37.1" stroke="#5091CD" stroke-width="0.75" stroke-miterlimit="10"/>
</svg>
