<svg width="57" height="46" viewBox="0 0 57 46" fill="none" xmlns="http://www.w3.org/2000/svg">
<path d="M34.7935 31.8C40.6478 31.8 45.3935 27.0542 45.3935 21.2C45.3935 15.3458 40.6478 10.6 34.7935 10.6C28.9393 10.6 24.1935 15.3458 24.1935 21.2C24.1935 27.0542 28.9393 31.8 34.7935 31.8Z" stroke="#5091CD" stroke-width="0.75" stroke-miterlimit="10"/>
<path d="M24.7936 23.2L8.39355 25.9" stroke="#5091CD" stroke-width="0.75" stroke-miterlimit="10"/>
<path d="M8.61219 26.556C8.75877 25.2943 7.85476 24.1526 6.59302 24.006C5.33127 23.8594 4.1896 24.7634 4.04301 26.0252C3.89642 27.2869 4.80043 28.4286 6.06218 28.5752C7.32392 28.7218 8.4656 27.8177 8.61219 26.556Z" stroke="#5091CD" stroke-width="0.75" stroke-miterlimit="10"/>
<path d="M44.5936 17.5L50.6936 13.6" stroke="#5091CD" stroke-width="0.75" stroke-miterlimit="10"/>
<path d="M28.2936 12.6L24.3936 6.20001" stroke="#5091CD" stroke-width="0.75" stroke-miterlimit="10"/>
<path d="M25.7936 26.3L6.39355 39.3" stroke="#5091CD" stroke-width="0.75" stroke-miterlimit="10"/>
<path d="M12.1935 5L25.6935 15.7" stroke="#5091CD" stroke-width="0.75" stroke-miterlimit="10"/>
<path d="M53.708 13.3244C54.0229 12.3815 53.5138 11.3618 52.5709 11.0469C51.628 10.732 50.6083 11.241 50.2934 12.184C49.9784 13.1269 50.4875 14.1466 51.4304 14.4615C52.3734 14.7764 53.393 14.2674 53.708 13.3244Z" stroke="#5091CD" stroke-width="0.75" stroke-miterlimit="10"/>
<path d="M10.3936 5.6C11.6638 5.6 12.6936 4.57025 12.6936 3.3C12.6936 2.02974 11.6638 1 10.3936 1C9.12331 1 8.09357 2.02974 8.09357 3.3C8.09357 4.57025 9.12331 5.6 10.3936 5.6Z" stroke="#5091CD" stroke-width="0.75" stroke-miterlimit="10"/>
<path d="M23.4935 6.30001C24.7638 6.30001 25.7935 5.27027 25.7935 4.00001C25.7935 2.72976 24.7638 1.70001 23.4935 1.70001C22.2233 1.70001 21.1935 2.72976 21.1935 4.00001C21.1935 5.27027 22.2233 6.30001 23.4935 6.30001Z" stroke="#5091CD" stroke-width="0.75" stroke-miterlimit="10"/>
<path d="M5.87395 43.483C7.12979 42.4889 7.34194 40.665 6.34781 39.4091C5.35368 38.1533 3.52972 37.9411 2.27389 38.9353C1.01806 39.9294 0.805901 41.7533 1.80003 43.0092C2.79416 44.265 4.61812 44.4772 5.87395 43.483Z" stroke="#5091CD" stroke-width="0.75" stroke-miterlimit="10"/>
<path d="M41.9935 29L51.5935 38.4" stroke="#5091CD" stroke-width="0.75" stroke-miterlimit="10"/>
<path d="M53.5935 43.3C55.1952 43.3 56.4935 42.0016 56.4935 40.4C56.4935 38.7984 55.1952 37.5 53.5935 37.5C51.9919 37.5 50.6935 38.7984 50.6935 40.4C50.6935 42.0016 51.9919 43.3 53.5935 43.3Z" stroke="#5091CD" stroke-width="0.75" stroke-miterlimit="10"/>
<path d="M30.1936 18.3V16.6C30.1936 16.3 30.3936 16.1 30.5936 16.1C30.7936 16.1 30.9936 16.3 30.9936 16.6V18.9H32.5936V16.8C32.5936 15.7 31.6936 14.8 30.5936 14.8C29.4936 14.8 28.5936 15.7 28.5936 16.8V18.4C28.5936 19.5 30.9936 21.6 30.9936 22.8V25.9C30.9936 26.2 30.7936 26.4 30.5936 26.4C30.3936 26.4 30.1936 26.2 30.1936 25.9V22.7H28.5936V25.8C28.5936 26.9 29.4936 27.8 30.5936 27.8C31.6936 27.8 32.5936 26.9 32.5936 25.8V22.7C32.6936 21.3 30.1936 19.4 30.1936 18.3Z" fill="#5091CD"/>
<path d="M37.3935 21.4L36.4935 27.8H34.8935L33.6935 14.8H35.2935L35.8935 21.4L36.5935 14.8H38.1935L38.7935 21.4L39.3935 14.8H41.0935L39.7935 27.8H38.1935L37.3935 21.4Z" fill="#5091CD"/>
</svg>
