<svg width="10" height="11" fill="none" xmlns="http://www.w3.org/2000/svg"><path d="M.3 1.2C.5.8.8.5 1.1.3c.3-.2.8-.3 1.3-.3s.9.1 1.3.3c.4.2.7.5.9.9.2.4.2.8.2 1.3s-.1.9-.3 1.3c-.2.4-.5.6-.8.8-.4.2-.8.4-1.3.4s-.9-.2-1.3-.4c-.3-.2-.6-.5-.8-.8C.1 3.5 0 3 0 2.5s.1-.9.3-1.3zm3.2.2c-.3-.3-.6-.5-1.1-.5-.4 0-.8.2-1.1.5-.3.3-.4.6-.4 1.1 0 .4.1.8.4 1.1.3.3.7.4 1.1.4.4 0 .8-.1 1.1-.4.3-.3.4-.7.4-1.1 0-.5-.1-.8-.4-1.1zM7.8.2h.8l-6.4 10h-.7L7.8.2zM5.5 6.6c.2-.3.5-.6.9-.9.4-.2.8-.3 1.2-.3.4 0 .9.1 1.3.3.3.3.6.6.8.9.2.3.3.8.3 1.3s-.1.9-.3 1.3c-.2.4-.5.6-.8.8-.4.2-.8.3-1.3.3s-.9 0-1.2-.3c-.4-.2-.7-.5-.9-.8-.2-.4-.3-.8-.3-1.3s.1-.9.3-1.3zm3.2.2c-.3-.3-.6-.4-1.1-.4-.5 0-.8.1-1.1.4-.3.3-.4.7-.4 1.1 0 .4.1.8.4 1.1.3.3.6.4 1.1.4.5 0 .8-.1 1.1-.4.3-.3.5-.7.5-1.1 0-.4-.2-.8-.5-1.1z" fill="#999"/></svg>