<svg width="18" height="18" fill="none" xmlns="http://www.w3.org/2000/svg"><path d="M8.9 0C4 0 0 4 0 8.9s4 8.9 8.9 8.9 8.9-4 8.9-8.9S13.8 0 8.9 0zm0 16.5c-4.2 0-7.6-3.4-7.6-7.6 0-4.2 3.4-7.6 7.6-7.6 4.2 0 7.6 3.4 7.6 7.6 0 4.2-3.4 7.6-7.6 7.6z" fill="#5091CD"/><path d="M8.9 11.5c-.5 0-.9.4-.9.9s.4.9.9.9.9-.4.9-.9-.4-.9-.9-.9zm.1-7c-1.1 0-2.1.5-2.8 1.3l.9 1c.4-.5 1-.9 1.8-.9s1.2.4 1.2.9C10.1 7.9 8 8 8 9.6c0 .4.2.8.5 1.1l1.1-.4c-.2-.1-.3-.4-.3-.6 0-1.1 2.3-1.3 2.3-3.2 0-1.1-1-2-2.6-2z" fill="#5091CD"/></svg>