<svg width="47" height="49" fill="none" xmlns="http://www.w3.org/2000/svg"><path d="M8.789 41.7c-8.2-7.1-10.3-19.3-4.5-29 5.6-9.2 16.7-13 26.5-9.8" stroke="#5091CD" stroke-width=".75" stroke-miterlimit="10"/><path d="M28.089 4.7l-.3-.5 2.7-1.3-1.5-2.6.5-.3 1.8 3.1-3.2 1.6z" fill="#5091CD"/><path d="M38.589 7.4c8.2 7.1 10.4 19.4 4.5 29-5.9 9.7-17.9 13.5-28.1 9.3" stroke="#5091CD" stroke-width=".75" stroke-miterlimit="10"/><path d="M17.789 44l.2.6-2.7 1.1 1.3 2.7-.6.2-1.5-3.2 3.3-1.4z" fill="#5091CD"/><path d="M36.789 21.9l-.1-.3c-.2.1-.4.1-.6.1-1.5 0-2.7-1.2-2.7-2.7 0-.9.5-1.7 1.2-2.2-.9-1.3-1.9-2.4-3.2-3.3l-.4-.3c-.5.7-1.2 1.1-2.2 1.1-1.5 0-2.7-1.2-2.7-2.7v-.3H20.389v.3c0 1.5-1.2 2.7-2.7 2.7-.7 0-1.4-.3-1.8-.7-1.3.9-2.4 2.1-3.3 3.4.7.5 1.2 1.3 1.2 2.2 0 1.5-1.2 2.7-2.7 2.7h-.5c-.2.8-.3 1.7-.3 2.6 0 .9.1 1.8.3 2.6h.5c1.5 0 2.7 1.2 2.7 2.7 0 .9-.5 1.7-1.2 2.2.9 1.3 1.9 2.4 3.2 3.3.5-.5 1.2-.8 1.9-.8 1.5 0 2.7 1.2 2.7 2.7v.3c1.1.3 2.2.4 3.3.4.9 0 1.7-.1 2.5-.2v-.5c0-1.5 1.2-2.7 2.7-2.7.9 0 1.8.5 2.3 1.2 1.5-1 2.7-2.2 3.7-3.7-.8-.5-1.4-1.3-1.4-2.3 0-1.5 1.2-2.7 2.7-2.7.2 0 .5 0 .7.1.1-.8.2-1.6.2-2.4 0-1.1-.1-2-.3-2.8z" stroke="#5091CD" stroke-width=".75" stroke-miterlimit="10" stroke-linejoin="round"/><path d="M23.689 29a4.4 4.4 0 1 0 0-8.8 4.4 4.4 0 0 0 0 8.8z" stroke="#5091CD" stroke-width=".75" stroke-miterlimit="10" stroke-linejoin="round"/></svg>