<svg width="48" height="49" fill="none" xmlns="http://www.w3.org/2000/svg"><path d="M44.7 33.6c-1.2 0-2.3.7-2.9 1.7l-6.3-3.6c.3-.3.5-.7.5-1.1V18.7l6.1-3.5c.6.7 1.5 1.2 2.5 1.2 1.8 0 3.3-1.5 3.3-3.3 0-1.8-1.5-3.3-3.3-3.3-1.8 0-3.3 1.5-3.3 3.3 0 .5.1 1 .4 1.5L35.8 18c-1-2-6.4-3.1-11.6-3.2V6.6c1.6-.2 2.9-1.6 2.9-3.3 0-1.8-1.5-3.3-3.3-3.3-1.8 0-3.3 1.5-3.3 3.3 0 1.7 1.3 3.1 3 3.3v8.2c-5.2 0-10.5 1.1-11.6 3.1l-5.5-3.2.3-.6c.4-1.7-.5-3.6-2.2-4.1-.4-.1-.7-.2-1.1-.2-1.4 0-2.7.9-3.2 2.3-.6 1.7.4 3.6 2.1 4.2.3.1.7.2 1 .2.9 0 1.8-.4 2.4-1.1l5.8 3.3v11.9c0 .4.2.8.5 1.1l-5.9 3.4c-.6-.9-1.6-1.5-2.8-1.5-1.8 0-3.3 1.5-3.3 3.3 0 1.8 1.5 3.3 3.3 3.3 1.8 0 3.3-1.5 3.3-3.3 0-.4-.1-.8-.2-1.1l6.2-3.6c2 1.3 6.4 2 10.7 2v7.6c-1.7.2-2.9 1.6-2.9 3.3 0 1.8 1.5 3.3 3.3 3.3 1.8 0 3.3-1.5 3.3-3.3 0-1.7-1.3-3.1-3-3.3v-7.6c4.3 0 8.7-.7 10.7-2.1l6.6 3.8c-.1.3-.1.6-.1.9 0 1.8 1.5 3.3 3.3 3.3 1.8 0 3.3-1.5 3.3-3.3.2-1.7-1.3-3.2-3.1-3.2zm0-23.1c1.4 0 2.6 1.2 2.6 2.6 0 1.4-1.2 2.6-2.6 2.6-1.4 0-2.6-1.1-2.6-2.6s1.2-2.6 2.6-2.6zM5.9 13.9c-.4 1.1-1.4 1.8-2.4 1.8-.3 0-.5 0-.8-.1-1.4-.4-2.1-1.9-1.6-3.3.4-1.1 1.4-1.8 2.4-1.8.3 0 .5 0 .8.1 1.3.5 2 2 1.6 3.3zM3.4 39.5C2 39.5.8 38.3.8 36.9c0-1.4 1.2-2.6 2.6-2.6 1.4 0 2.6 1.2 2.6 2.6 0 1.4-1.2 2.6-2.6 2.6zM21.2 3.3c0-1.4 1.2-2.6 2.6-2.6 1.4 0 2.6 1.2 2.6 2.6 0 1.4-1.2 2.6-2.6 2.6-1.4 0-2.6-1.2-2.6-2.6zm2.6 12.3c6.8 0 11.5 1.7 11.5 3.2 0 1.5-4.7 3.2-11.5 3.2s-11.5-1.7-11.5-3.2c0-1.5 4.7-3.2 11.5-3.2zm0 7.1c4.7 0 9.6-.9 11.5-2.5v2.6c0 1.4-4.7 2.9-11.5 2.9-6.6 0-11.3-1.5-11.4-2.8v-2.7c1.8 1.6 6.7 2.5 11.4 2.5zm-11.5 1.4c1.8 1.5 6.8 2.3 11.5 2.3s9.6-.8 11.5-2.3V26.7c0 1.5-4.7 3.2-11.5 3.2s-11.5-1.7-11.5-3.2v-2.6zm0 3.9c1.8 1.6 6.8 2.5 11.5 2.5s9.6-.9 11.5-2.5v2.6c0 1.4-4.7 2.9-11.5 2.9S12.3 32 12.3 30.6V28zm14.1 17.1c0 1.4-1.2 2.6-2.6 2.6-1.4 0-2.6-1.2-2.6-2.6 0-1.4 1.2-2.6 2.6-2.6 1.4 0 2.6 1.2 2.6 2.6zm18.3-5.6c-1.4 0-2.6-1.2-2.6-2.6 0-1.4 1.2-2.6 2.6-2.6 1.4 0 2.6 1.2 2.6 2.6 0 1.4-1.2 2.6-2.6 2.6z" fill="#5091CD"/></svg>