<svg width="22" height="23" fill="none" xmlns="http://www.w3.org/2000/svg"><path d="M11 22c5.523 0 10-4.477 10-10S16.523 2 11 2 1 6.477 1 12s4.477 10 10 10z" stroke="#fff" stroke-width=".9" stroke-miterlimit="10"/><path d="M11 15.213c-.618 0-1.112.495-1.112 1.113s.494 1.112 1.112 1.112c.618 0 1.112-.494 1.112-1.112 0-.618-.494-1.113-1.112-1.113zm.123-8.651c-1.359 0-2.595.618-3.46 1.607l1.112 1.236C9.27 8.787 10.011 8.292 11 8.292c.989 0 1.483.495 1.483 1.113 0 1.359-2.595 1.483-2.595 3.46 0 .495.247.989.617 1.36l1.36-.495c-.247-.123-.37-.494-.37-.741 0-1.36 2.842-1.607 2.842-3.955 0-1.36-1.236-2.472-3.213-2.472z" fill="#fff"/></svg>