<svg width="32" height="24" viewBox="0 0 32 24" fill="none" xmlns="http://www.w3.org/2000/svg">
<path d="M25.7749 13.3396C26.4134 7.85373 22.4838 2.88901 16.9979 2.25057C11.5121 1.61213 6.54737 5.54173 5.90893 11.0276C5.27049 16.5134 9.20009 21.4781 14.6859 22.1166C20.1718 22.755 25.1365 18.8254 25.7749 13.3396Z" stroke="#777777" stroke-width="0.75" stroke-miterlimit="10"/>
<path d="M18.3 15.1C18.1 15.4 17.9 15.7 17.5 15.9C17.1 16.1 16.6 16.2 16 16.3V17.3H15.5V16.3C14.9 16.3 14.4 16.2 14 15.9C13.5 15.7 13.2 15.4 12.9 15L13.3 14.5C13.6 14.8 13.9 15.1 14.3 15.3C14.7 15.5 15.1 15.6 15.6 15.7V12.3C15.1 12.2 14.7 12 14.3 11.9C14 11.8 13.7 11.5 13.5 11.3C13.2 11 13 10.6 13 10.2C13 9.8 13.1 9.4 13.3 9.1C13.5 8.8 13.8 8.5 14.2 8.4C14.6 8.3 15 8.1 15.4 8.1V7H16V8.1C17 8.2 17.7 8.5 18.3 9.1L17.8 9.6C17.3 9 16.7 8.7 15.9 8.6V11.8C16.4 11.9 16.8 12.1 17.2 12.2C17.5 12.4 17.8 12.6 18.1 12.9C18.4 13.2 18.4 13.6 18.4 14C18.5 14.5 18.4 14.8 18.3 15.1ZM14.2 11.2C14.5 11.4 14.9 11.6 15.5 11.8V8.7C15 8.7 14.6 8.9 14.3 9.2C14 9.5 13.8 9.9 13.8 10.3C13.8 10.6 13.9 10.9 14.2 11.2ZM17.4 15.2C17.7 14.9 17.8 14.5 17.8 14.1C17.8 13.6 17.6 13.3 17.3 13.1C17 12.9 16.5 12.7 16 12.5V15.7C16.7 15.7 17.1 15.5 17.4 15.2Z" fill="#777777" stroke="#777777" stroke-width="0.1299" stroke-miterlimit="10"/>
</svg>
