<svg width="27" height="17" viewBox="0 0 27 17" fill="none" xmlns="http://www.w3.org/2000/svg">
<path d="M3.6 12.7C3.9 12.5 4.2 12.3 4.6 12.1L4.7 12C5.1 11.8 5.4 11.6 5.8 11.4C5.8 11.4 5.9 11.4 5.9 11.3C6.3 11.1 6.8 10.9 7.3 10.7C8.1 9.20001 8.7 7.80001 9.1 6.50001C9.2 6.10001 9.4 5.70001 9.5 5.30001C9.3 5.10001 9.2 4.60001 9 4.20001C9 4.10001 8.9 4.00001 8.9 3.90001C8.8 3.50001 8.7 3.00001 8.6 2.60001C8.5 2.10001 8.5 1.70001 8.5 1.30001V1.20001C8.5 0.800006 8.5 0.400006 8.6 0.100006H0V16.1H1.4C1.4 15.9 1.4 15.7 1.4 15.4C1.5 14.7 1.9 14.1 2.7 13.4C3 13.2 3.2 13 3.6 12.7C3.5 12.8 3.6 12.7 3.6 12.7Z" fill="#5091CD"/>
<path d="M11.8 0.100006C11.9 1.70001 11.4 3.80001 11.1 5.00001C11.1 5.00001 11.1 5.00001 11.1 5.10001C11.1 5.20001 11 5.40001 11 5.50001C11.1 5.80001 11.3 6.10001 11.5 6.40001C12 7.30001 12.8 8.30001 13.8 9.10001C15.3 8.80001 16.6 8.70001 17.7 8.70001C18.5 8.70001 19.2 8.80001 19.7 8.90001C20 9.00001 20.2 9.10001 20.4 9.20001C20.5 9.30001 20.6 9.30001 20.7 9.40001C20.8 9.50001 20.8 9.50001 20.9 9.60001C21.1 9.90001 21.3 10.4 21 11.1C21 11.2 20.9 11.3 20.8 11.3C20.7 11.4 20.6 11.4 20.5 11.4C20.1 11.5 19.6 11.6 19.2 11.7C18.8 11.8 18.4 11.8 18 11.8C16.4 11.8 14.8 11.3 13.5 10.4C11.8 10.7 10.1 11.2 8.5 11.8C8.2 12.2 8 12.7 7.7 13C7.6 13.1 7.5 13.2 7.5 13.3C7.3 13.6 7.1 13.8 6.9 14.1C6.8 14.2 6.7 14.3 6.6 14.4C6.4 14.6 6.2 14.9 5.9 15.1C5.8 15.2 5.8 15.2 5.7 15.3C5.4 15.6 5.1 15.8 4.8 16H26.6V0.100006H11.8Z" fill="#5091CD"/>
<path d="M9.99999 0.1C9.89999 0.4 9.89999 0.8 9.89999 1.2V1.3C9.89999 1.5 9.89999 1.7 9.89999 1.9C9.89999 2 9.89999 2 9.89999 2.1C9.89999 2.3 9.99999 2.6 9.99999 2.8C9.99999 2.5 10.1 2.3 10.1 2C10.1 1.9 10.1 1.9 10.1 1.8C10.1 1.6 10.1 1.4 10.2 1.2V1.1C10.2 0.7 10.2 0.3 10.2 -1.49012e-09" fill="#5091CD"/>
<path d="M17.9 10.6C18 10.6 18.2 10.6 18.3 10.6C18.6 10.6 18.9 10.5 19.2 10.5C19.3 10.5 19.5 10.5 19.6 10.4V10.3C19.5 10.2 19.1 9.99999 18.1 9.89999C18 9.89999 17.8 9.89999 17.6 9.89999C17 9.89999 16.2 9.99999 15.4 10.1C16.2 10.4 17.1 10.6 17.9 10.6Z" fill="#5091CD"/>
<path d="M6.2 12.8C6 12.9 5.8 13 5.6 13.1C4.8 13.5 4.1 14 3.6 14.5C3.4 14.7 3.2 15 3.1 15.2C3 15.3 3 15.4 3 15.6C3.3 15.5 3.6 15.4 3.8 15.2C4.5 14.7 5.4 13.9 6.2 12.8Z" fill="#5091CD"/>
<path d="M10.4 7.3C10.1 8.2 9.7 9.2 9.2 10.2C10.1 9.9 11.1 9.6 12 9.4C11.4 8.8 10.9 8 10.4 7.3Z" fill="#5091CD"/>
</svg>
