<svg width="15" height="15" viewBox="0 0 15 15" fill="none" xmlns="http://www.w3.org/2000/svg">
<path d="M7.9 2.75C5.3 5.35 2.7 7.95 0.1 10.55C0 10.65 0 10.75 0 10.85C0 12.05 0 13.25 0 14.55C0 14.65 0 14.65 0 14.75H0.1C1.4 14.75 2.7 14.75 3.9 14.75C4 14.75 4.1 14.75 4.1 14.65C6.7 12.05 9.3 9.45 11.9 6.85L12 6.75C10.7 5.35 9.4 3.95 7.9 2.75C8 2.65 8 2.65 7.9 2.75ZM3.6 13.35H3.5C3.2 13.35 2.9 13.35 2.5 13.35C2.5 12.95 2.5 12.55 2.5 12.15C2.1 12.15 1.7 12.15 1.3 12.15C1.3 11.85 1.3 11.45 1.3 11.15V11.05C1.6 10.75 1.8 10.55 2.1 10.25C2.9 11.05 3.6 11.75 4.4 12.55C4.1 12.85 3.8 13.15 3.6 13.35ZM8.1 4.35C8.3 4.15 8.4 4.15 8.5 4.25C8.6 4.35 8.6 4.45 8.4 4.65C7.5 5.65 6.6 6.55 5.6 7.45C4.9 8.25 4.1 9.05 3.3 9.75C3.3 9.85 3.2 9.95 3.1 9.95C2.9 9.95 2.8 9.75 2.9 9.65C2.9 9.55 3 9.55 3 9.45C4.7 7.75 6.4 6.15 8.1 4.35C8.1 4.45 8.1 4.45 8.1 4.35Z" fill="#5091CD"/>
<path d="M14.4 2.75C14.1 2.45 13.8 2.15 13.6 1.85C13.1 1.35 12.6 0.95 12.2 0.45C11.6 -0.15 10.8 -0.15 10.3 0.45C9.7 0.95 9.3 1.45 8.8 1.85L8.7 1.95C10 3.25 11.4 4.65 12.7 5.95C13.3 5.35 13.8 4.85 14.4 4.25C14.7 3.85 14.7 3.15 14.4 2.75Z" fill="#5091CD"/>
</svg>
