<svg width="18" height="18" viewBox="0 0 18 18" fill="none" xmlns="http://www.w3.org/2000/svg">
<path d="M8.9 0C4 0 0 4 0 8.9C0 13.8 4 17.8 8.9 17.8C13.8 17.8 17.8 13.8 17.8 8.9C17.8 4 13.8 0 8.9 0ZM8.9 16.5C4.7 16.5 1.3 13.1 1.3 8.9C1.3 4.7 4.7 1.3 8.9 1.3C13.1 1.3 16.5 4.7 16.5 8.9C16.5 13.1 13.1 16.5 8.9 16.5Z" fill="#ED7D31"/>
<path d="M7.89999 12.3C7.89999 11.7 8.39999 11.2 8.89999 11.2C9.39999 11.2 9.99999 11.7 9.99999 12.3C9.99999 12.9 9.49999 13.3 8.89999 13.3C8.29999 13.3 7.89999 12.8 7.89999 12.3ZM8.19999 10.4L7.89999 4.5H9.89999L9.59999 10.4H8.19999Z" fill="#ED7D31"/>
</svg>
