<svg width="27" height="22" viewBox="0 0 27 22" fill="none" xmlns="http://www.w3.org/2000/svg">
<path d="M22.3 16.4C22.8 15.6 23.2 14.6 23.2 13.6C23.2 10.8 20.9 8.5 18.1 8.5C15.3 8.5 13 10.8 13 13.6C13 16.4 15.3 18.7 18.1 18.7C19.3 18.7 20.4 18.3 21.3 17.6L22.3 16.4ZM21.2 17.6L25.1 21.1C25.3 21.2 25.4 21.3 25.6 21.3C25.8 21.3 26 21.2 26.2 21C26.5 20.7 26.5 20.2 26.1 19.9L22.2 16.4L21.2 17.6ZM18 17.9C15.6 17.9 13.7 16 13.7 13.6C13.7 11.2 15.6 9.3 18 9.3C20.4 9.3 22.3 11.2 22.3 13.6C22.3 16 20.4 17.9 18 17.9Z" fill="#5091CD"/>
<path d="M12.9 1V6.1H17.9" stroke="#5091CD" stroke-width="0.9" stroke-miterlimit="10"/>
<path d="M17.9 18.1V21.1H1V1H13.2L17.9 6V8.6" stroke="#5091CD" stroke-width="0.9" stroke-miterlimit="10"/>
</svg>
