<svg width="27" height="16" viewBox="0 0 27 16" fill="none" xmlns="http://www.w3.org/2000/svg">
<path d="M0 0V16H26.6V0H0ZM7.3 12.6C5.5 12.6 4.3 12.1 3.5 11.2L4.7 9.5C5.3 10.1 6.3 10.6 7.5 10.6C8.3 10.6 8.7 10.3 8.7 9.9C8.7 8.7 3.8 9.7 3.8 6.3C3.8 4.8 5 3.5 7.3 3.5C8.7 3.5 9.9 3.9 10.8 4.7L9.5 6.5C8.8 5.9 7.8 5.6 7 5.6C6.3 5.6 6.1 5.9 6.1 6.2C6.1 7.3 11 6.5 11 9.7C11 11.4 9.7 12.6 7.3 12.6ZM19.1 14H15.1V11.2H19.1V14ZM19.1 9.5H15.1V6.6H19.1V9.5ZM19.1 5H15.1V2H19.1V5ZM24.8 14H20.8V11.2H24.8V14ZM24.8 9.5H20.8V6.6H24.8V9.5ZM24.8 5H20.8V2H24.8V5Z" fill="#5091CD"/>
</svg>
