<svg width="10" height="11" viewBox="0 0 10 11" fill="none" xmlns="http://www.w3.org/2000/svg">
<path d="M0.3 1.2C0.5 0.8 0.8 0.5 1.1 0.3C1.4 0.1 1.9 0 2.4 0C2.9 0 3.3 0.1 3.7 0.3C4.1 0.5 4.4 0.8 4.6 1.2C4.8 1.6 4.8 2 4.8 2.5C4.8 3 4.7 3.4 4.5 3.8C4.3 4.2 4 4.4 3.7 4.6C3.3 4.8 2.9 5 2.4 5C1.9 5 1.5 4.8 1.1 4.6C0.8 4.4 0.5 4.1 0.3 3.8C0.1 3.5 0 3 0 2.5C0 2 0.1 1.6 0.3 1.2ZM3.5 1.4C3.2 1.1 2.9 0.9 2.4 0.9C2 0.9 1.6 1.1 1.3 1.4C1 1.7 0.9 2 0.9 2.5C0.9 2.9 1 3.3 1.3 3.6C1.6 3.9 2 4 2.4 4C2.8 4 3.2 3.9 3.5 3.6C3.8 3.3 3.9 2.9 3.9 2.5C3.9 2 3.8 1.7 3.5 1.4ZM7.8 0.2H8.6L2.2 10.2H1.5L7.8 0.2ZM5.5 6.6C5.7 6.3 6 6 6.4 5.7C6.8 5.5 7.2 5.4 7.6 5.4C8 5.4 8.5 5.5 8.9 5.7C9.2 6 9.5 6.3 9.7 6.6C9.9 6.9 10 7.4 10 7.9C10 8.4 9.9 8.8 9.7 9.2C9.5 9.6 9.2 9.8 8.9 10C8.5 10.2 8.1 10.3 7.6 10.3C7.1 10.3 6.7 10.3 6.4 10C6 9.8 5.7 9.5 5.5 9.2C5.3 8.8 5.2 8.4 5.2 7.9C5.2 7.4 5.3 7 5.5 6.6ZM8.7 6.8C8.4 6.5 8.1 6.4 7.6 6.4C7.1 6.4 6.8 6.5 6.5 6.8C6.2 7.1 6.1 7.5 6.1 7.9C6.1 8.3 6.2 8.7 6.5 9C6.8 9.3 7.1 9.4 7.6 9.4C8.1 9.4 8.4 9.3 8.7 9C9 8.7 9.2 8.3 9.2 7.9C9.2 7.5 9 7.1 8.7 6.8Z" fill="#999999"/>
</svg>
