<svg width="26" height="16" viewBox="0 0 26 16" fill="none" xmlns="http://www.w3.org/2000/svg">
<path d="M12.6 6C14.2569 6 15.6 4.65685 15.6 3C15.6 1.34315 14.2569 0 12.6 0C10.9432 0 9.60001 1.34315 9.60001 3C9.60001 4.65685 10.9432 6 12.6 6Z" fill="#5091CD"/>
<path d="M15.4 6.60001C12.6 8.30001 9.9 6.60001 9.9 6.60001C8.5 7.40001 7.5 8.90001 7.5 10.6V16H17.7V10.6C17.7 9.00001 16.8 7.50001 15.4 6.60001Z" fill="#5091CD"/>
<path d="M2.4 9.3C1 10.1 0 11.6 0 13.3V16H6.2V9.9C4.1 10.4 2.4 9.3 2.4 9.3Z" fill="#5091CD"/>
<path d="M5.10001 8.60001C6.75686 8.60001 8.10001 7.25686 8.10001 5.60001C8.10001 3.94315 6.75686 2.60001 5.10001 2.60001C3.44315 2.60001 2.10001 3.94315 2.10001 5.60001C2.10001 7.25686 3.44315 8.60001 5.10001 8.60001Z" fill="#5091CD"/>
<path d="M20.2 8.60001C21.8569 8.60001 23.2 7.25686 23.2 5.60001C23.2 3.94315 21.8569 2.60001 20.2 2.60001C18.5432 2.60001 17.2 3.94315 17.2 5.60001C17.2 7.25686 18.5432 8.60001 20.2 8.60001Z" fill="#5091CD"/>
<path d="M23 9.3C21.6 10.2 20.2 10.2 19.1 9.9V16H25.3V13.3C25.3 11.6 24.3 10.1 23 9.3Z" fill="#5091CD"/>
</svg>
