<svg width="127" height="45" viewBox="0 0 127 45" fill="none" xmlns="http://www.w3.org/2000/svg">
<path d="M4.6 15.5V11C4.6 10.2 5.1 9.60001 5.6 9.60001C6.2 9.60001 6.6 10.2 6.6 11V17.2H11V11.6C11 8.60001 8.6 6.10001 5.5 6.10001C2.5 6.10001 0 8.50001 0 11.6C0 11.6 0 14.3 0 16C0.2 19.2 6.7 24.7 6.7 28C6.7 30.1 6.7 36.3 6.7 36.3C6.7 37.1 6.2 37.7 5.7 37.7C5.1 37.7 4.7 37.1 4.7 36.3V27.4H0.2V35.7C0.2 38.7 2.6 41.2 5.7 41.2C8.7 41.2 11.2 38.8 11.2 35.7C11.2 35.7 11.2 29.3 11.2 27.4C11.1 23.5 4.6 18.4 4.6 15.5Z" fill="#5091CD"/>
<path d="M82 36.3C82 37.1 81.5 37.7 81 37.7C80.4 37.7 80 37.1 80 36.3V11C80 10.2 80.5 9.60001 81 9.60001C81.6 9.60001 82 10.2 82 11V36.3ZM86.4 11.7C86.4 8.70001 84 6.20001 80.9 6.20001C77.9 6.20001 75.4 8.60001 75.4 11.7V35.6C75.4 38.6 77.8 41.1 80.9 41.1C83.9 41.1 86.4 38.7 86.4 35.6V11.7Z" fill="black"/>
<path d="M118.5 15.5V11C118.5 10.2 119 9.60001 119.5 9.60001C120.1 9.60001 120.5 10.2 120.5 11V17.2H124.9V11.6C124.9 8.60001 122.5 6.10001 119.4 6.10001C116.4 6.10001 113.9 8.50001 113.9 11.6C113.9 11.6 113.9 14.3 113.9 16C113.9 19.1 120.4 24.7 120.4 27.9C120.4 30 120.4 36.2 120.4 36.2C120.4 37 119.9 37.6 119.4 37.6C118.8 37.6 118.4 37 118.4 36.2V27.3H114V35.6C114 38.6 116.4 41.1 119.5 41.1C122.5 41.1 125 38.7 125 35.6C125 35.6 125 29.2 125 27.3C125 23.5 118.5 18.4 118.5 15.5Z" fill="black"/>
<path d="M18.4 25.1V36.2C18.4 37 18.9 37.6 19.4 37.6C20 37.6 20.4 37 20.4 36.2C20.4 36.2 20.4 23.9 20.4 21.9C20.5 21.9 18.4 23.1 18.4 25.1ZM20.5 39.3C20.2 40 19.4 41 18 41C15.8 41 14 38.9 14 35.9V25.1C14 20.2 20.5 17.7 20.5 17.7V11C20.5 10.2 20 9.60001 19.5 9.60001C18.9 9.60001 18.5 10.2 18.5 11V15.1C17.1 15.1 15.5 15.1 14.1 15.1C14.1 13.5 14.1 11.7 14.1 11.7C14.1 8.70001 16.5 6.20001 19.6 6.20001C22.6 6.20001 25.1 8.60001 25.1 11.7V41.1H20.7L20.5 39.3Z" fill="#5091CD"/>
<path d="M34.4 11C34.4 10.2 33.9 9.59999 33.4 9.59999C32.8 9.59999 32.4 10.2 32.4 11V34C32.4 34.8 32.9 35.4 33.4 35.4C33.9 35.4 34.4 34.8 34.4 34V11ZM27.2 43.2L28.7 40.6C28.7 40.6 30.2 41.6 32.2 41.6C33.5 41.6 34.4 40.5 34.4 38.9V37.2C34.1 37.9 33.3 38.9 31.9 38.9C29.7 38.9 27.9 36.8 27.9 33.8V11.4C27.9 8.39999 29.7 6.29999 31.9 6.29999C33.3 6.29999 34.1 7.29999 34.4 7.99999V6.29999H38.8V40.1C38.8 41.8 36.4 44.7 32.6 44.7C29.8 44.7 27.2 43.2 27.2 43.2Z" fill="#5091CD"/>
<path d="M46.1 36.3C46.1 37.1 46.6 37.7 47.1 37.7C47.7 37.7 48.1 37.1 48.1 36.3V27.4H52.5V35.7C52.5 38.7 50.1 41.2 47 41.2C43.9 41.2 41.7 38.6 41.7 35.6V11.7C41.7 8.70001 44.1 6.20001 47.2 6.20001C50.3 6.20001 52.7 8.60001 52.7 11.7V22.9H46.2L46.1 36.3ZM48.2 11C48.2 10.2 47.7 9.60001 47.2 9.60001C46.6 9.60001 46.2 10.2 46.2 11V19.5H48.3L48.2 11Z" fill="#5091CD"/>
<path d="M99.2 19.5H94.8V11C94.8 10.2 94.3 9.60001 93.8 9.60001C93.2 9.60001 92.8 10.2 92.8 11V41H88.4V6.20001H92.7V7.90001C93 7.30001 93.8 6.20001 95.2 6.20001C97.4 6.20001 99.2 8.30001 99.2 11.3V19.5Z" fill="black"/>
<path d="M64 23.9L61.8 41.1H57.4L54.1 6.20001H58.5L60.2 23.9L61.8 6.20001H66.2L67.9 23.9L69.5 6.20001H73.9L70.6 41.1H66.2L64 23.9Z" fill="black"/>
<path d="M105.5 25.1V41.1H101.1V0H105.5V18.5L107.9 6.2H112.3L109.5 22L112.3 41.1H107.9L105.5 25.1Z" fill="black"/>
<path d="M125.5 4.5C125.7 4.5 125.9 4.6 126.1 4.7C126.3 4.8 126.4 5 126.6 5.2C126.7 5.4 126.8 5.6 126.8 5.8C126.8 6 126.7 6.2 126.6 6.4C126.5 6.6 126.3 6.7 126.1 6.9C125.9 7 125.7 7.1 125.5 7.1C125.3 7.1 125.1 7 124.9 6.9C124.7 6.8 124.6 6.6 124.4 6.4C124.3 6.2 124.2 6 124.2 5.8C124.2 5.6 124.3 5.4 124.4 5.2C124.5 5 124.7 4.9 124.9 4.7C125.1 4.5 125.3 4.5 125.5 4.5ZM125.5 4.7C125.2 4.7 125 4.8 124.8 5C124.6 5.2 124.5 5.4 124.5 5.7C124.5 6 124.6 6.2 124.8 6.4C125 6.6 125.2 6.7 125.5 6.7C125.8 6.7 126 6.6 126.2 6.4C126.4 6.2 126.5 6 126.5 5.7C126.5 5.4 126.4 5.2 126.2 5C126.1 4.8 125.8 4.7 125.5 4.7ZM125.3 6.4H125.1V5.1H125.6C125.8 5.1 125.9 5.1 125.9 5.1C126 5.1 126 5.2 126.1 5.2C126.1 5.3 126.2 5.3 126.2 5.4C126.2 5.5 126.2 5.6 126.1 5.7C126 5.8 125.9 5.8 125.8 5.8C125.9 5.8 125.9 5.9 125.9 5.9C125.9 5.9 126 6 126.1 6.1L126.3 6.4H126L125.8 6.2C125.7 6.1 125.6 6 125.6 5.9C125.6 5.9 125.5 5.8 125.4 5.8H125.3V6.4ZM125.3 5.2V5.6H125.6C125.7 5.6 125.8 5.6 125.8 5.6C125.9 5.6 125.9 5.5 125.9 5.4C125.9 5.3 125.9 5.3 125.8 5.2C125.8 5.2 125.7 5.2 125.5 5.2H125.3Z" fill="#231F20"/>
</svg>
