<?xml version="1.0" encoding="utf-8"?><svg width="305" height="280" viewBox="0 0 305 280" xmlns="http://www.w3.org/2000/svg" xmlns:xlink="http://www.w3.org/1999/xlink"><view id="ALLL--Advanced-Analysis" viewBox="0 0 52 52"/><svg width="52" height="52" fill="none" viewBox="0 0 57 57" xmlns="http://www.w3.org/2000/svg"><path d="M1.3 55.3V34.2l11-6.5c.6 1.5 2.1 2.6 3.8 2.6 1.7 0 3.1-1 3.8-2.5l12.1 6c0 .2-.1.4-.1.5 0 2.3 1.9 4.2 4.1 4.2 2.2 0 4.1-1.9 4.1-4.2 0-.5-.1-1-.3-1.5l10.3-10.3c.5.3 1.2.4 1.8.4 2.3 0 4.1-1.9 4.1-4.2 0-2.3-1.9-4.2-4.1-4.2-2.2 0-3.9 2-3.9 4.3 0 1.2.5 2.2 1.3 3l-9.9 9.9c-.8-.9-1.9-1.5-3.2-1.5-1.6 0-3 1-3.7 2.3l-12.2-6v-.4c0-2.3-1.9-4.2-4.1-4.2-2.2 0-4.2 2-4.2 4.2v.2L1.3 32.7V0H0v56.6h56.6v-1.3H1.3zM52.1 16c1.6 0 2.9 1.3 2.9 2.8 0 1.5-1.3 2.8-2.9 2.8-1.6 0-2.9-1.3-2.9-2.8 0-1.5 1.4-2.8 2.9-2.8zm-16 15.5c1.6 0 2.9 1.3 2.9 2.8 0 1.5-1.3 2.8-2.9 2.8-1.6 0-2.9-1.3-2.9-2.8 0-1.5 1.4-2.8 2.9-2.8zm-16-4.2v-.1.1zm-4-4c1.6 0 2.9 1.3 2.9 2.8 0 1.5-1.3 2.9-2.9 2.9-1.6 0-2.9-1.3-2.9-2.8 0-1.5 1.4-2.9 2.9-2.9z" fill="#5091CD"/></svg><view id="ALLL--Allowance-Forecasting" viewBox="156 0 52 47.54"/><svg width="52" height="47.54" fill="none" viewBox="0 0 70 64" x="156" xmlns="http://www.w3.org/2000/svg"><path d="M56.1 5.8v1.3h7.7V15H5.1V7.1h8V5.8H3.9v10.5h61.2V5.8h-9z" fill="#5091CD"/><path d="M49.6 5.8H19v1.3h30.6V5.8zM3.9 60.4h50.6l10.7-9.9V19.6H3.9v40.8zm50.9-2.1v-7.8h8.4l-8.4 7.8zM5.1 20.9h58.7v28.3H53.5v10H5.1V20.9zM16.1 10.6c.8 0 1.5-.7 1.5-1.5V3.8c0-.8-.7-1.5-1.5-1.5s-1.5.7-1.5 1.5v5.4c0 .7.6 1.4 1.5 1.4zM52.8 10.6c.8 0 1.5-.7 1.5-1.5V3.8c0-.8-.7-1.5-1.5-1.5s-1.5.7-1.5 1.5v5.4c0 .7.7 1.4 1.5 1.4z" fill="#5091CD"/><path d="M10.2 32.2h6.4v-6.4h-6.4v6.4zm1.3-5.1h3.8v3.8h-3.8v-3.8zM20.7 31.9h6.4v-6.4h-6.4v6.4zm1.3-5h3.8v3.8H22v-3.8zM31.2 32h6.4v-6.4h-6.4V32zm1.3-5.1h3.8v3.8h-3.8v-3.8zM58.6 25.7h-6.4v6.4h6.4v-6.4zm-1.3 5.1h-3.8V27h3.8v3.8zM41.7 31.9h6.4v-6.4h-6.4v6.4zm1.3-5.1h3.8v3.8H43v-3.8zM10.2 41.3h6.4V35h-6.4v6.3zm1.3-5h3.8V40h-3.8v-3.7zM20.7 41.1h6.4v-6.4h-6.4v6.4zM22 36h3.8v3.8H22V36zM31.2 41.2h6.4v-6.4h-6.4v6.4zm1.3-5.1h3.8v3.8h-3.8v-3.8zM58.6 34.9h-6.4v6.4h6.4v-6.4zM57.3 40h-3.8v-3.8h3.8V40zM41.7 41.1h6.4v-6.4h-6.4v6.4zM43 36h3.8v3.8H43V36zM10.2 51.5h6.4v-6.4h-6.4v6.4zm1.3-5.1h3.8v3.8h-3.8v-3.8zM20.7 51.2h6.4v-6.4h-6.4v6.4zm1.3-5h3.8V50H22v-3.8zM31.2 51.3h6.4v-6.4h-6.4v6.4zm1.3-5.1h3.8V50h-3.8v-3.8z" fill="#5091CD"/></svg><view id="ALLL--Data-Audit" viewBox="0 134.18 52 46.31"/><svg width="52" height="46.31" fill="none" viewBox="0 0 64 57" y="134.18" xmlns="http://www.w3.org/2000/svg"><path d="M45.3 55.6h-44V1.3h44v9.2h1.3V0H0v56.9h46.6V32.4h-1.3v23.2z" fill="#5091CD"/><path d="M26.8 34.6L23 44.7l9.7-3.4L57 17.1 50.9 11 26.8 34.6zm5.4 5.5c-5.7.5-4.2-4.8-4.2-4.8l22.9-22.5 4.3 4.3-23 23zM62.9 9.9l-5.2-5.2c-.5-.5-1.2-.5-1.6 0L52.7 8c-.2.2-.3.5-.3.8 0 .3.1.6.3.8l5.3 5.3c.2.2.5.3.8.3.3 0 .6-.1.8-.3l3.3-3.3c.2-.2.3-.5.3-.8.1-.4 0-.7-.3-.9z" fill="#5091CD"/></svg><view id="ALLL--Model_Validation" viewBox="0 52 52 39.15"/><svg width="52" height="39.15" fill="none" viewBox="0 0 85 64" y="52" xmlns="http://www.w3.org/2000/svg"><path d="M42.1 35.3h-31v1.3h31v-1.3zM42.1 27.8h-31v1.3h31v-1.3zM42.1 42.4h-31v1.3h31v-1.3zM34.5 49.6H11.1v1.3h23.4v-1.3z" fill="#5091CD"/><path d="M62.7 16.9c-4.1 0-7.9 1.4-11 3.8v-6.2L41 3.1H3.7V60h48.1V48.6c3 2.4 6.8 3.8 11 3.8 9.8 0 17.8-8 17.8-17.8s-8.1-17.7-17.9-17.7zM41.3 5.3l8.4 8.9h-8.4V5.3zm9.1 42.2v11.1H5V4.4h35v11.2h10.4v6.3c-3.4 3.2-5.5 7.8-5.5 12.8 0 5 2.1 9.6 5.5 12.8zm12.3 3.6c-9.1 0-16.5-7.4-16.5-16.5s7.4-16.5 16.5-16.5 16.5 7.4 16.5 16.5-7.4 16.5-16.5 16.5z" fill="#5091CD"/><path d="M60.8 40.2l-5.3-5.1-1.7 1.7 7.4 7.1L71.8 28l-2-1.4-9 13.6z" fill="#5091CD"/></svg><view id="ALLL--Policy-Review" viewBox="104 0 52 40.76"/><svg width="52" height="40.76" fill="none" viewBox="0 0 74 58" x="104" xmlns="http://www.w3.org/2000/svg"><path d="M38.4 32.2h-31v1.3h31v-1.3zM38.4 24.7h-31V26h31v-1.3zM38.4 39.4h-31v1.3h31v-1.3zM30.8 46.6H7.4v1.3h23.4v-1.3z" fill="#5091CD"/><path d="M73.1 53.8l-9.4-8.5c1.3-2 2.1-4.4 2.1-7 0-6.9-5.6-12.5-12.5-12.5-1.9 0-3.6.4-5.2 1.1V11.4L37.3 0H0v56.9h48.1v-7.1c1.6.7 3.3 1.1 5.2 1.1 2.9 0 5.6-1 7.7-2.7l9.4 8.5c.4.3.8.5 1.3.5s1.1-.2 1.5-.6c.7-.8.7-2.1-.1-2.8zM37.7 2.3l8.4 8.9h-8.4V2.3zm9.1 53.3H1.3V1.3h35.1v11.2h10.4v15.2c-3.6 2.2-6 6.2-6 10.7 0 4.5 2.4 8.5 6 10.7v6.5zm6.5-6.2c-6.1 0-11-4.9-11-11s4.9-11 11-11 11 4.9 11 11c0 6-5 11-11 11z" fill="#5091CD"/></svg><view id="ALLL--Scenario-Building" viewBox="104 40.76 52 39.72"/><svg width="52" height="39.72" fill="none" viewBox="0 0 72 55" x="104" y="40.76" xmlns="http://www.w3.org/2000/svg"><path d="M38.643 31.577v-.382h-.903c-2.191 0-3.867-1.657-3.867-3.822 0-1.274.645-2.421 1.676-3.186-1.29-1.783-2.836-3.312-4.512-4.459l-.645-.382c-.644 1.02-1.805 1.529-3.094 1.529-2.191 0-3.867-1.656-3.867-3.822v-.382h-8.122v.382c0 2.166-1.675 3.822-3.867 3.822-1.031 0-1.934-.382-2.578-1.02-1.805 1.275-3.352 2.931-4.641 4.715 1.031.637 1.676 1.783 1.676 3.185 0 2.166-1.676 3.822-3.868 3.822-.258 0-.515 0-.644-.128A17.1 17.1 0 0 0 1 35.145c0 1.274.129 2.42.387 3.695.258 0 .386-.127.644-.127 2.192 0 3.868 1.656 3.868 3.822 0 1.274-.645 2.42-1.676 3.185 1.16 1.783 2.707 3.312 4.512 4.586.644-.764 1.676-1.146 2.707-1.146 2.191 0 3.867 1.656 3.867 3.822v.382c1.547.382 3.094.637 4.77.637 1.16 0 2.32-.127 3.48-.382v-.765c0-2.166 1.677-3.822 3.868-3.822 1.29 0 2.579.637 3.223 1.657a20.483 20.483 0 0 0 5.285-5.224c-1.16-.637-1.933-1.911-1.933-3.313 0-2.165 1.676-3.822 3.867-3.822.387 0 .645 0 .903.128.258-1.147.386-2.294.386-3.44-.129-1.147-.257-2.294-.515-3.44zm-18.95 9.428c-3.481 0-6.317-2.803-6.317-6.243 0-3.44 2.836-6.243 6.316-6.243 3.481 0 6.317 2.803 6.317 6.243 0 3.44-2.836 6.243-6.317 6.243zM52.565 14.887l.13-.255c-.13 0-.258-.127-.387-.255-.903-.637-1.16-1.91-.516-2.803.387-.51 1.031-.891 1.676-.891 0-1.147-.13-2.166-.516-3.313l-.129-.382c-.644.255-1.16.127-1.805-.255-.902-.637-1.16-1.91-.515-2.803 0 0 0-.127.129-.127L47.15 1.637c-.129-.127.129 0 0 0l-.129.127c-.645.892-1.934 1.147-2.836.51-.387-.255-.645-.764-.773-1.274-1.16 0-2.32.255-3.352.637.258.637.129 1.274-.258 1.784-.645.892-1.934 1.146-2.836.51l-.258-.256c-.516.383-.902.892-1.29 1.402-.386.51-.644 1.147-.901 1.656.128 0 .257.128.257.128.903.637 1.16 1.91.516 2.802-.387.51-1.031.892-1.676.892 0 1.147.129 2.294.516 3.313.515-.128 1.031 0 1.547.382.902.637 1.16 1.911.515 2.803 0 .127-.128.127-.128.127.515.637 1.16 1.147 1.804 1.657.516.382 1.032.637 1.547.891 0-.127.13-.254.258-.254.645-.892 1.934-1.147 2.836-.51.516.382.903 1.02.903 1.656 1.289 0 2.578-.127 3.867-.637-.258-.637-.258-1.401.129-2.038.644-.892 1.934-1.147 2.836-.51l.387.382c.386-.382.773-.892 1.16-1.401.129-.51.516-1.02.773-1.529z" stroke="#5091CD" stroke-width="1.25" stroke-miterlimit="10" stroke-linejoin="round"/><path d="M43.413 14.25c1.922 0 3.48-1.54 3.48-3.44s-1.558-3.44-3.48-3.44c-1.923 0-3.481 1.54-3.481 3.44s1.558 3.44 3.48 3.44zM65.972 24.952l-.257-.128-.387.383c-1.16 1.019-2.836.892-3.867-.255-.645-.637-.774-1.656-.516-2.42-1.418-.383-2.965-.51-4.512-.383h-.516c.13.892-.258 1.656-.902 2.166-1.16 1.02-2.836.892-3.867-.255-.13-.127-.13-.127-.258-.255l-4.255 3.568c-.128.127.13-.128 0 .127l.13.255c1.03 1.146.902 2.803-.258 3.822-.516.51-1.16.637-1.934.637-.387 1.529-.516 3.058-.258 4.587.902-.128 1.676.254 2.32.891 1.032 1.147.903 2.803-.257 3.822-.13.128-.258.128-.387.255.387.765.902 1.402 1.547 2.166a8.634 8.634 0 0 0 1.934 1.784l.386-.383c1.16-1.019 2.836-.891 3.868.255.644.637.773 1.657.515 2.421 1.418.382 2.965.51 4.512.382 0-.764.387-1.401.903-1.91 1.16-1.02 2.836-.893 3.867.254.13.127.13.127.13.255 1.03-.51 1.933-1.02 2.835-1.784.645-.51 1.16-1.147 1.676-1.784l-.387-.382c-1.031-1.146-.902-2.803.258-3.822.774-.637 1.676-.764 2.45-.51.515-1.656.644-3.44.386-5.223-.902.127-1.933-.127-2.578-.892-1.031-1.146-.902-2.803.258-3.822.129-.127.386-.255.515-.382a19.433 19.433 0 0 0-1.418-2.039c-.386-.254-1.03-.892-1.675-1.401z" stroke="#5091CD" stroke-width="1.25" stroke-miterlimit="10" stroke-linejoin="round"/><path d="M57.593 39.858c2.492 0 4.512-1.996 4.512-4.459 0-2.463-2.02-4.46-4.512-4.46-2.492 0-4.512 1.997-4.512 4.46s2.02 4.46 4.512 4.46z" stroke="#5091CD" stroke-width="1.25" stroke-miterlimit="10" stroke-linejoin="round"/></svg><view id="Adobe" viewBox="126 107.15 27 17"/><svg width="27" height="17" fill="none" viewBox="0 0 27 17" x="126" y="107.15" xmlns="http://www.w3.org/2000/svg"><path d="M3.6 12.7c.3-.2.6-.4 1-.6l.1-.1c.4-.2.7-.4 1.1-.6 0 0 .1 0 .1-.1.4-.2.9-.4 1.4-.6.8-1.5 1.4-2.9 1.8-4.2.1-.4.3-.8.4-1.2-.2-.2-.3-.7-.5-1.1 0-.1-.1-.2-.1-.3-.1-.4-.2-.9-.3-1.3-.1-.5-.1-.9-.1-1.3v-.1c0-.4 0-.8.1-1.1H0v16h1.4v-.7c.1-.7.5-1.3 1.3-2 .3-.2.5-.4.9-.7-.1.1 0 0 0 0z" fill="#5091CD"/><path d="M11.8.1c.1 1.6-.4 3.7-.7 4.9v.1c0 .1-.1.3-.1.4.1.3.3.6.5.9.5.9 1.3 1.9 2.3 2.7 1.5-.3 2.8-.4 3.9-.4.8 0 1.5.1 2 .2.3.1.5.2.7.3.1.1.2.1.3.2l.2.2c.2.3.4.8.1 1.5 0 .1-.1.2-.2.2-.1.1-.2.1-.3.1-.4.1-.9.2-1.3.3-.4.1-.8.1-1.2.1-1.6 0-3.2-.5-4.5-1.4-1.7.3-3.4.8-5 1.4-.3.4-.5.9-.8 1.2-.1.1-.2.2-.2.3-.2.3-.4.5-.6.8l-.3.3c-.2.2-.4.5-.7.7l-.2.2c-.3.3-.6.5-.9.7h21.8V.1H11.8zM10 .1c-.1.3-.1.7-.1 1.1V2.1c0 .2.1.5.1.7 0-.3.1-.5.1-.8v-.2c0-.2 0-.4.1-.6v-.1V0" fill="#5091CD"/><path d="M17.9 10.6h.4c.3 0 .6-.1.9-.1.1 0 .3 0 .4-.1v-.1c-.1-.1-.5-.3-1.5-.4h-.5c-.6 0-1.4.1-2.2.2.8.3 1.7.5 2.5.5zM6.2 12.8l-.6.3c-.8.4-1.5.9-2 1.4-.2.2-.4.5-.5.7-.1.1-.1.2-.1.4.3-.1.6-.2.8-.4.7-.5 1.6-1.3 2.4-2.4zM10.4 7.3c-.3.9-.7 1.9-1.2 2.9.9-.3 1.9-.6 2.8-.8-.6-.6-1.1-1.4-1.6-2.1z" fill="#5091CD"/></svg><view id="Arrow-Gray" viewBox="104 80.47999999999999 52 4.12"/><svg width="52" height="4.12" fill="none" viewBox="0 0 164 13" x="104" y="80.47999999999999" xmlns="http://www.w3.org/2000/svg"><path d="M0 6.1h162.4" stroke="#AAA" stroke-width="1.5" stroke-miterlimit="10"/><path d="M157.4 12.3l-1-1.1 5.4-5.1-5.4-5 1-1.1 6.6 6.1-6.6 6.2z" fill="#AAA"/></svg><view id="Calendar" viewBox="283 176 20 16"/><svg width="20" height="16" fill="none" viewBox="0 0 20 16" x="283" y="176" xmlns="http://www.w3.org/2000/svg"><path d="M0 0v16h19.2V0H0zm5.8 14h-4v-2.8h4V14zm0-4.5h-4V6.6h4v2.9zm0-4.5h-4V2h4v3zm6 9h-4v-2.8h4V14zm0-4.5h-4V6.6h4v2.9zm0-4.5h-4V2h4v3zm5.7 9h-4v-2.8h4V14zm0-4.5h-4V6.6h4v2.9zm0-4.5h-4V2h4v3z" fill="#5091CD"/></svg><view id="Checkbox--Checked-Disabled" viewBox="258 68 23 23"/><svg width="23" height="23" fill="none" viewBox="0 0 23 23" x="258" y="68" xmlns="http://www.w3.org/2000/svg"><path d="M21.4 1H1v20.4h20.4V1z" fill="#A2A3A3" stroke="#A2A3A3" stroke-width="1.25" stroke-miterlimit="10"/><path d="M4.3 10.3l6.1 5.3 7.9-10.4" stroke="#fff" stroke-width="1.9" stroke-miterlimit="10"/></svg><view id="Checkbox--Checked-Enabled" viewBox="258 91 23 23"/><svg width="23" height="23" fill="none" viewBox="0 0 23 23" x="258" y="91" xmlns="http://www.w3.org/2000/svg"><path d="M21.4 1H1v20.4h20.4V1z" fill="#5091CD" stroke="#5091CD" stroke-width="1.25" stroke-miterlimit="10"/><path d="M4.3 10.3l6.1 5.3 7.9-10.4" stroke="#fff" stroke-width="1.9" stroke-miterlimit="10"/></svg><view id="Checkbox--Checked-Styled" viewBox="258 23 24 23"/><svg width="24" height="23" fill="none" viewBox="0 0 24 23" x="258" y="23" xmlns="http://www.w3.org/2000/svg"><path d="M4.4 7.8l6.9 7.9L22.7 1.8" stroke="#5091CD" stroke-width="1.25" stroke-miterlimit="10"/><path d="M21.4 10.1v11.3H1V1h16.4" stroke="#5091CD" stroke-width="1.25" stroke-miterlimit="10"/></svg><view id="Checkbox--Partial-Selection" viewBox="258 156 23 23"/><svg width="23" height="23" fill="none" viewBox="0 0 23 23" x="258" y="156" xmlns="http://www.w3.org/2000/svg"><path d="M21.4 1H1v20.4h20.4V1z" fill="#5091CD" stroke="#5091CD" stroke-width="1.25" stroke-miterlimit="10"/><path d="M5 11h12.2" stroke="#fff" stroke-width="1.9"/></svg><view id="Checkbox--Unchecked-Disabled" viewBox="0 256.49 23 23"/><svg width="23" height="23" fill="none" viewBox="0 0 23 23" y="256.49" xmlns="http://www.w3.org/2000/svg"><path d="M21.4 1H1v20.4h20.4V1z" stroke="#A2A3A3" stroke-width="1.25" stroke-miterlimit="10"/></svg><view id="Checkbox--Unchecked-Enabled" viewBox="258 133 23 23"/><svg width="23" height="23" fill="none" viewBox="0 0 23 23" x="258" y="133" xmlns="http://www.w3.org/2000/svg"><path d="M21.4 1H1v20.4h20.4V1z" stroke="#5091CD" stroke-width="1.25" stroke-miterlimit="10"/></svg><view id="Checkmark" viewBox="64 204.49 16 16"/><svg width="16" height="16" fill="none" viewBox="0 0 16 16" x="64" y="204.49" xmlns="http://www.w3.org/2000/svg"><path d="M1 8.3l5.4 5.2L14.7 1" stroke="#5091CD" stroke-width="2.045" stroke-miterlimit="10"/></svg><view id="Chevron-Down" viewBox="234 172 13 8"/><svg width="13" height="8" fill="none" viewBox="0 0 13 8" x="234" y="172" xmlns="http://www.w3.org/2000/svg"><path d="M6.4 7.1L0 .7.7 0l5.7 5.6L12 0l.7.7-6.3 6.4z" fill="#5091CD"/></svg><view id="Chevron-Left" viewBox="149 204.49 8 13"/><svg width="8" height="13" fill="none" viewBox="0 0 8 13" x="149" y="204.49" xmlns="http://www.w3.org/2000/svg"><path d="M0 6.4L6.4 0l.7.7-5.7 5.7L7.1 12l-.7.7L0 6.4z" fill="#5091CD"/></svg><view id="Chevron-Right" viewBox="200 158.18 8 13"/><svg width="8" height="13" fill="none" viewBox="0 0 8 13" x="200" y="158.18" xmlns="http://www.w3.org/2000/svg"><path d="M7.1 6.4L.7 12.7 0 12l5.6-5.6L0 .7.7 0l6.4 6.4z" fill="#5091CD"/></svg><view id="Chevron-Up" viewBox="208 172 13 8"/><svg width="13" height="8" fill="none" viewBox="0 0 13 8" x="208" y="172" xmlns="http://www.w3.org/2000/svg"><path d="M6.4 0l6.3 6.4-.7.7-5.6-5.7L.7 7.1 0 6.4 6.4 0z" fill="#5091CD"/></svg><view id="Credit_Memo--Edit-Merge-Field-Mapping" viewBox="156 107.93 32 24"/><svg width="32" height="24" fill="none" viewBox="0 0 32 24" x="156" y="107.93" xmlns="http://www.w3.org/2000/svg"><path d="M23.2 1.9l2.7 2.7-15.4 15.5-4.3 1.5 1.7-4.5L23.2 1.9zM21.5 3.7l2.7 2.8M7.8 17.2l2.7 2.7" stroke="#777" stroke-width=".75" stroke-miterlimit="10"/></svg><view id="Credit_Memo--Refresh-Template" viewBox="258 202 23 22"/><svg width="23" height="22" fill="none" viewBox="0 0 23 22" x="258" y="202" xmlns="http://www.w3.org/2000/svg"><path d="M13.629 20.629c-5.4 1.5-10.9-1.7-12.3-7-1.4-5.3 1.8-10.9 7.1-12.3 5.3-1.4 10.8 1.8 12.2 7.1.5 1.9.4 3.8-.1 5.6M20.529 14.029c-.3 1-.8 1.9-1.4 2.8" stroke="#777" stroke-width=".75" stroke-miterlimit="10"/><path d="M18.129 13.829l.6-.1.5 2.9 2.9-.8.1.6-3.5.9-.6-3.5z" fill="#777"/></svg><view id="Credit_Memo--Report-Mapping-Panel" viewBox="208 148 32 24"/><svg width="32" height="24" fill="none" viewBox="0 0 32 24" x="208" y="148" xmlns="http://www.w3.org/2000/svg"><path d="M13.2 6.4v15.1M25.7 2.3H6.5v19.2h19.2V2.3zM6.5 6.2h19.1M8.5 11.1h2.7M8.5 15.7h2.7" stroke="#777" stroke-width=".75" stroke-miterlimit="10"/></svg><view id="Credit_Memo--Save-Changes-Back-to-Sageworks" viewBox="283 155 21 21"/><svg width="21" height="21" fill="none" viewBox="0 0 21 21" x="283" y="155" xmlns="http://www.w3.org/2000/svg"><path d="M5.5 12.9h10.7M5.5 15.8h10.7M20.6 16.4v3.9H1V1h4.9v6.5h9.7V1h2l3 2.9v12.5zM1 1h16.6" stroke="#777" stroke-width=".75" stroke-miterlimit="10"/></svg><view id="Credit_Memo--Save-as-Customer-Specific-Memo" viewBox="92 134.18 32 24"/><svg width="32" height="24" stroke="#777" fill="none" viewBox="0 0 32 24" x="92" y="134.18" xmlns="http://www.w3.org/2000/svg"><path d="M7.4 14.2h10.8M7.4 17.1h10.8M18.2 21.6H3V2.3h4.9v6.5h9.7V2.3h2l3 2.9v3.1M3 2.3h16.6M27 15.6c-2.4 1.5-4.6 0-4.6 0-1.2.7-2 2.1-2 3.6v2.5h8.5v-2.5c0-1.5-.7-2.9-1.9-3.6zM24.7 15c1.38 0 2.5-1.209 2.5-2.7s-1.12-2.7-2.5-2.7-2.5 1.209-2.5 2.7 1.12 2.7 2.5 2.7z" stroke-width=".75" stroke-miterlimit="10"/></svg><view id="Credit_Memo--Save-as-New-General-Template" viewBox="124 134.18 32 24"/><svg width="32" height="24" fill="none" viewBox="0 0 32 24" x="124" y="134.18" xmlns="http://www.w3.org/2000/svg"><path d="M6.3 14.2H17M6.3 17.1H17M21.4 10.6V5.2l-2.9-2.9h-2.1v6.5H6.8V2.3h-5v19.3h19.6v-3.9M1.8 2.3h16.7M25.6 9.4v9.2M25.6 18.6V9.4M20.9 14h9.3" stroke="#777" stroke-width=".75" stroke-miterlimit="10"/></svg><view id="Credit_Memo--Show-Labels" viewBox="156 134.18 32 24"/><svg width="32" height="24" fill="none" viewBox="0 0 32 24" x="156" y="134.18" xmlns="http://www.w3.org/2000/svg"><path d="M21.3 16.8l-5.4 5.4-5.1-5.4V2.3h10.5v14.5z" stroke="#777" stroke-width=".75" stroke-miterlimit="10"/><path d="M17.2 6.6c0 .7-.6 1.2-1.2 1.2s-1.2-.5-1.2-1.2.5-1.2 1.2-1.2 1.2.6 1.2 1.2z" fill="#777"/></svg><view id="Credit_Memo--Show-Values" viewBox="0 180.49 32 24"/><svg width="32" height="24" fill="none" viewBox="0 0 32 24" y="180.49" xmlns="http://www.w3.org/2000/svg"><path d="M25.775 13.34c.638-5.486-3.291-10.451-8.777-11.09-5.486-.638-10.45 3.292-11.09 8.778-.638 5.485 3.292 10.45 8.778 11.089 5.486.638 10.45-3.292 11.089-8.777z" stroke="#777" stroke-width=".75" stroke-miterlimit="10"/><path d="M18.3 15.1c-.2.3-.4.6-.8.8-.4.2-.9.3-1.5.4v1h-.5v-1c-.6 0-1.1-.1-1.5-.4-.5-.2-.8-.5-1.1-.9l.4-.5c.3.3.6.6 1 .8.4.2.8.3 1.3.4v-3.4c-.5-.1-.9-.3-1.3-.4-.3-.1-.6-.4-.8-.6-.3-.3-.5-.7-.5-1.1 0-.4.1-.8.3-1.1.2-.3.5-.6.9-.7.4-.1.8-.3 1.2-.3V7h.6v1.1c1 .1 1.7.4 2.3 1l-.5.5c-.5-.6-1.1-.9-1.9-1v3.2c.5.1.9.3 1.3.4.3.2.6.4.9.7.3.3.3.7.3 1.1.1.5 0 .8-.1 1.1zm-4.1-3.9c.3.2.7.4 1.3.6V8.7c-.5 0-.9.2-1.2.5-.3.3-.5.7-.5 1.1 0 .3.1.6.4.9zm3.2 4c.3-.3.4-.7.4-1.1 0-.5-.2-.8-.5-1-.3-.2-.8-.4-1.3-.6v3.2c.7 0 1.1-.2 1.4-.5z" fill="#777" stroke="#777" stroke-width=".13" stroke-miterlimit="10"/></svg><view id="Customer" viewBox="80 204.49 12 16"/><svg width="12" height="16" fill="none" viewBox="0 0 12 16" x="80" y="204.49" xmlns="http://www.w3.org/2000/svg"><path d="M8.9 7.9c-3.2 2.1-6.2 0-6.2 0-1.6 1-2.7 2.8-2.7 4.8V16h11.4v-3.3c0-1.9-1-3.7-2.5-4.8zM5.7 7.2C7.523 7.2 9 5.588 9 3.6S7.523 0 5.7 0C3.877 0 2.4 1.612 2.4 3.6s1.477 3.6 3.3 3.6z" fill="#5091CD"/></svg><view id="Delete-Disabled" viewBox="134 180.49 11 11"/><svg width="11" height="11" fill="none" viewBox="0 0 11 11" x="134" y="180.49" xmlns="http://www.w3.org/2000/svg"><path d="M10.7.7L10 0 5.4 4.6.7 0 0 .7l4.6 4.7L0 10l.7.7 4.7-4.6 4.6 4.6.7-.7-4.6-4.6L10.7.7z" fill="#777"/></svg><view id="Delete-Enabled" viewBox="166 180.49 11 11"/><svg width="11" height="11" fill="none" viewBox="0 0 11 11" x="166" y="180.49" xmlns="http://www.w3.org/2000/svg"><path d="M10.7.7L10 0 5.4 4.6.7 0 0 .7l4.6 4.7L0 10l.7.7 4.7-4.6 4.6 4.6.7-.7-4.6-4.6L10.7.7z" fill="#5091CD"/></svg><view id="Document" viewBox="92 204.49 15 16"/><svg width="15" height="16" fill="none" viewBox="0 0 15 16" x="92" y="204.49" xmlns="http://www.w3.org/2000/svg"><path d="M11.3 0H0v16h14.4V3l-3.1-3zm-2 13.4H2.2v-1.1h7.1v1.1zm2.9-2.7h-10V9.6h10.1v1.1h-.1zm0-2.7h-10V6.9h10.1V8h-.1zm0-2.7h-10V4.2h10.1v1.1h-.1z" fill="#5091CD"/></svg><view id="Edit-Pencil" viewBox="107 204.49 15 15"/><svg width="15" height="15" fill="none" viewBox="0 0 15 15" x="107" y="204.49" xmlns="http://www.w3.org/2000/svg"><path d="M7.9 2.75l-7.8 7.8c-.1.1-.1.2-.1.3V14.75h3.9c.1 0 .2 0 .2-.1l7.8-7.8.1-.1c-1.3-1.4-2.6-2.8-4.1-4 .1-.1.1-.1 0 0zm-4.3 10.6H2.5v-1.2H1.3v-1.1l.8-.8 2.3 2.3-.8.8zm4.5-9c.2-.2.3-.2.4-.1.1.1.1.2-.1.4-.9 1-1.8 1.9-2.8 2.8-.7.8-1.5 1.6-2.3 2.3 0 .1-.1.2-.2.2-.2 0-.3-.2-.2-.3 0-.1.1-.1.1-.2 1.7-1.7 3.4-3.3 5.1-5.1 0 .1 0 .1 0 0zM14.4 2.75c-.3-.3-.6-.6-.8-.9-.5-.5-1-.9-1.4-1.4-.6-.6-1.4-.6-1.9 0-.6.5-1 1-1.5 1.4l-.1.1 4 4 1.7-1.7c.3-.4.3-1.1 0-1.5z" fill="#5091CD"/></svg><view id="Exclamation-Bubble-Blue" viewBox="188 107.93 18 18"/><svg width="18" height="18" fill="none" viewBox="0 0 18 18" x="188" y="107.93" xmlns="http://www.w3.org/2000/svg"><path d="M8.9 0C4 0 0 4 0 8.9s4 8.9 8.9 8.9 8.9-4 8.9-8.9S13.8 0 8.9 0zm0 16.5c-4.2 0-7.6-3.4-7.6-7.6 0-4.2 3.4-7.6 7.6-7.6 4.2 0 7.6 3.4 7.6 7.6 0 4.2-3.4 7.6-7.6 7.6z" fill="#5091CD"/><path d="M7.9 12.3c0-.6.5-1.1 1-1.1s1.1.5 1.1 1.1c0 .6-.5 1-1.1 1-.6 0-1-.5-1-1zm.3-1.9l-.3-5.9h2l-.3 5.9H8.2z" fill="#5091CD"/></svg><view id="Exclamation-Bubble-Orange" viewBox="58 230.49 18 18"/><svg width="18" height="18" fill="none" viewBox="0 0 18 18" x="58" y="230.49" xmlns="http://www.w3.org/2000/svg"><path d="M8.9 0C4 0 0 4 0 8.9s4 8.9 8.9 8.9 8.9-4 8.9-8.9S13.8 0 8.9 0zm0 16.5c-4.2 0-7.6-3.4-7.6-7.6 0-4.2 3.4-7.6 7.6-7.6 4.2 0 7.6 3.4 7.6 7.6 0 4.2-3.4 7.6-7.6 7.6z" fill="#ED7D31"/><path d="M7.9 12.3c0-.6.5-1.1 1-1.1s1.1.5 1.1 1.1c0 .6-.5 1-1.1 1-.6 0-1-.5-1-1zm.3-1.9l-.3-5.9h2l-.3 5.9H8.2z" fill="#ED7D31"/></svg><view id="Export--Excel" viewBox="146 158.18 27 16"/><svg width="27" height="16" fill="none" viewBox="0 0 27 16" x="146" y="158.18" xmlns="http://www.w3.org/2000/svg"><path d="M0 0v16h26.6V0H0zm9.5 12.5l-1.9-3-1.9 3H2.8L6 7.9 3 3.6h2.7l1.8 2.8 1.7-2.8H12L9.1 7.9l3.1 4.6H9.5zm9.6 1.5h-4v-2.8h4V14zm0-4.5h-4V6.6h4v2.9zm0-4.5h-4V2h4v3zm5.7 9h-4v-2.8h4V14zm0-4.5h-4V6.6h4v2.9zm0-4.5h-4V2h4v3z" fill="#5091CD"/></svg><view id="Export--Excel-White" viewBox="112 180.49 22 12"/><svg width="22" height="12" fill="none" viewBox="0 0 22 12" x="112" y="180.49" xmlns="http://www.w3.org/2000/svg"><path d="M6.6 10.5l-1.9-3-1.9 3H0l3.1-4.6L.2 1.5h2.7l1.8 2.8 1.7-2.8h2.7L6.2 5.9l3.1 4.6H6.6zm9.7 1.4h-4V9.1h4v2.8zm0-4.5h-4V4.6h4v2.8zm0-4.4h-4V0h4v3zm5.7 8.9h-4V9.1h4v2.8zm0-4.5h-4V4.6h4v2.8zM22 3h-4V0h4v3z" fill="#5091CD"/></svg><view id="Export--Word" viewBox="126 91.15 27 16"/><svg width="27" height="16" fill="none" viewBox="0 0 27 16" x="126" y="91.15" xmlns="http://www.w3.org/2000/svg"><path d="M0 0v16h26.6V0H0zm14.7 4.8h-.9l-3.9 7.8H7.3V8.7l-2.2 3.8H2.4V4.8h-.9V3.5h3.7v1.3h-.9v3.6l2.6-4.9h3v4.3l1.5-3h-.6V3.5h3.9v1.3zm6.6 8h-5.1v-1.1h5.1v1.1zm3.5-2.7h-8.6V8.9h8.6v1.2zm0-2.8h-8.6V6.2h8.6v1.1zm0-2.7h-8.6V3.5h8.6v1.1z" fill="#5091CD"/></svg><view id="File-Blank" viewBox="287 192 17 19"/><svg width="17" height="19" fill="none" viewBox="0 0 17 19" x="287" y="192" xmlns="http://www.w3.org/2000/svg"><path d="M9.4 1v6.2h6.1" stroke="#5091CD" stroke-width="1.1" stroke-miterlimit="10"/><path d="M1 15.2v2.4h14.5V7L9.7 1.1H1v14.1z" stroke="#5091CD" stroke-width="1.1" stroke-miterlimit="10"/></svg><view id="File-Download" viewBox="283 43 19 22"/><svg width="19" height="22" fill="none" viewBox="0 0 19 22" x="283" y="43" xmlns="http://www.w3.org/2000/svg"><path d="M12.9 1v5.1h5" stroke="#5091CD" stroke-width=".9" stroke-miterlimit="10"/><path d="M17.9 6v15.1H1V1h12.2l4.7 5zM9.2 7v9.3" stroke="#5091CD" stroke-width=".9" stroke-miterlimit="10"/><path d="M12.7 13l-3.5 3.6L5.6 13" stroke="#5091CD" stroke-width=".9" stroke-miterlimit="10"/></svg><view id="File-Search" viewBox="59 180.49 27 22"/><svg width="27" height="22" fill="none" viewBox="0 0 27 22" x="59" y="180.49" xmlns="http://www.w3.org/2000/svg"><path d="M22.3 16.4c.5-.8.9-1.8.9-2.8 0-2.8-2.3-5.1-5.1-5.1S13 10.8 13 13.6s2.3 5.1 5.1 5.1c1.2 0 2.3-.4 3.2-1.1l1-1.2zm-1.1 1.2l3.9 3.5c.2.1.3.2.5.2s.4-.1.6-.3c.3-.3.3-.8-.1-1.1l-3.9-3.5-1 1.2zm-3.2.3c-2.4 0-4.3-1.9-4.3-4.3s1.9-4.3 4.3-4.3 4.3 1.9 4.3 4.3-1.9 4.3-4.3 4.3z" fill="#5091CD"/><path d="M12.9 1v5.1h5" stroke="#5091CD" stroke-width=".9" stroke-miterlimit="10"/><path d="M17.9 18.1v3H1V1h12.2l4.7 5v2.6" stroke="#5091CD" stroke-width=".9" stroke-miterlimit="10"/></svg><view id="Financial-Statement" viewBox="173 158.18 27 16"/><svg width="27" height="16" fill="none" viewBox="0 0 27 16" x="173" y="158.18" xmlns="http://www.w3.org/2000/svg"><path d="M0 0v16h26.6V0H0zm7.3 12.6c-1.8 0-3-.5-3.8-1.4l1.2-1.7c.6.6 1.6 1.1 2.8 1.1.8 0 1.2-.3 1.2-.7 0-1.2-4.9-.2-4.9-3.6 0-1.5 1.2-2.8 3.5-2.8 1.4 0 2.6.4 3.5 1.2L9.5 6.5c-.7-.6-1.7-.9-2.5-.9-.7 0-.9.3-.9.6 0 1.1 4.9.3 4.9 3.5 0 1.7-1.3 2.9-3.7 2.9zM19.1 14h-4v-2.8h4V14zm0-4.5h-4V6.6h4v2.9zm0-4.5h-4V2h4v3zm5.7 9h-4v-2.8h4V14zm0-4.5h-4V6.6h4v2.9zm0-4.5h-4V2h4v3z" fill="#5091CD"/></svg><view id="Financial-Statement-Old" viewBox="119 158.18 27 16"/><svg width="27" height="16" fill="none" viewBox="0 0 27 16" x="119" y="158.18" xmlns="http://www.w3.org/2000/svg"><path d="M4.8 9.6c-.2.2-.4.4-.6.5v1.6h1.5l.5-.5c-.5-.6-.9-1.1-1.4-1.6z" fill="#5091CD"/><path d="M0 0v16h26.6V0H0zm5.9 12.5H3.4h-.1v-.1V10c0-.1 0-.1.1-.2l5-5 .6.6-3.7 3.8.5.5 3.8-3.8 1.6 1.6-5 5c-.2-.1-.2 0-.3 0zm6.9-6.8c-.4.4-.7.8-1.1 1.1L9.1 4.2l.1-.1c.2-.3.5-.6.8-.9.3-.4.9-.4 1.2 0l.9.9c.2.2.4.4.5.6.4.3.4.7.2 1zm6.3 8.3h-4v-2.8h4V14zm0-4.5h-4V6.6h4v2.9zm0-4.5h-4V2h4v3zm5.7 9h-4v-2.8h4V14zm0-4.5h-4V6.6h4v2.9zm0-4.5h-4V2h4v3z" fill="#5091CD"/></svg><view id="Folder-3D-Empty" viewBox="283 86 21 15"/><svg width="21" height="15" fill="none" viewBox="0 0 21 15" x="283" y="86" xmlns="http://www.w3.org/2000/svg"><path d="M17.8 6V2.2H8.3L7.6 0H0v14.7h.1l-.1.2h17.1L20.5 6h-2.7zM1 1h5.8l.7 2.2h9.3V6H3.4L1 12.2V1zm15.4 12.9H1.5L4.1 7H19l-2.6 6.9z" fill="#5091CD"/></svg><view id="Folder-Flat-Empty" viewBox="283 230 18 16"/><svg width="18" height="16" fill="none" viewBox="0 0 18 16" x="283" y="230" xmlns="http://www.w3.org/2000/svg"><path opacity=".4" d="M8.2 2.2L7.5 0H0v4.4h7.5l.7-2.2z" fill="#fff"/><path d="M8.3 2.2L7.5 0H0v15.1h17.8v-13l-9.5.1zM6.8 1l.5 1.6-.7 1.1H1V1h5.8zm10 13.2H1V4.8h6.2l1-1.6h8.6v11z" fill="#5091CD"/></svg><view id="Folder-Flat-Full" viewBox="283 263 18 16"/><svg width="18" height="16" fill="none" viewBox="0 0 18 16" x="283" y="263" xmlns="http://www.w3.org/2000/svg"><path d="M8.2 2.2L7.5 0H0v15.1h17.8V2.2H8.2z" fill="#5091CD"/><path opacity=".4" d="M8.2 2.2L7.5 0H0v4.4h7.5l.7-2.2z" fill="#fff"/></svg><view id="Global_Settings--Account-Access" viewBox="96 91.15 30 43"/><svg width="30" height="43" fill="none" viewBox="0 0 30 43" x="96" y="91.15" xmlns="http://www.w3.org/2000/svg"><path d="M1 17.422v24.4h27.7v-24.4H1zm15 12.8v3.1c0 .6-.5 1.1-1.1 1.1-.6 0-1.1-.5-1.1-1.1v-3.1c-1-.4-1.7-1.4-1.7-2.6 0-1.6 1.3-2.8 2.8-2.8 1.5 0 2.8 1.3 2.8 2.8 0 1.2-.7 2.2-1.7 2.6z" stroke="#5091CD" stroke-width=".75" stroke-miterlimit="10"/><path d="M5.6 17.423c-.1-4-.2-8.1 1.6-11.7 1.1-2.3 2.9-3.9 5.1-4.4 2.7-.7 6.5-.4 8.8 2.3 3.3 3.7 3.1 9.1 3 13.8" stroke="#5091CD" stroke-width=".75" stroke-miterlimit="10"/><path d="M21.2 17.323c.1-4.2.2-8.9-2.3-11.8-1.5-1.7-4.2-1.8-6-1.4-1.3.3-2.4 1.3-3.1 2.8-1.5 3-1.4 6.8-1.3 10.4" stroke="#5091CD" stroke-width=".75" stroke-miterlimit="10"/></svg><view id="Global_Settings--Additional-Financials" viewBox="52 134.18 40 40"/><svg width="40" height="40" fill="none" viewBox="0 0 40 40" x="52" y="134.18" xmlns="http://www.w3.org/2000/svg"><path d="M38.9 1H1v37.9h37.9V1zM11 6.3v9.4M11 15.7V6.3M6.3 11h9.4M23.8 11h9.4M25.2 25.7l6.6 6.7M31.8 32.4l-6.6-6.7M25.2 32.4l6.6-6.7M6.3 29h9.4M10.4 32.5h1.1M10.4 25.4h1.1" stroke="#5091CD" stroke-width=".75" stroke-miterlimit="10"/></svg><view id="Global_Settings--Automation-Settings" viewBox="208 50 47 49"/><svg width="47" height="49" fill="none" viewBox="0 0 47 49" x="208" y="50" xmlns="http://www.w3.org/2000/svg"><path d="M8.789 41.7c-8.2-7.1-10.3-19.3-4.5-29 5.6-9.2 16.7-13 26.5-9.8" stroke="#5091CD" stroke-width=".75" stroke-miterlimit="10"/><path d="M28.089 4.7l-.3-.5 2.7-1.3-1.5-2.6.5-.3 1.8 3.1-3.2 1.6z" fill="#5091CD"/><path d="M38.589 7.4c8.2 7.1 10.4 19.4 4.5 29-5.9 9.7-17.9 13.5-28.1 9.3" stroke="#5091CD" stroke-width=".75" stroke-miterlimit="10"/><path d="M17.789 44l.2.6-2.7 1.1 1.3 2.7-.6.2-1.5-3.2 3.3-1.4z" fill="#5091CD"/><path d="M36.789 21.9l-.1-.3c-.2.1-.4.1-.6.1-1.5 0-2.7-1.2-2.7-2.7 0-.9.5-1.7 1.2-2.2-.9-1.3-1.9-2.4-3.2-3.3l-.4-.3c-.5.7-1.2 1.1-2.2 1.1-1.5 0-2.7-1.2-2.7-2.7v-.3H20.389v.3c0 1.5-1.2 2.7-2.7 2.7-.7 0-1.4-.3-1.8-.7-1.3.9-2.4 2.1-3.3 3.4.7.5 1.2 1.3 1.2 2.2 0 1.5-1.2 2.7-2.7 2.7h-.5c-.2.8-.3 1.7-.3 2.6 0 .9.1 1.8.3 2.6h.5c1.5 0 2.7 1.2 2.7 2.7 0 .9-.5 1.7-1.2 2.2.9 1.3 1.9 2.4 3.2 3.3.5-.5 1.2-.8 1.9-.8 1.5 0 2.7 1.2 2.7 2.7v.3c1.1.3 2.2.4 3.3.4.9 0 1.7-.1 2.5-.2v-.5c0-1.5 1.2-2.7 2.7-2.7.9 0 1.8.5 2.3 1.2 1.5-1 2.7-2.2 3.7-3.7-.8-.5-1.4-1.3-1.4-2.3 0-1.5 1.2-2.7 2.7-2.7.2 0 .5 0 .7.1.1-.8.2-1.6.2-2.4 0-1.1-.1-2-.3-2.8z" stroke="#5091CD" stroke-width=".75" stroke-miterlimit="10" stroke-linejoin="round"/><path d="M23.689 29a4.4 4.4 0 1 0 0-8.8 4.4 4.4 0 0 0 0 8.8z" stroke="#5091CD" stroke-width=".75" stroke-miterlimit="10" stroke-linejoin="round"/></svg><view id="Global_Settings--Core-Integration" viewBox="208 99 48 49"/><svg width="48" height="49" fill="none" viewBox="0 0 48 49" x="208" y="99" xmlns="http://www.w3.org/2000/svg"><path d="M44.7 33.6c-1.2 0-2.3.7-2.9 1.7l-6.3-3.6c.3-.3.5-.7.5-1.1V18.7l6.1-3.5c.6.7 1.5 1.2 2.5 1.2 1.8 0 3.3-1.5 3.3-3.3 0-1.8-1.5-3.3-3.3-3.3-1.8 0-3.3 1.5-3.3 3.3 0 .5.1 1 .4 1.5L35.8 18c-1-2-6.4-3.1-11.6-3.2V6.6c1.6-.2 2.9-1.6 2.9-3.3 0-1.8-1.5-3.3-3.3-3.3-1.8 0-3.3 1.5-3.3 3.3 0 1.7 1.3 3.1 3 3.3v8.2c-5.2 0-10.5 1.1-11.6 3.1l-5.5-3.2.3-.6c.4-1.7-.5-3.6-2.2-4.1-.4-.1-.7-.2-1.1-.2-1.4 0-2.7.9-3.2 2.3-.6 1.7.4 3.6 2.1 4.2.3.1.7.2 1 .2.9 0 1.8-.4 2.4-1.1l5.8 3.3v11.9c0 .4.2.8.5 1.1l-5.9 3.4c-.6-.9-1.6-1.5-2.8-1.5-1.8 0-3.3 1.5-3.3 3.3 0 1.8 1.5 3.3 3.3 3.3 1.8 0 3.3-1.5 3.3-3.3 0-.4-.1-.8-.2-1.1l6.2-3.6c2 1.3 6.4 2 10.7 2v7.6c-1.7.2-2.9 1.6-2.9 3.3 0 1.8 1.5 3.3 3.3 3.3 1.8 0 3.3-1.5 3.3-3.3 0-1.7-1.3-3.1-3-3.3v-7.6c4.3 0 8.7-.7 10.7-2.1l6.6 3.8c-.1.3-.1.6-.1.9 0 1.8 1.5 3.3 3.3 3.3 1.8 0 3.3-1.5 3.3-3.3.2-1.7-1.3-3.2-3.1-3.2zm0-23.1c1.4 0 2.6 1.2 2.6 2.6 0 1.4-1.2 2.6-2.6 2.6-1.4 0-2.6-1.1-2.6-2.6s1.2-2.6 2.6-2.6zM5.9 13.9c-.4 1.1-1.4 1.8-2.4 1.8-.3 0-.5 0-.8-.1-1.4-.4-2.1-1.9-1.6-3.3.4-1.1 1.4-1.8 2.4-1.8.3 0 .5 0 .8.1 1.3.5 2 2 1.6 3.3zM3.4 39.5C2 39.5.8 38.3.8 36.9c0-1.4 1.2-2.6 2.6-2.6 1.4 0 2.6 1.2 2.6 2.6 0 1.4-1.2 2.6-2.6 2.6zM21.2 3.3c0-1.4 1.2-2.6 2.6-2.6 1.4 0 2.6 1.2 2.6 2.6 0 1.4-1.2 2.6-2.6 2.6-1.4 0-2.6-1.2-2.6-2.6zm2.6 12.3c6.8 0 11.5 1.7 11.5 3.2 0 1.5-4.7 3.2-11.5 3.2s-11.5-1.7-11.5-3.2c0-1.5 4.7-3.2 11.5-3.2zm0 7.1c4.7 0 9.6-.9 11.5-2.5v2.6c0 1.4-4.7 2.9-11.5 2.9-6.6 0-11.3-1.5-11.4-2.8v-2.7c1.8 1.6 6.7 2.5 11.4 2.5zm-11.5 1.4c1.8 1.5 6.8 2.3 11.5 2.3s9.6-.8 11.5-2.3V26.7c0 1.5-4.7 3.2-11.5 3.2s-11.5-1.7-11.5-3.2v-2.6zm0 3.9c1.8 1.6 6.8 2.5 11.5 2.5s9.6-.9 11.5-2.5v2.6c0 1.4-4.7 2.9-11.5 2.9S12.3 32 12.3 30.6V28zm14.1 17.1c0 1.4-1.2 2.6-2.6 2.6-1.4 0-2.6-1.2-2.6-2.6 0-1.4 1.2-2.6 2.6-2.6 1.4 0 2.6 1.2 2.6 2.6zm18.3-5.6c-1.4 0-2.6-1.2-2.6-2.6 0-1.4 1.2-2.6 2.6-2.6 1.4 0 2.6 1.2 2.6 2.6 0 1.4-1.2 2.6-2.6 2.6z" fill="#5091CD"/></svg><view id="Global_Settings--Create-Desktop-Shortcut" viewBox="0 91.15 52 43.03"/><svg width="52" height="43.03" fill="none" viewBox="0 0 58 48" y="91.15" xmlns="http://www.w3.org/2000/svg"><path d="M22.8 39.7v5.1h-5.4v2.8H41v-2.8h-5.4v-5.1" stroke="#5091CD" stroke-width=".75" stroke-miterlimit="10"/><path d="M23.1 39.9h-20c-1.1 0-2-.9-2-2V3c0-1.1.9-2 2-2h52.4c1.1 0 2 .9 2 2v34.8c0 1.1-.9 2-2 2H23.1M1 34.6l56.4.1" stroke="#5091CD" stroke-width=".75" stroke-miterlimit="10"/><path d="M55.1 3.3H3.3v28.9h51.8V3.3z" stroke="#5091CD" stroke-width=".75" stroke-miterlimit="10"/></svg><view id="Global_Settings--Loan-Rate" viewBox="208 0 50 50"/><svg width="50" height="50" fill="none" viewBox="0 0 50 50" x="208" xmlns="http://www.w3.org/2000/svg"><path d="M16.13 17.13c.4-.7.9-1.3 1.6-1.7.7-.4 1.4-.6 2.3-.6 1.3 0 2.3.4 3.2 1.3.8.9 1.2 2 1.2 3.4 0 1.3-.4 2.5-1.2 3.3-.8.9-1.9 1.3-3.2 1.3-.8 0-1.6-.2-2.3-.6-.7-.4-1.2-1-1.6-1.7-.4-.7-.6-1.5-.6-2.4 0-.9.3-1.6.6-2.3zm6.3-.3c-.6-.8-1.5-1.1-2.5-1.1s-1.8.4-2.5 1.1c-.7.7-1 1.7-1 2.7 0 1 .3 1.9 1 2.7.6.8 1.5 1.1 2.5 1.1s1.8-.4 2.5-1.1c.6-.7 1-1.6 1-2.7s-.3-2-1-2.7zm8-1.7h1.1l-12.3 19.1h-1l12.2-19.1zm-4.8 12.4c.4-.7.9-1.3 1.6-1.7.7-.4 1.4-.6 2.3-.6.9 0 1.6.2 2.3.6.7.4 1.2 1 1.6 1.7.4.7.6 1.5.6 2.4 0 .9-.2 1.7-.6 2.4-.4.7-.9 1.3-1.6 1.7-.7.4-1.4.6-2.3.6-.9 0-1.6-.2-2.3-.6-.7-.4-1.2-1-1.6-1.7-.4-.7-.6-1.5-.6-2.4 0-.9.2-1.6.6-2.4zm6.3-.3c-.6-.8-1.5-1.1-2.5-1.1s-1.8.4-2.5 1.1c-.6.8-1 1.7-1 2.7 0 1.1.3 2 1 2.7.6.7 1.5 1.1 2.5 1.1s1.8-.4 2.5-1.1c.6-.7 1-1.6 1-2.7 0-1-.3-2-1-2.7z" fill="#5091CD"/><path d="M46.88 27.306c1.423-12.233-7.34-23.304-19.574-24.728C15.073 1.154 4.002 9.918 2.578 22.15 1.154 34.384 9.918 45.455 22.15 46.879c12.233 1.424 23.304-7.34 24.728-19.573z" stroke="#5091CD" stroke-width=".75" stroke-miterlimit="10"/></svg><view id="Global_Settings--Manage-Users" viewBox="52 52 52 30.48"/><svg width="52" height="30.48" fill="none" viewBox="0 0 58 34" x="52" y="52" xmlns="http://www.w3.org/2000/svg"><path d="M46.476 16.2a5.5 5.5 0 1 0 0-11 5.5 5.5 0 0 0 0 11zM44.276 30.9c5.4.2 11.6-.3 12.9-1.6 0 0 1.9-9.8-6.8-11.1-.3 0-.6-.1-.9-.1-.9.4-1.8.7-2.9.7-1 0-2-.2-2.9-.6-.3 0-.5.1-.8.1-.6.1-1.1.2-1.5.3M11.676 16.2a5.5 5.5 0 1 0 0-11 5.5 5.5 0 0 0 0 11zM17.076 18.6c-.5-.2-1-.3-1.6-.4-.3 0-.6-.1-.9-.1-.9.4-1.8.7-2.9.7-1 0-2-.2-2.9-.6-.3 0-.5.1-.8.1-8.7 1.3-6.8 11.1-6.8 11.1 1.2 1.2 7.3 1.8 12.7 1.6M29.176 14.8a6.9 6.9 0 1 0 0-13.8 6.9 6.9 0 0 0 0 13.8z" stroke="#5091CD" stroke-width=".75" stroke-miterlimit="10"/><path d="M33.876 17.3c-.4-.1-.8-.1-1.2-.2-1.1.5-2.3.8-3.6.8-1.3 0-2.5-.3-3.6-.8-.3 0-.7.1-1 .1-10.9 1.6-8.5 13.9-8.5 13.9 2.7 2.7 23.7 2.7 26.5 0 0 .1 2.4-12.2-8.6-13.8z" stroke="#5091CD" stroke-width=".75" stroke-miterlimit="10"/></svg><view id="Global_Settings--Merge-Duplicate-Customers" viewBox="52 91.15 44 43"/><svg width="44" height="43" fill="none" viewBox="0 0 44 43" x="52" y="91.15" xmlns="http://www.w3.org/2000/svg"><path d="M24.5 1.6v17s1 23.5-23.5 23.7M43.5 41.2c-8.1 0-15-5.1-17.8-12.3" stroke="#5091CD" stroke-width=".75" stroke-miterlimit="10"/><path d="M18 7.5L24.5 1 31 7.5" stroke="#5091CD" stroke-width=".75" stroke-miterlimit="10"/></svg><view id="Global_Settings--My-Account" viewBox="52 0 52 36.59"/><svg width="52" height="36.59" fill="none" viewBox="0 0 54 38" x="52" xmlns="http://www.w3.org/2000/svg"><path d="M7.1 37.1H1V1h52.2v36.1H7.1zM1.3 4.7h52.2M34.1 20.8H47M34.1 15.5H47M34.1 26H47" stroke="#5091CD" stroke-width=".75" stroke-miterlimit="10"/><path d="M18.4 24.3a5.4 5.4 0 1 0 0-10.8 5.4 5.4 0 0 0 0 10.8zM28.8 37.1s1.9-9.6-6.7-10.9c-.3 0-.6-.1-.9-.1-.9.4-1.8.6-2.8.6-1 0-1.9-.2-2.8-.6-.3 0-.5.1-.8.1-8.6 1.3-6.7 10.9-6.7 10.9" stroke="#5091CD" stroke-width=".75" stroke-miterlimit="10"/></svg><view id="Global_Settings--Third-Party-Connections" viewBox="156 47.54 52 41.96"/><svg width="52" height="41.96" fill="none" viewBox="0 0 57 46" x="156" y="47.54" xmlns="http://www.w3.org/2000/svg"><path d="M34.794 31.8c5.854 0 10.6-4.746 10.6-10.6 0-5.854-4.746-10.6-10.6-10.6-5.855 0-10.6 4.746-10.6 10.6 0 5.854 4.745 10.6 10.6 10.6zM24.794 23.2l-16.4 2.7M8.612 26.556a2.3 2.3 0 1 0-4.57-.53 2.3 2.3 0 0 0 4.57.53zM44.594 17.5l6.1-3.9M28.294 12.6l-3.9-6.4M25.794 26.3l-19.4 13M12.194 5l13.5 10.7M53.708 13.324a1.8 1.8 0 1 0-3.415-1.14 1.8 1.8 0 0 0 3.415 1.14zM10.394 5.6a2.3 2.3 0 1 0 0-4.6 2.3 2.3 0 0 0 0 4.6zM23.494 6.3a2.3 2.3 0 1 0 0-4.6 2.3 2.3 0 0 0 0 4.6zM5.874 43.483a2.9 2.9 0 1 0-3.6-4.548 2.9 2.9 0 0 0 3.6 4.548zM41.993 29l9.6 9.4M53.593 43.3a2.9 2.9 0 1 0 0-5.8 2.9 2.9 0 0 0 0 5.8z" stroke="#5091CD" stroke-width=".75" stroke-miterlimit="10"/><path d="M30.194 18.3v-1.7c0-.3.2-.5.4-.5s.4.2.4.5v2.3h1.6v-2.1c0-1.1-.9-2-2-2s-2 .9-2 2v1.6c0 1.1 2.4 3.2 2.4 4.4v3.1c0 .3-.2.5-.4.5s-.4-.2-.4-.5v-3.2h-1.6v3.1c0 1.1.9 2 2 2s2-.9 2-2v-3.1c.1-1.4-2.4-3.3-2.4-4.4zM37.394 21.4l-.9 6.4h-1.6l-1.2-13h1.6l.6 6.6.7-6.6h1.6l.6 6.6.6-6.6h1.7l-1.3 13h-1.6l-.8-6.4z" fill="#5091CD"/></svg><view id="Link" viewBox="51 204.49 13 17"/><svg width="13" height="17" fill="none" viewBox="0 0 13 17" x="51" y="204.49" xmlns="http://www.w3.org/2000/svg"><path d="M6.966 7.866c-.6-.4-1.4-.3-1.9.2l-.2.2c-.7.6-.6 1.7.1 2.4l3.4 3.4c.7.7 1.7.7 2.3.1l.3-.3c.6-.6.6-1.7-.1-2.3l-1.9-1.8 1-1 1.9 1.9c1.3 1.3 1.4 3.2.2 4.3l-.3.3c-1.1 1.1-3.1 1-4.3-.2l-3.5-3.5c-1.3-1.3-1.4-3.2-.2-4.3l.2-.3c1-1 2.7-1 3.9-.1" fill="#5091CD"/><path d="M5.866 8.266c.6.4 1.4.3 1.9-.2l.2-.2c.6-.6.6-1.7-.1-2.3l-3.5-3.5c-.6-.7-1.7-.8-2.3-.1l-.2.2c-.7.6-.6 1.7.1 2.3l1.9 1.9-1 1-1.9-1.9c-1.2-1.3-1.3-3.2-.2-4.4l.3-.3c1.1-1.1 3.1-1 4.3.2l3.5 3.5c1.3 1.3 1.4 3.2.2 4.3l-.3.4c-1 1-2.7 1-3.9.1" fill="#5091CD"/></svg><view id="Lock" viewBox="46 230.49 12 18"/><svg width="12" height="18" fill="none" viewBox="0 0 12 18" x="46" y="230.49" xmlns="http://www.w3.org/2000/svg"><path d="M0 7.187v10.4h11.8v-10.4H0zm6.4 5.4v1.3c0 .3-.2.5-.5.5s-.5-.2-.5-.5v-1.3c-.4-.2-.7-.6-.7-1.1 0-.7.5-1.2 1.2-1.2s1.2.5 1.2 1.2c0 .5-.3 1-.7 1.1z" fill="#777"/><path d="M9.5 8.187c0-2.1.4-4.7-1.2-6.3-.8-.9-2.3-1-3.4-.8-.9.2-1.5.7-1.9 1.5-1 1.7-.7 3.7-.7 5.6" stroke="#777" stroke-width="1.2" stroke-miterlimit="10"/></svg><view id="More-Options" viewBox="283 192 4 20"/><svg width="4" height="20" fill="none" viewBox="0 0 4 20" x="283" y="192" xmlns="http://www.w3.org/2000/svg"><circle cx="1.8" cy="17.8" r="1.8" transform="rotate(-90 1.8 17.8)" fill="#5091CD"/><circle cx="1.8" cy="1.8" r="1.8" transform="rotate(-90 1.8 1.8)" fill="#5091CD"/><circle cx="1.8" cy="9.8" r="1.8" transform="rotate(-90 1.8 9.8)" fill="#5091CD"/></svg><view id="Percent" viewBox="156 180.49 10 11"/><svg width="10" height="11" fill="none" viewBox="0 0 10 11" x="156" y="180.49" xmlns="http://www.w3.org/2000/svg"><path d="M.3 1.2C.5.8.8.5 1.1.3c.3-.2.8-.3 1.3-.3s.9.1 1.3.3c.4.2.7.5.9.9.2.4.2.8.2 1.3s-.1.9-.3 1.3c-.2.4-.5.6-.8.8-.4.2-.8.4-1.3.4s-.9-.2-1.3-.4c-.3-.2-.6-.5-.8-.8C.1 3.5 0 3 0 2.5s.1-.9.3-1.3zm3.2.2c-.3-.3-.6-.5-1.1-.5-.4 0-.8.2-1.1.5-.3.3-.4.6-.4 1.1 0 .4.1.8.4 1.1.3.3.7.4 1.1.4.4 0 .8-.1 1.1-.4.3-.3.4-.7.4-1.1 0-.5-.1-.8-.4-1.1zM7.8.2h.8l-6.4 10h-.7L7.8.2zM5.5 6.6c.2-.3.5-.6.9-.9.4-.2.8-.3 1.2-.3.4 0 .9.1 1.3.3.3.3.6.6.8.9.2.3.3.8.3 1.3s-.1.9-.3 1.3c-.2.4-.5.6-.8.8-.4.2-.8.3-1.3.3s-.9 0-1.2-.3c-.4-.2-.7-.5-.9-.8-.2-.4-.3-.8-.3-1.3s.1-.9.3-1.3zm3.2.2c-.3-.3-.6-.4-1.1-.4-.5 0-.8.1-1.1.4-.3.3-.4.7-.4 1.1 0 .4.1.8.4 1.1.3.3.6.4 1.1.4.5 0 .8-.1 1.1-.4.3-.3.5-.7.5-1.1 0-.4-.2-.8-.5-1.1z" fill="#999"/></svg><view id="Policy-Exception-Empty" viewBox="258 114 23 19"/><svg width="23" height="19" fill="none" viewBox="0 0 23 19" x="258" y="114" xmlns="http://www.w3.org/2000/svg"><path d="M7.1 4.1c-2.9 0-5.2 2.3-5.2 5.2 0 2.9 2.3 5.2 5.2 5.2 2.9 0 5.2-2.3 5.2-5.2 0-2.9-2.3-5.2-5.2-5.2zm0 8.2c-.3 0-.6-.3-.6-.6s.3-.6.6-.6.6.3.6.6-.2.6-.6.6z" stroke="#5091CD" stroke-width=".2" stroke-miterlimit="10"/><path d="M7.1 3.2C3.7 3.2 1 5.9 1 9.3c0 3.4 2.7 6.1 6.1 6.1 3.4 0 6.1-2.7 6.1-6.1 0-3.4-2.7-6.1-6.1-6.1zm0 .9c2.9 0 5.2 2.3 5.2 5.2 0 2.9-2.3 5.2-5.2 5.2-2.9 0-5.2-2.3-5.2-5.2 0-2.9 2.3-5.2 5.2-5.2z" fill="#5091CD" stroke="#5091CD" stroke-width=".2" stroke-miterlimit="10"/><path d="M6.4 11.6c0-.4.3-.7.7-.7.4 0 .7.3.7.7 0 .4-.3.7-.7.7-.4 0-.7-.3-.7-.7zm.2-1.3l-.2-4h1.4l-.2 4h-1z" fill="#5091CD" stroke="#5091CD" stroke-width=".2" stroke-miterlimit="10"/><path d="M15.6 1v6.2h6.1" stroke="#5091CD" stroke-width="1.1" stroke-miterlimit="10"/><path d="M7.1 15.2v2.4h14.6V7l-5.9-5.9H7.1v2.5" stroke="#5091CD" stroke-width="1.1" stroke-miterlimit="10"/></svg><view id="Policy-Exception-Full" viewBox="283 101 21 18"/><svg width="21" height="18" fill="none" viewBox="0 0 21 18" x="283" y="101" xmlns="http://www.w3.org/2000/svg"><path d="M14.1.1v6.1h6l-6-6.1zM5.4 13.9h.5c.2 0 .3-.1.5-.1h.2c.2-.1.3-.1.5-.2.6-.3 1.1-.6 1.6-1.1.5-.5.8-1 1.1-1.6.1-.2.1-.4.2-.5v-.1c0-.2.1-.3.1-.5v-.1-.5V9v-.4-.3-.2c-.1-.5-.2-1-.4-1.4-.1-.3-.2-.5-.3-.6V6c-.1-.1-.2-.3-.3-.4-.4-.4-.8-.8-1.2-1.1 0 0-.1 0-.1-.1-.2 0-.3-.1-.4-.2 0 0-.1 0-.1-.1-.2 0-.3-.1-.5-.1h-.1c-.3-.1-.7-.2-1-.3h-.6c-.3 0-.5 0-.8.1h-.2c-.2.1-.5.1-.7.2-.1 0-.2 0-.2.1-.3.1-.5.2-.7.3 0 .1-.1.1-.2.2-.3.1-.5.3-.8.6-.2.2-.4.4-.6.7 0 .1-.1.1-.1.2-.1.2-.3.4-.4.7v.1c-.1.3-.2.5-.3.7 0 .1 0 .2-.1.3v1.5c0 .1 0 .3.1.4 0 .2.1.4.1.6v.2c.1.1.1.3.2.4 0 0 0 .1.1.1.1.1.1.3.2.4 0 0 0 .1.1.1.3.4.6.9 1.1 1.2.1.1.3.2.4.3h.1c.2.1.3.2.5.3.5.2 1 .4 1.5.5h1zm.5-8.2l-.2 4H4.5v-.1l-.2-3.9h1.6zm-1.6 5.4c0-.5.4-.8.8-.8s.8.4.8.8-.4.8-.8.8-.8-.3-.8-.8z" fill="#5091CD"/><path d="M13 7.3V0H4.6v2.7c.6-.1 1.3 0 2 .1 2.3.5 4.1 2.4 4.6 4.6.5 2.1-.1 4.3-1.7 5.8C8.3 14.4 6.7 15 5.1 15h-.5v2.6h15.6V7.3H13z" fill="#5091CD"/></svg><view id="Print" viewBox="283 212 19 18"/><svg width="19" height="18" fill="none" viewBox="0 0 19 18" x="283" y="212" xmlns="http://www.w3.org/2000/svg"><path d="M16.5 4.7h-1.8V.8H3.6v3.9H.8v8.4h2.8v3.7h11.1v-3.7h2.9V4.7h-1.1zM5.1 2.3h8.1v2.4H5.1V2.3zm8.3 13.1H5.1V8.7h8.3v6.7z" fill="#5091CD"/><path d="M11.6 10.3H6.8v1.5h4.8v-1.5zM11.6 12.5H6.8V14h4.8v-1.5z" fill="#5091CD"/></svg><view id="Question-Bubble" viewBox="188 134.18 18 18"/><svg width="18" height="18" fill="none" viewBox="0 0 18 18" x="188" y="134.18" xmlns="http://www.w3.org/2000/svg"><path d="M8.9 0C4 0 0 4 0 8.9s4 8.9 8.9 8.9 8.9-4 8.9-8.9S13.8 0 8.9 0zm0 16.5c-4.2 0-7.6-3.4-7.6-7.6 0-4.2 3.4-7.6 7.6-7.6 4.2 0 7.6 3.4 7.6 7.6 0 4.2-3.4 7.6-7.6 7.6z" fill="#5091CD"/><path d="M8.9 11.5c-.5 0-.9.4-.9.9s.4.9.9.9.9-.4.9-.9-.4-.9-.9-.9zM9 4.5c-1.1 0-2.1.5-2.8 1.3l.9 1c.4-.5 1-.9 1.8-.9s1.2.4 1.2.9C10.1 7.9 8 8 8 9.6c0 .4.2.8.5 1.1l1.1-.4c-.2-.1-.3-.4-.3-.6 0-1.1 2.3-1.3 2.3-3.2 0-1.1-1-2-2.6-2z" fill="#5091CD"/></svg><view id="Relationship" viewBox="86 180.49 26 16"/><svg width="26" height="16" fill="none" viewBox="0 0 26 16" x="86" y="180.49" xmlns="http://www.w3.org/2000/svg"><path d="M12.6 6a3 3 0 1 0 0-6 3 3 0 0 0 0 6zM15.4 6.6c-2.8 1.7-5.5 0-5.5 0-1.4.8-2.4 2.3-2.4 4V16h10.2v-5.4c0-1.6-.9-3.1-2.3-4zM2.4 9.3c-1.4.8-2.4 2.3-2.4 4V16h6.2V9.9c-2.1.5-3.8-.6-3.8-.6zM5.1 8.6a3 3 0 1 0 0-6 3 3 0 0 0 0 6zM20.2 8.6a3 3 0 1 0 0-6 3 3 0 0 0 0 6zM23 9.3c-1.4.9-2.8.9-3.9.6V16h6.2v-2.7c0-1.7-1-3.2-2.3-4z" fill="#5091CD"/></svg><view id="Sageworks-Logo" viewBox="156 89.5 52 18.43"/><svg width="52" height="18.43" fill="none" viewBox="0 0 127 45" x="156" y="89.5" xmlns="http://www.w3.org/2000/svg"><path d="M4.6 15.5V11c0-.8.5-1.4 1-1.4.6 0 1 .6 1 1.4v6.2H11v-5.6c0-3-2.4-5.5-5.5-5.5-3 0-5.5 2.4-5.5 5.5V16c.2 3.2 6.7 8.7 6.7 12v8.3c0 .8-.5 1.4-1 1.4-.6 0-1-.6-1-1.4v-8.9H.2v8.3c0 3 2.4 5.5 5.5 5.5 3 0 5.5-2.4 5.5-5.5v-8.3c-.1-3.9-6.6-9-6.6-11.9z" fill="#5091CD"/><path d="M82 36.3c0 .8-.5 1.4-1 1.4-.6 0-1-.6-1-1.4V11c0-.8.5-1.4 1-1.4.6 0 1 .6 1 1.4v25.3zm4.4-24.6c0-3-2.4-5.5-5.5-5.5-3 0-5.5 2.4-5.5 5.5v23.9c0 3 2.4 5.5 5.5 5.5 3 0 5.5-2.4 5.5-5.5V11.7zM118.5 15.5V11c0-.8.5-1.4 1-1.4.6 0 1 .6 1 1.4v6.2h4.4v-5.6c0-3-2.4-5.5-5.5-5.5-3 0-5.5 2.4-5.5 5.5V16c0 3.1 6.5 8.7 6.5 11.9v8.3c0 .8-.5 1.4-1 1.4-.6 0-1-.6-1-1.4v-8.9H114v8.3c0 3 2.4 5.5 5.5 5.5 3 0 5.5-2.4 5.5-5.5v-8.3c0-3.8-6.5-8.9-6.5-11.8z" fill="#000"/><path d="M18.4 25.1v11.1c0 .8.5 1.4 1 1.4.6 0 1-.6 1-1.4V21.9c.1 0-2 1.2-2 3.2zm2.1 14.2c-.3.7-1.1 1.7-2.5 1.7-2.2 0-4-2.1-4-5.1V25.1c0-4.9 6.5-7.4 6.5-7.4V11c0-.8-.5-1.4-1-1.4-.6 0-1 .6-1 1.4v4.1h-4.4v-3.4c0-3 2.4-5.5 5.5-5.5 3 0 5.5 2.4 5.5 5.5v29.4h-4.4l-.2-1.8zM34.4 11c0-.8-.5-1.4-1-1.4-.6 0-1 .6-1 1.4v23c0 .8.5 1.4 1 1.4s1-.6 1-1.4V11zm-7.2 32.2l1.5-2.6s1.5 1 3.5 1c1.3 0 2.2-1.1 2.2-2.7v-1.7c-.3.7-1.1 1.7-2.5 1.7-2.2 0-4-2.1-4-5.1V11.4c0-3 1.8-5.1 4-5.1 1.4 0 2.2 1 2.5 1.7V6.3h4.4v33.8c0 1.7-2.4 4.6-6.2 4.6-2.8 0-5.4-1.5-5.4-1.5zM46.1 36.3c0 .8.5 1.4 1 1.4.6 0 1-.6 1-1.4v-8.9h4.4v8.3c0 3-2.4 5.5-5.5 5.5s-5.3-2.6-5.3-5.6V11.7c0-3 2.4-5.5 5.5-5.5s5.5 2.4 5.5 5.5v11.2h-6.5l-.1 13.4zM48.2 11c0-.8-.5-1.4-1-1.4-.6 0-1 .6-1 1.4v8.5h2.1l-.1-8.5z" fill="#5091CD"/><path d="M99.2 19.5h-4.4V11c0-.8-.5-1.4-1-1.4-.6 0-1 .6-1 1.4v30h-4.4V6.2h4.3v1.7c.3-.6 1.1-1.7 2.5-1.7 2.2 0 4 2.1 4 5.1v8.2zM64 23.9l-2.2 17.2h-4.4L54.1 6.2h4.4l1.7 17.7 1.6-17.7h4.4l1.7 17.7 1.6-17.7h4.4l-3.3 34.9h-4.4L64 23.9zM105.5 25.1v16h-4.4V0h4.4v18.5l2.4-12.3h4.4L109.5 22l2.8 19.1h-4.4l-2.4-16z" fill="#000"/><path d="M125.5 4.5c.2 0 .4.1.6.2.2.1.3.3.5.5.1.2.2.4.2.6 0 .2-.1.4-.2.6-.1.2-.3.3-.5.5-.2.1-.4.2-.6.2-.2 0-.4-.1-.6-.2-.2-.1-.3-.3-.5-.5-.1-.2-.2-.4-.2-.6 0-.2.1-.4.2-.6.1-.2.3-.3.5-.5s.4-.2.6-.2zm0 .2c-.3 0-.5.1-.7.3-.2.2-.3.4-.3.7 0 .3.1.5.3.7.2.2.4.3.7.3.3 0 .5-.1.7-.3.2-.2.3-.4.3-.7 0-.3-.1-.5-.3-.7-.1-.2-.4-.3-.7-.3zm-.2 1.7h-.2V5.1h.8c.1 0 .1.1.2.1 0 .1.1.1.1.2s0 .2-.1.3c-.1.1-.2.1-.3.1.1 0 .1.1.1.1l.2.2.2.3h-.3l-.2-.2c-.1-.1-.2-.2-.2-.3 0 0-.1-.1-.2-.1h-.1v.6zm0-1.2v.4h.5c.1 0 .1-.1.1-.2s0-.1-.1-.2h-.5z" fill="#231F20"/></svg><view id="Search" viewBox="283 246 18 17"/><svg width="18" height="17" fill="none" viewBox="0 0 18 17" x="283" y="246" xmlns="http://www.w3.org/2000/svg"><path d="M17.5 15.1l-5.5-5c.7-1 1.1-2.3 1.1-3.6C13 2.9 10.1 0 6.5 0 2.9 0 0 2.9 0 6.5S2.9 13 6.5 13c1.5 0 2.9-.5 4-1.4l5.5 5c.2.2.5.3.7.3.3 0 .6-.1.8-.4.5-.4.4-1 0-1.4zm-11-3.8c-2.6 0-4.8-2.2-4.8-4.8 0-2.6 2.2-4.8 4.8-4.8 2.6 0 4.8 2.2 4.8 4.8 0 2.6-2.1 4.8-4.8 4.8z" fill="#5091CD"/></svg><view id="Tax-Mapping-T" viewBox="122 204.49 11 14"/><svg width="11" height="14" fill="none" viewBox="0 0 11 14" x="122" y="204.49" xmlns="http://www.w3.org/2000/svg"><path d="M0 0v3h3.7v10.3h3.5V3h3.7V0H0z" fill="#5091CD"/></svg><view id="Tax-Return" viewBox="92 158.18 27 16"/><svg width="27" height="16" fill="none" viewBox="0 0 27 16" x="92" y="158.18" xmlns="http://www.w3.org/2000/svg"><path d="M0 0v16h26.6V0H0zm10.8 5.6H8.3v6.9H6V5.6H3.5v-2h7.3v2zm8.3 8.4h-4v-2.8h4V14zm0-4.5h-4V6.6h4v2.9zm0-4.5h-4V2h4v3zm5.7 9h-4v-2.8h4V14zm0-4.5h-4V6.6h4v2.9zm0-4.5h-4V2h4v3z" fill="#5091CD"/></svg><view id="Text-Bubble-Empty" viewBox="283 119 21 18"/><svg width="21" height="18" fill="none" viewBox="0 0 21 18" x="283" y="119" xmlns="http://www.w3.org/2000/svg"><path d="M19.7 1v8.6H5.2v4.9L1 10.2V1h18.7zm1-1H0v10.6l6.1 6.5v-6.5h14.5V0h.1z" fill="#5091CD"/></svg><view id="Text-Bubble-Full" viewBox="283 137 21 18"/><svg width="21" height="18" fill="none" viewBox="0 0 21 18" x="283" y="137" xmlns="http://www.w3.org/2000/svg"><path d="M.5 10.4V.5h19.7v9.6H5.7l-.1 5.7-5.1-5.4z" fill="#5091CD"/><path d="M19.7 1v8.6H5.2v4.9L1 10.2V1h18.7zm1-1H0v10.6l6.1 6.5v-6.5h14.5V0h.1z" fill="#5091CD"/></svg><view id="White--Arrow-White" viewBox="52 36.59 31 10"/><svg width="31" height="10" fill="none" viewBox="0 0 31 10" x="52" y="36.59" xmlns="http://www.w3.org/2000/svg"><path d="M0 5h29.7" stroke="#D5D5D5" stroke-width="1.22" stroke-miterlimit="10"/><path d="M25.6 10l-.8-.9L29.2 5 24.8.9l.8-.9L31 5l-5.4 5z" fill="#D5D5D5"/></svg><view id="White--Chevron-Down-White" viewBox="258 247 13 8"/><svg width="13" height="8" fill="none" viewBox="0 0 13 8" x="258" y="247" xmlns="http://www.w3.org/2000/svg"><path d="M6.4 7.1L0 .7.7 0l5.7 5.6L12 0l.7.7-6.3 6.4z" fill="#fff"/></svg><view id="White--Chevron-Left-White" viewBox="133 204.49 8 13"/><svg width="8" height="13" fill="none" viewBox="0 0 8 13" x="133" y="204.49" xmlns="http://www.w3.org/2000/svg"><path d="M0 6.4L6.4 0l.7.7-5.7 5.7L7.1 12l-.7.7L0 6.4z" fill="#fff"/></svg><view id="White--Chevron-Right-White" viewBox="141 204.49 8 13"/><svg width="8" height="13" fill="none" viewBox="0 0 8 13" x="141" y="204.49" xmlns="http://www.w3.org/2000/svg"><path d="M7.1 6.4L.7 12.7 0 12l5.6-5.6L0 .7.7 0l6.4 6.4z" fill="#fff"/></svg><view id="White--Chevron-Up-White" viewBox="221 172 13 8"/><svg width="13" height="8" fill="none" viewBox="0 0 13 8" x="221" y="172" xmlns="http://www.w3.org/2000/svg"><path d="M6.4 0l6.3 6.4-.7.7-5.6-5.7L.7 7.1 0 6.4 6.4 0z" fill="#fff"/></svg><view id="White--Delete-White" viewBox="145 180.49 11 11"/><svg width="11" height="11" fill="none" viewBox="0 0 11 11" x="145" y="180.49" xmlns="http://www.w3.org/2000/svg"><path d="M10.7.7L10 0 5.4 4.6.7 0 0 .7l4.6 4.7L0 10l.7.7 4.7-4.6 4.6 4.6.7-.7-4.6-4.6L10.7.7z" fill="#fff"/></svg><view id="White--administration" viewBox="283 22 22 21"/><svg width="22" height="21" fill="none" viewBox="0 0 22 21" x="283" y="22" xmlns="http://www.w3.org/2000/svg"><path d="M7.7 2.67h6M5.3.524v3.971M16.1.524v3.971M19 2.67h1.9v17.064l-20 .107V2.671h1.9" stroke="#fff" stroke-width=".9" stroke-miterlimit="10"/><path d="M6.7 7.393H4.2v2.683h2.5V7.393zM12.1 7.393H9.6v2.683h2.5V7.393zM17.3 7.393h-2.5v2.683h2.5V7.393zM17.5 13.402H15v2.683h2.5v-2.683zM6.7 13.402H4.2v2.683h2.5v-2.683zM12 13.402H9.5v2.683H12v-2.683z" stroke="#fff" stroke-width=".9" stroke-miterlimit="10"/></svg><view id="White--alll-cecl" viewBox="0 230.49 20 26"/><svg width="20" height="26" fill="none" viewBox="0 0 20 26" y="230.49" xmlns="http://www.w3.org/2000/svg"><path d="M19.1.841H1v23.825h18.1V.84zM15.5 5.349H5" stroke="#fff" stroke-miterlimit="10"/><path d="M6.1 12.217c.6 0 1.1-.537 1.1-1.18 0-.644-.5-1.18-1.1-1.18-.6 0-1.1.536-1.1 1.18 0 .643.5 1.18 1.1 1.18zM10.1 12.217c.6 0 1.1-.537 1.1-1.18 0-.644-.5-1.18-1.1-1.18-.6 0-1.1.536-1.1 1.18 0 .643.5 1.18 1.1 1.18zM14.1 12.217c.6 0 1.1-.537 1.1-1.18 0-.644-.5-1.18-1.1-1.18-.6 0-1.1.536-1.1 1.18 0 .643.5 1.18 1.1 1.18zM6.1 16.51c.6 0 1.1-.537 1.1-1.18 0-.645-.5-1.181-1.1-1.181-.6 0-1.1.536-1.1 1.18 0 .644.5 1.18 1.1 1.18zM10.1 16.51c.6 0 1.1-.537 1.1-1.18 0-.645-.5-1.181-1.1-1.181-.6 0-1.1.536-1.1 1.18 0 .644.5 1.18 1.1 1.18zM14.1 16.51c.6 0 1.1-.537 1.1-1.18 0-.645-.5-1.181-1.1-1.181-.6 0-1.1.536-1.1 1.18 0 .644.5 1.18 1.1 1.18zM6.1 20.802c.6 0 1.1-.536 1.1-1.18 0-.644-.5-1.18-1.1-1.18-.6 0-1.1.536-1.1 1.18 0 .644.5 1.18 1.1 1.18zM10.1 20.802c.6 0 1.1-.536 1.1-1.18 0-.644-.5-1.18-1.1-1.18-.6 0-1.1.536-1.1 1.18 0 .644.5 1.18 1.1 1.18zM14.1 20.802c.6 0 1.1-.536 1.1-1.18 0-.644-.5-1.18-1.1-1.18-.6 0-1.1.536-1.1 1.18 0 .644.5 1.18 1.1 1.18z" fill="#fff"/></svg><view id="White--analysis" viewBox="258 0 25 23"/><svg width="25" height="23" fill="none" viewBox="0 0 25 23" x="258" xmlns="http://www.w3.org/2000/svg"><path d="M2.7 17.515c.9 0 1.7-.859 1.7-1.825s-.8-1.824-1.7-1.824c-.9 0-1.7.858-1.7 1.824-.1.966.7 1.825 1.7 1.825zM8.8 10.861c.9 0 1.7-.751 1.7-1.824 0-.966-.8-1.825-1.7-1.825-1 0-1.7.859-1.7 1.825 0 1.073.7 1.824 1.7 1.824zM15.9 13.758c.9 0 1.7-.858 1.7-1.824 0-.966-.8-1.824-1.7-1.824-.9 0-1.7.858-1.7 1.824.1.966.8 1.825 1.7 1.825zM22.6 4.637c.9 0 1.7-.859 1.7-1.825S23.5.988 22.6.988c-.9 0-1.7.858-1.7 1.824.1.966.8 1.825 1.7 1.825zM1.2 21.915h23.7M17.3 10.432l4.5-6.01M10.6 9.788l4 1.61M3.6 14.295l3.9-3.756" stroke="#fff" stroke-width=".9" stroke-miterlimit="10"/></svg><view id="White--analytics-and-reporting" viewBox="283 65 21 21"/><svg width="21" height="21" fill="none" viewBox="0 0 21 21" x="283" y="65" xmlns="http://www.w3.org/2000/svg"><path d="M.5 19.627h20M2.2 15.978V9.432h3.2v6.546M8.5 15.978V4.71h3.2v11.268M14.8 15.978V.954h3.3v15.024" stroke="#fff" stroke-width=".9" stroke-miterlimit="10"/></svg><view id="White--application" viewBox="32 180.49 27 22"/><svg width="27" height="22" fill="none" viewBox="0 0 27 22" x="32" y="180.49" xmlns="http://www.w3.org/2000/svg"><path d="M3 4.924V1.061h20.9v15.883H3V4.924zM.5 20.915h25.9" stroke="#fff" stroke-miterlimit="10"/><path d="M6.9 8.037l.3 1.395c.1.322.2.75.2 1.073.1-.322.2-.751.3-1.073L8 8.037h.6L9 9.432c.1.322.2.75.2 1.073 0-.322.1-.644.2-1.073l.4-1.395h.7l-.9 3.112h-.7L8.5 9.86c0-.322-.1-.537-.2-.966-.1.43-.1.751-.2.966l-.4 1.288H7l-.8-3.112h.7zM11.8 8.037l.3 1.395c.1.322.1.644.2.966.1-.215.2-.644.2-.966l.4-1.395h.6l.4 1.395c.1.322.2.75.2 1.073 0-.322.1-.644.2-1.073l.4-1.395h.7l-.9 3.112h-.7l-.3-1.288c-.1-.322-.2-.644-.2-.966-.1.43-.1.644-.2.966l-.4 1.288H12l-.9-3.112h.7zM16.7 8.037l.3 1.395c.1.322.1.644.2.966.1-.322.2-.644.2-.966l.4-1.395h.6l.4 1.395c.1.322.2.75.2 1.073 0-.322.1-.644.2-1.073l.3-1.395h.7l-.9 3.112h-.7l-.3-1.288c-.1-.322-.2-.644-.2-.966-.1.43-.1.644-.2.966l-.4 1.288h-.7l-.9-3.112h.8z" fill="#fff"/></svg><view id="White--community" viewBox="258 179 22 23"/><svg width="22" height="23" fill="none" viewBox="0 0 22 23" x="258" y="179" xmlns="http://www.w3.org/2000/svg"><path d="M11 22c5.523 0 10-4.477 10-10S16.523 2 11 2 1 6.477 1 12s4.477 10 10 10z" stroke="#fff" stroke-width=".9" stroke-miterlimit="10"/><path d="M11 15.213c-.618 0-1.112.495-1.112 1.113s.494 1.112 1.112 1.112c.618 0 1.112-.494 1.112-1.112 0-.618-.494-1.113-1.112-1.113zM11.123 6.562c-1.359 0-2.595.618-3.46 1.607l1.112 1.236C9.27 8.787 10.011 8.292 11 8.292c.989 0 1.483.495 1.483 1.113 0 1.359-2.595 1.483-2.595 3.46 0 .495.247.989.617 1.36l1.36-.495c-.247-.123-.37-.494-.37-.741 0-1.36 2.842-1.607 2.842-3.955 0-1.36-1.236-2.472-3.213-2.472z" fill="#fff"/></svg><view id="White--contact" viewBox="20 230.49 26 19"/><svg width="26" height="19" fill="none" viewBox="0 0 26 19" x="20" y="230.49" xmlns="http://www.w3.org/2000/svg"><path d="M22.5 1.1l2.3 2.3-13 12.9-3.5 1.3 1.4-3.8L22.5 1.1zM20.5 3.1l2.3 2.3M.5 15.2h6.1M.5 9.4h9.7M.5 3.6h12.8" stroke="#fff" stroke-width=".9" stroke-miterlimit="10"/></svg><view id="White--global-settings" viewBox="258 224 23 23"/><svg width="23" height="23" fill="none" viewBox="0 0 23 23" x="258" y="224" xmlns="http://www.w3.org/2000/svg"><path d="M21.649 9.431l-.079-.237c-.156.079-.313.079-.47.079a2.119 2.119 0 0 1-2.115-2.14c0-.713.392-1.347.94-1.743a12.74 12.74 0 0 0-2.506-2.536l-.314-.238c-.391.555-.94.872-1.723.872a2.119 2.119 0 0 1-2.115-2.14v-.237H8.8v.237c0 1.189-.94 2.14-2.115 2.14-.626 0-1.096-.238-1.488-.555-1.018.713-1.88 1.585-2.507 2.615.549.396.94 1.03.94 1.744 0 1.188-.94 2.14-2.115 2.14h-.392a8.733 8.733 0 0 0-.235 2.06c0 .713.079 1.426.235 2.06h.392c1.175 0 2.115.951 2.115 2.14 0 .713-.391 1.347-.94 1.743.705 1.03 1.489 1.902 2.507 2.615.392-.396.94-.634 1.488-.634 1.175 0 2.116.951 2.116 2.14v.238c.861.237 1.723.316 2.585.316.705 0 1.331-.079 1.958-.158v-.396c0-1.189.94-2.14 2.115-2.14.705 0 1.41.396 1.802.951a10.276 10.276 0 0 0 2.898-2.932c-.626-.396-1.096-1.03-1.096-1.823 0-1.188.94-2.14 2.115-2.14.157 0 .392 0 .548.08.078-.634.157-1.268.157-1.902-.079-.872-.157-1.505-.235-2.219z" stroke="#fff" stroke-width=".9" stroke-miterlimit="10" stroke-linejoin="round"/><path d="M11.386 15.058c1.904 0 3.447-1.561 3.447-3.487 0-1.926-1.543-3.487-3.447-3.487-1.903 0-3.447 1.561-3.447 3.487 0 1.926 1.544 3.487 3.447 3.487z" stroke="#fff" stroke-width=".9" stroke-miterlimit="10" stroke-linejoin="round"/></svg><view id="White--insights" viewBox="0 204.49 25 26"/><svg width="25" height="26" fill="none" viewBox="0 0 25 26" y="204.49" xmlns="http://www.w3.org/2000/svg"><path d="M12.8 20.9c-1.3.1-2.1.1-2.3-.3-.3-.5-.3-1.7-.9-3.1-1.1-2.4-2-3.2-2.1-5-.1-3.6 2.8-5.4 4.9-5.4 2.1-.1 5.1 1.4 5.3 5.1.1 1.8-.9 2.7-1.8 5.1-.5 1.5-.4 2.7-.7 3.2-.3.3-1.1.3-2.4.4zM3.6 4l3.3 3.1M.5 11.8l4.6.2M21.5 4l-3.4 3.1M24.5 11.8l-4.6.2M12.5 4.8V.5M10.6 23.5h4.2M10.6 25.3h4.2" stroke="#fff" stroke-miterlimit="10"/></svg><view id="White--miscellaneous" viewBox="283 0 22 22"/><svg width="22" height="22" fill="none" viewBox="0 0 22 22" x="283" xmlns="http://www.w3.org/2000/svg"><path d="M10.9 21c5.5 0 10-4.5 10-10s-4.5-10-10-10S.9 5.5.9 11s4.5 10 10 10zM10.9 5.9v10M5.9 10.8h10" stroke="#fff" stroke-width=".9" stroke-miterlimit="10"/></svg><view id="White--portfolio" viewBox="258 46 24 22"/><svg width="24" height="22" fill="none" viewBox="0 0 24 22" x="258" y="46" xmlns="http://www.w3.org/2000/svg"><path d="M23 5.602H1V20.52h22V5.602zM1.2 14.724h21.6" stroke="#fff" stroke-miterlimit="10"/><path d="M6.8 5.173V.988h10.6v4.4" stroke="#fff" stroke-width="1.077" stroke-miterlimit="10"/><path d="M5.2 14.832c0-1.395.8-2.576 1.9-2.576 1.1 0 1.9 1.18 1.9 2.576M15.1 14.832c0-1.395.8-2.576 1.9-2.576 1.1 0 1.9 1.18 1.9 2.576" fill="#fff"/></svg><view id="White--profile" viewBox="240 148 14 18"/><svg width="14" height="18" fill="none" viewBox="0 0 14 18" x="240" y="148" xmlns="http://www.w3.org/2000/svg"><path d="M10.4 4.2C10.4 6 9 7.5 7.2 7.5 5.4 7.5 4 6 4 4.2 4 2.4 5.5 1 7.2 1c1.8-.1 3.2 1.4 3.2 3.2zM9.4 9.4c-.2 0-.4-.1-.5-.1-.6.2-1.1.4-1.7.4-.6 0-1.2-.2-1.7-.4-.2 0-.3.1-.5.1-5.1.8-4 6.6-4 6.6 1.3 1.3 11.2 1.3 12.4 0 .1-.1 1.1-5.9-4-6.6z" stroke="#fff" stroke-width=".9" stroke-miterlimit="10"/></svg><view id="White--stress-testing" viewBox="25 204.49 26 17"/><svg width="26" height="17" fill="none" viewBox="0 0 26 17" x="25" y="204.49" xmlns="http://www.w3.org/2000/svg"><path d="M13.4 10.9l4.4-6.332-1.8 7.405" fill="#fff"/><path d="M6.6 10.793l-2-.859M13.1 5.963v-2.36M9 15.837H1v-1.825C1 6.822 6.4 1.134 13 1.134S25 6.93 25 14.012v1.825h-7.8v-.644c0-2.469-1.8-4.4-4.1-4.4S9 12.724 9 15.193v.644zM19.6 11.222l2-.751" stroke="#fff" stroke-miterlimit="10"/></svg><view id="White--workflow" viewBox="23 256.49 22 21"/><svg width="22" height="21" fill="none" viewBox="0 0 22 21" x="23" y="256.49" xmlns="http://www.w3.org/2000/svg"><path d="M9.8 19.8c-3.9-1-6.7-4.5-6.8-8.6" stroke="#fff" stroke-width=".9" stroke-miterlimit="10"/><path d="M5.3 12.1L3.4 7.7.5 11.5l4.8.6z" fill="#fff"/><path d="M21.3 9.1c.1.6.2 1.1.2 1.8 0 3.3-1.8 6.2-4.4 7.8" stroke="#fff" stroke-width=".9" stroke-miterlimit="10"/><path d="M16.7 16.1L13.8 20l4.8.6-1.9-4.5z" fill="#fff"/><path d="M5.9 4c1.6-1.5 3.9-2.4 6.3-2.4 1.6 0 3.2.4 4.5 1.1" stroke="#fff" stroke-width=".9" stroke-miterlimit="10"/><path d="M14.5 4.3l4.8.6L17.5.5l-3 3.8z" fill="#fff"/></svg></svg>