<svg style="display: none;"><symbol viewBox="0 0 27 17" id="icon-Adobe"><title>Adobe</title> <path d="M3.6 12.7C3.9 12.5 4.2 12.3 4.6 12.1L4.7 12C5.1 11.8 5.4 11.6 5.8 11.4C5.8 11.4 5.9 11.4 5.9 11.3C6.3 11.1 6.8 10.9 7.3 10.7C8.1 9.20001 8.7 7.80001 9.1 6.50001C9.2 6.10001 9.4 5.70001 9.5 5.30001C9.3 5.10001 9.2 4.60001 9 4.20001C9 4.10001 8.9 4.00001 8.9 3.90001C8.8 3.50001 8.7 3.00001 8.6 2.60001C8.5 2.10001 8.5 1.70001 8.5 1.30001V1.20001C8.5 0.800006 8.5 0.400006 8.6 0.100006H0V16.1H1.4C1.4 15.9 1.4 15.7 1.4 15.4C1.5 14.7 1.9 14.1 2.7 13.4C3 13.2 3.2 13 3.6 12.7C3.5 12.8 3.6 12.7 3.6 12.7Z"/> <path d="M11.8 0.100006C11.9 1.70001 11.4 3.80001 11.1 5.00001C11.1 5.00001 11.1 5.00001 11.1 5.10001C11.1 5.20001 11 5.40001 11 5.50001C11.1 5.80001 11.3 6.10001 11.5 6.40001C12 7.30001 12.8 8.30001 13.8 9.10001C15.3 8.80001 16.6 8.70001 17.7 8.70001C18.5 8.70001 19.2 8.80001 19.7 8.90001C20 9.00001 20.2 9.10001 20.4 9.20001C20.5 9.30001 20.6 9.30001 20.7 9.40001C20.8 9.50001 20.8 9.50001 20.9 9.60001C21.1 9.90001 21.3 10.4 21 11.1C21 11.2 20.9 11.3 20.8 11.3C20.7 11.4 20.6 11.4 20.5 11.4C20.1 11.5 19.6 11.6 19.2 11.7C18.8 11.8 18.4 11.8 18 11.8C16.4 11.8 14.8 11.3 13.5 10.4C11.8 10.7 10.1 11.2 8.5 11.8C8.2 12.2 8 12.7 7.7 13C7.6 13.1 7.5 13.2 7.5 13.3C7.3 13.6 7.1 13.8 6.9 14.1C6.8 14.2 6.7 14.3 6.6 14.4C6.4 14.6 6.2 14.9 5.9 15.1C5.8 15.2 5.8 15.2 5.7 15.3C5.4 15.6 5.1 15.8 4.8 16H26.6V0.100006H11.8Z"/> <path d="M9.99999 0.1C9.89999 0.4 9.89999 0.8 9.89999 1.2V1.3C9.89999 1.5 9.89999 1.7 9.89999 1.9C9.89999 2 9.89999 2 9.89999 2.1C9.89999 2.3 9.99999 2.6 9.99999 2.8C9.99999 2.5 10.1 2.3 10.1 2C10.1 1.9 10.1 1.9 10.1 1.8C10.1 1.6 10.1 1.4 10.2 1.2V1.1C10.2 0.7 10.2 0.3 10.2 -1.49012e-09"/> <path d="M17.9 10.6C18 10.6 18.2 10.6 18.3 10.6C18.6 10.6 18.9 10.5 19.2 10.5C19.3 10.5 19.5 10.5 19.6 10.4V10.3C19.5 10.2 19.1 9.99999 18.1 9.89999C18 9.89999 17.8 9.89999 17.6 9.89999C17 9.89999 16.2 9.99999 15.4 10.1C16.2 10.4 17.1 10.6 17.9 10.6Z"/> <path d="M6.2 12.8C6 12.9 5.8 13 5.6 13.1C4.8 13.5 4.1 14 3.6 14.5C3.4 14.7 3.2 15 3.1 15.2C3 15.3 3 15.4 3 15.6C3.3 15.5 3.6 15.4 3.8 15.2C4.5 14.7 5.4 13.9 6.2 12.8Z"/> <path d="M10.4 7.3C10.1 8.2 9.7 9.2 9.2 10.2C10.1 9.9 11.1 9.6 12 9.4C11.4 8.8 10.9 8 10.4 7.3Z"/> </symbol><symbol viewBox="0 0 57 57" id="icon-Advanced-Analysis"><title>Advanced-Analysis</title> <path d="M1.3 55.3V34.2L12.3 27.7C12.9 29.2 14.4 30.3 16.1 30.3C17.8 30.3 19.2 29.3 19.9 27.8L32 33.8C32 34 31.9 34.2 31.9 34.3C31.9 36.6 33.8 38.5 36 38.5C38.2 38.5 40.1 36.6 40.1 34.3C40.1 33.8 40 33.3 39.8 32.8L50.1 22.5C50.6 22.8 51.3 22.9 51.9 22.9C54.2 22.9 56 21 56 18.7C56 16.4 54.1 14.5 51.9 14.5C49.7 14.5 48 16.5 48 18.8C48 20 48.5 21 49.3 21.8L39.4 31.7C38.6 30.8 37.5 30.2 36.2 30.2C34.6 30.2 33.2 31.2 32.5 32.5L20.3 26.5C20.3 26.4 20.3 26.2 20.3 26.1C20.3 23.8 18.4 21.9 16.2 21.9C14 21.9 12 23.9 12 26.1C12 26.2 12 26.2 12 26.3L1.3 32.7V0H0V56.6H56.6V55.3H1.3ZM52.1 16C53.7 16 55 17.3 55 18.8C55 20.3 53.7 21.6 52.1 21.6C50.5 21.6 49.2 20.3 49.2 18.8C49.2 17.3 50.6 16 52.1 16ZM36.1 31.5C37.7 31.5 39 32.8 39 34.3C39 35.8 37.7 37.1 36.1 37.1C34.5 37.1 33.2 35.8 33.2 34.3C33.2 32.8 34.6 31.5 36.1 31.5ZM20.1 27.3V27.2V27.3ZM16.1 23.3C17.7 23.3 19 24.6 19 26.1C19 27.6 17.7 29 16.1 29C14.5 29 13.2 27.7 13.2 26.2C13.2 24.7 14.6 23.3 16.1 23.3Z"/> </symbol><symbol viewBox="0 0 70 64" id="icon-Allowance-Forecasting"><title>Allowance-Forecasting</title> <path d="M56.1 5.79999V7.09999H63.8V15H5.10002V7.09999H13.1V5.79999H3.90002V16.3H65.1V5.79999H56.1Z"/> <path d="M49.6 5.79999H19V7.09999H49.6V5.79999Z"/> <path d="M3.90002 60.4H54.5L65.2 50.5V19.6H3.90002V60.4ZM54.8 58.3V50.5H63.2L54.8 58.3ZM5.10002 20.9H63.8V49.2H53.5V59.2H5.10002V20.9Z"/> <path d="M16.1 10.6C16.9 10.6 17.6 9.89999 17.6 9.09999V3.79999C17.6 2.99999 16.9 2.29999 16.1 2.29999C15.3 2.29999 14.6 2.99999 14.6 3.79999V9.19999C14.6 9.89999 15.2 10.6 16.1 10.6Z"/> <path d="M52.8 10.6C53.6 10.6 54.3 9.89999 54.3 9.09999V3.79999C54.3 2.99999 53.6 2.29999 52.8 2.29999C52 2.29999 51.3 2.99999 51.3 3.79999V9.19999C51.3 9.89999 52 10.6 52.8 10.6Z"/> <path d="M10.2001 32.2H16.6001V25.8H10.2001V32.2ZM11.5001 27.1H15.3001V30.9H11.5001V27.1Z"/> <path d="M20.7001 31.9H27.1001V25.5H20.7001V31.9ZM22.0001 26.9H25.8001V30.7H22.0001V26.9Z"/> <path d="M31.2001 32H37.6001V25.6H31.2001V32ZM32.5001 26.9H36.3001V30.7H32.5001V26.9Z"/> <path d="M58.6001 25.7H52.2001V32.1H58.6001V25.7ZM57.3001 30.8H53.5001V27H57.3001V30.8Z"/> <path d="M41.7001 31.9H48.1001V25.5H41.7001V31.9ZM43.0001 26.8H46.8001V30.6H43.0001V26.8Z"/> <path d="M10.2001 41.3H16.6001V35H10.2001V41.3ZM11.5001 36.3H15.3001V40H11.5001V36.3Z"/> <path d="M20.7001 41.1H27.1001V34.7H20.7001V41.1ZM22.0001 36H25.8001V39.8H22.0001V36Z"/> <path d="M31.2001 41.2H37.6001V34.8H31.2001V41.2ZM32.5001 36.1H36.3001V39.9H32.5001V36.1Z"/> <path d="M58.6001 34.9H52.2001V41.3H58.6001V34.9ZM57.3001 40H53.5001V36.2H57.3001V40Z"/> <path d="M41.7001 41.1H48.1001V34.7H41.7001V41.1ZM43.0001 36H46.8001V39.8H43.0001V36Z"/> <path d="M10.2001 51.5H16.6001V45.1H10.2001V51.5ZM11.5001 46.4H15.3001V50.2H11.5001V46.4Z"/> <path d="M20.7001 51.2H27.1001V44.8H20.7001V51.2ZM22.0001 46.2H25.8001V50H22.0001V46.2Z"/> <path d="M31.2001 51.3H37.6001V44.9H31.2001V51.3ZM32.5001 46.2H36.3001V50H32.5001V46.2Z"/> </symbol><symbol viewBox="0 0 64 57" id="icon-Data-Audit"><title>Data-Audit</title> <path d="M45.3 55.6H1.3V1.3H45.3V10.5H46.6V0H0V56.9H46.6V32.4H45.3V55.6Z"/> <path d="M26.8 34.6L23 44.7L32.7 41.3L57 17.1L50.9 11L26.8 34.6ZM32.2 40.1C26.5 40.6 28 35.3 28 35.3L50.9 12.8L55.2 17.1L32.2 40.1Z"/> <path d="M62.9 9.90001L57.7 4.70001C57.2 4.20001 56.5 4.20001 56.1 4.70001L52.7 8.00001C52.5 8.20001 52.4 8.50001 52.4 8.80001C52.4 9.10001 52.5 9.40001 52.7 9.60001L58 14.9C58.2 15.1 58.5 15.2 58.8 15.2C59.1 15.2 59.4 15.1 59.6 14.9L62.9 11.6C63.1 11.4 63.2 11.1 63.2 10.8C63.3 10.4 63.2 10.1 62.9 9.90001Z"/> </symbol><symbol viewBox="0 0 85 64" id="icon-Model Validation"><title>Model Validation</title> <path d="M42.1 35.3H11.1V36.6H42.1V35.3Z"/> <path d="M42.1 27.8H11.1V29.1H42.1V27.8Z"/> <path d="M42.1 42.4H11.1V43.7H42.1V42.4Z"/> <path d="M34.5 49.6H11.1V50.9H34.5V49.6Z"/> <path d="M62.7 16.9C58.6 16.9 54.7999 18.3 51.7 20.7V14.5L41 3.10001H3.69995V60H51.7999V48.6C54.7999 51 58.5999 52.4 62.7999 52.4C72.6 52.4 80.6 44.4 80.6 34.6C80.6 24.8 72.5 16.9 62.7 16.9ZM41.2999 5.30001L49.7 14.2H41.2999V5.30001ZM50.4 47.5V58.6H4.99995V4.40001H40V15.6H50.4V21.9C47 25.1 44.9 29.7 44.9 34.7C44.9 39.7 47 44.3 50.4 47.5ZM62.7 51.1C53.6 51.1 46.2 43.7 46.2 34.6C46.2 25.5 53.6 18.1 62.7 18.1C71.7999 18.1 79.2 25.5 79.2 34.6C79.2 43.7 71.7999 51.1 62.7 51.1Z"/> <path d="M60.7999 40.2L55.4999 35.1L53.7999 36.8L61.1999 43.9L71.7999 28L69.7999 26.6L60.7999 40.2Z"/> </symbol><symbol viewBox="0 0 74 58" id="icon-Policy-Review"><title>Policy-Review</title> <path d="M38.3999 32.2H7.3999V33.5H38.3999V32.2Z"/> <path d="M38.3999 24.7H7.3999V26H38.3999V24.7Z"/> <path d="M38.3999 39.4H7.3999V40.7H38.3999V39.4Z"/> <path d="M30.7999 46.6H7.3999V47.9H30.7999V46.6Z"/> <path d="M73.1 53.8L63.7 45.3C65 43.3 65.8 40.9 65.8 38.3C65.8 31.4 60.2 25.8 53.3 25.8C51.4 25.8 49.7 26.2 48.1 26.9V11.4L37.3 0H0V56.9H48.1V49.8C49.7 50.5 51.4 50.9 53.3 50.9C56.2 50.9 58.9 49.9 61 48.2L70.4 56.7C70.8 57 71.2 57.2 71.7 57.2C72.2 57.2 72.8 57 73.2 56.6C73.9 55.8 73.9 54.5 73.1 53.8ZM37.7 2.3L46.1 11.2H37.7V2.3ZM46.8 55.6H1.3V1.3H36.4V12.5H46.8V27.7C43.2 29.9 40.8 33.9 40.8 38.4C40.8 42.9 43.2 46.9 46.8 49.1V55.6ZM53.3 49.4C47.2 49.4 42.3 44.5 42.3 38.4C42.3 32.3 47.2 27.4 53.3 27.4C59.4 27.4 64.3 32.3 64.3 38.4C64.3 44.4 59.3 49.4 53.3 49.4Z"/> </symbol><symbol viewBox="0 0 72 55" id="icon-Scenario-Building"><title>Scenario-Building</title> <path d="M38.6427 31.5769V31.1947C38.256 31.1947 38.1271 31.1947 37.7403 31.1947C35.5488 31.1947 33.8729 29.5384 33.8729 27.3726C33.8729 26.0985 34.5175 24.9519 35.5488 24.1875C34.2597 22.4038 32.7127 20.875 31.0368 19.7283L30.3923 19.3461C29.7477 20.3654 28.5875 20.875 27.2983 20.875C25.1068 20.875 23.4309 19.2187 23.4309 17.0529C23.4309 16.9255 23.4309 16.7981 23.4309 16.6707H15.4383C15.1805 16.6707 15.5672 16.6707 15.3094 16.6707C15.3094 16.7981 15.3094 17.0529 15.3094 17.0529C15.3094 19.2187 13.6335 20.875 11.442 20.875C10.4107 20.875 9.50829 20.4928 8.86372 19.8558C7.05893 21.1298 5.51197 22.786 4.22284 24.5697C5.25414 25.2067 5.89871 26.3533 5.89871 27.7548C5.89871 29.9207 4.22284 31.5769 2.03131 31.5769C1.77348 31.5769 1.51565 31.5769 1.38674 31.4495C1.12891 32.5961 1 33.8702 1 35.1442C1 36.4183 1.12891 37.5649 1.38674 38.8389C1.64457 38.8389 1.77348 38.7115 2.03131 38.7115C4.22284 38.7115 5.89871 40.3678 5.89871 42.5336C5.89871 43.8077 5.25414 44.9543 4.22284 45.7187C5.38306 47.5024 6.93002 49.0312 8.73481 50.3053C9.37937 49.5408 10.4107 49.1586 11.442 49.1586C13.6335 49.1586 15.3094 50.8149 15.3094 52.9807C15.3094 53.1082 15.3094 53.2356 15.3094 53.363C16.8564 53.7452 18.4033 54 20.0792 54C21.2394 54 22.3996 53.8726 23.5599 53.6178C23.5599 53.363 23.5599 53.1082 23.5599 52.8533C23.5599 50.6875 25.2357 49.0312 27.4273 49.0312C28.7164 49.0312 30.0055 49.6683 30.6501 50.6875C32.7127 49.286 34.5175 47.5024 35.9355 45.4639C34.7753 44.8269 34.0018 43.5529 34.0018 42.1514C34.0018 39.9856 35.6777 38.3293 37.8692 38.3293C38.256 38.3293 38.5138 38.3293 38.7716 38.4567C39.0295 37.3101 39.1584 36.1634 39.1584 35.0168C39.0295 33.8702 38.9006 32.7235 38.6427 31.5769ZM19.6925 41.0048C16.2118 41.0048 13.3757 38.2019 13.3757 34.762C13.3757 31.3221 16.2118 28.5192 19.6925 28.5192C23.1731 28.5192 26.0092 31.3221 26.0092 34.762C26.0092 38.2019 23.1731 41.0048 19.6925 41.0048Z" stroke="#5091CD" stroke-width="1.25" stroke-miterlimit="10" stroke-linejoin="round"/> <path d="M52.5654 14.887L52.6943 14.6322C52.5654 14.6322 52.4365 14.5048 52.3076 14.3774C51.4052 13.7404 51.1473 12.4663 51.7919 11.5745C52.1786 11.0649 52.8232 10.6827 53.4678 10.6827C53.4678 9.53606 53.3389 8.51683 52.9521 7.37019L52.8232 6.98798C52.1786 7.24279 51.663 7.11539 51.0184 6.73317C50.116 6.09615 49.8582 4.82212 50.5028 3.93029C50.5028 3.93029 50.5028 3.80288 50.6317 3.80288L47.151 1.63702C47.0221 1.50962 47.2799 1.63702 47.151 1.63702L47.0221 1.76442C46.3775 2.65625 45.0884 2.91106 44.186 2.27404C43.7993 2.01923 43.5414 1.50962 43.4125 1C42.2523 1 41.0921 1.25481 40.0608 1.63702C40.3186 2.27404 40.1897 2.91106 39.803 3.42067C39.1584 4.3125 37.8693 4.56731 36.9669 3.93029C36.8379 3.80289 36.8379 3.80288 36.709 3.67548C36.1934 4.05769 35.8066 4.56731 35.4199 5.07692C35.0332 5.58654 34.7753 6.22356 34.5175 6.73317C34.6464 6.73317 34.7753 6.86058 34.7753 6.86058C35.6777 7.4976 35.9356 8.77164 35.291 9.66346C34.9042 10.1731 34.2597 10.5553 33.6151 10.5553C33.6151 11.7019 33.744 12.8486 34.1308 13.8678C34.6464 13.7404 35.1621 13.8678 35.6777 14.25C36.5801 14.887 36.8379 16.1611 36.1934 17.0529C36.1934 17.1803 36.0645 17.1803 36.0645 17.1803C36.5801 17.8173 37.2247 18.3269 37.8693 18.8365C38.3849 19.2188 38.9006 19.4736 39.4162 19.7284C39.4162 19.601 39.5451 19.4736 39.674 19.4736C40.3186 18.5817 41.6077 18.3269 42.5101 18.9639C43.0258 19.3462 43.4125 19.9832 43.4125 20.6202C44.7017 20.6202 45.9908 20.4928 47.2799 19.9832C47.0221 19.3462 47.0221 18.5817 47.4089 17.9447C48.0534 17.0529 49.3426 16.7981 50.2449 17.4351C50.3739 17.5625 50.5028 17.6899 50.6317 17.8173C51.0184 17.4351 51.4052 16.9255 51.7919 16.4159C51.9208 15.9063 52.3076 15.3966 52.5654 14.887Z" stroke="#5091CD" stroke-width="1.25" stroke-miterlimit="10" stroke-linejoin="round"/> <path d="M43.4127 14.25C45.335 14.25 46.8933 12.7099 46.8933 10.8101C46.8933 8.91031 45.335 7.37021 43.4127 7.37021C41.4904 7.37021 39.932 8.91031 39.932 10.8101C39.932 12.7099 41.4904 14.25 43.4127 14.25Z" stroke="#5091CD" stroke-width="1.25" stroke-miterlimit="10" stroke-linejoin="round"/> <path d="M65.9725 24.9519L65.7147 24.8245C65.5858 24.9519 65.4569 25.0793 65.3279 25.2067C64.1677 26.226 62.4918 26.0986 61.4605 24.9519C60.816 24.3149 60.6871 23.2957 60.9449 22.5312C59.5268 22.149 57.9799 22.0216 56.4329 22.149H55.9173C56.0462 23.0409 55.6594 23.8053 55.0149 24.3149C53.8546 25.3341 52.1788 25.2067 51.1475 24.0601C51.0185 23.9327 51.0185 23.9327 50.8896 23.8053L46.6355 27.3726C46.5066 27.5 46.7644 27.2452 46.6355 27.5L46.7644 27.7548C47.7957 28.9014 47.6668 30.5577 46.5066 31.5769C45.9909 32.0865 45.3464 32.2139 44.5729 32.2139C44.1861 33.7428 44.0572 35.2716 44.315 36.8005C45.2174 36.6731 45.9909 37.0553 46.6355 37.6923C47.6668 38.8389 47.5379 40.4952 46.3777 41.5144C46.2487 41.6418 46.1198 41.6418 45.9909 41.7692C46.3777 42.5337 46.8933 43.1707 47.5379 43.9351C48.0535 44.5721 48.6981 45.2091 49.4716 45.7187C49.6005 45.5913 49.7294 45.4639 49.8583 45.3365C51.0185 44.3173 52.6944 44.4447 53.7257 45.5913C54.3703 46.2284 54.4992 47.2476 54.2414 48.012C55.6594 48.3942 57.2064 48.5216 58.7534 48.3942C58.7534 47.6298 59.1401 46.9928 59.6557 46.4832C60.816 45.4639 62.4918 45.5913 63.5232 46.738C63.6521 46.8654 63.6521 46.8654 63.6521 46.9928C64.6834 46.4832 65.5858 45.9736 66.4882 45.2091C67.1327 44.6995 67.6484 44.0625 68.164 43.4255C68.0351 43.2981 67.9062 43.1707 67.7773 43.0433C66.746 41.8966 66.8749 40.2404 68.0351 39.2211C68.8086 38.5841 69.711 38.4567 70.4845 38.7115C71.0001 37.0553 71.129 35.2716 70.8712 33.488C69.9688 33.6154 68.9375 33.3606 68.2929 32.5962C67.2616 31.4495 67.3906 29.7933 68.5508 28.774C68.6797 28.6466 68.9375 28.5192 69.0664 28.3918C68.6797 27.7548 68.164 26.9904 67.6484 26.3534C67.2616 26.0986 66.6171 25.4615 65.9725 24.9519Z" stroke="#5091CD" stroke-width="1.25" stroke-miterlimit="10" stroke-linejoin="round"/> <path d="M57.593 39.8582C60.0849 39.8582 62.105 37.8618 62.105 35.399C62.105 32.9363 60.0849 30.9399 57.593 30.9399C55.1011 30.9399 53.0811 32.9363 53.0811 35.399C53.0811 37.8618 55.1011 39.8582 57.593 39.8582Z" stroke="#5091CD" stroke-width="1.25" stroke-miterlimit="10" stroke-linejoin="round"/> </symbol><symbol viewBox="0 0 164 13" id="icon-Arrow-Gray"><title>Arrow-Gray</title> <path d="M0 6.10001H162.4" stroke="#AAAAAA" stroke-width="1.5" stroke-miterlimit="10"/> <path d="M157.4 12.3L156.4 11.2L161.8 6.1L156.4 1.1L157.4 0L164 6.1L157.4 12.3Z"/> </symbol><symbol viewBox="0 0 20 16" id="icon-Calendar"><title>Calendar</title> <path d="M0 0V16H19.2V0H0ZM5.8 14H1.8V11.2H5.8V14ZM5.8 9.5H1.8V6.6H5.8V9.5ZM5.8 5H1.8V2H5.8V5ZM11.8 14H7.8V11.2H11.8V14ZM11.8 9.5H7.8V6.6H11.8V9.5ZM11.8 5H7.8V2H11.8V5ZM17.5 14H13.5V11.2H17.5V14ZM17.5 9.5H13.5V6.6H17.5V9.5ZM17.5 5H13.5V2H17.5V5Z"/> </symbol><symbol viewBox="0 0 23 23" id="icon-Checked-Disabled"><title>Checked-Disabled</title> <path d="M21.4 1H1V21.4H21.4V1Z" stroke="#A2A3A3" stroke-width="1.25" stroke-miterlimit="10"/> <path d="M4.3 10.3L10.4 15.6L18.3 5.20001" stroke="white" stroke-width="1.8996" stroke-miterlimit="10"/> </symbol><symbol viewBox="0 0 23 23" id="icon-Checked-Enabled"><title>Checked-Enabled</title> <path d="M21.4 1H1V21.4H21.4V1Z" stroke="#5091CD" stroke-width="1.25" stroke-miterlimit="10"/> <path d="M4.3 10.3L10.4 15.6L18.3 5.20001" stroke="white" stroke-width="1.8996" stroke-miterlimit="10"/> </symbol><symbol viewBox="0 0 24 23" id="icon-Checked-Styled"><title>Checked-Styled</title> <path d="M4.4 7.79999L11.3 15.7L22.7 1.79999" stroke="#5091CD" stroke-width="1.25" stroke-miterlimit="10"/> <path d="M21.4 10.1V21.4H1V1H17.4" stroke="#5091CD" stroke-width="1.25" stroke-miterlimit="10"/> </symbol><symbol viewBox="0 0 23 23" id="icon-Partial-Selection"><title>Partial-Selection</title> <path d="M21.4 1H1V21.4H21.4V1Z" stroke="#5091CD" stroke-width="1.25" stroke-miterlimit="10"/> <path d="M5 11H17.2" stroke="white" stroke-width="1.9"/> </symbol><symbol viewBox="0 0 23 23" id="icon-Unchecked-Disabled"><title>Unchecked-Disabled</title> <path d="M21.4 1H1V21.4H21.4V1Z" stroke="#A2A3A3" stroke-width="1.25" stroke-miterlimit="10"/> </symbol><symbol viewBox="0 0 23 23" id="icon-Unchecked-Enabled"><title>Unchecked-Enabled</title> <path d="M21.4 1H1V21.4H21.4V1Z" stroke="#5091CD" stroke-width="1.25" stroke-miterlimit="10"/> </symbol><symbol viewBox="0 0 16 16" id="icon-Checkmark"><title>Checkmark</title> <path d="M1 8.3L6.4 13.5L14.7 1" stroke="#5091CD" stroke-width="2.0451" stroke-miterlimit="10"/> </symbol><symbol viewBox="0 0 13 8" id="icon-Chevron-Down"><title>Chevron-Down</title> <path d="M6.4 7.1L0 0.7L0.7 0L6.4 5.6L12 0L12.7 0.7L6.4 7.1Z"/> </symbol><symbol viewBox="0 0 8 13" id="icon-Chevron-Left"><title>Chevron-Left</title> <path d="M0 6.4L6.4 0L7.1 0.7L1.4 6.4L7.1 12L6.4 12.7L0 6.4Z"/> </symbol><symbol viewBox="0 0 8 13" id="icon-Chevron-Right"><title>Chevron-Right</title> <path d="M7.1 6.4L0.7 12.7L0 12L5.6 6.4L0 0.7L0.7 0L7.1 6.4Z"/> </symbol><symbol viewBox="0 0 13 8" id="icon-Chevron-Up"><title>Chevron-Up</title> <path d="M6.4 0L12.7 6.4L12 7.1L6.4 1.4L0.7 7.1L0 6.4L6.4 0Z"/> </symbol><symbol viewBox="0 0 32 24" id="icon-Edit-Merge-Field-Mapping"><title>Edit-Merge-Field-Mapping</title> <path d="M23.2 1.89999L25.9 4.59999L10.5 20.1L6.19995 21.6L7.89995 17.1L23.2 1.89999Z" stroke="#777777" stroke-width="0.75" stroke-miterlimit="10"/> <path d="M21.5 3.69998L24.2 6.49998" stroke="#777777" stroke-width="0.75" stroke-miterlimit="10"/> <path d="M7.79993 17.2L10.4999 19.9" stroke="#777777" stroke-width="0.75" stroke-miterlimit="10"/> </symbol><symbol viewBox="0 0 23 22" id="icon-Refresh-Template"><title>Refresh-Template</title> <path d="M13.629 20.629C8.22897 22.129 2.72897 18.929 1.32897 13.629C-0.0710286 8.32897 3.12897 2.72897 8.42897 1.32897C13.729 -0.0710286 19.229 3.12897 20.629 8.42897C21.129 10.329 21.029 12.229 20.529 14.029" stroke="#777777" stroke-width="0.75" stroke-miterlimit="10"/> <path d="M20.529 14.029C20.229 15.029 19.729 15.929 19.129 16.829" stroke="#777777" stroke-width="0.75" stroke-miterlimit="10"/> <path d="M18.129 13.829L18.729 13.729L19.229 16.629L22.129 15.829L22.229 16.429L18.729 17.329L18.129 13.829Z"/> </symbol><symbol viewBox="0 0 32 24" id="icon-Report-Mapping-Panel"><title>Report-Mapping-Panel</title> <path d="M13.2 6.39999V21.5" stroke="#777777" stroke-width="0.75" stroke-miterlimit="10"/> <path d="M25.7 2.29999H6.5V21.5H25.7V2.29999Z" stroke="#777777" stroke-width="0.75" stroke-miterlimit="10"/> <path d="M6.5 6.19998H25.6" stroke="#777777" stroke-width="0.75" stroke-miterlimit="10"/> <path d="M8.5 11.1H11.2" stroke="#777777" stroke-width="0.75" stroke-miterlimit="10"/> <path d="M8.5 15.7H11.2" stroke="#777777" stroke-width="0.75" stroke-miterlimit="10"/> </symbol><symbol viewBox="0 0 32 24" id="icon-Save-as-Customer-Specific-Memo"><title>Save-as-Customer-Specific-Memo</title> <path d="M7.40002 14.2H18.2" stroke-width="0.75" stroke-miterlimit="10"/> <path d="M7.40002 17.1H18.2" stroke-width="0.75" stroke-miterlimit="10"/> <path d="M18.2 21.6H3V2.29999H7.9V8.79999H17.6V2.29999H19.6L22.6 5.19999V8.29999" stroke-width="0.75" stroke-miterlimit="10"/> <path d="M3 2.29999H19.6" stroke-width="0.75" stroke-miterlimit="10"/> <path d="M27 15.6C24.6 17.1 22.4 15.6 22.4 15.6C21.2 16.3 20.4 17.7 20.4 19.2V21.7H28.9V19.2C28.9 17.7 28.2 16.3 27 15.6Z" stroke-width="0.75" stroke-miterlimit="10"/> <path d="M24.7001 15C26.0808 15 27.2001 13.7911 27.2001 12.3C27.2001 10.8088 26.0808 9.59998 24.7001 9.59998C23.3194 9.59998 22.2001 10.8088 22.2001 12.3C22.2001 13.7911 23.3194 15 24.7001 15Z" stroke-width="0.75" stroke-miterlimit="10"/> </symbol><symbol viewBox="0 0 32 24" id="icon-Save-as-New-General-Template"><title>Save-as-New-General-Template</title> <path d="M6.30005 14.2H17" stroke="#777777" stroke-width="0.75" stroke-miterlimit="10"/> <path d="M6.30005 17.1H17" stroke="#777777" stroke-width="0.75" stroke-miterlimit="10"/> <path d="M21.4 10.6V5.19999L18.5 2.29999H16.4V8.79999H6.80005V2.29999H1.80005V21.6H21.4V17.7" stroke="#777777" stroke-width="0.75" stroke-miterlimit="10"/> <path d="M1.80005 2.29999H18.5" stroke="#777777" stroke-width="0.75" stroke-miterlimit="10"/> <path d="M25.6 9.39999V18.6" stroke="#777777" stroke-width="0.75" stroke-miterlimit="10"/> <path d="M25.6 18.6V9.39999" stroke="#777777" stroke-width="0.75" stroke-miterlimit="10"/> <path d="M20.9 14H30.2" stroke="#777777" stroke-width="0.75" stroke-miterlimit="10"/> </symbol><symbol viewBox="0 0 21 21" id="icon-Save-Changes-Back-to-Sageworks"><title>Save-Changes-Back-to-Sageworks</title> <path d="M5.5 12.9H16.2" stroke="#777777" stroke-width="0.75" stroke-miterlimit="10"/> <path d="M5.5 15.8H16.2" stroke="#777777" stroke-width="0.75" stroke-miterlimit="10"/> <path d="M20.6 16.4V20.3H1V1H5.9V7.5H15.6V1H17.6L20.6 3.9V9.3V16.4Z" stroke="#777777" stroke-width="0.75" stroke-miterlimit="10"/> <path d="M1 1H17.6" stroke="#777777" stroke-width="0.75" stroke-miterlimit="10"/> </symbol><symbol viewBox="0 0 32 24" id="icon-Show-Labels"><title>Show-Labels</title> <path d="M21.3 16.8L15.9 22.2L10.8 16.8V2.29999H21.3V16.8Z" stroke="#777777" stroke-width="0.75" stroke-miterlimit="10"/> <path d="M17.2 6.59999C17.2 7.29999 16.6 7.79999 16 7.79999C15.4 7.79999 14.8 7.29999 14.8 6.59999C14.8 5.89999 15.3 5.39999 16 5.39999C16.7 5.39999 17.2 5.99999 17.2 6.59999Z"/> </symbol><symbol viewBox="0 0 32 24" id="icon-Show-Values"><title>Show-Values</title> <path d="M25.7749 13.3396C26.4134 7.85373 22.4838 2.88901 16.9979 2.25057C11.5121 1.61213 6.54737 5.54173 5.90893 11.0276C5.27049 16.5134 9.20009 21.4781 14.6859 22.1166C20.1718 22.755 25.1365 18.8254 25.7749 13.3396Z" stroke="#777777" stroke-width="0.75" stroke-miterlimit="10"/> <path d="M18.3 15.1C18.1 15.4 17.9 15.7 17.5 15.9C17.1 16.1 16.6 16.2 16 16.3V17.3H15.5V16.3C14.9 16.3 14.4 16.2 14 15.9C13.5 15.7 13.2 15.4 12.9 15L13.3 14.5C13.6 14.8 13.9 15.1 14.3 15.3C14.7 15.5 15.1 15.6 15.6 15.7V12.3C15.1 12.2 14.7 12 14.3 11.9C14 11.8 13.7 11.5 13.5 11.3C13.2 11 13 10.6 13 10.2C13 9.8 13.1 9.4 13.3 9.1C13.5 8.8 13.8 8.5 14.2 8.4C14.6 8.3 15 8.1 15.4 8.1V7H16V8.1C17 8.2 17.7 8.5 18.3 9.1L17.8 9.6C17.3 9 16.7 8.7 15.9 8.6V11.8C16.4 11.9 16.8 12.1 17.2 12.2C17.5 12.4 17.8 12.6 18.1 12.9C18.4 13.2 18.4 13.6 18.4 14C18.5 14.5 18.4 14.8 18.3 15.1ZM14.2 11.2C14.5 11.4 14.9 11.6 15.5 11.8V8.7C15 8.7 14.6 8.9 14.3 9.2C14 9.5 13.8 9.9 13.8 10.3C13.8 10.6 13.9 10.9 14.2 11.2ZM17.4 15.2C17.7 14.9 17.8 14.5 17.8 14.1C17.8 13.6 17.6 13.3 17.3 13.1C17 12.9 16.5 12.7 16 12.5V15.7C16.7 15.7 17.1 15.5 17.4 15.2Z" stroke="#777777" stroke-width="0.1299" stroke-miterlimit="10"/> </symbol><symbol viewBox="0 0 12 16" id="icon-Customer"><title>Customer</title> <path d="M8.9 7.89999C5.7 9.99999 2.7 7.89999 2.7 7.89999C1.1 8.89999 0 10.7 0 12.7V16H11.4V12.7C11.4 10.8 10.4 8.99999 8.9 7.89999Z"/> <path d="M5.69999 7.2C7.52253 7.2 8.99999 5.58822 8.99999 3.6C8.99999 1.61177 7.52253 0 5.69999 0C3.87745 0 2.39999 1.61177 2.39999 3.6C2.39999 5.58822 3.87745 7.2 5.69999 7.2Z"/> </symbol><symbol viewBox="0 0 11 11" id="icon-Delete-Disabled"><title>Delete-Disabled</title> <path d="M10.7 0.7L10 0L5.4 4.6L0.7 0L0 0.7L4.6 5.4L0 10L0.7 10.7L5.4 6.1L10 10.7L10.7 10L6.1 5.4L10.7 0.7Z"/> </symbol><symbol viewBox="0 0 11 11" id="icon-Delete-Enabled"><title>Delete-Enabled</title> <path d="M10.7 0.7L10 0L5.4 4.6L0.7 0L0 0.7L4.6 5.4L0 10L0.7 10.7L5.4 6.1L10 10.7L10.7 10L6.1 5.4L10.7 0.7Z"/> </symbol><symbol viewBox="0 0 15 16" id="icon-Document"><title>Document</title> <path d="M11.3 0H0V16H14.4V3L11.3 0ZM9.3 13.4H2.2V12.3H9.3V13.4ZM12.2 10.7H2.2V9.6H12.3V10.7H12.2ZM12.2 8H2.2V6.9H12.3V8H12.2ZM12.2 5.3H2.2V4.2H12.3V5.3H12.2Z"/> </symbol><symbol viewBox="0 0 15 15" id="icon-Edit-Pencil"><title>Edit-Pencil</title> <path d="M7.9 2.75C5.3 5.35 2.7 7.95 0.1 10.55C0 10.65 0 10.75 0 10.85C0 12.05 0 13.25 0 14.55C0 14.65 0 14.65 0 14.75H0.1C1.4 14.75 2.7 14.75 3.9 14.75C4 14.75 4.1 14.75 4.1 14.65C6.7 12.05 9.3 9.45 11.9 6.85L12 6.75C10.7 5.35 9.4 3.95 7.9 2.75C8 2.65 8 2.65 7.9 2.75ZM3.6 13.35H3.5C3.2 13.35 2.9 13.35 2.5 13.35C2.5 12.95 2.5 12.55 2.5 12.15C2.1 12.15 1.7 12.15 1.3 12.15C1.3 11.85 1.3 11.45 1.3 11.15V11.05C1.6 10.75 1.8 10.55 2.1 10.25C2.9 11.05 3.6 11.75 4.4 12.55C4.1 12.85 3.8 13.15 3.6 13.35ZM8.1 4.35C8.3 4.15 8.4 4.15 8.5 4.25C8.6 4.35 8.6 4.45 8.4 4.65C7.5 5.65 6.6 6.55 5.6 7.45C4.9 8.25 4.1 9.05 3.3 9.75C3.3 9.85 3.2 9.95 3.1 9.95C2.9 9.95 2.8 9.75 2.9 9.65C2.9 9.55 3 9.55 3 9.45C4.7 7.75 6.4 6.15 8.1 4.35C8.1 4.45 8.1 4.45 8.1 4.35Z"/> <path d="M14.4 2.75C14.1 2.45 13.8 2.15 13.6 1.85C13.1 1.35 12.6 0.95 12.2 0.45C11.6 -0.15 10.8 -0.15 10.3 0.45C9.7 0.95 9.3 1.45 8.8 1.85L8.7 1.95C10 3.25 11.4 4.65 12.7 5.95C13.3 5.35 13.8 4.85 14.4 4.25C14.7 3.85 14.7 3.15 14.4 2.75Z"/> </symbol><symbol viewBox="0 0 18 18" id="icon-Exclamation-Bubble-Blue"><title>Exclamation-Bubble-Blue</title> <path d="M8.9 0C4 0 0 4 0 8.9C0 13.8 4 17.8 8.9 17.8C13.8 17.8 17.8 13.8 17.8 8.9C17.8 4 13.8 0 8.9 0ZM8.9 16.5C4.7 16.5 1.3 13.1 1.3 8.9C1.3 4.7 4.7 1.3 8.9 1.3C13.1 1.3 16.5 4.7 16.5 8.9C16.5 13.1 13.1 16.5 8.9 16.5Z"/> <path d="M7.89999 12.3C7.89999 11.7 8.39999 11.2 8.89999 11.2C9.39999 11.2 9.99999 11.7 9.99999 12.3C9.99999 12.9 9.49999 13.3 8.89999 13.3C8.29999 13.3 7.89999 12.8 7.89999 12.3ZM8.19999 10.4L7.89999 4.5H9.89999L9.59999 10.4H8.19999Z"/> </symbol><symbol viewBox="0 0 18 18" id="icon-Exclamation-Bubble-Orange"><title>Exclamation-Bubble-Orange</title> <path d="M8.9 0C4 0 0 4 0 8.9C0 13.8 4 17.8 8.9 17.8C13.8 17.8 17.8 13.8 17.8 8.9C17.8 4 13.8 0 8.9 0ZM8.9 16.5C4.7 16.5 1.3 13.1 1.3 8.9C1.3 4.7 4.7 1.3 8.9 1.3C13.1 1.3 16.5 4.7 16.5 8.9C16.5 13.1 13.1 16.5 8.9 16.5Z"/> <path d="M7.89999 12.3C7.89999 11.7 8.39999 11.2 8.89999 11.2C9.39999 11.2 9.99999 11.7 9.99999 12.3C9.99999 12.9 9.49999 13.3 8.89999 13.3C8.29999 13.3 7.89999 12.8 7.89999 12.3ZM8.19999 10.4L7.89999 4.5H9.89999L9.59999 10.4H8.19999Z"/> </symbol><symbol viewBox="0 0 22 12" id="icon-Excel-White"><title>Excel-White</title> <path d="M6.6 10.5L4.7 7.5L2.8 10.5H0L3.1 5.9L0.2 1.5H2.9L4.7 4.3L6.4 1.5H9.1L6.2 5.9L9.3 10.5H6.6ZM16.3 11.9H12.3V9.1H16.3V11.9ZM16.3 7.4H12.3V4.6H16.3V7.4ZM16.3 3H12.3V0H16.3V3ZM22 11.9H18V9.1H22V11.9ZM22 7.4H18V4.6H22V7.4ZM22 3H18V0H22V3Z"/> </symbol><symbol viewBox="0 0 27 16" id="icon-Excel"><title>Excel</title> <path d="M0 0V16H26.6V0H0ZM9.5 12.5L7.6 9.5L5.7 12.5H2.8L6 7.9L3 3.6H5.7L7.5 6.4L9.2 3.6H12L9.1 7.9L12.2 12.5H9.5ZM19.1 14H15.1V11.2H19.1V14ZM19.1 9.5H15.1V6.6H19.1V9.5ZM19.1 5H15.1V2H19.1V5ZM24.8 14H20.8V11.2H24.8V14ZM24.8 9.5H20.8V6.6H24.8V9.5ZM24.8 5H20.8V2H24.8V5Z"/> </symbol><symbol viewBox="0 0 27 16" id="icon-Word"><title>Word</title> <path d="M0 0V16H26.6V0H0ZM14.7 4.8H13.8L9.9 12.6H7.3V8.7L5.1 12.5H2.4V4.8H1.5V3.5H5.2V4.8H4.3V8.4L6.9 3.5H9.9V7.8L11.4 4.8H10.8V3.5H14.7V4.8ZM21.3 12.8H16.2V11.7H21.3V12.8ZM24.8 10.1H16.2V8.9H24.8V10.1ZM24.8 7.3H16.2V6.2H24.8V7.3ZM24.8 4.6H16.2V3.5H24.8V4.6Z"/> </symbol><symbol viewBox="0 0 17 19" id="icon-File-Blank"><title>File-Blank</title> <path d="M9.39999 1V7.2H15.5" stroke="#5091CD" stroke-width="1.1" stroke-miterlimit="10"/> <path d="M1 15.2V17.6H15.5V7.00001L9.7 1.10001H1V3.60001V15.2Z" stroke="#5091CD" stroke-width="1.1" stroke-miterlimit="10"/> </symbol><symbol viewBox="0 0 19 22" id="icon-File-Download"><title>File-Download</title> <path d="M12.9 1V6.1H17.9" stroke="#5091CD" stroke-width="0.9" stroke-miterlimit="10"/> <path d="M17.9 6V21.1H1V1H13.2L17.9 6Z" stroke="#5091CD" stroke-width="0.9" stroke-miterlimit="10"/> <path d="M9.2 7V16.3" stroke="#5091CD" stroke-width="0.9" stroke-miterlimit="10"/> <path d="M12.7 13L9.20001 16.6L5.60001 13" stroke="#5091CD" stroke-width="0.9" stroke-miterlimit="10"/> </symbol><symbol viewBox="0 0 27 22" id="icon-File-Search"><title>File-Search</title> <path d="M22.3 16.4C22.8 15.6 23.2 14.6 23.2 13.6C23.2 10.8 20.9 8.5 18.1 8.5C15.3 8.5 13 10.8 13 13.6C13 16.4 15.3 18.7 18.1 18.7C19.3 18.7 20.4 18.3 21.3 17.6L22.3 16.4ZM21.2 17.6L25.1 21.1C25.3 21.2 25.4 21.3 25.6 21.3C25.8 21.3 26 21.2 26.2 21C26.5 20.7 26.5 20.2 26.1 19.9L22.2 16.4L21.2 17.6ZM18 17.9C15.6 17.9 13.7 16 13.7 13.6C13.7 11.2 15.6 9.3 18 9.3C20.4 9.3 22.3 11.2 22.3 13.6C22.3 16 20.4 17.9 18 17.9Z"/> <path d="M12.9 1V6.1H17.9" stroke="#5091CD" stroke-width="0.9" stroke-miterlimit="10"/> <path d="M17.9 18.1V21.1H1V1H13.2L17.9 6V8.6" stroke="#5091CD" stroke-width="0.9" stroke-miterlimit="10"/> </symbol><symbol viewBox="0 0 27 16" id="icon-Financial-Statement-Old"><title>Financial-Statement-Old</title> <path d="M4.80001 9.60001C4.60001 9.80001 4.40001 10 4.20001 10.1C4.20001 10.1 4.20001 10.1 4.20001 10.2C4.20001 10.4 4.20001 10.6 4.20001 10.9V11.6V11.7H5.00001C5.20001 11.7 5.40001 11.7 5.60001 11.7H5.70001C5.90001 11.5 6.10001 11.3 6.20001 11.2C5.70001 10.6 5.30001 10.1 4.80001 9.60001Z"/> <path d="M0 0V16H26.6V0H0ZM5.9 12.5C5.1 12.5 4.2 12.5 3.4 12.5C3.4 12.5 3.4 12.5 3.3 12.5V12.4C3.3 11.6 3.3 10.8 3.3 10C3.3 9.9 3.3 9.9 3.4 9.8C5.1 8.1 6.8 6.4 8.4 4.8L9 5.4L5.3 9.2L5.8 9.7L9.6 5.9L11.2 7.5C9.5 9.2 7.8 10.9 6.2 12.5C6 12.4 6 12.5 5.9 12.5ZM12.8 5.7C12.4 6.1 12.1 6.5 11.7 6.8C10.8 5.9 10 5.1 9.1 4.2C9.1 4.2 9.1 4.2 9.2 4.1C9.4 3.8 9.7 3.5 10 3.2C10.3 2.8 10.9 2.8 11.2 3.2C11.5 3.5 11.8 3.8 12.1 4.1C12.3 4.3 12.5 4.5 12.6 4.7C13 5 13 5.4 12.8 5.7ZM19.1 14H15.1V11.2H19.1V14ZM19.1 9.5H15.1V6.6H19.1V9.5ZM19.1 5H15.1V2H19.1V5ZM24.8 14H20.8V11.2H24.8V14ZM24.8 9.5H20.8V6.6H24.8V9.5ZM24.8 5H20.8V2H24.8V5Z"/> </symbol><symbol viewBox="0 0 27 16" id="icon-Financial-Statement"><title>Financial-Statement</title> <path d="M0 0V16H26.6V0H0ZM7.3 12.6C5.5 12.6 4.3 12.1 3.5 11.2L4.7 9.5C5.3 10.1 6.3 10.6 7.5 10.6C8.3 10.6 8.7 10.3 8.7 9.9C8.7 8.7 3.8 9.7 3.8 6.3C3.8 4.8 5 3.5 7.3 3.5C8.7 3.5 9.9 3.9 10.8 4.7L9.5 6.5C8.8 5.9 7.8 5.6 7 5.6C6.3 5.6 6.1 5.9 6.1 6.2C6.1 7.3 11 6.5 11 9.7C11 11.4 9.7 12.6 7.3 12.6ZM19.1 14H15.1V11.2H19.1V14ZM19.1 9.5H15.1V6.6H19.1V9.5ZM19.1 5H15.1V2H19.1V5ZM24.8 14H20.8V11.2H24.8V14ZM24.8 9.5H20.8V6.6H24.8V9.5ZM24.8 5H20.8V2H24.8V5Z"/> </symbol><symbol viewBox="0 0 21 15" id="icon-Folder-3D-Empty"><title>Folder-3D-Empty</title> <path d="M17.8 6V2.2H8.3L7.6 0H0V14.7H0.1L0 14.9H17.1L20.5 6H17.8ZM1 1H6.8L7.5 3.2H16.8V6H3.4L1 12.2V1ZM16.4 13.9H1.5L4.1 7H19L16.4 13.9Z"/> </symbol><symbol viewBox="0 0 18 16" id="icon-Folder-Flat-Empty"><title>Folder-Flat-Empty</title> <path opacity="0.4" d="M8.2 2.2L7.5 0H0V2.2V4.4H7.5L8.2 2.2Z"/> <path d="M8.3 2.2L7.5 0H0V15.1H17.8V2.1L8.3 2.2ZM6.8 1L7.3 2.6L6.6 3.7H1V1H6.8ZM16.8 14.2H1V4.8H7.2L8.2 3.2H16.8V14.2Z"/> </symbol><symbol viewBox="0 0 18 16" id="icon-Folder-Flat-Full"><title>Folder-Flat-Full</title> <path d="M8.2 2.2L7.5 0H0V15.1H17.8V2.2H8.2Z"/> <path opacity="0.4" d="M8.2 2.2L7.5 0H0V2.2V4.4H7.5L8.2 2.2Z"/> </symbol><symbol viewBox="0 0 30 43" id="icon-Account-Access"><title>Account-Access</title> <path d="M1 17.4225V41.8225H28.7V17.4225H1ZM16 30.2225V33.3225C16 33.9225 15.5 34.4225 14.9 34.4225C14.3 34.4225 13.8 33.9225 13.8 33.3225V30.2225C12.8 29.8225 12.1 28.8225 12.1 27.6225C12.1 26.0225 13.4 24.8225 14.9 24.8225C16.4 24.8225 17.7 26.1225 17.7 27.6225C17.7 28.8225 17 29.8225 16 30.2225Z" stroke="#5091CD" stroke-width="0.75" stroke-miterlimit="10"/> <path d="M5.60002 17.4226C5.50002 13.4226 5.40002 9.32256 7.20002 5.72256C8.30002 3.42256 10.1 1.82256 12.3 1.32256C15 0.622558 18.8 0.922558 21.1 3.62256C24.4 7.32256 24.2 12.7226 24.1 17.4226" stroke="#5091CD" stroke-width="0.75" stroke-miterlimit="10"/> <path d="M21.2 17.3225C21.3 13.1225 21.4 8.42255 18.9 5.52255C17.4 3.82255 14.7 3.72255 12.9 4.12255C11.6 4.42255 10.5 5.42255 9.80001 6.92255C8.30001 9.92255 8.40001 13.7225 8.50001 17.3225" stroke="#5091CD" stroke-width="0.75" stroke-miterlimit="10"/> </symbol><symbol viewBox="0 0 40 40" id="icon-Additional-Financials"><title>Additional-Financials</title> <path d="M38.9 1H1V38.9H38.9V1Z" stroke="#5091CD" stroke-width="0.75" stroke-miterlimit="10"/> <path d="M11 6.3V15.7" stroke="#5091CD" stroke-width="0.75" stroke-miterlimit="10"/> <path d="M11 15.7V6.3" stroke="#5091CD" stroke-width="0.75" stroke-miterlimit="10"/> <path d="M6.29999 11H15.7" stroke="#5091CD" stroke-width="0.75" stroke-miterlimit="10"/> <path d="M23.8 11H33.2" stroke="#5091CD" stroke-width="0.75" stroke-miterlimit="10"/> <path d="M25.2 25.7L31.8 32.4" stroke="#5091CD" stroke-width="0.75" stroke-miterlimit="10"/> <path d="M31.8 32.4L25.2 25.7" stroke="#5091CD" stroke-width="0.75" stroke-miterlimit="10"/> <path d="M25.2 32.4L31.8 25.7" stroke="#5091CD" stroke-width="0.75" stroke-miterlimit="10"/> <path d="M6.29999 29H15.7" stroke="#5091CD" stroke-width="0.75" stroke-miterlimit="10"/> <path d="M10.4 32.5H11.5" stroke="#5091CD" stroke-width="0.75" stroke-miterlimit="10"/> <path d="M10.4 25.4H11.5" stroke="#5091CD" stroke-width="0.75" stroke-miterlimit="10"/> </symbol><symbol viewBox="0 0 47 49" id="icon-Automation-Settings"><title>Automation-Settings</title> <path d="M8.78881 41.7C0.588815 34.6 -1.51119 22.4 4.28881 12.7C9.88881 3.5 20.9888 -0.300001 30.7888 2.9" stroke="#5091CD" stroke-width="0.75" stroke-miterlimit="10"/> <path d="M28.0888 4.7L27.7888 4.2L30.4888 2.9L28.9888 0.3L29.4888 0L31.2888 3.1L28.0888 4.7Z"/> <path d="M38.5888 7.39999C46.7888 14.5 48.9888 26.8 43.0888 36.4C37.1888 46.1 25.1888 49.9 14.9888 45.7" stroke="#5091CD" stroke-width="0.75" stroke-miterlimit="10"/> <path d="M17.7888 44L17.9888 44.6L15.2888 45.7L16.5888 48.4L15.9888 48.6L14.4888 45.4L17.7888 44Z"/> <path d="M36.7888 21.9L36.6888 21.6C36.4888 21.7 36.2888 21.7 36.0888 21.7C34.5888 21.7 33.3888 20.5 33.3888 19C33.3888 18.1 33.8888 17.3 34.5888 16.8C33.6888 15.5 32.6888 14.4 31.3888 13.5L30.9888 13.2C30.4888 13.9 29.7888 14.3 28.7888 14.3C27.2888 14.3 26.0888 13.1 26.0888 11.6C26.0888 11.5 26.0888 11.4 26.0888 11.3H20.4888C20.2888 11.3 20.5888 11.3 20.3888 11.3C20.3888 11.3 20.3888 11.5 20.3888 11.6C20.3888 13.1 19.1888 14.3 17.6888 14.3C16.9888 14.3 16.2888 14 15.8888 13.6C14.5888 14.5 13.4888 15.7 12.5888 17C13.2888 17.5 13.7888 18.3 13.7888 19.2C13.7888 20.7 12.5888 21.9 11.0888 21.9C10.8888 21.9 10.7888 21.9 10.5888 21.9C10.3888 22.7 10.2888 23.6 10.2888 24.5C10.2888 25.4 10.3888 26.3 10.5888 27.1C10.7888 27.1 10.8888 27.1 11.0888 27.1C12.5888 27.1 13.7888 28.3 13.7888 29.8C13.7888 30.7 13.2888 31.5 12.5888 32C13.4888 33.3 14.4888 34.4 15.7888 35.3C16.2888 34.8 16.9888 34.5 17.6888 34.5C19.1888 34.5 20.3888 35.7 20.3888 37.2C20.3888 37.3 20.3888 37.4 20.3888 37.5C21.4888 37.8 22.5888 37.9 23.6888 37.9C24.5888 37.9 25.3888 37.8 26.1888 37.7C26.1888 37.5 26.1888 37.4 26.1888 37.2C26.1888 35.7 27.3888 34.5 28.8888 34.5C29.7888 34.5 30.6888 35 31.1888 35.7C32.6888 34.7 33.8888 33.5 34.8888 32C34.0888 31.5 33.4888 30.7 33.4888 29.7C33.4888 28.2 34.6888 27 36.1888 27C36.3888 27 36.6888 27 36.8888 27.1C36.9888 26.3 37.0888 25.5 37.0888 24.7C37.0888 23.6 36.9888 22.7 36.7888 21.9Z" stroke="#5091CD" stroke-width="0.75" stroke-miterlimit="10" stroke-linejoin="round"/> <path d="M23.6888 29C26.1189 29 28.0888 27.03 28.0888 24.6C28.0888 22.1699 26.1189 20.2 23.6888 20.2C21.2588 20.2 19.2888 22.1699 19.2888 24.6C19.2888 27.03 21.2588 29 23.6888 29Z" stroke="#5091CD" stroke-width="0.75" stroke-miterlimit="10" stroke-linejoin="round"/> </symbol><symbol viewBox="0 0 48 49" id="icon-Core-Integration"><title>Core-Integration</title> <path d="M44.7 33.6C43.5 33.6 42.4 34.3 41.8 35.3L35.5 31.7C35.8 31.4 36 31 36 30.6V26.9V26.6V26.3V22.7V19.7V19V18.7L42.1 15.2C42.7 15.9 43.6 16.4 44.6 16.4C46.4 16.4 47.9 14.9 47.9 13.1C47.9 11.3 46.4 9.8 44.6 9.8C42.8 9.8 41.3 11.3 41.3 13.1C41.3 13.6 41.4 14.1 41.7 14.6L35.8 18C34.8 16 29.4 14.9 24.2 14.8V6.6C25.8 6.4 27.1 5 27.1 3.3C27.1 1.5 25.6 0 23.8 0C22 0 20.5 1.5 20.5 3.3C20.5 5 21.8 6.4 23.5 6.6V14.8C18.3 14.8 13 15.9 11.9 17.9L6.4 14.7C6.5 14.5 6.6 14.3 6.7 14.1C7.1 12.4 6.2 10.5 4.5 10C4.1 9.9 3.8 9.8 3.4 9.8C2 9.8 0.7 10.7 0.2 12.1C-0.4 13.8 0.6 15.7 2.3 16.3C2.6 16.4 3 16.5 3.3 16.5C4.2 16.5 5.1 16.1 5.7 15.4L11.5 18.7V30.6C11.5 31 11.7 31.4 12 31.7L6.1 35.1C5.5 34.2 4.5 33.6 3.3 33.6C1.5 33.6 -1.49011e-09 35.1 -1.49011e-09 36.9C-1.49011e-09 38.7 1.5 40.2 3.3 40.2C5.1 40.2 6.6 38.7 6.6 36.9C6.6 36.5 6.5 36.1 6.4 35.8L12.6 32.2C14.6 33.5 19 34.2 23.3 34.2V41.8C21.6 42 20.4 43.4 20.4 45.1C20.4 46.9 21.9 48.4 23.7 48.4C25.5 48.4 27 46.9 27 45.1C27 43.4 25.7 42 24 41.8V34.2C28.3 34.2 32.7 33.5 34.7 32.1L41.3 35.9C41.2 36.2 41.2 36.5 41.2 36.8C41.2 38.6 42.7 40.1 44.5 40.1C46.3 40.1 47.8 38.6 47.8 36.8C48 35.1 46.5 33.6 44.7 33.6ZM44.7 10.5C46.1 10.5 47.3 11.7 47.3 13.1C47.3 14.5 46.1 15.7 44.7 15.7C43.3 15.7 42.1 14.6 42.1 13.1C42.1 11.6 43.3 10.5 44.7 10.5ZM5.9 13.9C5.5 15 4.5 15.7 3.5 15.7C3.2 15.7 3 15.7 2.7 15.6C1.3 15.2 0.6 13.7 1.1 12.3C1.5 11.2 2.5 10.5 3.5 10.5C3.8 10.5 4 10.5 4.3 10.6C5.6 11.1 6.3 12.6 5.9 13.9ZM3.4 39.5C2 39.5 0.8 38.3 0.8 36.9C0.8 35.5 2 34.3 3.4 34.3C4.8 34.3 6 35.5 6 36.9C6 38.3 4.8 39.5 3.4 39.5ZM21.2 3.3C21.2 1.9 22.4 0.7 23.8 0.7C25.2 0.7 26.4 1.9 26.4 3.3C26.4 4.7 25.2 5.9 23.8 5.9C22.4 5.9 21.2 4.7 21.2 3.3ZM23.8 15.6C30.6 15.6 35.3 17.3 35.3 18.8C35.3 20.3 30.6 22 23.8 22C17 22 12.3 20.3 12.3 18.8C12.3 17.3 17 15.6 23.8 15.6ZM23.8 22.7C28.5 22.7 33.4 21.8 35.3 20.2V22.8C35.3 24.2 30.6 25.7 23.8 25.7C17.2 25.7 12.5 24.2 12.4 22.9V20.2C14.2 21.8 19.1 22.7 23.8 22.7ZM12.3 24.1C14.1 25.6 19.1 26.4 23.8 26.4C28.5 26.4 33.4 25.6 35.3 24.1V26.4V26.7C35.3 28.2 30.6 29.9 23.8 29.9C17 29.9 12.3 28.2 12.3 26.7V24.1ZM12.3 28C14.1 29.6 19.1 30.5 23.8 30.5C28.5 30.5 33.4 29.6 35.3 28V30.6C35.3 32 30.6 33.5 23.8 33.5C17 33.5 12.3 32 12.3 30.6V28ZM26.4 45.1C26.4 46.5 25.2 47.7 23.8 47.7C22.4 47.7 21.2 46.5 21.2 45.1C21.2 43.7 22.4 42.5 23.8 42.5C25.2 42.5 26.4 43.7 26.4 45.1ZM44.7 39.5C43.3 39.5 42.1 38.3 42.1 36.9C42.1 35.5 43.3 34.3 44.7 34.3C46.1 34.3 47.3 35.5 47.3 36.9C47.3 38.3 46.1 39.5 44.7 39.5Z"/> </symbol><symbol viewBox="0 0 58 48" id="icon-Create-Desktop-Shortcut"><title>Create-Desktop-Shortcut</title> <path d="M22.8 39.7V44.8H17.4V47.6H41V44.8H35.6V39.7" stroke="#5091CD" stroke-width="0.75" stroke-miterlimit="10"/> <path d="M23.1 39.9H3.10001C2.00001 39.9 1.10001 39 1.10001 37.9V3C1.10001 1.9 2.00001 1 3.10001 1H55.5C56.6 1 57.5 1.9 57.5 3V37.8C57.5 38.9 56.6 39.8 55.5 39.8H23.1" stroke="#5091CD" stroke-width="0.75" stroke-miterlimit="10"/> <path d="M1 34.6L57.4 34.7" stroke="#5091CD" stroke-width="0.75" stroke-miterlimit="10"/> <path d="M55.1 3.29999H3.29999V32.2H55.1V3.29999Z" stroke="#5091CD" stroke-width="0.75" stroke-miterlimit="10"/> </symbol><symbol viewBox="0 0 50 50" id="icon-Loan-Rate"><title>Loan-Rate</title> <path d="M16.1302 17.1301C16.5302 16.4301 17.0302 15.8301 17.7302 15.4301C18.4302 15.0301 19.1302 14.8301 20.0302 14.8301C21.3302 14.8301 22.3302 15.2301 23.2302 16.1301C24.0302 17.0301 24.4302 18.1301 24.4302 19.5301C24.4302 20.8301 24.0302 22.0301 23.2302 22.8301C22.4302 23.7301 21.3302 24.1301 20.0302 24.1301C19.2302 24.1301 18.4302 23.9301 17.7302 23.5301C17.0302 23.1301 16.5302 22.5301 16.1302 21.8301C15.7302 21.1301 15.5302 20.3301 15.5302 19.4301C15.5302 18.5301 15.8302 17.8301 16.1302 17.1301ZM22.4302 16.8301C21.8302 16.0301 20.9302 15.7301 19.9302 15.7301C18.9302 15.7301 18.1302 16.1301 17.4302 16.8301C16.7302 17.5301 16.4302 18.5301 16.4302 19.5301C16.4302 20.5301 16.7302 21.4301 17.4302 22.2301C18.0302 23.0301 18.9302 23.3301 19.9302 23.3301C20.9302 23.3301 21.7302 22.9301 22.4302 22.2301C23.0302 21.5301 23.4302 20.6301 23.4302 19.5301C23.4302 18.4301 23.1302 17.5301 22.4302 16.8301ZM30.4302 15.1301H31.5302L19.2302 34.2301H18.2302L30.4302 15.1301ZM25.6302 27.5301C26.0302 26.8301 26.5302 26.2301 27.2302 25.8301C27.9302 25.4301 28.6302 25.2301 29.5302 25.2301C30.4302 25.2301 31.1302 25.4301 31.8302 25.8301C32.5302 26.2301 33.0302 26.8301 33.4302 27.5301C33.8302 28.2301 34.0302 29.0301 34.0302 29.9301C34.0302 30.8301 33.8302 31.6301 33.4302 32.3301C33.0302 33.0301 32.5302 33.6301 31.8302 34.0301C31.1302 34.4301 30.4302 34.6301 29.5302 34.6301C28.6302 34.6301 27.9302 34.4301 27.2302 34.0301C26.5302 33.6301 26.0302 33.0301 25.6302 32.3301C25.2302 31.6301 25.0302 30.8301 25.0302 29.9301C25.0302 29.0301 25.2302 28.3301 25.6302 27.5301ZM31.9302 27.2301C31.3302 26.4301 30.4302 26.1301 29.4302 26.1301C28.4302 26.1301 27.6302 26.5301 26.9302 27.2301C26.3302 28.0301 25.9302 28.9301 25.9302 29.9301C25.9302 31.0301 26.2302 31.9301 26.9302 32.6301C27.5302 33.3301 28.4302 33.7301 29.4302 33.7301C30.4302 33.7301 31.2302 33.3301 31.9302 32.6301C32.5302 31.9301 32.9302 31.0301 32.9302 29.9301C32.9302 28.9301 32.6302 27.9301 31.9302 27.2301Z"/> <path d="M46.8791 27.3063C48.3028 15.0729 39.5398 4.0016 27.3063 2.57788C15.0729 1.15415 4.0016 9.91715 2.57788 22.1506C1.15416 34.384 9.91716 45.4553 22.1506 46.8791C34.384 48.3028 45.4553 39.5398 46.8791 27.3063Z" stroke="#5091CD" stroke-width="0.75" stroke-miterlimit="10"/> </symbol><symbol viewBox="0 0 58 34" id="icon-Manage-Users"><title>Manage-Users</title> <path d="M46.4756 16.2C49.5132 16.2 51.9756 13.7376 51.9756 10.7C51.9756 7.66245 49.5132 5.20001 46.4756 5.20001C43.438 5.20001 40.9756 7.66245 40.9756 10.7C40.9756 13.7376 43.438 16.2 46.4756 16.2Z" stroke="#5091CD" stroke-width="0.75" stroke-miterlimit="10"/> <path d="M44.2756 30.9C49.6756 31.1 55.8756 30.6 57.1756 29.3C57.1756 29.3 59.0756 19.5 50.3756 18.2C50.0756 18.2 49.7756 18.1 49.4756 18.1C48.5756 18.5 47.6756 18.8 46.5756 18.8C45.5756 18.8 44.5756 18.6 43.6756 18.2C43.3756 18.2 43.1756 18.3 42.8756 18.3C42.2756 18.4 41.7756 18.5 41.3756 18.6" stroke="#5091CD" stroke-width="0.75" stroke-miterlimit="10"/> <path d="M11.6756 16.2C14.7132 16.2 17.1756 13.7376 17.1756 10.7C17.1756 7.66245 14.7132 5.20001 11.6756 5.20001C8.63803 5.20001 6.1756 7.66245 6.1756 10.7C6.1756 13.7376 8.63803 16.2 11.6756 16.2Z" stroke="#5091CD" stroke-width="0.75" stroke-miterlimit="10"/> <path d="M17.0756 18.6C16.5756 18.4 16.0756 18.3 15.4756 18.2C15.1756 18.2 14.8756 18.1 14.5756 18.1C13.6756 18.5 12.7756 18.8 11.6756 18.8C10.6756 18.8 9.67559 18.6 8.77559 18.2C8.47559 18.2 8.27559 18.3 7.97559 18.3C-0.724409 19.6 1.17559 29.4 1.17559 29.4C2.37559 30.6 8.47559 31.2 13.8756 31" stroke="#5091CD" stroke-width="0.75" stroke-miterlimit="10"/> <path d="M29.1756 14.8C32.9863 14.8 36.0756 11.7108 36.0756 7.9C36.0756 4.08924 32.9863 1 29.1756 1C25.3648 1 22.2756 4.08924 22.2756 7.9C22.2756 11.7108 25.3648 14.8 29.1756 14.8Z" stroke="#5091CD" stroke-width="0.75" stroke-miterlimit="10"/> <path d="M33.8756 17.3C33.4756 17.2 33.0756 17.2 32.6756 17.1C31.5756 17.6 30.3756 17.9 29.0756 17.9C27.7756 17.9 26.5756 17.6 25.4756 17.1C25.1756 17.1 24.7756 17.2 24.4756 17.2C13.5756 18.8 15.9756 31.1 15.9756 31.1C18.6756 33.8 39.6756 33.8 42.4756 31.1C42.4756 31.2 44.8756 18.9 33.8756 17.3Z" stroke="#5091CD" stroke-width="0.75" stroke-miterlimit="10"/> </symbol><symbol viewBox="0 0 44 43" id="icon-Merge-Duplicate-Customers"><title>Merge-Duplicate-Customers</title> <path d="M24.5 1.60001V18.6C24.5 18.6 25.5 42.1 1 42.3" stroke="#5091CD" stroke-width="0.75" stroke-miterlimit="10"/> <path d="M43.5 41.2C35.4 41.2 28.5 36.1 25.7 28.9" stroke="#5091CD" stroke-width="0.75" stroke-miterlimit="10"/> <path d="M18 7.5L24.5 1L31 7.5" stroke="#5091CD" stroke-width="0.75" stroke-miterlimit="10"/> </symbol><symbol viewBox="0 0 54 38" id="icon-My-Account"><title>My-Account</title> <path d="M7.1 37.1H1V1H53.2V37.1H7.1Z" stroke="#5091CD" stroke-width="0.75" stroke-miterlimit="10"/> <path d="M1.29999 4.70001H53.5" stroke="#5091CD" stroke-width="0.75" stroke-miterlimit="10"/> <path d="M34.1 20.8H47" stroke="#5091CD" stroke-width="0.75" stroke-miterlimit="10"/> <path d="M34.1 15.5H47" stroke="#5091CD" stroke-width="0.75" stroke-miterlimit="10"/> <path d="M34.1 26H47" stroke="#5091CD" stroke-width="0.75" stroke-miterlimit="10"/> <path d="M18.4 24.3C21.3823 24.3 23.8 21.8823 23.8 18.9C23.8 15.9177 21.3823 13.5 18.4 13.5C15.4177 13.5 13 15.9177 13 18.9C13 21.8823 15.4177 24.3 18.4 24.3Z" stroke="#5091CD" stroke-width="0.75" stroke-miterlimit="10"/> <path d="M28.8 37.1C28.8 37.1 30.7 27.5 22.1 26.2C21.8 26.2 21.5 26.1 21.2 26.1C20.3 26.5 19.4 26.7 18.4 26.7C17.4 26.7 16.5 26.5 15.6 26.1C15.3 26.1 15.1 26.2 14.8 26.2C6.2 27.5 8.1 37.1 8.1 37.1" stroke="#5091CD" stroke-width="0.75" stroke-miterlimit="10"/> </symbol><symbol viewBox="0 0 57 46" id="icon-Third-Party-Connections"><title>Third-Party-Connections</title> <path d="M34.7935 31.8C40.6478 31.8 45.3935 27.0542 45.3935 21.2C45.3935 15.3458 40.6478 10.6 34.7935 10.6C28.9393 10.6 24.1935 15.3458 24.1935 21.2C24.1935 27.0542 28.9393 31.8 34.7935 31.8Z" stroke="#5091CD" stroke-width="0.75" stroke-miterlimit="10"/> <path d="M24.7936 23.2L8.39355 25.9" stroke="#5091CD" stroke-width="0.75" stroke-miterlimit="10"/> <path d="M8.61219 26.556C8.75877 25.2943 7.85476 24.1526 6.59302 24.006C5.33127 23.8594 4.1896 24.7634 4.04301 26.0252C3.89642 27.2869 4.80043 28.4286 6.06218 28.5752C7.32392 28.7218 8.4656 27.8177 8.61219 26.556Z" stroke="#5091CD" stroke-width="0.75" stroke-miterlimit="10"/> <path d="M44.5936 17.5L50.6936 13.6" stroke="#5091CD" stroke-width="0.75" stroke-miterlimit="10"/> <path d="M28.2936 12.6L24.3936 6.20001" stroke="#5091CD" stroke-width="0.75" stroke-miterlimit="10"/> <path d="M25.7936 26.3L6.39355 39.3" stroke="#5091CD" stroke-width="0.75" stroke-miterlimit="10"/> <path d="M12.1935 5L25.6935 15.7" stroke="#5091CD" stroke-width="0.75" stroke-miterlimit="10"/> <path d="M53.708 13.3244C54.0229 12.3815 53.5138 11.3618 52.5709 11.0469C51.628 10.732 50.6083 11.241 50.2934 12.184C49.9784 13.1269 50.4875 14.1466 51.4304 14.4615C52.3734 14.7764 53.393 14.2674 53.708 13.3244Z" stroke="#5091CD" stroke-width="0.75" stroke-miterlimit="10"/> <path d="M10.3936 5.6C11.6638 5.6 12.6936 4.57025 12.6936 3.3C12.6936 2.02974 11.6638 1 10.3936 1C9.12331 1 8.09357 2.02974 8.09357 3.3C8.09357 4.57025 9.12331 5.6 10.3936 5.6Z" stroke="#5091CD" stroke-width="0.75" stroke-miterlimit="10"/> <path d="M23.4935 6.30001C24.7638 6.30001 25.7935 5.27027 25.7935 4.00001C25.7935 2.72976 24.7638 1.70001 23.4935 1.70001C22.2233 1.70001 21.1935 2.72976 21.1935 4.00001C21.1935 5.27027 22.2233 6.30001 23.4935 6.30001Z" stroke="#5091CD" stroke-width="0.75" stroke-miterlimit="10"/> <path d="M5.87395 43.483C7.12979 42.4889 7.34194 40.665 6.34781 39.4091C5.35368 38.1533 3.52972 37.9411 2.27389 38.9353C1.01806 39.9294 0.805901 41.7533 1.80003 43.0092C2.79416 44.265 4.61812 44.4772 5.87395 43.483Z" stroke="#5091CD" stroke-width="0.75" stroke-miterlimit="10"/> <path d="M41.9935 29L51.5935 38.4" stroke="#5091CD" stroke-width="0.75" stroke-miterlimit="10"/> <path d="M53.5935 43.3C55.1952 43.3 56.4935 42.0016 56.4935 40.4C56.4935 38.7984 55.1952 37.5 53.5935 37.5C51.9919 37.5 50.6935 38.7984 50.6935 40.4C50.6935 42.0016 51.9919 43.3 53.5935 43.3Z" stroke="#5091CD" stroke-width="0.75" stroke-miterlimit="10"/> <path d="M30.1936 18.3V16.6C30.1936 16.3 30.3936 16.1 30.5936 16.1C30.7936 16.1 30.9936 16.3 30.9936 16.6V18.9H32.5936V16.8C32.5936 15.7 31.6936 14.8 30.5936 14.8C29.4936 14.8 28.5936 15.7 28.5936 16.8V18.4C28.5936 19.5 30.9936 21.6 30.9936 22.8V25.9C30.9936 26.2 30.7936 26.4 30.5936 26.4C30.3936 26.4 30.1936 26.2 30.1936 25.9V22.7H28.5936V25.8C28.5936 26.9 29.4936 27.8 30.5936 27.8C31.6936 27.8 32.5936 26.9 32.5936 25.8V22.7C32.6936 21.3 30.1936 19.4 30.1936 18.3Z"/> <path d="M37.3935 21.4L36.4935 27.8H34.8935L33.6935 14.8H35.2935L35.8935 21.4L36.5935 14.8H38.1935L38.7935 21.4L39.3935 14.8H41.0935L39.7935 27.8H38.1935L37.3935 21.4Z"/> </symbol><symbol viewBox="0 0 13 17" id="icon-Link"><title>Link</title> <path d="M6.96617 7.86616C6.36617 7.46616 5.56617 7.56616 5.06617 8.06616L4.86617 8.26616C4.16617 8.86616 4.26617 9.96616 4.96617 10.6662L8.36616 14.0662C9.06616 14.7662 10.0662 14.7662 10.6662 14.1662L10.9662 13.8662C11.5662 13.2662 11.5662 12.1662 10.8662 11.5662L8.96617 9.76616L9.96617 8.76616L11.8662 10.6662C13.1662 11.9662 13.2662 13.8662 12.0662 14.9662L11.7662 15.2662C10.6662 16.3662 8.66617 16.2662 7.46617 15.0662L3.96617 11.5662C2.66617 10.2662 2.56617 8.36616 3.76617 7.26616L3.96617 6.96616C4.96617 5.96616 6.66617 5.96616 7.86617 6.86616"/> <path d="M5.86617 8.26616C6.46617 8.66616 7.26617 8.56616 7.76617 8.06616L7.96617 7.86617C8.56616 7.26617 8.56616 6.16616 7.86617 5.56616L4.36617 2.06616C3.76617 1.36616 2.66616 1.26617 2.06616 1.96616L1.86617 2.16616C1.16617 2.76616 1.26617 3.86617 1.96617 4.46617L3.86617 6.36617L2.86617 7.36617L0.966165 5.46617C-0.233835 4.16617 -0.333835 2.26617 0.766165 1.06616L1.06617 0.766165C2.16617 -0.333835 4.16617 -0.233835 5.36617 0.966165L8.86616 4.46617C10.1662 5.76616 10.2662 7.66616 9.06616 8.76616L8.76616 9.16617C7.76616 10.1662 6.06616 10.1662 4.86617 9.26616"/> </symbol><symbol viewBox="0 0 12 18" id="icon-Lock"><title>Lock</title> <path d="M0 7.18655V17.5866H11.8V7.18655H0ZM6.4 12.5866V13.8866C6.4 14.1866 6.2 14.3866 5.9 14.3866C5.6 14.3866 5.4 14.1866 5.4 13.8866V12.5866C5 12.3866 4.7 11.9866 4.7 11.4866C4.7 10.7866 5.2 10.2866 5.9 10.2866C6.6 10.2866 7.1 10.7866 7.1 11.4866C7.1 11.9866 6.8 12.4866 6.4 12.5866Z"/> <path d="M9.5 8.18655C9.5 6.08655 9.9 3.48655 8.3 1.88655C7.5 0.986553 6 0.886553 4.9 1.08655C4 1.28655 3.4 1.78655 3 2.58655C2 4.28655 2.3 6.28655 2.3 8.18655" stroke="#777777" stroke-width="1.2" stroke-miterlimit="10"/> </symbol><symbol id="icon-Adobe"><title>Adobe</title><path d="M3.6 12.7c.3-.2.6-.4 1-.6l.1-.1c.4-.2.7-.4 1.1-.6 0 0 .1 0 .1-.1.4-.2.9-.4 1.4-.6.8-1.5 1.4-2.9 1.8-4.2.1-.4.3-.8.4-1.2-.2-.2-.3-.7-.5-1.1 0-.1-.1-.2-.1-.3-.1-.4-.2-.9-.3-1.3-.1-.5-.1-.9-.1-1.3v-.1c0-.4 0-.8.1-1.1H0v16h1.4v-.7c.1-.7.5-1.3 1.3-2 .3-.2.5-.4.9-.7-.1.1 0 0 0 0z"/><path d="M11.8.1c.1 1.6-.4 3.7-.7 4.9v.1c0 .1-.1.3-.1.4.1.3.3.6.5.9.5.9 1.3 1.9 2.3 2.7 1.5-.3 2.8-.4 3.9-.4.8 0 1.5.1 2 .2.3.1.5.2.7.3.1.1.2.1.3.2l.2.2c.2.3.4.8.1 1.5 0 .1-.1.2-.2.2-.1.1-.2.1-.3.1-.4.1-.9.2-1.3.3-.4.1-.8.1-1.2.1-1.6 0-3.2-.5-4.5-1.4-1.7.3-3.4.8-5 1.4-.3.4-.5.9-.8 1.2-.1.1-.2.2-.2.3-.2.3-.4.5-.6.8l-.3.3c-.2.2-.4.5-.7.7l-.2.2c-.3.3-.6.5-.9.7h21.8V.1H11.8zM10 .1c-.1.3-.1.7-.1 1.1V2.1c0 .2.1.5.1.7 0-.3.1-.5.1-.8v-.2c0-.2 0-.4.1-.6v-.1V0"/><path d="M17.9 10.6h.4c.3 0 .6-.1.9-.1.1 0 .3 0 .4-.1v-.1c-.1-.1-.5-.3-1.5-.4h-.5c-.6 0-1.4.1-2.2.2.8.3 1.7.5 2.5.5zM6.2 12.8l-.6.3c-.8.4-1.5.9-2 1.4-.2.2-.4.5-.5.7-.1.1-.1.2-.1.4.3-.1.6-.2.8-.4.7-.5 1.6-1.3 2.4-2.4zM10.4 7.3c-.3.9-.7 1.9-1.2 2.9.9-.3 1.9-.6 2.8-.8-.6-.6-1.1-1.4-1.6-2.1z"/></symbol><symbol id="icon-Arrow-Gray"><title>Arrow-Gray</title><path d="M0 6.1h162.4" stroke="#AAA" stroke-width="1.5" stroke-miterlimit="10"/><path d="M157.4 12.3l-1-1.1 5.4-5.1-5.4-5 1-1.1 6.6 6.1-6.6 6.2z"/></symbol><symbol id="icon-Calendar"><title>Calendar</title><path d="M0 0v16h19.2V0H0zm5.8 14h-4v-2.8h4V14zm0-4.5h-4V6.6h4v2.9zm0-4.5h-4V2h4v3zm6 9h-4v-2.8h4V14zm0-4.5h-4V6.6h4v2.9zm0-4.5h-4V2h4v3zm5.7 9h-4v-2.8h4V14zm0-4.5h-4V6.6h4v2.9zm0-4.5h-4V2h4v3z"/></symbol><symbol id="icon-Checkmark"><title>Checkmark</title><path d="M1 8.3l5.4 5.2L14.7 1" stroke="#5091CD" stroke-width="2.045" stroke-miterlimit="10"/></symbol><symbol id="icon-Chevron-Down"><title>Chevron-Down</title><path d="M6.4 7.1L0 .7.7 0l5.7 5.6L12 0l.7.7-6.3 6.4z"/></symbol><symbol id="icon-Chevron-Left"><title>Chevron-Left</title><path d="M0 6.4L6.4 0l.7.7-5.7 5.7L7.1 12l-.7.7L0 6.4z"/></symbol><symbol id="icon-Chevron-Right"><title>Chevron-Right</title><path d="M7.1 6.4L.7 12.7 0 12l5.6-5.6L0 .7.7 0l6.4 6.4z"/></symbol><symbol id="icon-Chevron-Up"><title>Chevron-Up</title><path d="M6.4 0l6.3 6.4-.7.7-5.6-5.7L.7 7.1 0 6.4 6.4 0z"/></symbol><symbol id="icon-Customer"><title>Customer</title><path d="M8.9 7.9c-3.2 2.1-6.2 0-6.2 0-1.6 1-2.7 2.8-2.7 4.8V16h11.4v-3.3c0-1.9-1-3.7-2.5-4.8zM5.7 7.2C7.523 7.2 9 5.588 9 3.6S7.523 0 5.7 0C3.877 0 2.4 1.612 2.4 3.6s1.477 3.6 3.3 3.6z"/></symbol><symbol id="icon-Delete-Disabled"><title>Delete-Disabled</title><path d="M10.7.7L10 0 5.4 4.6.7 0 0 .7l4.6 4.7L0 10l.7.7 4.7-4.6 4.6 4.6.7-.7-4.6-4.6L10.7.7z"/></symbol><symbol id="icon-Delete-Enabled"><title>Delete-Enabled</title><path d="M10.7.7L10 0 5.4 4.6.7 0 0 .7l4.6 4.7L0 10l.7.7 4.7-4.6 4.6 4.6.7-.7-4.6-4.6L10.7.7z"/></symbol><symbol id="icon-Document"><title>Document</title><path d="M11.3 0H0v16h14.4V3l-3.1-3zm-2 13.4H2.2v-1.1h7.1v1.1zm2.9-2.7h-10V9.6h10.1v1.1h-.1zm0-2.7h-10V6.9h10.1V8h-.1zm0-2.7h-10V4.2h10.1v1.1h-.1z"/></symbol><symbol id="icon-Edit-Pencil"><title>Edit-Pencil</title><path d="M7.9 2.75l-7.8 7.8c-.1.1-.1.2-.1.3V14.75h3.9c.1 0 .2 0 .2-.1l7.8-7.8.1-.1c-1.3-1.4-2.6-2.8-4.1-4 .1-.1.1-.1 0 0zm-4.3 10.6H2.5v-1.2H1.3v-1.1l.8-.8 2.3 2.3-.8.8zm4.5-9c.2-.2.3-.2.4-.1.1.1.1.2-.1.4-.9 1-1.8 1.9-2.8 2.8-.7.8-1.5 1.6-2.3 2.3 0 .1-.1.2-.2.2-.2 0-.3-.2-.2-.3 0-.1.1-.1.1-.2 1.7-1.7 3.4-3.3 5.1-5.1 0 .1 0 .1 0 0zM14.4 2.75c-.3-.3-.6-.6-.8-.9-.5-.5-1-.9-1.4-1.4-.6-.6-1.4-.6-1.9 0-.6.5-1 1-1.5 1.4l-.1.1 4 4 1.7-1.7c.3-.4.3-1.1 0-1.5z"/></symbol><symbol id="icon-Exclamation-Bubble-Blue"><title>Exclamation-Bubble-Blue</title><path d="M8.9 0C4 0 0 4 0 8.9s4 8.9 8.9 8.9 8.9-4 8.9-8.9S13.8 0 8.9 0zm0 16.5c-4.2 0-7.6-3.4-7.6-7.6 0-4.2 3.4-7.6 7.6-7.6 4.2 0 7.6 3.4 7.6 7.6 0 4.2-3.4 7.6-7.6 7.6z"/><path d="M7.9 12.3c0-.6.5-1.1 1-1.1s1.1.5 1.1 1.1c0 .6-.5 1-1.1 1-.6 0-1-.5-1-1zm.3-1.9l-.3-5.9h2l-.3 5.9H8.2z"/></symbol><symbol id="icon-Exclamation-Bubble-Orange"><title>Exclamation-Bubble-Orange</title><path d="M8.9 0C4 0 0 4 0 8.9s4 8.9 8.9 8.9 8.9-4 8.9-8.9S13.8 0 8.9 0zm0 16.5c-4.2 0-7.6-3.4-7.6-7.6 0-4.2 3.4-7.6 7.6-7.6 4.2 0 7.6 3.4 7.6 7.6 0 4.2-3.4 7.6-7.6 7.6z"/><path d="M7.9 12.3c0-.6.5-1.1 1-1.1s1.1.5 1.1 1.1c0 .6-.5 1-1.1 1-.6 0-1-.5-1-1zm.3-1.9l-.3-5.9h2l-.3 5.9H8.2z"/></symbol><symbol id="icon-File-Blank"><title>File-Blank</title><path d="M9.4 1v6.2h6.1" stroke="#5091CD" stroke-width="1.1" stroke-miterlimit="10"/><path d="M1 15.2v2.4h14.5V7L9.7 1.1H1v14.1z" stroke="#5091CD" stroke-width="1.1" stroke-miterlimit="10"/></symbol><symbol id="icon-File-Download"><title>File-Download</title><path d="M12.9 1v5.1h5" stroke="#5091CD" stroke-width=".9" stroke-miterlimit="10"/><path d="M17.9 6v15.1H1V1h12.2l4.7 5zM9.2 7v9.3" stroke="#5091CD" stroke-width=".9" stroke-miterlimit="10"/><path d="M12.7 13l-3.5 3.6L5.6 13" stroke="#5091CD" stroke-width=".9" stroke-miterlimit="10"/></symbol><symbol id="icon-File-Search"><title>File-Search</title><path d="M22.3 16.4c.5-.8.9-1.8.9-2.8 0-2.8-2.3-5.1-5.1-5.1S13 10.8 13 13.6s2.3 5.1 5.1 5.1c1.2 0 2.3-.4 3.2-1.1l1-1.2zm-1.1 1.2l3.9 3.5c.2.1.3.2.5.2s.4-.1.6-.3c.3-.3.3-.8-.1-1.1l-3.9-3.5-1 1.2zm-3.2.3c-2.4 0-4.3-1.9-4.3-4.3s1.9-4.3 4.3-4.3 4.3 1.9 4.3 4.3-1.9 4.3-4.3 4.3z"/><path d="M12.9 1v5.1h5" stroke="#5091CD" stroke-width=".9" stroke-miterlimit="10"/><path d="M17.9 18.1v3H1V1h12.2l4.7 5v2.6" stroke="#5091CD" stroke-width=".9" stroke-miterlimit="10"/></symbol><symbol id="icon-Financial-Statement-Old"><title>Financial-Statement-Old</title><path d="M4.8 9.6c-.2.2-.4.4-.6.5v1.6h1.5l.5-.5c-.5-.6-.9-1.1-1.4-1.6z"/><path d="M0 0v16h26.6V0H0zm5.9 12.5H3.4h-.1v-.1V10c0-.1 0-.1.1-.2l5-5 .6.6-3.7 3.8.5.5 3.8-3.8 1.6 1.6-5 5c-.2-.1-.2 0-.3 0zm6.9-6.8c-.4.4-.7.8-1.1 1.1L9.1 4.2l.1-.1c.2-.3.5-.6.8-.9.3-.4.9-.4 1.2 0l.9.9c.2.2.4.4.5.6.4.3.4.7.2 1zm6.3 8.3h-4v-2.8h4V14zm0-4.5h-4V6.6h4v2.9zm0-4.5h-4V2h4v3zm5.7 9h-4v-2.8h4V14zm0-4.5h-4V6.6h4v2.9zm0-4.5h-4V2h4v3z"/></symbol><symbol id="icon-Financial-Statement"><title>Financial-Statement</title><path d="M0 0v16h26.6V0H0zm7.3 12.6c-1.8 0-3-.5-3.8-1.4l1.2-1.7c.6.6 1.6 1.1 2.8 1.1.8 0 1.2-.3 1.2-.7 0-1.2-4.9-.2-4.9-3.6 0-1.5 1.2-2.8 3.5-2.8 1.4 0 2.6.4 3.5 1.2L9.5 6.5c-.7-.6-1.7-.9-2.5-.9-.7 0-.9.3-.9.6 0 1.1 4.9.3 4.9 3.5 0 1.7-1.3 2.9-3.7 2.9zM19.1 14h-4v-2.8h4V14zm0-4.5h-4V6.6h4v2.9zm0-4.5h-4V2h4v3zm5.7 9h-4v-2.8h4V14zm0-4.5h-4V6.6h4v2.9zm0-4.5h-4V2h4v3z"/></symbol><symbol id="icon-Folder-3D-Empty"><title>Folder-3D-Empty</title><path d="M17.8 6V2.2H8.3L7.6 0H0v14.7h.1l-.1.2h17.1L20.5 6h-2.7zM1 1h5.8l.7 2.2h9.3V6H3.4L1 12.2V1zm15.4 12.9H1.5L4.1 7H19l-2.6 6.9z"/></symbol><symbol id="icon-Folder-Flat-Empty"><title>Folder-Flat-Empty</title><path opacity=".4" d="M8.2 2.2L7.5 0H0v4.4h7.5l.7-2.2z"/><path d="M8.3 2.2L7.5 0H0v15.1h17.8v-13l-9.5.1zM6.8 1l.5 1.6-.7 1.1H1V1h5.8zm10 13.2H1V4.8h6.2l1-1.6h8.6v11z"/></symbol><symbol id="icon-Folder-Flat-Full"><title>Folder-Flat-Full</title><path d="M8.2 2.2L7.5 0H0v15.1h17.8V2.2H8.2z"/><path opacity=".4" d="M8.2 2.2L7.5 0H0v4.4h7.5l.7-2.2z"/></symbol><symbol id="icon-Link"><title>Link</title><path d="M6.966 7.866c-.6-.4-1.4-.3-1.9.2l-.2.2c-.7.6-.6 1.7.1 2.4l3.4 3.4c.7.7 1.7.7 2.3.1l.3-.3c.6-.6.6-1.7-.1-2.3l-1.9-1.8 1-1 1.9 1.9c1.3 1.3 1.4 3.2.2 4.3l-.3.3c-1.1 1.1-3.1 1-4.3-.2l-3.5-3.5c-1.3-1.3-1.4-3.2-.2-4.3l.2-.3c1-1 2.7-1 3.9-.1"/><path d="M5.866 8.266c.6.4 1.4.3 1.9-.2l.2-.2c.6-.6.6-1.7-.1-2.3l-3.5-3.5c-.6-.7-1.7-.8-2.3-.1l-.2.2c-.7.6-.6 1.7.1 2.3l1.9 1.9-1 1-1.9-1.9c-1.2-1.3-1.3-3.2-.2-4.4l.3-.3c1.1-1.1 3.1-1 4.3.2l3.5 3.5c1.3 1.3 1.4 3.2.2 4.3l-.3.4c-1 1-2.7 1-3.9.1"/></symbol><symbol id="icon-Lock"><title>Lock</title><path d="M0 7.187v10.4h11.8v-10.4H0zm6.4 5.4v1.3c0 .3-.2.5-.5.5s-.5-.2-.5-.5v-1.3c-.4-.2-.7-.6-.7-1.1 0-.7.5-1.2 1.2-1.2s1.2.5 1.2 1.2c0 .5-.3 1-.7 1.1z"/><path d="M9.5 8.187c0-2.1.4-4.7-1.2-6.3-.8-.9-2.3-1-3.4-.8-.9.2-1.5.7-1.9 1.5-1 1.7-.7 3.7-.7 5.6" stroke="#777" stroke-width="1.2" stroke-miterlimit="10"/></symbol><symbol id="icon-More Options"><title>More Options</title><circle cx="1.8" cy="17.8" r="1.8" transform="rotate(-90 1.8 17.8)"/><circle cx="1.8" cy="1.8" r="1.8" transform="rotate(-90 1.8 1.8)"/><circle cx="1.8" cy="9.8" r="1.8" transform="rotate(-90 1.8 9.8)"/></symbol><symbol id="icon-Percent"><title>Percent</title><path d="M.3 1.2C.5.8.8.5 1.1.3c.3-.2.8-.3 1.3-.3s.9.1 1.3.3c.4.2.7.5.9.9.2.4.2.8.2 1.3s-.1.9-.3 1.3c-.2.4-.5.6-.8.8-.4.2-.8.4-1.3.4s-.9-.2-1.3-.4c-.3-.2-.6-.5-.8-.8C.1 3.5 0 3 0 2.5s.1-.9.3-1.3zm3.2.2c-.3-.3-.6-.5-1.1-.5-.4 0-.8.2-1.1.5-.3.3-.4.6-.4 1.1 0 .4.1.8.4 1.1.3.3.7.4 1.1.4.4 0 .8-.1 1.1-.4.3-.3.4-.7.4-1.1 0-.5-.1-.8-.4-1.1zM7.8.2h.8l-6.4 10h-.7L7.8.2zM5.5 6.6c.2-.3.5-.6.9-.9.4-.2.8-.3 1.2-.3.4 0 .9.1 1.3.3.3.3.6.6.8.9.2.3.3.8.3 1.3s-.1.9-.3 1.3c-.2.4-.5.6-.8.8-.4.2-.8.3-1.3.3s-.9 0-1.2-.3c-.4-.2-.7-.5-.9-.8-.2-.4-.3-.8-.3-1.3s.1-.9.3-1.3zm3.2.2c-.3-.3-.6-.4-1.1-.4-.5 0-.8.1-1.1.4-.3.3-.4.7-.4 1.1 0 .4.1.8.4 1.1.3.3.6.4 1.1.4.5 0 .8-.1 1.1-.4.3-.3.5-.7.5-1.1 0-.4-.2-.8-.5-1.1z"/></symbol><symbol id="icon-Policy-Exception-Empty"><title>Policy-Exception-Empty</title><path d="M7.1 4.1c-2.9 0-5.2 2.3-5.2 5.2 0 2.9 2.3 5.2 5.2 5.2 2.9 0 5.2-2.3 5.2-5.2 0-2.9-2.3-5.2-5.2-5.2zm0 8.2c-.3 0-.6-.3-.6-.6s.3-.6.6-.6.6.3.6.6-.2.6-.6.6z" stroke="#5091CD" stroke-width=".2" stroke-miterlimit="10"/><path d="M7.1 3.2C3.7 3.2 1 5.9 1 9.3c0 3.4 2.7 6.1 6.1 6.1 3.4 0 6.1-2.7 6.1-6.1 0-3.4-2.7-6.1-6.1-6.1zm0 .9c2.9 0 5.2 2.3 5.2 5.2 0 2.9-2.3 5.2-5.2 5.2-2.9 0-5.2-2.3-5.2-5.2 0-2.9 2.3-5.2 5.2-5.2z" stroke="#5091CD" stroke-width=".2" stroke-miterlimit="10"/><path d="M6.4 11.6c0-.4.3-.7.7-.7.4 0 .7.3.7.7 0 .4-.3.7-.7.7-.4 0-.7-.3-.7-.7zm.2-1.3l-.2-4h1.4l-.2 4h-1z" stroke="#5091CD" stroke-width=".2" stroke-miterlimit="10"/><path d="M15.6 1v6.2h6.1" stroke="#5091CD" stroke-width="1.1" stroke-miterlimit="10"/><path d="M7.1 15.2v2.4h14.6V7l-5.9-5.9H7.1v2.5" stroke="#5091CD" stroke-width="1.1" stroke-miterlimit="10"/></symbol><symbol id="icon-Policy-Exception-Full"><title>Policy-Exception-Full</title><path d="M14.1.1v6.1h6l-6-6.1zM5.4 13.9h.5c.2 0 .3-.1.5-.1h.2c.2-.1.3-.1.5-.2.6-.3 1.1-.6 1.6-1.1.5-.5.8-1 1.1-1.6.1-.2.1-.4.2-.5v-.1c0-.2.1-.3.1-.5v-.1-.5V9v-.4-.3-.2c-.1-.5-.2-1-.4-1.4-.1-.3-.2-.5-.3-.6V6c-.1-.1-.2-.3-.3-.4-.4-.4-.8-.8-1.2-1.1 0 0-.1 0-.1-.1-.2 0-.3-.1-.4-.2 0 0-.1 0-.1-.1-.2 0-.3-.1-.5-.1h-.1c-.3-.1-.7-.2-1-.3h-.6c-.3 0-.5 0-.8.1h-.2c-.2.1-.5.1-.7.2-.1 0-.2 0-.2.1-.3.1-.5.2-.7.3 0 .1-.1.1-.2.2-.3.1-.5.3-.8.6-.2.2-.4.4-.6.7 0 .1-.1.1-.1.2-.1.2-.3.4-.4.7v.1c-.1.3-.2.5-.3.7 0 .1 0 .2-.1.3v1.5c0 .1 0 .3.1.4 0 .2.1.4.1.6v.2c.1.1.1.3.2.4 0 0 0 .1.1.1.1.1.1.3.2.4 0 0 0 .1.1.1.3.4.6.9 1.1 1.2.1.1.3.2.4.3h.1c.2.1.3.2.5.3.5.2 1 .4 1.5.5h1zm.5-8.2l-.2 4H4.5v-.1l-.2-3.9h1.6zm-1.6 5.4c0-.5.4-.8.8-.8s.8.4.8.8-.4.8-.8.8-.8-.3-.8-.8z"/><path d="M13 7.3V0H4.6v2.7c.6-.1 1.3 0 2 .1 2.3.5 4.1 2.4 4.6 4.6.5 2.1-.1 4.3-1.7 5.8C8.3 14.4 6.7 15 5.1 15h-.5v2.6h15.6V7.3H13z"/></symbol><symbol id="icon-Print"><title>Print</title><path d="M16.5 4.7h-1.8V.8H3.6v3.9H.8v8.4h2.8v3.7h11.1v-3.7h2.9V4.7h-1.1zM5.1 2.3h8.1v2.4H5.1V2.3zm8.3 13.1H5.1V8.7h8.3v6.7z"/><path d="M11.6 10.3H6.8v1.5h4.8v-1.5zM11.6 12.5H6.8V14h4.8v-1.5z"/></symbol><symbol id="icon-Question-Bubble"><title>Question-Bubble</title><path d="M8.9 0C4 0 0 4 0 8.9s4 8.9 8.9 8.9 8.9-4 8.9-8.9S13.8 0 8.9 0zm0 16.5c-4.2 0-7.6-3.4-7.6-7.6 0-4.2 3.4-7.6 7.6-7.6 4.2 0 7.6 3.4 7.6 7.6 0 4.2-3.4 7.6-7.6 7.6z"/><path d="M8.9 11.5c-.5 0-.9.4-.9.9s.4.9.9.9.9-.4.9-.9-.4-.9-.9-.9zM9 4.5c-1.1 0-2.1.5-2.8 1.3l.9 1c.4-.5 1-.9 1.8-.9s1.2.4 1.2.9C10.1 7.9 8 8 8 9.6c0 .4.2.8.5 1.1l1.1-.4c-.2-.1-.3-.4-.3-.6 0-1.1 2.3-1.3 2.3-3.2 0-1.1-1-2-2.6-2z"/></symbol><symbol id="icon-Relationship"><title>Relationship</title><path d="M12.6 6a3 3 0 1 0 0-6 3 3 0 0 0 0 6zM15.4 6.6c-2.8 1.7-5.5 0-5.5 0-1.4.8-2.4 2.3-2.4 4V16h10.2v-5.4c0-1.6-.9-3.1-2.3-4zM2.4 9.3c-1.4.8-2.4 2.3-2.4 4V16h6.2V9.9c-2.1.5-3.8-.6-3.8-.6zM5.1 8.6a3 3 0 1 0 0-6 3 3 0 0 0 0 6zM20.2 8.6a3 3 0 1 0 0-6 3 3 0 0 0 0 6zM23 9.3c-1.4.9-2.8.9-3.9.6V16h6.2v-2.7c0-1.7-1-3.2-2.3-4z"/></symbol><symbol id="icon-Sageworks Logo"><title>Sageworks Logo</title><path d="M4.6 15.5V11c0-.8.5-1.4 1-1.4.6 0 1 .6 1 1.4v6.2H11v-5.6c0-3-2.4-5.5-5.5-5.5-3 0-5.5 2.4-5.5 5.5V16c.2 3.2 6.7 8.7 6.7 12v8.3c0 .8-.5 1.4-1 1.4-.6 0-1-.6-1-1.4v-8.9H.2v8.3c0 3 2.4 5.5 5.5 5.5 3 0 5.5-2.4 5.5-5.5v-8.3c-.1-3.9-6.6-9-6.6-11.9z"/><path d="M82 36.3c0 .8-.5 1.4-1 1.4-.6 0-1-.6-1-1.4V11c0-.8.5-1.4 1-1.4.6 0 1 .6 1 1.4v25.3zm4.4-24.6c0-3-2.4-5.5-5.5-5.5-3 0-5.5 2.4-5.5 5.5v23.9c0 3 2.4 5.5 5.5 5.5 3 0 5.5-2.4 5.5-5.5V11.7zM118.5 15.5V11c0-.8.5-1.4 1-1.4.6 0 1 .6 1 1.4v6.2h4.4v-5.6c0-3-2.4-5.5-5.5-5.5-3 0-5.5 2.4-5.5 5.5V16c0 3.1 6.5 8.7 6.5 11.9v8.3c0 .8-.5 1.4-1 1.4-.6 0-1-.6-1-1.4v-8.9H114v8.3c0 3 2.4 5.5 5.5 5.5 3 0 5.5-2.4 5.5-5.5v-8.3c0-3.8-6.5-8.9-6.5-11.8z"/><path d="M18.4 25.1v11.1c0 .8.5 1.4 1 1.4.6 0 1-.6 1-1.4V21.9c.1 0-2 1.2-2 3.2zm2.1 14.2c-.3.7-1.1 1.7-2.5 1.7-2.2 0-4-2.1-4-5.1V25.1c0-4.9 6.5-7.4 6.5-7.4V11c0-.8-.5-1.4-1-1.4-.6 0-1 .6-1 1.4v4.1h-4.4v-3.4c0-3 2.4-5.5 5.5-5.5 3 0 5.5 2.4 5.5 5.5v29.4h-4.4l-.2-1.8zM34.4 11c0-.8-.5-1.4-1-1.4-.6 0-1 .6-1 1.4v23c0 .8.5 1.4 1 1.4s1-.6 1-1.4V11zm-7.2 32.2l1.5-2.6s1.5 1 3.5 1c1.3 0 2.2-1.1 2.2-2.7v-1.7c-.3.7-1.1 1.7-2.5 1.7-2.2 0-4-2.1-4-5.1V11.4c0-3 1.8-5.1 4-5.1 1.4 0 2.2 1 2.5 1.7V6.3h4.4v33.8c0 1.7-2.4 4.6-6.2 4.6-2.8 0-5.4-1.5-5.4-1.5zM46.1 36.3c0 .8.5 1.4 1 1.4.6 0 1-.6 1-1.4v-8.9h4.4v8.3c0 3-2.4 5.5-5.5 5.5s-5.3-2.6-5.3-5.6V11.7c0-3 2.4-5.5 5.5-5.5s5.5 2.4 5.5 5.5v11.2h-6.5l-.1 13.4zM48.2 11c0-.8-.5-1.4-1-1.4-.6 0-1 .6-1 1.4v8.5h2.1l-.1-8.5z"/><path d="M99.2 19.5h-4.4V11c0-.8-.5-1.4-1-1.4-.6 0-1 .6-1 1.4v30h-4.4V6.2h4.3v1.7c.3-.6 1.1-1.7 2.5-1.7 2.2 0 4 2.1 4 5.1v8.2zM64 23.9l-2.2 17.2h-4.4L54.1 6.2h4.4l1.7 17.7 1.6-17.7h4.4l1.7 17.7 1.6-17.7h4.4l-3.3 34.9h-4.4L64 23.9zM105.5 25.1v16h-4.4V0h4.4v18.5l2.4-12.3h4.4L109.5 22l2.8 19.1h-4.4l-2.4-16z"/><path d="M125.5 4.5c.2 0 .4.1.6.2.2.1.3.3.5.5.1.2.2.4.2.6 0 .2-.1.4-.2.6-.1.2-.3.3-.5.5-.2.1-.4.2-.6.2-.2 0-.4-.1-.6-.2-.2-.1-.3-.3-.5-.5-.1-.2-.2-.4-.2-.6 0-.2.1-.4.2-.6.1-.2.3-.3.5-.5s.4-.2.6-.2zm0 .2c-.3 0-.5.1-.7.3-.2.2-.3.4-.3.7 0 .3.1.5.3.7.2.2.4.3.7.3.3 0 .5-.1.7-.3.2-.2.3-.4.3-.7 0-.3-.1-.5-.3-.7-.1-.2-.4-.3-.7-.3zm-.2 1.7h-.2V5.1h.8c.1 0 .1.1.2.1 0 .1.1.1.1.2s0 .2-.1.3c-.1.1-.2.1-.3.1.1 0 .1.1.1.1l.2.2.2.3h-.3l-.2-.2c-.1-.1-.2-.2-.2-.3 0 0-.1-.1-.2-.1h-.1v.6zm0-1.2v.4h.5c.1 0 .1-.1.1-.2s0-.1-.1-.2h-.5z"/></symbol><symbol id="icon-Search"><title>Search</title><path d="M17.5 15.1l-5.5-5c.7-1 1.1-2.3 1.1-3.6C13 2.9 10.1 0 6.5 0 2.9 0 0 2.9 0 6.5S2.9 13 6.5 13c1.5 0 2.9-.5 4-1.4l5.5 5c.2.2.5.3.7.3.3 0 .6-.1.8-.4.5-.4.4-1 0-1.4zm-11-3.8c-2.6 0-4.8-2.2-4.8-4.8 0-2.6 2.2-4.8 4.8-4.8 2.6 0 4.8 2.2 4.8 4.8 0 2.6-2.1 4.8-4.8 4.8z"/></symbol><symbol id="icon-Tax-Mapping-T"><title>Tax-Mapping-T</title><path d="M0 0v3h3.7v10.3h3.5V3h3.7V0H0z"/></symbol><symbol id="icon-Tax-Return"><title>Tax-Return</title><path d="M0 0v16h26.6V0H0zm10.8 5.6H8.3v6.9H6V5.6H3.5v-2h7.3v2zm8.3 8.4h-4v-2.8h4V14zm0-4.5h-4V6.6h4v2.9zm0-4.5h-4V2h4v3zm5.7 9h-4v-2.8h4V14zm0-4.5h-4V6.6h4v2.9zm0-4.5h-4V2h4v3z"/></symbol><symbol id="icon-Text-Bubble-Empty"><title>Text-Bubble-Empty</title><path d="M19.7 1v8.6H5.2v4.9L1 10.2V1h18.7zm1-1H0v10.6l6.1 6.5v-6.5h14.5V0h.1z"/></symbol><symbol id="icon-Text-Bubble-Full"><title>Text-Bubble-Full</title><path d="M.5 10.4V.5h19.7v9.6H5.7l-.1 5.7-5.1-5.4z"/><path d="M19.7 1v8.6H5.2v4.9L1 10.2V1h18.7zm1-1H0v10.6l6.1 6.5v-6.5h14.5V0h.1z"/></symbol><symbol viewBox="0 0 4 20" id="icon-More Options"><title>More Options</title> <circle cx="1.8" cy="17.8" r="1.8" transform="rotate(-90 1.8 17.8)"/> <circle cx="1.8" cy="1.80001" r="1.8" transform="rotate(-90 1.8 1.80001)"/> <circle cx="1.8" cy="9.80001" r="1.8" transform="rotate(-90 1.8 9.80001)"/> </symbol><symbol viewBox="0 0 10 11" id="icon-Percent"><title>Percent</title> <path d="M0.3 1.2C0.5 0.8 0.8 0.5 1.1 0.3C1.4 0.1 1.9 0 2.4 0C2.9 0 3.3 0.1 3.7 0.3C4.1 0.5 4.4 0.8 4.6 1.2C4.8 1.6 4.8 2 4.8 2.5C4.8 3 4.7 3.4 4.5 3.8C4.3 4.2 4 4.4 3.7 4.6C3.3 4.8 2.9 5 2.4 5C1.9 5 1.5 4.8 1.1 4.6C0.8 4.4 0.5 4.1 0.3 3.8C0.1 3.5 0 3 0 2.5C0 2 0.1 1.6 0.3 1.2ZM3.5 1.4C3.2 1.1 2.9 0.9 2.4 0.9C2 0.9 1.6 1.1 1.3 1.4C1 1.7 0.9 2 0.9 2.5C0.9 2.9 1 3.3 1.3 3.6C1.6 3.9 2 4 2.4 4C2.8 4 3.2 3.9 3.5 3.6C3.8 3.3 3.9 2.9 3.9 2.5C3.9 2 3.8 1.7 3.5 1.4ZM7.8 0.2H8.6L2.2 10.2H1.5L7.8 0.2ZM5.5 6.6C5.7 6.3 6 6 6.4 5.7C6.8 5.5 7.2 5.4 7.6 5.4C8 5.4 8.5 5.5 8.9 5.7C9.2 6 9.5 6.3 9.7 6.6C9.9 6.9 10 7.4 10 7.9C10 8.4 9.9 8.8 9.7 9.2C9.5 9.6 9.2 9.8 8.9 10C8.5 10.2 8.1 10.3 7.6 10.3C7.1 10.3 6.7 10.3 6.4 10C6 9.8 5.7 9.5 5.5 9.2C5.3 8.8 5.2 8.4 5.2 7.9C5.2 7.4 5.3 7 5.5 6.6ZM8.7 6.8C8.4 6.5 8.1 6.4 7.6 6.4C7.1 6.4 6.8 6.5 6.5 6.8C6.2 7.1 6.1 7.5 6.1 7.9C6.1 8.3 6.2 8.7 6.5 9C6.8 9.3 7.1 9.4 7.6 9.4C8.1 9.4 8.4 9.3 8.7 9C9 8.7 9.2 8.3 9.2 7.9C9.2 7.5 9 7.1 8.7 6.8Z"/> </symbol><symbol viewBox="0 0 23 19" id="icon-Policy-Exception-Empty"><title>Policy-Exception-Empty</title> <path d="M7.09999 4.10001C4.19999 4.10001 1.89999 6.40001 1.89999 9.30001C1.89999 12.2 4.19999 14.5 7.09999 14.5C9.99999 14.5 12.3 12.2 12.3 9.30001C12.3 6.40001 9.99999 4.10001 7.09999 4.10001ZM7.09999 12.3C6.79999 12.3 6.49999 12 6.49999 11.7C6.49999 11.4 6.79999 11.1 7.09999 11.1C7.39999 11.1 7.69999 11.4 7.69999 11.7C7.69999 12 7.49999 12.3 7.09999 12.3Z" stroke="#5091CD" stroke-width="0.2" stroke-miterlimit="10"/> <path d="M7.1 3.20001C3.7 3.20001 1 5.90001 1 9.30001C1 12.7 3.7 15.4 7.1 15.4C10.5 15.4 13.2 12.7 13.2 9.30001C13.2 5.90001 10.5 3.20001 7.1 3.20001ZM7.1 4.10001C10 4.10001 12.3 6.40001 12.3 9.30001C12.3 12.2 10 14.5 7.1 14.5C4.2 14.5 1.9 12.2 1.9 9.30001C1.9 6.40001 4.2 4.10001 7.1 4.10001Z" stroke="#5091CD" stroke-width="0.2" stroke-miterlimit="10"/> <path d="M6.39999 11.6C6.39999 11.2 6.69999 10.9 7.09999 10.9C7.49999 10.9 7.79999 11.2 7.79999 11.6C7.79999 12 7.49999 12.3 7.09999 12.3C6.69999 12.3 6.39999 12 6.39999 11.6ZM6.59999 10.3L6.39999 6.30002H7.79999L7.59999 10.3H6.59999Z" stroke="#5091CD" stroke-width="0.2" stroke-miterlimit="10"/> <path d="M15.6 1V7.2H21.7" stroke="#5091CD" stroke-width="1.1" stroke-miterlimit="10"/> <path d="M7.10001 15.2V17.6H21.7V7.00001L15.8 1.10001H7.10001V3.60001" stroke="#5091CD" stroke-width="1.1" stroke-miterlimit="10"/> </symbol><symbol viewBox="0 0 21 18" id="icon-Policy-Exception-Full"><title>Policy-Exception-Full</title> <path d="M14.1 0.100006V6.20001H20.1L14.1 0.100006Z"/> <path d="M5.4 13.9C5.5 13.9 5.7 13.9 5.8 13.9H5.9C6.1 13.9 6.2 13.8 6.4 13.8C6.5 13.8 6.5 13.8 6.6 13.8C6.8 13.7 6.9 13.7 7.1 13.6C7.7 13.3 8.2 13 8.7 12.5C9.2 12 9.5 11.5 9.8 10.9C9.9 10.7 9.9 10.5 10 10.4V10.3C10 10.1 10.1 10 10.1 9.8V9.7C10.1 9.5 10.1 9.4 10.1 9.2C10.1 9.1 10.1 9.1 10.1 9C10.1 8.9 10.1 8.7 10.1 8.6C10.1 8.5 10.1 8.4 10.1 8.3C10.1 8.2 10.1 8.2 10.1 8.1C10 7.6 9.9 7.1 9.7 6.7C9.6 6.4 9.5 6.2 9.4 6.1C9.4 6.1 9.4 6.1 9.4 6C9.3 5.9 9.2 5.7 9.1 5.6C8.7 5.2 8.3 4.8 7.9 4.5C7.9 4.5 7.8 4.5 7.8 4.4C7.6 4.4 7.5 4.3 7.4 4.2C7.4 4.2 7.3 4.2 7.3 4.1C7.1 4.1 7 4 6.8 4H6.7C6.4 3.9 6 3.8 5.7 3.7C5.5 3.7 5.3 3.7 5.1 3.7C4.8 3.7 4.6 3.7 4.3 3.8C4.2 3.8 4.2 3.8 4.1 3.8C3.9 3.9 3.6 3.9 3.4 4C3.3 4 3.2 4 3.2 4.1C2.9 4.2 2.7 4.3 2.5 4.4C2.5 4.5 2.4 4.5 2.3 4.6C2 4.7 1.8 4.9 1.5 5.2C1.3 5.4 1.1 5.6 0.9 5.9C0.9 6 0.8 6 0.8 6.1C0.7 6.3 0.5 6.5 0.4 6.8V6.9C0.3 7.2 0.2 7.4 0.1 7.6C0.1 7.7 0.1 7.8 0 7.9C0 8.2 0 8.5 0 8.8C0 9 0 9.1 0 9.3V9.4C0 9.5 0 9.7 0.1 9.8C0.1 10 0.2 10.2 0.2 10.4C0.2 10.5 0.2 10.5 0.2 10.6C0.3 10.7 0.3 10.9 0.4 11C0.4 11 0.4 11.1 0.5 11.1C0.6 11.2 0.6 11.4 0.7 11.5C0.7 11.5 0.7 11.6 0.8 11.6C1.1 12 1.4 12.5 1.9 12.8C2 12.9 2.2 13 2.3 13.1C2.3 13.1 2.3 13.1 2.4 13.1C2.6 13.2 2.7 13.3 2.9 13.4C3.4 13.6 3.9 13.8 4.4 13.9H4.5C4.6 13.9 4.7 13.9 4.8 13.9C4.9 13.9 5 13.9 5.1 13.9C5.2 13.9 5.3 13.9 5.4 13.9ZM5.9 5.7L5.7 9.7H4.5V9.6L4.3 5.7H5.9ZM4.3 11.1C4.3 10.6 4.7 10.3 5.1 10.3C5.5 10.3 5.9 10.7 5.9 11.1C5.9 11.5 5.5 11.9 5.1 11.9C4.7 11.9 4.3 11.6 4.3 11.1Z"/> <path d="M13 7.3V0H4.60001V2.7C5.20001 2.6 5.90001 2.7 6.60001 2.8C8.90001 3.3 10.7 5.2 11.2 7.4C11.7 9.5 11.1 11.7 9.50001 13.2C8.30001 14.4 6.70001 15 5.10001 15C4.90001 15 4.80001 15 4.60001 15V17.6H20.2V7.3H13Z"/> </symbol><symbol viewBox="0 0 19 18" id="icon-Print"><title>Print</title> <path d="M16.5 4.7H14.7V0.800003H3.59999V4.7H1.89999H0.799988V5.8V12V13.1H3.59999V16.8H14.7V13.1H17.6V12V5.8V4.7H16.5ZM5.09999 2.3H13.2V4.7H5.09999V2.3ZM13.4 15.4H5.09999V8.7H13.4V15.4Z"/> <path d="M11.6 10.3H6.79999V11.8H11.6V10.3Z"/> <path d="M11.6 12.5H6.79999V14H11.6V12.5Z"/> </symbol><symbol viewBox="0 0 18 18" id="icon-Question-Bubble"><title>Question-Bubble</title> <path d="M8.9 0C4 0 0 4 0 8.9C0 13.8 4 17.8 8.9 17.8C13.8 17.8 17.8 13.8 17.8 8.9C17.8 4 13.8 0 8.9 0ZM8.9 16.5C4.7 16.5 1.3 13.1 1.3 8.9C1.3 4.7 4.7 1.3 8.9 1.3C13.1 1.3 16.5 4.7 16.5 8.9C16.5 13.1 13.1 16.5 8.9 16.5Z"/> <path d="M8.9 11.5C8.4 11.5 8 11.9 8 12.4C8 12.9 8.4 13.3 8.9 13.3C9.4 13.3 9.8 12.9 9.8 12.4C9.8 11.9 9.4 11.5 8.9 11.5Z"/> <path d="M9.00001 4.5C7.90001 4.5 6.90001 5 6.20001 5.8L7.10001 6.8C7.50001 6.3 8.10001 5.9 8.90001 5.9C9.70001 5.9 10.1 6.3 10.1 6.8C10.1 7.9 8.00001 8 8.00001 9.6C8.00001 10 8.20001 10.4 8.50001 10.7L9.60001 10.3C9.40001 10.2 9.30001 9.9 9.30001 9.7C9.30001 8.6 11.6 8.4 11.6 6.5C11.6 5.4 10.6 4.5 9.00001 4.5Z"/> </symbol><symbol viewBox="0 0 26 16" id="icon-Relationship"><title>Relationship</title> <path d="M12.6 6C14.2569 6 15.6 4.65685 15.6 3C15.6 1.34315 14.2569 0 12.6 0C10.9432 0 9.60001 1.34315 9.60001 3C9.60001 4.65685 10.9432 6 12.6 6Z"/> <path d="M15.4 6.60001C12.6 8.30001 9.9 6.60001 9.9 6.60001C8.5 7.40001 7.5 8.90001 7.5 10.6V16H17.7V10.6C17.7 9.00001 16.8 7.50001 15.4 6.60001Z"/> <path d="M2.4 9.3C1 10.1 0 11.6 0 13.3V16H6.2V9.9C4.1 10.4 2.4 9.3 2.4 9.3Z"/> <path d="M5.10001 8.60001C6.75686 8.60001 8.10001 7.25686 8.10001 5.60001C8.10001 3.94315 6.75686 2.60001 5.10001 2.60001C3.44315 2.60001 2.10001 3.94315 2.10001 5.60001C2.10001 7.25686 3.44315 8.60001 5.10001 8.60001Z"/> <path d="M20.2 8.60001C21.8569 8.60001 23.2 7.25686 23.2 5.60001C23.2 3.94315 21.8569 2.60001 20.2 2.60001C18.5432 2.60001 17.2 3.94315 17.2 5.60001C17.2 7.25686 18.5432 8.60001 20.2 8.60001Z"/> <path d="M23 9.3C21.6 10.2 20.2 10.2 19.1 9.9V16H25.3V13.3C25.3 11.6 24.3 10.1 23 9.3Z"/> </symbol><symbol viewBox="0 0 127 45" id="icon-Sageworks Logo"><title>Sageworks Logo</title> <path d="M4.6 15.5V11C4.6 10.2 5.1 9.60001 5.6 9.60001C6.2 9.60001 6.6 10.2 6.6 11V17.2H11V11.6C11 8.60001 8.6 6.10001 5.5 6.10001C2.5 6.10001 0 8.50001 0 11.6C0 11.6 0 14.3 0 16C0.2 19.2 6.7 24.7 6.7 28C6.7 30.1 6.7 36.3 6.7 36.3C6.7 37.1 6.2 37.7 5.7 37.7C5.1 37.7 4.7 37.1 4.7 36.3V27.4H0.2V35.7C0.2 38.7 2.6 41.2 5.7 41.2C8.7 41.2 11.2 38.8 11.2 35.7C11.2 35.7 11.2 29.3 11.2 27.4C11.1 23.5 4.6 18.4 4.6 15.5Z"/> <path d="M82 36.3C82 37.1 81.5 37.7 81 37.7C80.4 37.7 80 37.1 80 36.3V11C80 10.2 80.5 9.60001 81 9.60001C81.6 9.60001 82 10.2 82 11V36.3ZM86.4 11.7C86.4 8.70001 84 6.20001 80.9 6.20001C77.9 6.20001 75.4 8.60001 75.4 11.7V35.6C75.4 38.6 77.8 41.1 80.9 41.1C83.9 41.1 86.4 38.7 86.4 35.6V11.7Z"/> <path d="M118.5 15.5V11C118.5 10.2 119 9.60001 119.5 9.60001C120.1 9.60001 120.5 10.2 120.5 11V17.2H124.9V11.6C124.9 8.60001 122.5 6.10001 119.4 6.10001C116.4 6.10001 113.9 8.50001 113.9 11.6C113.9 11.6 113.9 14.3 113.9 16C113.9 19.1 120.4 24.7 120.4 27.9C120.4 30 120.4 36.2 120.4 36.2C120.4 37 119.9 37.6 119.4 37.6C118.8 37.6 118.4 37 118.4 36.2V27.3H114V35.6C114 38.6 116.4 41.1 119.5 41.1C122.5 41.1 125 38.7 125 35.6C125 35.6 125 29.2 125 27.3C125 23.5 118.5 18.4 118.5 15.5Z"/> <path d="M18.4 25.1V36.2C18.4 37 18.9 37.6 19.4 37.6C20 37.6 20.4 37 20.4 36.2C20.4 36.2 20.4 23.9 20.4 21.9C20.5 21.9 18.4 23.1 18.4 25.1ZM20.5 39.3C20.2 40 19.4 41 18 41C15.8 41 14 38.9 14 35.9V25.1C14 20.2 20.5 17.7 20.5 17.7V11C20.5 10.2 20 9.60001 19.5 9.60001C18.9 9.60001 18.5 10.2 18.5 11V15.1C17.1 15.1 15.5 15.1 14.1 15.1C14.1 13.5 14.1 11.7 14.1 11.7C14.1 8.70001 16.5 6.20001 19.6 6.20001C22.6 6.20001 25.1 8.60001 25.1 11.7V41.1H20.7L20.5 39.3Z"/> <path d="M34.4 11C34.4 10.2 33.9 9.59999 33.4 9.59999C32.8 9.59999 32.4 10.2 32.4 11V34C32.4 34.8 32.9 35.4 33.4 35.4C33.9 35.4 34.4 34.8 34.4 34V11ZM27.2 43.2L28.7 40.6C28.7 40.6 30.2 41.6 32.2 41.6C33.5 41.6 34.4 40.5 34.4 38.9V37.2C34.1 37.9 33.3 38.9 31.9 38.9C29.7 38.9 27.9 36.8 27.9 33.8V11.4C27.9 8.39999 29.7 6.29999 31.9 6.29999C33.3 6.29999 34.1 7.29999 34.4 7.99999V6.29999H38.8V40.1C38.8 41.8 36.4 44.7 32.6 44.7C29.8 44.7 27.2 43.2 27.2 43.2Z"/> <path d="M46.1 36.3C46.1 37.1 46.6 37.7 47.1 37.7C47.7 37.7 48.1 37.1 48.1 36.3V27.4H52.5V35.7C52.5 38.7 50.1 41.2 47 41.2C43.9 41.2 41.7 38.6 41.7 35.6V11.7C41.7 8.70001 44.1 6.20001 47.2 6.20001C50.3 6.20001 52.7 8.60001 52.7 11.7V22.9H46.2L46.1 36.3ZM48.2 11C48.2 10.2 47.7 9.60001 47.2 9.60001C46.6 9.60001 46.2 10.2 46.2 11V19.5H48.3L48.2 11Z"/> <path d="M99.2 19.5H94.8V11C94.8 10.2 94.3 9.60001 93.8 9.60001C93.2 9.60001 92.8 10.2 92.8 11V41H88.4V6.20001H92.7V7.90001C93 7.30001 93.8 6.20001 95.2 6.20001C97.4 6.20001 99.2 8.30001 99.2 11.3V19.5Z"/> <path d="M64 23.9L61.8 41.1H57.4L54.1 6.20001H58.5L60.2 23.9L61.8 6.20001H66.2L67.9 23.9L69.5 6.20001H73.9L70.6 41.1H66.2L64 23.9Z"/> <path d="M105.5 25.1V41.1H101.1V0H105.5V18.5L107.9 6.2H112.3L109.5 22L112.3 41.1H107.9L105.5 25.1Z"/> <path d="M125.5 4.5C125.7 4.5 125.9 4.6 126.1 4.7C126.3 4.8 126.4 5 126.6 5.2C126.7 5.4 126.8 5.6 126.8 5.8C126.8 6 126.7 6.2 126.6 6.4C126.5 6.6 126.3 6.7 126.1 6.9C125.9 7 125.7 7.1 125.5 7.1C125.3 7.1 125.1 7 124.9 6.9C124.7 6.8 124.6 6.6 124.4 6.4C124.3 6.2 124.2 6 124.2 5.8C124.2 5.6 124.3 5.4 124.4 5.2C124.5 5 124.7 4.9 124.9 4.7C125.1 4.5 125.3 4.5 125.5 4.5ZM125.5 4.7C125.2 4.7 125 4.8 124.8 5C124.6 5.2 124.5 5.4 124.5 5.7C124.5 6 124.6 6.2 124.8 6.4C125 6.6 125.2 6.7 125.5 6.7C125.8 6.7 126 6.6 126.2 6.4C126.4 6.2 126.5 6 126.5 5.7C126.5 5.4 126.4 5.2 126.2 5C126.1 4.8 125.8 4.7 125.5 4.7ZM125.3 6.4H125.1V5.1H125.6C125.8 5.1 125.9 5.1 125.9 5.1C126 5.1 126 5.2 126.1 5.2C126.1 5.3 126.2 5.3 126.2 5.4C126.2 5.5 126.2 5.6 126.1 5.7C126 5.8 125.9 5.8 125.8 5.8C125.9 5.8 125.9 5.9 125.9 5.9C125.9 5.9 126 6 126.1 6.1L126.3 6.4H126L125.8 6.2C125.7 6.1 125.6 6 125.6 5.9C125.6 5.9 125.5 5.8 125.4 5.8H125.3V6.4ZM125.3 5.2V5.6H125.6C125.7 5.6 125.8 5.6 125.8 5.6C125.9 5.6 125.9 5.5 125.9 5.4C125.9 5.3 125.9 5.3 125.8 5.2C125.8 5.2 125.7 5.2 125.5 5.2H125.3Z"/> </symbol><symbol viewBox="0 0 18 17" id="icon-Search"><title>Search</title> <path d="M17.5 15.1L12 10.1C12.7 9.1 13.1 7.8 13.1 6.5C13 2.9 10.1 0 6.5 0C2.9 0 0 2.9 0 6.5C0 10.1 2.9 13 6.5 13C8 13 9.4 12.5 10.5 11.6L16 16.6C16.2 16.8 16.5 16.9 16.7 16.9C17 16.9 17.3 16.8 17.5 16.5C18 16.1 17.9 15.5 17.5 15.1ZM6.5 11.3C3.9 11.3 1.7 9.1 1.7 6.5C1.7 3.9 3.9 1.7 6.5 1.7C9.1 1.7 11.3 3.9 11.3 6.5C11.3 9.1 9.2 11.3 6.5 11.3Z"/> </symbol><symbol viewBox="0 0 11 14" id="icon-Tax-Mapping-T"><title>Tax-Mapping-T</title> <path d="M0 0V3H3.7V13.3H7.2V3H10.9V0H0Z"/> </symbol><symbol viewBox="0 0 27 16" id="icon-Tax-Return"><title>Tax-Return</title> <path d="M0 0V16H26.6V0H0ZM10.8 5.6H8.3V12.5H6V5.6H3.5V3.6H10.8V5.6ZM19.1 14H15.1V11.2H19.1V14ZM19.1 9.5H15.1V6.6H19.1V9.5ZM19.1 5H15.1V2H19.1V5ZM24.8 14H20.8V11.2H24.8V14ZM24.8 9.5H20.8V6.6H24.8V9.5ZM24.8 5H20.8V2H24.8V5Z"/> </symbol><symbol viewBox="0 0 21 18" id="icon-Text-Bubble-Empty"><title>Text-Bubble-Empty</title> <path d="M19.7 1V9.6H6.2H5.2V10.6V14.5L1 10.2V1H19.7ZM20.7 0H0V10.6L6.1 17.1V10.6H20.6V0H20.7Z"/> </symbol><symbol viewBox="0 0 21 18" id="icon-Text-Bubble-Full"><title>Text-Bubble-Full</title> <path d="M0.5 10.4V0.5H20.2V10.1H5.7L5.6 15.8L0.5 10.4Z"/> <path d="M19.7 1V9.6H6.2H5.2V10.6V14.5L1 10.2V1H19.7ZM20.7 0H0V10.6L6.1 17.1V10.6H20.6V0H20.7Z"/> </symbol><symbol viewBox="0 0 22 21" id="icon-administration"><title>administration</title> <path d="M7.69995 2.67072H13.7" stroke="white" stroke-width="0.9" stroke-miterlimit="10"/> <path d="M5.2998 0.524384V4.49512" stroke="white" stroke-width="0.9" stroke-miterlimit="10"/> <path d="M16.0999 0.524384V4.49512" stroke="white" stroke-width="0.9" stroke-miterlimit="10"/> <path d="M18.9999 2.67072H20.8999V15.0122V19.7341L0.899902 19.8414V2.67072H2.7999" stroke="white" stroke-width="0.9" stroke-miterlimit="10"/> <path d="M6.69995 7.39267H4.19995V10.0756H6.69995V7.39267Z" stroke="white" stroke-width="0.9" stroke-miterlimit="10"/> <path d="M12.0999 7.39267H9.59985V10.0756H12.0999V7.39267Z" stroke="white" stroke-width="0.9" stroke-miterlimit="10"/> <path d="M17.2998 7.39267H14.7998V10.0756H17.2998V7.39267Z" stroke="white" stroke-width="0.9" stroke-miterlimit="10"/> <path d="M17.5 13.4024H15V16.0854H17.5V13.4024Z" stroke="white" stroke-width="0.9" stroke-miterlimit="10"/> <path d="M6.69995 13.4024H4.19995V16.0854H6.69995V13.4024Z" stroke="white" stroke-width="0.9" stroke-miterlimit="10"/> <path d="M12 13.4024H9.5V16.0854H12V13.4024Z" stroke="white" stroke-width="0.9" stroke-miterlimit="10"/> </symbol><symbol viewBox="0 0 20 26" id="icon-alll-cecl"><title>alll-cecl</title> <path d="M19.1 0.841461H1V24.6658H19.1V0.841461Z" stroke="white" stroke-miterlimit="10"/> <path d="M15.5 5.34879H5" stroke="white" stroke-miterlimit="10"/> <path d="M6.1 12.2171C6.7 12.2171 7.2 11.6805 7.2 11.0366C7.2 10.3927 6.7 9.85608 6.1 9.85608C5.5 9.85608 5 10.3927 5 11.0366C5 11.6805 5.5 12.2171 6.1 12.2171Z"/> <path d="M10.1 12.2171C10.7 12.2171 11.2 11.6805 11.2 11.0366C11.2 10.3927 10.7 9.85608 10.1 9.85608C9.5 9.85608 9 10.3927 9 11.0366C9 11.6805 9.5 12.2171 10.1 12.2171Z"/> <path d="M14.1 12.2171C14.7 12.2171 15.2 11.6805 15.2 11.0366C15.2 10.3927 14.7 9.85608 14.1 9.85608C13.5 9.85608 13 10.3927 13 11.0366C13 11.6805 13.5 12.2171 14.1 12.2171Z"/> <path d="M6.1 16.5097C6.7 16.5097 7.2 15.9732 7.2 15.3293C7.2 14.6854 6.7 14.1488 6.1 14.1488C5.5 14.1488 5 14.6854 5 15.3293C5 15.9732 5.5 16.5097 6.1 16.5097Z"/> <path d="M10.1 16.5097C10.7 16.5097 11.2 15.9732 11.2 15.3293C11.2 14.6854 10.7 14.1488 10.1 14.1488C9.5 14.1488 9 14.6854 9 15.3293C9 15.9732 9.5 16.5097 10.1 16.5097Z"/> <path d="M14.1 16.5097C14.7 16.5097 15.2 15.9732 15.2 15.3293C15.2 14.6854 14.7 14.1488 14.1 14.1488C13.5 14.1488 13 14.6854 13 15.3293C13 15.9732 13.5 16.5097 14.1 16.5097Z"/> <path d="M6.1 20.8024C6.7 20.8024 7.2 20.2659 7.2 19.622C7.2 18.9781 6.7 18.4415 6.1 18.4415C5.5 18.4415 5 18.9781 5 19.622C5 20.2659 5.5 20.8024 6.1 20.8024Z"/> <path d="M10.1 20.8024C10.7 20.8024 11.2 20.2659 11.2 19.622C11.2 18.9781 10.7 18.4415 10.1 18.4415C9.5 18.4415 9 18.9781 9 19.622C9 20.2659 9.5 20.8024 10.1 20.8024Z"/> <path d="M14.1 20.8024C14.7 20.8024 15.2 20.2659 15.2 19.622C15.2 18.9781 14.7 18.4415 14.1 18.4415C13.5 18.4415 13 18.9781 13 19.622C13 20.2659 13.5 20.8024 14.1 20.8024Z"/> </symbol><symbol viewBox="0 0 25 23" id="icon-analysis"><title>analysis</title> <path d="M2.69991 17.5146C3.59991 17.5146 4.39991 16.6561 4.39991 15.6902C4.39991 14.7244 3.59991 13.8658 2.69991 13.8658C1.79991 13.8658 0.999913 14.7244 0.999913 15.6902C0.899913 16.6561 1.69991 17.5146 2.69991 17.5146Z" stroke="white" stroke-width="0.9" stroke-miterlimit="10"/> <path d="M8.79985 10.861C9.69985 10.861 10.4999 10.1097 10.4999 9.03658C10.4999 8.07073 9.69985 7.21219 8.79985 7.21219C7.79985 7.21219 7.09985 8.07073 7.09985 9.03658C7.09985 10.1097 7.79985 10.861 8.79985 10.861Z" stroke="white" stroke-width="0.9" stroke-miterlimit="10"/> <path d="M15.8999 13.7585C16.7999 13.7585 17.5999 12.9 17.5999 11.9341C17.5999 10.9683 16.7999 10.1097 15.8999 10.1097C15 10.1097 14.2 10.9683 14.2 11.9341C14.3 12.9 15 13.7585 15.8999 13.7585Z" stroke="white" stroke-width="0.9" stroke-miterlimit="10"/> <path d="M22.5999 4.63657C23.4999 4.63657 24.2999 3.77804 24.2999 2.81218C24.2999 1.84633 23.4999 0.987793 22.5999 0.987793C21.6999 0.987793 20.8999 1.84633 20.8999 2.81218C20.9999 3.77804 21.6999 4.63657 22.5999 4.63657Z" stroke="white" stroke-width="0.9" stroke-miterlimit="10"/> <path d="M1.19995 21.9146H24.9" stroke="white" stroke-width="0.9" stroke-miterlimit="10"/> <path d="M17.2998 10.4317L21.7998 4.42194" stroke="white" stroke-width="0.9" stroke-miterlimit="10"/> <path d="M10.5999 9.78778L14.5999 11.3975" stroke="white" stroke-width="0.9" stroke-miterlimit="10"/> <path d="M3.59985 14.2951L7.49985 10.539" stroke="white" stroke-width="0.9" stroke-miterlimit="10"/> </symbol><symbol viewBox="0 0 21 21" id="icon-analytics-and-reporting"><title>analytics-and-reporting</title> <path d="M0.5 19.6268H20.5" stroke="white" stroke-width="0.8999" stroke-miterlimit="10"/> <path d="M2.19995 15.978V9.4317H5.39995V15.978" stroke="white" stroke-width="0.8999" stroke-miterlimit="10"/> <path d="M8.5 15.978V4.70975H11.7V15.978" stroke="white" stroke-width="0.8999" stroke-miterlimit="10"/> <path d="M14.8 15.978V0.953644H18.1V15.978" stroke="white" stroke-width="0.8999" stroke-miterlimit="10"/> </symbol><symbol viewBox="0 0 27 22" id="icon-application"><title>application</title> <path d="M3 4.92439V1.06097H23.9V16.9439H3V13.7244V4.92439Z" stroke="white" stroke-miterlimit="10"/> <path d="M0.5 20.9146H26.4" stroke="white" stroke-miterlimit="10"/> <path d="M6.89995 8.03659L7.19995 9.43171C7.29995 9.75366 7.39995 10.1829 7.39995 10.5049C7.49995 10.1829 7.59995 9.75366 7.69995 9.43171L7.99995 8.03659H8.59995L8.99995 9.43171C9.09995 9.75366 9.19995 10.1829 9.19995 10.5049C9.19995 10.1829 9.29995 9.86098 9.39995 9.43171L9.79995 8.03659H10.4999L9.59995 11.1488H8.89995L8.49995 9.86098C8.49995 9.53903 8.39995 9.3244 8.29995 8.89513C8.19995 9.3244 8.19995 9.64635 8.09995 9.86098L7.69995 11.1488H6.99995L6.19995 8.03659H6.89995Z"/> <path d="M11.8001 8.03659L12.1001 9.43171C12.2001 9.75366 12.2001 10.0756 12.3001 10.3976C12.4001 10.1829 12.5001 9.75366 12.5001 9.43171L12.9001 8.03659H13.5001L13.9001 9.43171C14.0001 9.75366 14.1001 10.1829 14.1001 10.5049C14.1001 10.1829 14.2001 9.86098 14.3001 9.43171L14.7001 8.03659H15.4001L14.5001 11.1488H13.8001L13.5001 9.86098C13.4001 9.53903 13.3001 9.21708 13.3001 8.89513C13.2001 9.3244 13.2001 9.53903 13.1001 9.86098L12.7001 11.1488H12.0001L11.1001 8.03659H11.8001Z"/> <path d="M16.6999 8.03659L16.9999 9.43171C17.0999 9.75366 17.0999 10.0756 17.1999 10.3976C17.2999 10.0756 17.3999 9.75366 17.3999 9.43171L17.7999 8.03659H18.3999L18.7999 9.43171C18.8999 9.75366 18.9999 10.1829 18.9999 10.5049C18.9999 10.1829 19.0999 9.86098 19.1999 9.43171L19.4999 8.03659H20.1999L19.2999 11.1488H18.5999L18.2999 9.86098C18.1999 9.53903 18.0999 9.21708 18.0999 8.89513C17.9999 9.3244 17.9999 9.53903 17.8999 9.86098L17.4999 11.1488H16.7999L15.8999 8.03659H16.6999Z"/> </symbol><symbol viewBox="0 0 31 10" id="icon-Arrow-White"><title>Arrow-White</title> <path d="M0 5H29.7" stroke="#D5D5D5" stroke-width="1.2198" stroke-miterlimit="10"/> <path d="M25.6 10L24.8 9.1L29.2 5L24.8 0.9L25.6 0L31 5L25.6 10Z"/> </symbol><symbol viewBox="0 0 13 8" id="icon-Chevron-Down-White"><title>Chevron-Down-White</title> <path d="M6.4 7.1L0 0.7L0.7 0L6.4 5.6L12 0L12.7 0.7L6.4 7.1Z"/> </symbol><symbol viewBox="0 0 8 13" id="icon-Chevron-Left-White"><title>Chevron-Left-White</title> <path d="M0 6.4L6.4 0L7.1 0.7L1.4 6.4L7.1 12L6.4 12.7L0 6.4Z"/> </symbol><symbol viewBox="0 0 8 13" id="icon-Chevron-Right-White"><title>Chevron-Right-White</title> <path d="M7.1 6.4L0.7 12.7L0 12L5.6 6.4L0 0.7L0.7 0L7.1 6.4Z"/> </symbol><symbol viewBox="0 0 13 8" id="icon-Chevron-Up-White"><title>Chevron-Up-White</title> <path d="M6.4 0L12.7 6.4L12 7.1L6.4 1.4L0.7 7.1L0 6.4L6.4 0Z"/> </symbol><symbol viewBox="0 0 22 23" id="icon-community"><title>community</title> <path d="M11 22C16.5228 22 21 17.5228 21 12C21 6.47715 16.5228 2 11 2C5.47715 2 1 6.47715 1 12C1 17.5228 5.47715 22 11 22Z" stroke="white" stroke-width="0.9" stroke-miterlimit="10"/> <path d="M11.0001 15.2135C10.3821 15.2135 9.8877 15.7079 9.8877 16.3258C9.8877 16.9438 10.3821 17.4382 11.0001 17.4382C11.618 17.4382 12.1124 16.9438 12.1124 16.3258C12.1124 15.7079 11.618 15.2135 11.0001 15.2135Z"/> <path d="M11.1235 6.5618C9.76397 6.5618 8.52801 7.17978 7.66284 8.16854L8.7752 9.4045C9.26958 8.78652 10.0112 8.29214 10.9999 8.29214C11.9887 8.29214 12.4831 8.78652 12.4831 9.4045C12.4831 10.764 9.88756 10.8876 9.88756 12.8652C9.88756 13.3596 10.1348 13.8539 10.5055 14.2247L11.8651 13.7303C11.6179 13.6067 11.4943 13.236 11.4943 12.9888C11.4943 11.6292 14.337 11.382 14.337 9.03371C14.337 7.67416 13.101 6.5618 11.1235 6.5618Z"/> </symbol><symbol viewBox="0 0 26 19" id="icon-contact"><title>contact</title> <path d="M22.5 1.10001L24.8 3.40001L11.8 16.3L8.30005 17.6L9.70005 13.8L22.5 1.10001Z" stroke="white" stroke-width="0.9" stroke-miterlimit="10"/> <path d="M20.5 3.10001L22.8 5.40001" stroke="white" stroke-width="0.9" stroke-miterlimit="10"/> <path d="M0.5 15.2H6.6" stroke="white" stroke-width="0.9" stroke-miterlimit="10"/> <path d="M0.5 9.39999H10.2" stroke="white" stroke-width="0.9" stroke-miterlimit="10"/> <path d="M0.5 3.60001H13.3" stroke="white" stroke-width="0.9" stroke-miterlimit="10"/> </symbol><symbol viewBox="0 0 11 11" id="icon-Delete-White"><title>Delete-White</title> <path d="M10.7 0.7L10 0L5.4 4.6L0.7 0L0 0.7L4.6 5.4L0 10L0.7 10.7L5.4 6.1L10 10.7L10.7 10L6.1 5.4L10.7 0.7Z"/> </symbol><symbol viewBox="0 0 23 23" id="icon-global-settings"><title>global-settings</title> <path d="M21.6489 9.43129L21.5705 9.19355C21.4139 9.2728 21.2572 9.2728 21.1005 9.2728C19.9254 9.2728 18.9854 8.32186 18.9854 7.13318C18.9854 6.41997 19.3771 5.78601 19.9254 5.38978C19.2204 4.43884 18.3587 3.56714 17.4186 2.85393L17.1053 2.61619C16.7136 3.17091 16.1652 3.48789 15.3819 3.48789C14.2068 3.48789 13.2667 2.53695 13.2667 1.34827C13.2667 1.26903 13.2667 1.18978 13.2667 1.11053H8.87984C8.72316 1.11053 8.95818 1.11053 8.8015 1.11053C8.8015 1.11053 8.8015 1.26903 8.8015 1.34827C8.8015 2.53695 7.86145 3.48789 6.68639 3.48789C6.05969 3.48789 5.58966 3.25016 5.19797 2.93318C4.17958 3.64638 3.31787 4.51808 2.69117 5.54827C3.23953 5.9445 3.63122 6.57846 3.63122 7.29167C3.63122 8.48035 2.69117 9.43129 1.51611 9.43129C1.35943 9.43129 1.28109 9.43129 1.12442 9.43129C0.967742 10.0653 0.889404 10.7785 0.889404 11.4917C0.889404 12.2049 0.967742 12.9181 1.12442 13.552C1.28109 13.552 1.35943 13.552 1.51611 13.552C2.69117 13.552 3.63122 14.503 3.63122 15.6917C3.63122 16.4049 3.23953 17.0388 2.69117 17.4351C3.39621 18.4653 4.17958 19.3369 5.19797 20.0502C5.58966 19.6539 6.13802 19.4162 6.68639 19.4162C7.86145 19.4162 8.8015 20.3671 8.8015 21.5558C8.8015 21.6351 8.8015 21.7143 8.8015 21.7936C9.66321 22.0313 10.5249 22.1105 11.3866 22.1105C12.0917 22.1105 12.7184 22.0313 13.3451 21.952C13.3451 21.7936 13.3451 21.7143 13.3451 21.5558C13.3451 20.3671 14.2851 19.4162 15.4602 19.4162C16.1652 19.4162 16.8703 19.8124 17.262 20.3671C18.437 19.5747 19.3771 18.6237 20.1605 17.4351C19.5338 17.0388 19.0637 16.4049 19.0637 15.6124C19.0637 14.4237 20.0038 13.4728 21.1788 13.4728C21.3355 13.4728 21.5705 13.4728 21.7272 13.552C21.8055 12.9181 21.8839 12.2841 21.8839 11.6502C21.8055 10.7785 21.7272 10.1445 21.6489 9.43129Z" stroke="white" stroke-width="0.9" stroke-miterlimit="10" stroke-linejoin="round"/> <path d="M11.3863 15.0577C13.29 15.0577 14.8332 13.4966 14.8332 11.5709C14.8332 9.6452 13.29 8.08411 11.3863 8.08411C9.48266 8.08411 7.93945 9.6452 7.93945 11.5709C7.93945 13.4966 9.48266 15.0577 11.3863 15.0577Z" stroke="white" stroke-width="0.9" stroke-miterlimit="10" stroke-linejoin="round"/> </symbol><symbol viewBox="0 0 25 26" id="icon-insights"><title>insights</title> <path d="M12.8001 20.9C11.5001 21 10.7001 21 10.5001 20.6C10.2001 20.1 10.2001 18.9 9.60008 17.5C8.50008 15.1 7.60008 14.3 7.50008 12.5C7.40008 8.90001 10.3001 7.10001 12.4001 7.10001C14.5001 7.00001 17.5001 8.50001 17.7001 12.2C17.8001 14 16.8001 14.9 15.9001 17.3C15.4001 18.8 15.5001 20 15.2001 20.5C14.9001 20.8 14.1001 20.8 12.8001 20.9Z" stroke="white" stroke-miterlimit="10"/> <path d="M3.6001 4L6.9001 7.1" stroke="white" stroke-miterlimit="10"/> <path d="M0.5 11.8L5.1 12" stroke="white" stroke-miterlimit="10"/> <path d="M21.5001 4L18.1001 7.1" stroke="white" stroke-miterlimit="10"/> <path d="M24.4999 11.8L19.8999 12" stroke="white" stroke-miterlimit="10"/> <path d="M12.5 4.8V0.5" stroke="white" stroke-miterlimit="10"/> <path d="M10.6001 23.5H14.8001" stroke="white" stroke-miterlimit="10"/> <path d="M10.6001 25.3H14.8001" stroke="white" stroke-miterlimit="10"/> </symbol><symbol viewBox="0 0 22 22" id="icon-miscellaneous"><title>miscellaneous</title> <path d="M10.8999 21C16.3999 21 20.8999 16.5 20.8999 11C20.8999 5.5 16.3999 1 10.8999 1C5.3999 1 0.899902 5.5 0.899902 11C0.899902 16.5 5.3999 21 10.8999 21Z" stroke="white" stroke-width="0.9" stroke-miterlimit="10"/> <path d="M10.8999 5.89999V15.9" stroke="white" stroke-width="0.9" stroke-miterlimit="10"/> <path d="M5.8999 10.8H15.8999" stroke="white" stroke-width="0.9" stroke-miterlimit="10"/> </symbol><symbol viewBox="0 0 24 22" id="icon-portfolio"><title>portfolio</title> <path d="M23 5.60242H1V20.5195H23V5.60242Z" stroke="white" stroke-miterlimit="10"/> <path d="M1.19995 14.7244H22.7999" stroke="white" stroke-miterlimit="10"/> <path d="M6.80005 5.17316V0.987793H17.4V5.38779" stroke="white" stroke-width="1.077" stroke-miterlimit="10"/> <path d="M5.19995 14.8317C5.19995 13.4366 5.99995 12.2561 7.09995 12.2561C8.19995 12.2561 8.99995 13.4366 8.99995 14.8317"/> <path d="M15.1001 14.8317C15.1001 13.4366 15.9001 12.2561 17.0001 12.2561C18.1001 12.2561 18.9001 13.4366 18.9001 14.8317"/> </symbol><symbol viewBox="0 0 14 18" id="icon-profile"><title>profile</title> <path d="M10.4 4.2C10.4 6 9 7.5 7.2 7.5C5.4 7.5 4 6 4 4.2C4 2.4 5.5 0.999998 7.2 0.999998C9 0.899998 10.4 2.4 10.4 4.2Z" stroke="white" stroke-width="0.9" stroke-miterlimit="10"/> <path d="M9.40005 9.39999C9.20005 9.39999 9.00005 9.29999 8.90005 9.29999C8.30005 9.49999 7.80005 9.69999 7.20005 9.69999C6.60005 9.69999 6.00005 9.49999 5.50005 9.29999C5.30005 9.29999 5.20005 9.39999 5.00005 9.39999C-0.0999475 10.2 1.00005 16 1.00005 16C2.30005 17.3 12.2001 17.3 13.4001 16C13.5001 15.9 14.5001 10.1 9.40005 9.39999Z" stroke="white" stroke-width="0.9" stroke-miterlimit="10"/> </symbol><symbol viewBox="0 0 26 17" id="icon-stress-testing"><title>stress-testing</title> <path d="M13.3999 10.9L17.7999 4.5683L15.9999 11.9732"/> <path d="M6.6001 10.7927L4.6001 9.93414" stroke="white" stroke-miterlimit="10"/> <path d="M13.1001 5.96342V3.60245" stroke="white" stroke-miterlimit="10"/> <path d="M9 15.8366H1V14.0122C1 6.82196 6.4 1.13416 13 1.13416C19.6 1.13416 25 6.92928 25 14.0122V15.8366H17.2V15.1927C17.2 12.7244 15.4 10.7927 13.1 10.7927C10.8 10.7927 9 12.7244 9 15.1927V15.8366Z" stroke="white" stroke-miterlimit="10"/> <path d="M19.6001 11.222L21.6001 10.4707" stroke="white" stroke-miterlimit="10"/> </symbol><symbol viewBox="0 0 22 21" id="icon-workflow"><title>workflow</title> <path d="M9.8 19.8C5.9 18.8 3.1 15.3 3 11.2" stroke="white" stroke-width="0.9" stroke-miterlimit="10"/> <path d="M5.3 12.1L3.4 7.70001L0.5 11.5L5.3 12.1Z"/> <path d="M21.3001 9.10001C21.4001 9.70001 21.5001 10.2 21.5001 10.9C21.5001 14.2 19.7001 17.1 17.1001 18.7" stroke="white" stroke-width="0.9" stroke-miterlimit="10"/> <path d="M16.7 16.1L13.8 20L18.6 20.6L16.7 16.1Z"/> <path d="M5.8999 4.00001C7.4999 2.50001 9.7999 1.60001 12.1999 1.60001C13.7999 1.60001 15.3999 2.00001 16.6999 2.70001" stroke="white" stroke-width="0.9" stroke-miterlimit="10"/> <path d="M14.5 4.3L19.3 4.9L17.5 0.5L14.5 4.3Z"/> </symbol></svg>