<svg width="32" height="24" fill="none" xmlns="http://www.w3.org/2000/svg"><path d="M25.775 13.34c.638-5.486-3.291-10.451-8.777-11.09-5.486-.638-10.45 3.292-11.09 8.778-.638 5.485 3.292 10.45 8.778 11.089 5.486.638 10.45-3.292 11.089-8.777z" stroke="#777" stroke-width=".75" stroke-miterlimit="10"/><path d="M18.3 15.1c-.2.3-.4.6-.8.8-.4.2-.9.3-1.5.4v1h-.5v-1c-.6 0-1.1-.1-1.5-.4-.5-.2-.8-.5-1.1-.9l.4-.5c.3.3.6.6 1 .8.4.2.8.3 1.3.4v-3.4c-.5-.1-.9-.3-1.3-.4-.3-.1-.6-.4-.8-.6-.3-.3-.5-.7-.5-1.1 0-.4.1-.8.3-1.1.2-.3.5-.6.9-.7.4-.1.8-.3 1.2-.3V7h.6v1.1c1 .1 1.7.4 2.3 1l-.5.5c-.5-.6-1.1-.9-1.9-1v3.2c.5.1.9.3 1.3.4.3.2.6.4.9.7.3.3.3.7.3 1.1.1.5 0 .8-.1 1.1zm-4.1-3.9c.3.2.7.4 1.3.6V8.7c-.5 0-.9.2-1.2.5-.3.3-.5.7-.5 1.1 0 .3.1.6.4.9zm3.2 4c.3-.3.4-.7.4-1.1 0-.5-.2-.8-.5-1-.3-.2-.8-.4-1.3-.6v3.2c.7 0 1.1-.2 1.4-.5z" fill="#777" stroke="#777" stroke-width=".13" stroke-miterlimit="10"/></svg>