<svg width="58" height="34" fill="none" xmlns="http://www.w3.org/2000/svg"><path d="M46.476 16.2a5.5 5.5 0 1 0 0-11 5.5 5.5 0 0 0 0 11zm-2.2 14.7c5.4.2 11.6-.3 12.9-1.6 0 0 1.9-9.8-6.8-11.1-.3 0-.6-.1-.9-.1-.9.4-1.8.7-2.9.7-1 0-2-.2-2.9-.6-.3 0-.5.1-.8.1-.6.1-1.1.2-1.5.3m-29.7-2.4a5.5 5.5 0 1 0 0-11 5.5 5.5 0 0 0 0 11zm5.4 2.4c-.5-.2-1-.3-1.6-.4-.3 0-.6-.1-.9-.1-.9.4-1.8.7-2.9.7-1 0-2-.2-2.9-.6-.3 0-.5.1-.8.1-8.7 1.3-6.8 11.1-6.8 11.1 1.2 1.2 7.3 1.8 12.7 1.6m15.3-16.2a6.9 6.9 0 1 0 0-13.8 6.9 6.9 0 0 0 0 13.8z" stroke="#5091CD" stroke-width=".75" stroke-miterlimit="10"/><path d="M33.876 17.3c-.4-.1-.8-.1-1.2-.2-1.1.5-2.3.8-3.6.8-1.3 0-2.5-.3-3.6-.8-.3 0-.7.1-1 .1-10.9 1.6-8.5 13.9-8.5 13.9 2.7 2.7 23.7 2.7 26.5 0 0 .1 2.4-12.2-8.6-13.8z" stroke="#5091CD" stroke-width=".75" stroke-miterlimit="10"/></svg>