<svg width="74" height="58" fill="none" xmlns="http://www.w3.org/2000/svg"><path d="M38.4 32.2h-31v1.3h31v-1.3zm0-7.5h-31V26h31v-1.3zm0 14.7h-31v1.3h31v-1.3zm-7.6 7.2H7.4v1.3h23.4v-1.3z" fill="#5091CD"/><path d="M73.1 53.8l-9.4-8.5c1.3-2 2.1-4.4 2.1-7 0-6.9-5.6-12.5-12.5-12.5-1.9 0-3.6.4-5.2 1.1V11.4L37.3 0H0v56.9h48.1v-7.1c1.6.7 3.3 1.1 5.2 1.1 2.9 0 5.6-1 7.7-2.7l9.4 8.5c.4.3.8.5 1.3.5s1.1-.2 1.5-.6c.7-.8.7-2.1-.1-2.8zM37.7 2.3l8.4 8.9h-8.4V2.3zm9.1 53.3H1.3V1.3h35.1v11.2h10.4v15.2c-3.6 2.2-6 6.2-6 10.7 0 4.5 2.4 8.5 6 10.7v6.5zm6.5-6.2c-6.1 0-11-4.9-11-11s4.9-11 11-11 11 4.9 11 11c0 6-5 11-11 11z" fill="#5091CD"/></svg>