<svg width="20" height="26" fill="none" xmlns="http://www.w3.org/2000/svg"><path d="M19.1.841H1v23.825h18.1V.84zM15.5 5.349H5" stroke="#fff" stroke-miterlimit="10"/><path d="M6.1 12.217c.6 0 1.1-.537 1.1-1.18 0-.644-.5-1.18-1.1-1.18-.6 0-1.1.536-1.1 1.18 0 .643.5 1.18 1.1 1.18zM10.1 12.217c.6 0 1.1-.537 1.1-1.18 0-.644-.5-1.18-1.1-1.18-.6 0-1.1.536-1.1 1.18 0 .643.5 1.18 1.1 1.18zM14.1 12.217c.6 0 1.1-.537 1.1-1.18 0-.644-.5-1.18-1.1-1.18-.6 0-1.1.536-1.1 1.18 0 .643.5 1.18 1.1 1.18zM6.1 16.51c.6 0 1.1-.537 1.1-1.18 0-.645-.5-1.181-1.1-1.181-.6 0-1.1.536-1.1 1.18 0 .644.5 1.18 1.1 1.18zM10.1 16.51c.6 0 1.1-.537 1.1-1.18 0-.645-.5-1.181-1.1-1.181-.6 0-1.1.536-1.1 1.18 0 .644.5 1.18 1.1 1.18zM14.1 16.51c.6 0 1.1-.537 1.1-1.18 0-.645-.5-1.181-1.1-1.181-.6 0-1.1.536-1.1 1.18 0 .644.5 1.18 1.1 1.18zM6.1 20.802c.6 0 1.1-.536 1.1-1.18 0-.644-.5-1.18-1.1-1.18-.6 0-1.1.536-1.1 1.18 0 .644.5 1.18 1.1 1.18zM10.1 20.802c.6 0 1.1-.536 1.1-1.18 0-.644-.5-1.18-1.1-1.18-.6 0-1.1.536-1.1 1.18 0 .644.5 1.18 1.1 1.18zM14.1 20.802c.6 0 1.1-.536 1.1-1.18 0-.644-.5-1.18-1.1-1.18-.6 0-1.1.536-1.1 1.18 0 .644.5 1.18 1.1 1.18z" fill="#fff"/></svg>