<svg width="27" height="22" fill="none" xmlns="http://www.w3.org/2000/svg"><path d="M3 4.924V1.061h20.9v15.883H3V4.924zM.5 20.915h25.9" stroke="#fff" stroke-miterlimit="10"/><path d="M6.9 8.037l.3 1.395c.1.322.2.75.2 1.073.1-.322.2-.751.3-1.073L8 8.037h.6L9 9.432c.1.322.2.75.2 1.073 0-.322.1-.644.2-1.073l.4-1.395h.7l-.9 3.112h-.7L8.5 9.86c0-.322-.1-.537-.2-.966-.1.43-.1.751-.2.966l-.4 1.288H7l-.8-3.112h.7zM11.8 8.037l.3 1.395c.1.322.1.644.2.966.1-.215.2-.644.2-.966l.4-1.395h.6l.4 1.395c.1.322.2.75.2 1.073 0-.322.1-.644.2-1.073l.4-1.395h.7l-.9 3.112h-.7l-.3-1.288c-.1-.322-.2-.644-.2-.966-.1.43-.1.644-.2.966l-.4 1.288H12l-.9-3.112h.7zM16.7 8.037l.3 1.395c.1.322.1.644.2.966.1-.322.2-.644.2-.966l.4-1.395h.6l.4 1.395c.1.322.2.75.2 1.073 0-.322.1-.644.2-1.073l.3-1.395h.7l-.9 3.112h-.7l-.3-1.288c-.1-.322-.2-.644-.2-.966-.1.43-.1.644-.2.966l-.4 1.288h-.7l-.9-3.112h.8z" fill="#fff"/></svg>