<svg width="23" height="23" fill="none" xmlns="http://www.w3.org/2000/svg"><path d="M21.649 9.431l-.079-.237c-.156.079-.313.079-.47.079a2.119 2.119 0 0 1-2.115-2.14c0-.713.392-1.347.94-1.743a12.74 12.74 0 0 0-2.506-2.536l-.314-.238c-.391.555-.94.872-1.723.872a2.119 2.119 0 0 1-2.115-2.14v-.237H8.8v.237c0 1.189-.94 2.14-2.115 2.14-.626 0-1.096-.238-1.488-.555-1.018.713-1.88 1.585-2.507 2.615.549.396.94 1.03.94 1.744 0 1.188-.94 2.14-2.115 2.14h-.392a8.733 8.733 0 0 0-.235 2.06c0 .713.079 1.426.235 2.06h.392c1.175 0 2.115.951 2.115 2.14 0 .713-.391 1.347-.94 1.743.705 1.03 1.489 1.902 2.507 2.615.392-.396.94-.634 1.488-.634 1.175 0 2.116.951 2.116 2.14v.238c.861.237 1.723.316 2.585.316.705 0 1.331-.079 1.958-.158v-.396c0-1.189.94-2.14 2.115-2.14.705 0 1.41.396 1.802.951a10.276 10.276 0 0 0 2.898-2.932c-.626-.396-1.096-1.03-1.096-1.823 0-1.188.94-2.14 2.115-2.14.157 0 .392 0 .548.08.078-.634.157-1.268.157-1.902-.079-.872-.157-1.505-.235-2.219z" stroke="#fff" stroke-width=".9" stroke-miterlimit="10" stroke-linejoin="round"/><path d="M11.386 15.058c1.904 0 3.447-1.561 3.447-3.487 0-1.926-1.543-3.487-3.447-3.487-1.903 0-3.447 1.561-3.447 3.487 0 1.926 1.544 3.487 3.447 3.487z" stroke="#fff" stroke-width=".9" stroke-miterlimit="10" stroke-linejoin="round"/></svg>