<svg width="30" height="43" fill="none" xmlns="http://www.w3.org/2000/svg"><path d="M1 17.422v24.4h27.7v-24.4H1zm15 12.8v3.1c0 .6-.5 1.1-1.1 1.1-.6 0-1.1-.5-1.1-1.1v-3.1c-1-.4-1.7-1.4-1.7-2.6 0-1.6 1.3-2.8 2.8-2.8 1.5 0 2.8 1.3 2.8 2.8 0 1.2-.7 2.2-1.7 2.6z" stroke="#5091CD" stroke-width=".75" stroke-miterlimit="10"/><path d="M5.6 17.423c-.1-4-.2-8.1 1.6-11.7 1.1-2.3 2.9-3.9 5.1-4.4 2.7-.7 6.5-.4 8.8 2.3 3.3 3.7 3.1 9.1 3 13.8" stroke="#5091CD" stroke-width=".75" stroke-miterlimit="10"/><path d="M21.2 17.323c.1-4.2.2-8.9-2.3-11.8-1.5-1.7-4.2-1.8-6-1.4-1.3.3-2.4 1.3-3.1 2.8-1.5 3-1.4 6.8-1.3 10.4" stroke="#5091CD" stroke-width=".75" stroke-miterlimit="10"/></svg>