<svg width="22" height="21" fill="none" xmlns="http://www.w3.org/2000/svg"><path d="M9.8 19.8c-3.9-1-6.7-4.5-6.8-8.6" stroke="#fff" stroke-width=".9" stroke-miterlimit="10"/><path d="M5.3 12.1L3.4 7.7.5 11.5l4.8.6z" fill="#fff"/><path d="M21.3 9.1c.1.6.2 1.1.2 1.8 0 3.3-1.8 6.2-4.4 7.8" stroke="#fff" stroke-width=".9" stroke-miterlimit="10"/><path d="M16.7 16.1L13.8 20l4.8.6-1.9-4.5z" fill="#fff"/><path d="M5.9 4c1.6-1.5 3.9-2.4 6.3-2.4 1.6 0 3.2.4 4.5 1.1" stroke="#fff" stroke-width=".9" stroke-miterlimit="10"/><path d="M14.5 4.3l4.8.6L17.5.5l-3 3.8z" fill="#fff"/></svg>