<svg width="27" height="16" fill="none" xmlns="http://www.w3.org/2000/svg"><path d="M4.8 9.6c-.2.2-.4.4-.6.5v1.6h1.5l.5-.5c-.5-.6-.9-1.1-1.4-1.6z" fill="#5091CD"/><path d="M0 0v16h26.6V0H0zm5.9 12.5H3.3V10c0-.1 0-.1.1-.2l5-5 .6.6-3.7 3.8.5.5 3.8-3.8 1.6 1.6-5 5c-.2-.1-.2 0-.3 0zm6.9-6.8c-.4.4-.7.8-1.1 1.1L9.1 4.2l.1-.1c.2-.3.5-.6.8-.9.3-.4.9-.4 1.2 0l.9.9c.2.2.4.4.5.6.4.3.4.7.2 1zm6.3 8.3h-4v-2.8h4V14zm0-4.5h-4V6.6h4v2.9zm0-4.5h-4V2h4v3zm5.7 9h-4v-2.8h4V14zm0-4.5h-4V6.6h4v2.9zm0-4.5h-4V2h4v3z" fill="#5091CD"/></svg>