<svg width="13" height="17" fill="none" xmlns="http://www.w3.org/2000/svg"><path d="M6.966 7.866c-.6-.4-1.4-.3-1.9.2l-.2.2c-.7.6-.6 1.7.1 2.4l3.4 3.4c.7.7 1.7.7 2.3.1l.3-.3c.6-.6.6-1.7-.1-2.3l-1.9-1.8 1-1 1.9 1.9c1.3 1.3 1.4 3.2.2 4.3l-.3.3c-1.1 1.1-3.1 1-4.3-.2l-3.5-3.5c-1.3-1.3-1.4-3.2-.2-4.3l.2-.3c1-1 2.7-1 3.9-.1" fill="#5091CD"/><path d="M5.866 8.266c.6.4 1.4.3 1.9-.2l.2-.2c.6-.6.6-1.7-.1-2.3l-3.5-3.5c-.6-.7-1.7-.8-2.3-.1l-.2.2c-.7.6-.6 1.7.1 2.3l1.9 1.9-1 1-1.9-1.9c-1.2-1.3-1.3-3.2-.2-4.4l.3-.3c1.1-1.1 3.1-1 4.3.2l3.5 3.5c1.3 1.3 1.4 3.2.2 4.3l-.3.4c-1 1-2.7 1-3.9.1" fill="#5091CD"/></svg>