<svg width="30" height="43" viewBox="0 0 30 43" fill="none" xmlns="http://www.w3.org/2000/svg">
<path d="M1 17.4225V41.8225H28.7V17.4225H1ZM16 30.2225V33.3225C16 33.9225 15.5 34.4225 14.9 34.4225C14.3 34.4225 13.8 33.9225 13.8 33.3225V30.2225C12.8 29.8225 12.1 28.8225 12.1 27.6225C12.1 26.0225 13.4 24.8225 14.9 24.8225C16.4 24.8225 17.7 26.1225 17.7 27.6225C17.7 28.8225 17 29.8225 16 30.2225Z" stroke="#5091CD" stroke-width="0.75" stroke-miterlimit="10"/>
<path d="M5.60002 17.4226C5.50002 13.4226 5.40002 9.32256 7.20002 5.72256C8.30002 3.42256 10.1 1.82256 12.3 1.32256C15 0.622558 18.8 0.922558 21.1 3.62256C24.4 7.32256 24.2 12.7226 24.1 17.4226" stroke="#5091CD" stroke-width="0.75" stroke-miterlimit="10"/>
<path d="M21.2 17.3225C21.3 13.1225 21.4 8.42255 18.9 5.52255C17.4 3.82255 14.7 3.72255 12.9 4.12255C11.6 4.42255 10.5 5.42255 9.80001 6.92255C8.30001 9.92255 8.40001 13.7225 8.50001 17.3225" stroke="#5091CD" stroke-width="0.75" stroke-miterlimit="10"/>
</svg>
