<svg width="47" height="49" viewBox="0 0 47 49" fill="none" xmlns="http://www.w3.org/2000/svg">
<path d="M8.78881 41.7C0.588815 34.6 -1.51119 22.4 4.28881 12.7C9.88881 3.5 20.9888 -0.300001 30.7888 2.9" stroke="#5091CD" stroke-width="0.75" stroke-miterlimit="10"/>
<path d="M28.0888 4.7L27.7888 4.2L30.4888 2.9L28.9888 0.3L29.4888 0L31.2888 3.1L28.0888 4.7Z" fill="#5091CD"/>
<path d="M38.5888 7.39999C46.7888 14.5 48.9888 26.8 43.0888 36.4C37.1888 46.1 25.1888 49.9 14.9888 45.7" stroke="#5091CD" stroke-width="0.75" stroke-miterlimit="10"/>
<path d="M17.7888 44L17.9888 44.6L15.2888 45.7L16.5888 48.4L15.9888 48.6L14.4888 45.4L17.7888 44Z" fill="#5091CD"/>
<path d="M36.7888 21.9L36.6888 21.6C36.4888 21.7 36.2888 21.7 36.0888 21.7C34.5888 21.7 33.3888 20.5 33.3888 19C33.3888 18.1 33.8888 17.3 34.5888 16.8C33.6888 15.5 32.6888 14.4 31.3888 13.5L30.9888 13.2C30.4888 13.9 29.7888 14.3 28.7888 14.3C27.2888 14.3 26.0888 13.1 26.0888 11.6C26.0888 11.5 26.0888 11.4 26.0888 11.3H20.4888C20.2888 11.3 20.5888 11.3 20.3888 11.3C20.3888 11.3 20.3888 11.5 20.3888 11.6C20.3888 13.1 19.1888 14.3 17.6888 14.3C16.9888 14.3 16.2888 14 15.8888 13.6C14.5888 14.5 13.4888 15.7 12.5888 17C13.2888 17.5 13.7888 18.3 13.7888 19.2C13.7888 20.7 12.5888 21.9 11.0888 21.9C10.8888 21.9 10.7888 21.9 10.5888 21.9C10.3888 22.7 10.2888 23.6 10.2888 24.5C10.2888 25.4 10.3888 26.3 10.5888 27.1C10.7888 27.1 10.8888 27.1 11.0888 27.1C12.5888 27.1 13.7888 28.3 13.7888 29.8C13.7888 30.7 13.2888 31.5 12.5888 32C13.4888 33.3 14.4888 34.4 15.7888 35.3C16.2888 34.8 16.9888 34.5 17.6888 34.5C19.1888 34.5 20.3888 35.7 20.3888 37.2C20.3888 37.3 20.3888 37.4 20.3888 37.5C21.4888 37.8 22.5888 37.9 23.6888 37.9C24.5888 37.9 25.3888 37.8 26.1888 37.7C26.1888 37.5 26.1888 37.4 26.1888 37.2C26.1888 35.7 27.3888 34.5 28.8888 34.5C29.7888 34.5 30.6888 35 31.1888 35.7C32.6888 34.7 33.8888 33.5 34.8888 32C34.0888 31.5 33.4888 30.7 33.4888 29.7C33.4888 28.2 34.6888 27 36.1888 27C36.3888 27 36.6888 27 36.8888 27.1C36.9888 26.3 37.0888 25.5 37.0888 24.7C37.0888 23.6 36.9888 22.7 36.7888 21.9Z" stroke="#5091CD" stroke-width="0.75" stroke-miterlimit="10" stroke-linejoin="round"/>
<path d="M23.6888 29C26.1189 29 28.0888 27.03 28.0888 24.6C28.0888 22.1699 26.1189 20.2 23.6888 20.2C21.2588 20.2 19.2888 22.1699 19.2888 24.6C19.2888 27.03 21.2588 29 23.6888 29Z" stroke="#5091CD" stroke-width="0.75" stroke-miterlimit="10" stroke-linejoin="round"/>
</svg>
