<svg width="50" height="50" viewBox="0 0 50 50" fill="none" xmlns="http://www.w3.org/2000/svg">
<path d="M16.1302 17.1301C16.5302 16.4301 17.0302 15.8301 17.7302 15.4301C18.4302 15.0301 19.1302 14.8301 20.0302 14.8301C21.3302 14.8301 22.3302 15.2301 23.2302 16.1301C24.0302 17.0301 24.4302 18.1301 24.4302 19.5301C24.4302 20.8301 24.0302 22.0301 23.2302 22.8301C22.4302 23.7301 21.3302 24.1301 20.0302 24.1301C19.2302 24.1301 18.4302 23.9301 17.7302 23.5301C17.0302 23.1301 16.5302 22.5301 16.1302 21.8301C15.7302 21.1301 15.5302 20.3301 15.5302 19.4301C15.5302 18.5301 15.8302 17.8301 16.1302 17.1301ZM22.4302 16.8301C21.8302 16.0301 20.9302 15.7301 19.9302 15.7301C18.9302 15.7301 18.1302 16.1301 17.4302 16.8301C16.7302 17.5301 16.4302 18.5301 16.4302 19.5301C16.4302 20.5301 16.7302 21.4301 17.4302 22.2301C18.0302 23.0301 18.9302 23.3301 19.9302 23.3301C20.9302 23.3301 21.7302 22.9301 22.4302 22.2301C23.0302 21.5301 23.4302 20.6301 23.4302 19.5301C23.4302 18.4301 23.1302 17.5301 22.4302 16.8301ZM30.4302 15.1301H31.5302L19.2302 34.2301H18.2302L30.4302 15.1301ZM25.6302 27.5301C26.0302 26.8301 26.5302 26.2301 27.2302 25.8301C27.9302 25.4301 28.6302 25.2301 29.5302 25.2301C30.4302 25.2301 31.1302 25.4301 31.8302 25.8301C32.5302 26.2301 33.0302 26.8301 33.4302 27.5301C33.8302 28.2301 34.0302 29.0301 34.0302 29.9301C34.0302 30.8301 33.8302 31.6301 33.4302 32.3301C33.0302 33.0301 32.5302 33.6301 31.8302 34.0301C31.1302 34.4301 30.4302 34.6301 29.5302 34.6301C28.6302 34.6301 27.9302 34.4301 27.2302 34.0301C26.5302 33.6301 26.0302 33.0301 25.6302 32.3301C25.2302 31.6301 25.0302 30.8301 25.0302 29.9301C25.0302 29.0301 25.2302 28.3301 25.6302 27.5301ZM31.9302 27.2301C31.3302 26.4301 30.4302 26.1301 29.4302 26.1301C28.4302 26.1301 27.6302 26.5301 26.9302 27.2301C26.3302 28.0301 25.9302 28.9301 25.9302 29.9301C25.9302 31.0301 26.2302 31.9301 26.9302 32.6301C27.5302 33.3301 28.4302 33.7301 29.4302 33.7301C30.4302 33.7301 31.2302 33.3301 31.9302 32.6301C32.5302 31.9301 32.9302 31.0301 32.9302 29.9301C32.9302 28.9301 32.6302 27.9301 31.9302 27.2301Z" fill="#5091CD"/>
<path d="M46.8791 27.3063C48.3028 15.0729 39.5398 4.0016 27.3063 2.57788C15.0729 1.15415 4.0016 9.91715 2.57788 22.1506C1.15416 34.384 9.91716 45.4553 22.1506 46.8791C34.384 48.3028 45.4553 39.5398 46.8791 27.3063Z" stroke="#5091CD" stroke-width="0.75" stroke-miterlimit="10"/>
</svg>
