<svg width="72" height="55" fill="none" xmlns="http://www.w3.org/2000/svg"><path d="M38.643 31.577v-.382h-.903c-2.191 0-3.867-1.657-3.867-3.822 0-1.274.645-2.421 1.676-3.186-1.29-1.783-2.836-3.312-4.512-4.459l-.645-.382c-.644 1.02-1.805 1.529-3.094 1.529-2.191 0-3.867-1.656-3.867-3.822v-.382h-8.122v.382c0 2.166-1.675 3.822-3.867 3.822-1.031 0-1.934-.382-2.578-1.02-1.805 1.275-3.352 2.931-4.641 4.715 1.031.637 1.676 1.783 1.676 3.185 0 2.166-1.676 3.822-3.868 3.822-.258 0-.515 0-.644-.128A17.1 17.1 0 0 0 1 35.145c0 1.274.129 2.42.387 3.695.258 0 .386-.127.644-.127 2.192 0 3.868 1.656 3.868 3.822 0 1.274-.645 2.42-1.676 3.185 1.16 1.783 2.707 3.312 4.512 4.586.644-.764 1.676-1.146 2.707-1.146 2.191 0 3.867 1.656 3.867 3.822v.382c1.547.382 3.094.637 4.77.637 1.16 0 2.32-.127 3.48-.382v-.765c0-2.166 1.677-3.822 3.868-3.822 1.29 0 2.579.637 3.223 1.657a20.483 20.483 0 0 0 5.285-5.224c-1.16-.637-1.933-1.911-1.933-3.313 0-2.165 1.676-3.822 3.867-3.822.387 0 .645 0 .903.128.258-1.147.386-2.294.386-3.44-.129-1.147-.257-2.294-.515-3.44zm-18.95 9.428c-3.481 0-6.317-2.803-6.317-6.243 0-3.44 2.836-6.243 6.316-6.243 3.481 0 6.317 2.803 6.317 6.243 0 3.44-2.836 6.243-6.317 6.243zm32.872-26.118l.13-.255c-.13 0-.258-.127-.387-.255-.903-.637-1.16-1.91-.516-2.803.387-.51 1.031-.891 1.676-.891 0-1.147-.13-2.166-.516-3.313l-.129-.382c-.644.255-1.16.127-1.805-.255-.902-.637-1.16-1.91-.515-2.803 0 0 0-.127.129-.127L47.15 1.637c-.129-.127.129 0 0 0l-.129.127c-.645.892-1.934 1.147-2.836.51-.387-.255-.645-.764-.773-1.274-1.16 0-2.32.255-3.352.637.258.637.129 1.274-.258 1.784-.645.892-1.934 1.146-2.836.51l-.258-.256c-.516.383-.902.892-1.29 1.402-.386.51-.644 1.147-.901 1.656.128 0 .257.128.257.128.903.637 1.16 1.91.516 2.802-.387.51-1.031.892-1.676.892 0 1.147.129 2.294.516 3.313.515-.128 1.031 0 1.547.382.902.637 1.16 1.911.515 2.803 0 .127-.128.127-.128.127.515.637 1.16 1.147 1.804 1.657.516.382 1.032.637 1.547.891 0-.127.13-.254.258-.254.645-.892 1.934-1.147 2.836-.51.516.382.903 1.02.903 1.656 1.289 0 2.578-.127 3.867-.637-.258-.637-.258-1.401.129-2.038.644-.892 1.934-1.147 2.836-.51l.387.382c.386-.382.773-.892 1.16-1.401.129-.51.516-1.02.773-1.529z" stroke="#5091CD" stroke-width="1.25" stroke-miterlimit="10" stroke-linejoin="round"/><path d="M43.413 14.25c1.922 0 3.48-1.54 3.48-3.44s-1.558-3.44-3.48-3.44c-1.923 0-3.481 1.54-3.481 3.44s1.558 3.44 3.48 3.44zm22.559 10.702l-.257-.128-.387.383c-1.16 1.019-2.836.892-3.867-.255-.645-.637-.774-1.656-.516-2.42-1.418-.383-2.965-.51-4.512-.383h-.516c.13.892-.258 1.656-.902 2.166-1.16 1.02-2.836.892-3.867-.255-.13-.127-.13-.127-.258-.255l-4.255 3.568c-.128.127.13-.128 0 .127l.13.255c1.03 1.146.902 2.803-.258 3.822-.516.51-1.16.637-1.934.637-.387 1.529-.516 3.058-.258 4.587.902-.128 1.676.254 2.32.891 1.032 1.147.903 2.803-.257 3.822-.13.128-.258.128-.387.255.387.765.902 1.402 1.547 2.166a8.634 8.634 0 0 0 1.934 1.784l.386-.383c1.16-1.019 2.836-.891 3.868.255.644.637.773 1.657.515 2.421 1.418.382 2.965.51 4.512.382 0-.764.387-1.401.903-1.91 1.16-1.02 2.836-.893 3.867.254.13.127.13.127.13.255 1.03-.51 1.933-1.02 2.835-1.784.645-.51 1.16-1.147 1.676-1.784l-.387-.382c-1.031-1.146-.902-2.803.258-3.822.774-.637 1.676-.764 2.45-.51.515-1.656.644-3.44.386-5.223-.902.127-1.933-.127-2.578-.892-1.031-1.146-.902-2.803.258-3.822.129-.127.386-.255.515-.382a19.433 19.433 0 0 0-1.418-2.039c-.386-.254-1.03-.892-1.675-1.401z" stroke="#5091CD" stroke-width="1.25" stroke-miterlimit="10" stroke-linejoin="round"/><path d="M57.593 39.858c2.492 0 4.512-1.996 4.512-4.459 0-2.463-2.02-4.46-4.512-4.46-2.492 0-4.512 1.997-4.512 4.46s2.02 4.46 4.512 4.46z" stroke="#5091CD" stroke-width="1.25" stroke-miterlimit="10" stroke-linejoin="round"/></svg>