<svg width="75" height="27" viewBox="0 0 75 27" fill="none" xmlns="http://www.w3.org/2000/svg">
<rect width="75" height="27" fill="#5091CD"/>
<path d="M15.532 19V17.25H10.912V15.122H15.434V13.372H10.912V11.412H15.532V9.662H8.924V19H15.532ZM26.5361 19L23.1481 14.198L26.3261 9.662H23.9321L21.8181 12.854L19.6761 9.662H17.3101L20.4881 14.212L17.1001 19H19.4661L21.8181 15.584L24.1561 19H26.5361ZM30.3857 19V15.668H32.7657C34.7817 15.668 35.9017 14.296 35.9017 12.672C35.9017 11.034 34.7957 9.662 32.7657 9.662H28.3977V19H30.3857ZM32.4857 13.918H30.3857V11.412H32.4857C33.2697 11.412 33.8717 11.888 33.8717 12.672C33.8717 13.442 33.2697 13.918 32.4857 13.918ZM42.5657 19.168C45.3797 19.168 47.4377 17.152 47.4377 14.338C47.4377 11.524 45.3797 9.508 42.5657 9.508C39.7377 9.508 37.6797 11.524 37.6797 14.338C37.6797 17.152 39.7377 19.168 42.5657 19.168ZM42.5657 17.404C40.8297 17.404 39.7237 16.074 39.7237 14.338C39.7237 12.588 40.8297 11.272 42.5657 11.272C44.2877 11.272 45.3937 12.588 45.3937 14.338C45.3937 16.074 44.2877 17.404 42.5657 17.404ZM57.3867 19L55.2727 15.444C56.2807 15.206 57.3307 14.31 57.3307 12.672C57.3307 10.936 56.1267 9.662 54.1807 9.662H49.8127V19H51.8007V15.682H53.2567L55.0907 19H57.3867ZM53.9007 13.932H51.8007V11.412H53.9007C54.6847 11.412 55.2867 11.888 55.2867 12.658C55.2867 13.456 54.6847 13.932 53.9007 13.932ZM63.9468 19V11.412H66.6628V9.662H59.2148V11.412H61.9448V19H63.9468Z" fill="white"/>
</svg>
