<svg width="71" height="27" viewBox="0 0 71 27" fill="none" xmlns="http://www.w3.org/2000/svg">
<rect width="71" height="27" fill="#5091CD"/>
<path d="M13.992 19C15.784 19 16.708 17.88 16.708 16.466C16.708 15.304 15.924 14.338 14.916 14.184C15.798 14.002 16.526 13.204 16.526 12.042C16.526 10.796 15.616 9.662 13.838 9.662H8.924V19H13.992ZM13.404 13.372H10.912V11.412H13.404C14.076 11.412 14.496 11.818 14.496 12.392C14.496 12.994 14.076 13.372 13.404 13.372ZM13.488 17.25H10.912V15.122H13.488C14.258 15.122 14.678 15.598 14.678 16.186C14.678 16.858 14.23 17.25 13.488 17.25ZM22.7852 19.168C25.2492 19.168 26.4252 17.852 26.4252 15.934V11.3H24.5632V15.78C24.5632 16.83 23.9192 17.544 22.7852 17.544C21.6372 17.544 21.0072 16.83 21.0072 15.78V11.3H19.1452V15.948C19.1452 17.852 20.3352 19.168 22.7852 19.168ZM32.62 19V12.91H34.818V11.3H28.588V12.91H30.772V19H32.62ZM40.4086 19V12.91H42.6066V11.3H36.3766V12.91H38.5606V19H40.4086ZM48.0253 19.168C50.4613 19.168 52.1693 17.46 52.1693 15.15C52.1693 12.826 50.4613 11.132 48.0253 11.132C45.5753 11.132 43.8953 12.826 43.8953 15.15C43.8953 17.46 45.5753 19.168 48.0253 19.168ZM48.0253 17.544C46.6533 17.544 45.7713 16.494 45.7713 15.15C45.7713 13.792 46.6533 12.756 48.0253 12.756C49.3973 12.756 50.2793 13.792 50.2793 15.15C50.2793 16.494 49.3973 17.544 48.0253 17.544ZM61.8052 19V11.3H59.9572V15.948L56.4712 11.3H54.4832V19H56.3312V14.17L59.9152 19H61.8052Z" fill="white"/>
</svg>
