<svg width="184" height="27" viewBox="0 0 184 27" fill="none" xmlns="http://www.w3.org/2000/svg">
<rect width="184" height="27" fill="#5091CD"/>
<path d="M16.498 19L14.384 15.444C15.392 15.206 16.442 14.31 16.442 12.672C16.442 10.936 15.238 9.662 13.292 9.662H8.924V19H10.912V15.682H12.368L14.202 19H16.498ZM13.012 13.932H10.912V11.412H13.012C13.796 11.412 14.398 11.888 14.398 12.658C14.398 13.456 13.796 13.932 13.012 13.932ZM23.1141 19.168C25.9561 19.168 27.3281 17.572 27.3281 15.262V9.662H25.2981V15.206C25.2981 16.508 24.5561 17.404 23.1141 17.404C21.6721 17.404 20.9161 16.508 20.9161 15.206V9.662H18.9001V15.262C18.9001 17.572 20.2721 19.168 23.1141 19.168ZM38.5193 19V9.662H36.5313V15.528L32.2053 9.662H30.1613V19H32.1493V12.91L36.6013 19H38.5193ZM50.4523 19.168C52.4963 19.168 53.6863 18.034 54.3443 16.872L52.6363 16.046C52.2443 16.802 51.4043 17.404 50.4523 17.404C48.7443 17.404 47.5123 16.102 47.5123 14.338C47.5123 12.574 48.7443 11.272 50.4523 11.272C51.4043 11.272 52.2443 11.874 52.6363 12.63L54.3443 11.79C53.6863 10.614 52.4963 9.508 50.4523 9.508C47.6383 9.508 45.4683 11.454 45.4683 14.338C45.4683 17.208 47.6383 19.168 50.4523 19.168ZM64.0816 19L61.9676 15.444C62.9756 15.206 64.0256 14.31 64.0256 12.672C64.0256 10.936 62.8216 9.662 60.8756 9.662H56.5076V19H58.4956V15.682H59.9516L61.7856 19H64.0816ZM60.5956 13.932H58.4956V11.412H60.5956C61.3796 11.412 61.9816 11.888 61.9816 12.658C61.9816 13.456 61.3796 13.932 60.5956 13.932ZM73.0917 19V17.25H68.4717V15.122H72.9937V13.372H68.4717V11.412H73.0917V9.662H66.4837V19H73.0917ZM79.3218 19C82.2338 19 84.2638 17.152 84.2638 14.324C84.2638 11.524 82.2338 9.662 79.3078 9.662H75.6258V19H79.3218ZM79.3078 17.25H77.6138V11.412H79.3218C81.2258 11.412 82.2338 12.686 82.2338 14.324C82.2338 15.92 81.1558 17.25 79.3078 17.25ZM88.6426 19V9.662H86.6546V19H88.6426ZM95.6344 19V11.412H98.3504V9.662H90.9024V11.412H93.6324V19H95.6344ZM113.889 19L110.291 9.662H107.799L104.201 19H106.455L107.043 17.418H111.047L111.635 19H113.889ZM110.501 15.668H107.589L109.045 11.65L110.501 15.668ZM124.089 19V9.662H122.101V15.528L117.775 9.662H115.731V19H117.719V12.91L122.171 19H124.089ZM135.618 19L132.02 9.662H129.528L125.93 19H128.184L128.772 17.418H132.776L133.364 19H135.618ZM132.23 15.668H129.318L130.774 11.65L132.23 15.668ZM143.326 19V17.25H139.378V9.662H137.376V19H143.326ZM148.46 19V15.178L152.03 9.662H149.776L147.466 13.4L145.156 9.662H142.888L146.472 15.178V19H148.46ZM157.204 19.168C159.71 19.168 160.942 17.88 160.942 16.172C160.942 12.686 155.58 13.68 155.58 12.21C155.58 11.65 156.056 11.286 156.896 11.286C157.848 11.286 158.856 11.608 159.612 12.308L160.718 10.824C159.794 9.97 158.562 9.522 157.078 9.522C154.88 9.522 153.536 10.81 153.536 12.364C153.536 15.878 158.912 14.744 158.912 16.368C158.912 16.914 158.394 17.404 157.288 17.404C156 17.404 154.978 16.816 154.32 16.13L153.228 17.684C154.11 18.566 155.398 19.168 157.204 19.168ZM165.234 19V9.662H163.246V19H165.234ZM171.4 19.168C173.906 19.168 175.138 17.88 175.138 16.172C175.138 12.686 169.776 13.68 169.776 12.21C169.776 11.65 170.252 11.286 171.092 11.286C172.044 11.286 173.052 11.608 173.808 12.308L174.914 10.824C173.99 9.97 172.758 9.522 171.274 9.522C169.076 9.522 167.732 10.81 167.732 12.364C167.732 15.878 173.108 14.744 173.108 16.368C173.108 16.914 172.59 17.404 171.484 17.404C170.196 17.404 169.174 16.816 168.516 16.13L167.424 17.684C168.306 18.566 169.594 19.168 171.4 19.168Z" fill="white"/>
</svg>
