<svg width="372" height="350" viewBox="0 0 372 350" fill="none" xmlns="http://www.w3.org/2000/svg">
<path d="M0.84375 10.4316C0.84375 10.2441 0.898438 10.0879 1.00781 9.96289C1.12109 9.83789 1.28906 9.77539 1.51172 9.77539C1.73438 9.77539 1.90234 9.83789 2.01562 9.96289C2.13281 10.0879 2.19141 10.2441 2.19141 10.4316C2.19141 10.6113 2.13281 10.7617 2.01562 10.8828C1.90234 11.0039 1.73438 11.0645 1.51172 11.0645C1.28906 11.0645 1.12109 11.0039 1.00781 10.8828C0.898438 10.7617 0.84375 10.6113 0.84375 10.4316ZM9.35156 7.90039C9.35156 8.86914 9.12891 9.64844 8.68359 10.2383C8.23828 10.8242 7.64062 11.1172 6.89062 11.1172C6.08984 11.1172 5.4707 10.834 5.0332 10.2676L4.98047 11H3.98438V2H5.06836V5.35742C5.50586 4.81445 6.10938 4.54297 6.87891 4.54297C7.64844 4.54297 8.25195 4.83398 8.68945 5.41602C9.13086 5.99805 9.35156 6.79492 9.35156 7.80664V7.90039ZM8.26758 7.77734C8.26758 7.03906 8.125 6.46875 7.83984 6.06641C7.55469 5.66406 7.14453 5.46289 6.60938 5.46289C5.89453 5.46289 5.38086 5.79492 5.06836 6.45898V9.20117C5.40039 9.86523 5.91797 10.1973 6.62109 10.1973C7.14062 10.1973 7.54492 9.99609 7.83398 9.59375C8.12305 9.19141 8.26758 8.58594 8.26758 7.77734ZM14.6367 10.373C14.2148 10.8691 13.5957 11.1172 12.7793 11.1172C12.1035 11.1172 11.5879 10.9219 11.2324 10.5312C10.8809 10.1367 10.7031 9.55469 10.6992 8.78516V4.66016H11.7832V8.75586C11.7832 9.7168 12.1738 10.1973 12.9551 10.1973C13.7832 10.1973 14.334 9.88867 14.6074 9.27148V4.66016H15.6914V11H14.6602L14.6367 10.373ZM18.8145 3.125V4.66016H19.998V5.49805H18.8145V9.42969C18.8145 9.68359 18.8672 9.875 18.9727 10.0039C19.0781 10.1289 19.2578 10.1914 19.5117 10.1914C19.6367 10.1914 19.8086 10.168 20.0273 10.1211V11C19.7422 11.0781 19.4648 11.1172 19.1953 11.1172C18.7109 11.1172 18.3457 10.9707 18.0996 10.6777C17.8535 10.3848 17.7305 9.96875 17.7305 9.42969V5.49805H16.5762V4.66016H17.7305V3.125H18.8145ZM22.7402 3.125V4.66016H23.9238V5.49805H22.7402V9.42969C22.7402 9.68359 22.793 9.875 22.8984 10.0039C23.0039 10.1289 23.1836 10.1914 23.4375 10.1914C23.5625 10.1914 23.7344 10.168 23.9531 10.1211V11C23.668 11.0781 23.3906 11.1172 23.1211 11.1172C22.6367 11.1172 22.2715 10.9707 22.0254 10.6777C21.7793 10.3848 21.6562 9.96875 21.6562 9.42969V5.49805H20.502V4.66016H21.6562V3.125H22.7402ZM24.791 7.77148C24.791 7.15039 24.9121 6.5918 25.1543 6.0957C25.4004 5.59961 25.7402 5.2168 26.1738 4.94727C26.6113 4.67773 27.1094 4.54297 27.668 4.54297C28.5312 4.54297 29.2285 4.8418 29.7598 5.43945C30.2949 6.03711 30.5625 6.83203 30.5625 7.82422V7.90039C30.5625 8.51758 30.4434 9.07227 30.2051 9.56445C29.9707 10.0527 29.6328 10.4336 29.1914 10.707C28.7539 10.9805 28.25 11.1172 27.6797 11.1172C26.8203 11.1172 26.123 10.8184 25.5879 10.2207C25.0566 9.62305 24.791 8.83203 24.791 7.84766V7.77148ZM25.8809 7.90039C25.8809 8.60352 26.043 9.16797 26.3672 9.59375C26.6953 10.0195 27.1328 10.2324 27.6797 10.2324C28.2305 10.2324 28.668 10.0176 28.9922 9.58789C29.3164 9.1543 29.4785 8.54883 29.4785 7.77148C29.4785 7.07617 29.3125 6.51367 28.9805 6.08398C28.6523 5.65039 28.2148 5.43359 27.668 5.43359C27.1328 5.43359 26.7012 5.64648 26.373 6.07227C26.0449 6.49805 25.8809 7.10742 25.8809 7.90039ZM32.9473 4.66016L32.9824 5.45703C33.4668 4.84766 34.0996 4.54297 34.8809 4.54297C36.2207 4.54297 36.8965 5.29883 36.9082 6.81055V11H35.8242V6.80469C35.8203 6.34766 35.7148 6.00977 35.5078 5.79102C35.3047 5.57227 34.9863 5.46289 34.5527 5.46289C34.2012 5.46289 33.8926 5.55664 33.627 5.74414C33.3613 5.93164 33.1543 6.17773 33.0059 6.48242V11H31.9219V4.66016H32.9473ZM40.7988 7.81836H37.9395V6.93359H40.7988V7.81836ZM45.5508 9.31836C45.5508 9.02539 45.4395 8.79883 45.2168 8.63867C44.998 8.47461 44.6133 8.33398 44.0625 8.2168C43.5156 8.09961 43.0801 7.95898 42.7559 7.79492C42.4355 7.63086 42.1973 7.43555 42.041 7.20898C41.8887 6.98242 41.8125 6.71289 41.8125 6.40039C41.8125 5.88086 42.0312 5.44141 42.4688 5.08203C42.9102 4.72266 43.4727 4.54297 44.1562 4.54297C44.875 4.54297 45.457 4.72852 45.9023 5.09961C46.3516 5.4707 46.5762 5.94531 46.5762 6.52344H45.4863C45.4863 6.22656 45.3594 5.9707 45.1055 5.75586C44.8555 5.54102 44.5391 5.43359 44.1562 5.43359C43.7617 5.43359 43.4531 5.51953 43.2305 5.69141C43.0078 5.86328 42.8965 6.08789 42.8965 6.36523C42.8965 6.62695 43 6.82422 43.207 6.95703C43.4141 7.08984 43.7871 7.2168 44.3262 7.33789C44.8691 7.45898 45.3086 7.60352 45.6445 7.77148C45.9805 7.93945 46.2285 8.14258 46.3887 8.38086C46.5527 8.61523 46.6348 8.90234 46.6348 9.24219C46.6348 9.80859 46.4082 10.2637 45.9551 10.6074C45.502 10.9473 44.9141 11.1172 44.1914 11.1172C43.6836 11.1172 43.2344 11.0273 42.8438 10.8477C42.4531 10.668 42.1465 10.418 41.9238 10.0977C41.7051 9.77344 41.5957 9.42383 41.5957 9.04883H42.6797C42.6992 9.41211 42.8438 9.70117 43.1133 9.91602C43.3867 10.127 43.7461 10.2324 44.1914 10.2324C44.6016 10.2324 44.9297 10.1504 45.1758 9.98633C45.4258 9.81836 45.5508 9.5957 45.5508 9.31836ZM49.0664 4.66016L49.0957 5.36328C49.5605 4.81641 50.1875 4.54297 50.9766 4.54297C51.8633 4.54297 52.4668 4.88281 52.7871 5.5625C52.998 5.25781 53.2715 5.01172 53.6074 4.82422C53.9473 4.63672 54.3477 4.54297 54.8086 4.54297C56.1992 4.54297 56.9062 5.2793 56.9297 6.75195V11H55.8457V6.81641C55.8457 6.36328 55.7422 6.02539 55.5352 5.80273C55.3281 5.57617 54.9805 5.46289 54.4922 5.46289C54.0898 5.46289 53.7559 5.58398 53.4902 5.82617C53.2246 6.06445 53.0703 6.38672 53.0273 6.79297V11H51.9375V6.8457C51.9375 5.92383 51.4863 5.46289 50.584 5.46289C49.873 5.46289 49.3867 5.76562 49.125 6.37109V11H48.041V4.66016H49.0664ZM62.4844 11C62.4219 10.875 62.3711 10.6523 62.332 10.332C61.8281 10.8555 61.2266 11.1172 60.5273 11.1172C59.9023 11.1172 59.3887 10.9414 58.9863 10.5898C58.5879 10.2344 58.3887 9.78516 58.3887 9.24219C58.3887 8.58203 58.6387 8.07031 59.1387 7.70703C59.6426 7.33984 60.3496 7.15625 61.2598 7.15625H62.3145V6.6582C62.3145 6.2793 62.2012 5.97852 61.9746 5.75586C61.748 5.5293 61.4141 5.41602 60.9727 5.41602C60.5859 5.41602 60.2617 5.51367 60 5.70898C59.7383 5.9043 59.6074 6.14062 59.6074 6.41797H58.5176C58.5176 6.10156 58.6289 5.79688 58.8516 5.50391C59.0781 5.20703 59.3828 4.97266 59.7656 4.80078C60.1523 4.62891 60.5762 4.54297 61.0371 4.54297C61.7676 4.54297 62.3398 4.72656 62.7539 5.09375C63.168 5.45703 63.3828 5.95898 63.3984 6.59961V9.51758C63.3984 10.0996 63.4727 10.5625 63.6211 10.9062V11H62.4844ZM60.6855 10.1738C61.0254 10.1738 61.3477 10.0859 61.6523 9.91016C61.957 9.73438 62.1777 9.50586 62.3145 9.22461V7.92383H61.4648C60.1367 7.92383 59.4727 8.3125 59.4727 9.08984C59.4727 9.42969 59.5859 9.69531 59.8125 9.88672C60.0391 10.0781 60.3301 10.1738 60.6855 10.1738ZM66.2754 11H65.1914V2H66.2754V11ZM69.1934 11H68.1094V2H69.1934V11Z" fill="black"/>
<path d="M22.2891 59H21.3467L17.7676 53.5215V59H16.8252V51.8906H17.7676L21.3564 57.3936V51.8906H22.2891V59ZM23.5732 56.3096C23.5732 55.792 23.6742 55.3265 23.876 54.9131C24.0811 54.4997 24.3643 54.1807 24.7256 53.9561C25.0902 53.7314 25.5052 53.6191 25.9707 53.6191C26.6901 53.6191 27.2712 53.8682 27.7139 54.3662C28.1598 54.8643 28.3828 55.5267 28.3828 56.3535V56.417C28.3828 56.9313 28.2835 57.3936 28.085 57.8037C27.8896 58.2106 27.6081 58.528 27.2402 58.7559C26.8757 58.9837 26.4557 59.0977 25.9805 59.0977C25.2643 59.0977 24.6833 58.8486 24.2373 58.3506C23.7946 57.8525 23.5732 57.1934 23.5732 56.373V56.3096ZM24.4814 56.417C24.4814 57.0029 24.6165 57.4733 24.8867 57.8281C25.1602 58.1829 25.5247 58.3604 25.9805 58.3604C26.4395 58.3604 26.804 58.1813 27.0742 57.8232C27.3444 57.4619 27.4795 56.9574 27.4795 56.3096C27.4795 55.7301 27.3411 55.2614 27.0645 54.9033C26.791 54.542 26.4264 54.3613 25.9707 54.3613C25.5247 54.3613 25.165 54.5387 24.8916 54.8936C24.6182 55.2484 24.4814 55.7562 24.4814 56.417ZM32.0693 54.5273C31.9326 54.5046 31.7845 54.4932 31.625 54.4932C31.0326 54.4932 30.6305 54.7454 30.4189 55.25V59H29.5156V53.7168H30.3945L30.4092 54.3271C30.7054 53.8551 31.1253 53.6191 31.6689 53.6191C31.8447 53.6191 31.9782 53.6419 32.0693 53.6875V54.5273ZM33.7539 53.7168L33.7783 54.3027C34.1657 53.847 34.6882 53.6191 35.3457 53.6191C36.0846 53.6191 36.5876 53.9023 36.8545 54.4688C37.0303 54.2148 37.2581 54.0098 37.5381 53.8535C37.8213 53.6973 38.1549 53.6191 38.5391 53.6191C39.6979 53.6191 40.2871 54.2327 40.3066 55.46V59H39.4033V55.5137C39.4033 55.1361 39.3171 54.8545 39.1445 54.6689C38.972 54.4801 38.6823 54.3857 38.2754 54.3857C37.9401 54.3857 37.6618 54.4867 37.4404 54.6885C37.2191 54.887 37.0905 55.1556 37.0547 55.4941V59H36.1465V55.5381C36.1465 54.7699 35.7705 54.3857 35.0186 54.3857C34.4261 54.3857 34.0208 54.638 33.8027 55.1426V59H32.8994V53.7168H33.7539ZM44.9355 59C44.8835 58.8958 44.8411 58.7103 44.8086 58.4434C44.3887 58.8796 43.8874 59.0977 43.3047 59.0977C42.7839 59.0977 42.3558 58.9512 42.0205 58.6582C41.6885 58.362 41.5225 57.9876 41.5225 57.5352C41.5225 56.985 41.7308 56.5586 42.1475 56.2559C42.5674 55.9499 43.1566 55.7969 43.915 55.7969H44.7939V55.3818C44.7939 55.0661 44.6995 54.8154 44.5107 54.6299C44.3219 54.4411 44.0436 54.3467 43.6758 54.3467C43.3535 54.3467 43.0833 54.4281 42.8652 54.5908C42.6471 54.7536 42.5381 54.9505 42.5381 55.1816H41.6299C41.6299 54.918 41.7227 54.6641 41.9082 54.4199C42.097 54.1725 42.3509 53.9772 42.6699 53.834C42.9922 53.6908 43.3454 53.6191 43.7295 53.6191C44.3382 53.6191 44.8151 53.7721 45.1602 54.0781C45.5052 54.3809 45.6842 54.7992 45.6973 55.333V57.7646C45.6973 58.2497 45.7591 58.6354 45.8828 58.9219V59H44.9355ZM43.4365 58.3115C43.7197 58.3115 43.9883 58.2383 44.2422 58.0918C44.4961 57.9453 44.68 57.7549 44.7939 57.5205V56.4365H44.0859C42.9792 56.4365 42.4258 56.7604 42.4258 57.4082C42.4258 57.6914 42.5202 57.9128 42.709 58.0723C42.8978 58.2318 43.1403 58.3115 43.4365 58.3115ZM48.0947 59H47.1914V51.5H48.0947V59Z" fill="black"/>
<path d="M129.289 59H128.347V55.7139H124.763V59H123.825V51.8906H124.763V54.9473H128.347V51.8906H129.289V59ZM130.573 56.3096C130.573 55.792 130.674 55.3265 130.876 54.9131C131.081 54.4997 131.364 54.1807 131.726 53.9561C132.09 53.7314 132.505 53.6191 132.971 53.6191C133.69 53.6191 134.271 53.8682 134.714 54.3662C135.16 54.8643 135.383 55.5267 135.383 56.3535V56.417C135.383 56.9313 135.284 57.3936 135.085 57.8037C134.89 58.2106 134.608 58.528 134.24 58.7559C133.876 58.9837 133.456 59.0977 132.98 59.0977C132.264 59.0977 131.683 58.8486 131.237 58.3506C130.795 57.8525 130.573 57.1934 130.573 56.373V56.3096ZM131.481 56.417C131.481 57.0029 131.617 57.4733 131.887 57.8281C132.16 58.1829 132.525 58.3604 132.98 58.3604C133.439 58.3604 133.804 58.1813 134.074 57.8232C134.344 57.4619 134.479 56.9574 134.479 56.3096C134.479 55.7301 134.341 55.2614 134.064 54.9033C133.791 54.542 133.426 54.3613 132.971 54.3613C132.525 54.3613 132.165 54.5387 131.892 54.8936C131.618 55.2484 131.481 55.7562 131.481 56.417ZM138.181 57.7744L139.489 53.7168H140.412L138.518 59H137.829L135.915 53.7168H136.838L138.181 57.7744ZM143.405 59.0977C142.689 59.0977 142.106 58.8633 141.657 58.3945C141.208 57.9225 140.983 57.2926 140.983 56.5049V56.3389C140.983 55.8148 141.083 55.3477 141.281 54.9375C141.483 54.5241 141.763 54.2018 142.121 53.9707C142.482 53.7363 142.873 53.6191 143.293 53.6191C143.98 53.6191 144.514 53.8454 144.895 54.2979C145.275 54.7503 145.466 55.3981 145.466 56.2412V56.6172H141.887C141.9 57.138 142.051 57.5596 142.341 57.8818C142.634 58.2008 143.005 58.3604 143.454 58.3604C143.773 58.3604 144.043 58.2952 144.265 58.165C144.486 58.0348 144.68 57.8623 144.846 57.6475L145.397 58.0771C144.955 58.7575 144.291 59.0977 143.405 59.0977ZM143.293 54.3613C142.928 54.3613 142.622 54.4948 142.375 54.7617C142.128 55.0254 141.975 55.3965 141.916 55.875H144.562V55.8066C144.536 55.3477 144.413 54.9928 144.191 54.7422C143.97 54.4883 143.671 54.3613 143.293 54.3613ZM149.069 54.5273C148.933 54.5046 148.785 54.4932 148.625 54.4932C148.033 54.4932 147.631 54.7454 147.419 55.25V59H146.516V53.7168H147.395L147.409 54.3271C147.705 53.8551 148.125 53.6191 148.669 53.6191C148.845 53.6191 148.978 53.6419 149.069 53.6875V54.5273Z" fill="black"/>
<path d="M230.825 59V51.8906H232.832C233.451 51.8906 233.997 52.0273 234.473 52.3008C234.948 52.5742 235.314 52.9632 235.571 53.4678C235.832 53.9723 235.964 54.5518 235.967 55.2061V55.6602C235.967 56.3307 235.837 56.9183 235.576 57.4229C235.319 57.9274 234.95 58.3148 234.468 58.585C233.989 58.8551 233.431 58.9935 232.793 59H230.825ZM231.763 52.6621V58.2334H232.749C233.472 58.2334 234.033 58.0088 234.434 57.5596C234.837 57.1104 235.039 56.4707 235.039 55.6406V55.2256C235.039 54.4183 234.849 53.7917 234.468 53.3457C234.09 52.8965 233.553 52.6686 232.856 52.6621H231.763ZM238.228 59H237.324V53.7168H238.228V59ZM237.251 52.3154C237.251 52.1689 237.295 52.0452 237.383 51.9443C237.474 51.8434 237.607 51.793 237.783 51.793C237.959 51.793 238.092 51.8434 238.184 51.9443C238.275 52.0452 238.32 52.1689 238.32 52.3154C238.32 52.4619 238.275 52.584 238.184 52.6816C238.092 52.7793 237.959 52.8281 237.783 52.8281C237.607 52.8281 237.474 52.7793 237.383 52.6816C237.295 52.584 237.251 52.4619 237.251 52.3154ZM242.754 57.5986C242.754 57.3545 242.661 57.1657 242.476 57.0322C242.293 56.8955 241.973 56.7783 241.514 56.6807C241.058 56.583 240.695 56.4658 240.425 56.3291C240.158 56.1924 239.959 56.0296 239.829 55.8408C239.702 55.652 239.639 55.4274 239.639 55.167C239.639 54.734 239.821 54.3678 240.186 54.0684C240.553 53.7689 241.022 53.6191 241.592 53.6191C242.191 53.6191 242.676 53.7738 243.047 54.083C243.421 54.3923 243.608 54.7878 243.608 55.2695H242.7C242.7 55.0221 242.594 54.8089 242.383 54.6299C242.174 54.4508 241.911 54.3613 241.592 54.3613C241.263 54.3613 241.006 54.4329 240.82 54.5762C240.635 54.7194 240.542 54.9066 240.542 55.1377C240.542 55.3558 240.628 55.5202 240.801 55.6309C240.973 55.7415 241.284 55.8473 241.733 55.9482C242.186 56.0492 242.552 56.1696 242.832 56.3096C243.112 56.4495 243.319 56.6188 243.452 56.8174C243.589 57.0127 243.657 57.252 243.657 57.5352C243.657 58.0072 243.468 58.3864 243.091 58.6729C242.713 58.9561 242.223 59.0977 241.621 59.0977C241.198 59.0977 240.824 59.0228 240.498 58.873C240.173 58.7233 239.917 58.515 239.731 58.248C239.549 57.9779 239.458 57.6865 239.458 57.374H240.361C240.378 57.6768 240.498 57.9176 240.723 58.0967C240.951 58.2725 241.25 58.3604 241.621 58.3604C241.963 58.3604 242.236 58.292 242.441 58.1553C242.65 58.0153 242.754 57.8298 242.754 57.5986ZM248.096 59C248.044 58.8958 248.001 58.7103 247.969 58.4434C247.549 58.8796 247.048 59.0977 246.465 59.0977C245.944 59.0977 245.516 58.9512 245.181 58.6582C244.849 58.362 244.683 57.9876 244.683 57.5352C244.683 56.985 244.891 56.5586 245.308 56.2559C245.728 55.9499 246.317 55.7969 247.075 55.7969H247.954V55.3818C247.954 55.0661 247.86 54.8154 247.671 54.6299C247.482 54.4411 247.204 54.3467 246.836 54.3467C246.514 54.3467 246.243 54.4281 246.025 54.5908C245.807 54.7536 245.698 54.9505 245.698 55.1816H244.79C244.79 54.918 244.883 54.6641 245.068 54.4199C245.257 54.1725 245.511 53.9772 245.83 53.834C246.152 53.6908 246.506 53.6191 246.89 53.6191C247.498 53.6191 247.975 53.7721 248.32 54.0781C248.665 54.3809 248.844 54.7992 248.857 55.333V57.7646C248.857 58.2497 248.919 58.6354 249.043 58.9219V59H248.096ZM246.597 58.3115C246.88 58.3115 247.148 58.2383 247.402 58.0918C247.656 57.9453 247.84 57.7549 247.954 57.5205V56.4365H247.246C246.139 56.4365 245.586 56.7604 245.586 57.4082C245.586 57.6914 245.68 57.9128 245.869 58.0723C246.058 58.2318 246.3 58.3115 246.597 58.3115ZM254.746 56.417C254.746 57.2243 254.561 57.8737 254.189 58.3652C253.818 58.8535 253.32 59.0977 252.695 59.0977C252.028 59.0977 251.512 58.8617 251.147 58.3896L251.104 59H250.273V51.5H251.177V54.2979C251.541 53.8454 252.044 53.6191 252.686 53.6191C253.327 53.6191 253.83 53.8617 254.194 54.3467C254.562 54.8317 254.746 55.4958 254.746 56.3389V56.417ZM253.843 56.3145C253.843 55.6992 253.724 55.224 253.486 54.8887C253.249 54.5534 252.907 54.3857 252.461 54.3857C251.865 54.3857 251.437 54.6624 251.177 55.2158V57.501C251.453 58.0544 251.885 58.3311 252.471 58.3311C252.904 58.3311 253.241 58.1634 253.481 57.8281C253.722 57.4928 253.843 56.9883 253.843 56.3145ZM256.87 59H255.967V51.5H256.87V59ZM260.513 59.0977C259.797 59.0977 259.214 58.8633 258.765 58.3945C258.315 57.9225 258.091 57.2926 258.091 56.5049V56.3389C258.091 55.8148 258.19 55.3477 258.389 54.9375C258.59 54.5241 258.87 54.2018 259.229 53.9707C259.59 53.7363 259.98 53.6191 260.4 53.6191C261.087 53.6191 261.621 53.8454 262.002 54.2979C262.383 54.7503 262.573 55.3981 262.573 56.2412V56.6172H258.994C259.007 57.138 259.159 57.5596 259.448 57.8818C259.741 58.2008 260.112 58.3604 260.562 58.3604C260.881 58.3604 261.151 58.2952 261.372 58.165C261.593 58.0348 261.787 57.8623 261.953 57.6475L262.505 58.0771C262.062 58.7575 261.398 59.0977 260.513 59.0977ZM260.4 54.3613C260.036 54.3613 259.73 54.4948 259.482 54.7617C259.235 55.0254 259.082 55.3965 259.023 55.875H261.67V55.8066C261.644 55.3477 261.52 54.9928 261.299 54.7422C261.077 54.4883 260.778 54.3613 260.4 54.3613ZM263.403 56.3145C263.403 55.5039 263.595 54.8529 263.979 54.3613C264.364 53.8665 264.867 53.6191 265.488 53.6191C266.107 53.6191 266.597 53.8307 266.958 54.2539V51.5H267.861V59H267.031L266.987 58.4336C266.626 58.8763 266.123 59.0977 265.479 59.0977C264.867 59.0977 264.367 58.847 263.979 58.3457C263.595 57.8444 263.403 57.1901 263.403 56.3828V56.3145ZM264.307 56.417C264.307 57.016 264.43 57.4847 264.678 57.8232C264.925 58.1618 265.267 58.3311 265.703 58.3311C266.276 58.3311 266.694 58.0739 266.958 57.5596V55.1328C266.688 54.6348 266.273 54.3857 265.713 54.3857C265.27 54.3857 264.925 54.5566 264.678 54.8984C264.43 55.2402 264.307 55.7464 264.307 56.417Z" fill="black"/>
<rect x="230" y="23" width="43" height="22" fill="#5091CD" fill-opacity="0.65"/>
<path d="M234.847 31.675H236.585V36.647H239.676V38H234.847V31.675ZM245.234 36.746H242.275L241.747 38H240.064L242.902 31.675H244.618L247.467 38H245.751L245.234 36.746ZM244.706 35.492L243.76 33.204L242.803 35.492H244.706ZM253.487 34.7C253.839 34.832 254.11 35.03 254.301 35.294C254.499 35.558 254.598 35.8807 254.598 36.262C254.598 36.812 254.371 37.241 253.916 37.549C253.469 37.8497 252.816 38 251.958 38H248.548V31.675H251.782C252.596 31.675 253.216 31.8253 253.641 32.126C254.066 32.4267 254.279 32.83 254.279 33.336C254.279 33.6367 254.209 33.9043 254.07 34.139C253.938 34.3737 253.744 34.5607 253.487 34.7ZM250.264 32.896V34.227H251.562C251.877 34.227 252.119 34.172 252.288 34.062C252.457 33.9447 252.541 33.7797 252.541 33.567C252.541 33.347 252.457 33.182 252.288 33.072C252.127 32.9547 251.885 32.896 251.562 32.896H250.264ZM251.837 36.779C252.512 36.779 252.849 36.548 252.849 36.086C252.849 35.624 252.512 35.393 251.837 35.393H250.264V36.779H251.837ZM261.211 36.669V38H256.118V31.675H261.09V33.006H257.834V34.161H260.716V35.426H257.834V36.669H261.211ZM262.808 31.675H264.546V36.647H267.637V38H262.808V31.675Z" fill="white"/>
<rect x="123.5" y="23.5" width="42" height="21" fill="#295E8E" stroke="#295E8E"/>
<path d="M127.847 31.675H129.585V36.647H132.676V38H127.847V31.675ZM138.234 36.746H135.275L134.747 38H133.064L135.902 31.675H137.618L140.467 38H138.751L138.234 36.746ZM137.706 35.492L136.76 33.204L135.803 35.492H137.706ZM146.487 34.7C146.839 34.832 147.11 35.03 147.301 35.294C147.499 35.558 147.598 35.8807 147.598 36.262C147.598 36.812 147.371 37.241 146.916 37.549C146.469 37.8497 145.816 38 144.958 38H141.548V31.675H144.782C145.596 31.675 146.216 31.8253 146.641 32.126C147.066 32.4267 147.279 32.83 147.279 33.336C147.279 33.6367 147.209 33.9043 147.07 34.139C146.938 34.3737 146.744 34.5607 146.487 34.7ZM143.264 32.896V34.227H144.562C144.877 34.227 145.119 34.172 145.288 34.062C145.457 33.9447 145.541 33.7797 145.541 33.567C145.541 33.347 145.457 33.182 145.288 33.072C145.127 32.9547 144.885 32.896 144.562 32.896H143.264ZM144.837 36.779C145.512 36.779 145.849 36.548 145.849 36.086C145.849 35.624 145.512 35.393 144.837 35.393H143.264V36.779H144.837ZM154.211 36.669V38H149.118V31.675H154.09V33.006H150.834V34.161H153.716V35.426H150.834V36.669H154.211ZM155.808 31.675H157.546V36.647H160.637V38H155.808V31.675Z" fill="white"/>
<rect x="16.5" y="23.5" width="42" height="21" fill="#5091CD" stroke="#5091CD"/>
<path d="M20.847 31.675H22.585V36.647H25.676V38H20.847V31.675ZM31.234 36.746H28.275L27.747 38H26.064L28.902 31.675H30.618L33.467 38H31.751L31.234 36.746ZM30.706 35.492L29.76 33.204L28.803 35.492H30.706ZM39.487 34.7C39.839 34.832 40.1103 35.03 40.301 35.294C40.499 35.558 40.598 35.8807 40.598 36.262C40.598 36.812 40.3707 37.241 39.916 37.549C39.4687 37.8497 38.816 38 37.958 38H34.548V31.675H37.782C38.596 31.675 39.2157 31.8253 39.641 32.126C40.0663 32.4267 40.279 32.83 40.279 33.336C40.279 33.6367 40.2093 33.9043 40.07 34.139C39.938 34.3737 39.7437 34.5607 39.487 34.7ZM36.264 32.896V34.227H37.562C37.8773 34.227 38.1193 34.172 38.288 34.062C38.4567 33.9447 38.541 33.7797 38.541 33.567C38.541 33.347 38.4567 33.182 38.288 33.072C38.1267 32.9547 37.8847 32.896 37.562 32.896H36.264ZM37.837 36.779C38.5117 36.779 38.849 36.548 38.849 36.086C38.849 35.624 38.5117 35.393 37.837 35.393H36.264V36.779H37.837ZM47.2113 36.669V38H42.1182V31.675H47.0903V33.006H43.8342V34.161H46.7163V35.426H43.8342V36.669H47.2113ZM48.8076 31.675H50.5456V36.647H53.6366V38H48.8076V31.675Z" fill="white"/>
<path d="M22.2891 150H21.3467L17.7676 144.521V150H16.8252V142.891H17.7676L21.3564 148.394V142.891H22.2891V150ZM23.5732 147.31C23.5732 146.792 23.6742 146.326 23.876 145.913C24.0811 145.5 24.3643 145.181 24.7256 144.956C25.0902 144.731 25.5052 144.619 25.9707 144.619C26.6901 144.619 27.2712 144.868 27.7139 145.366C28.1598 145.864 28.3828 146.527 28.3828 147.354V147.417C28.3828 147.931 28.2835 148.394 28.085 148.804C27.8896 149.211 27.6081 149.528 27.2402 149.756C26.8757 149.984 26.4557 150.098 25.9805 150.098C25.2643 150.098 24.6833 149.849 24.2373 149.351C23.7946 148.853 23.5732 148.193 23.5732 147.373V147.31ZM24.4814 147.417C24.4814 148.003 24.6165 148.473 24.8867 148.828C25.1602 149.183 25.5247 149.36 25.9805 149.36C26.4395 149.36 26.804 149.181 27.0742 148.823C27.3444 148.462 27.4795 147.957 27.4795 147.31C27.4795 146.73 27.3411 146.261 27.0645 145.903C26.791 145.542 26.4264 145.361 25.9707 145.361C25.5247 145.361 25.165 145.539 24.8916 145.894C24.6182 146.248 24.4814 146.756 24.4814 147.417ZM32.0693 145.527C31.9326 145.505 31.7845 145.493 31.625 145.493C31.0326 145.493 30.6305 145.745 30.4189 146.25V150H29.5156V144.717H30.3945L30.4092 145.327C30.7054 144.855 31.1253 144.619 31.6689 144.619C31.8447 144.619 31.9782 144.642 32.0693 144.688V145.527ZM33.7539 144.717L33.7783 145.303C34.1657 144.847 34.6882 144.619 35.3457 144.619C36.0846 144.619 36.5876 144.902 36.8545 145.469C37.0303 145.215 37.2581 145.01 37.5381 144.854C37.8213 144.697 38.1549 144.619 38.5391 144.619C39.6979 144.619 40.2871 145.233 40.3066 146.46V150H39.4033V146.514C39.4033 146.136 39.3171 145.854 39.1445 145.669C38.972 145.48 38.6823 145.386 38.2754 145.386C37.9401 145.386 37.6618 145.487 37.4404 145.688C37.2191 145.887 37.0905 146.156 37.0547 146.494V150H36.1465V146.538C36.1465 145.77 35.7705 145.386 35.0186 145.386C34.4261 145.386 34.0208 145.638 33.8027 146.143V150H32.8994V144.717H33.7539ZM44.9355 150C44.8835 149.896 44.8411 149.71 44.8086 149.443C44.3887 149.88 43.8874 150.098 43.3047 150.098C42.7839 150.098 42.3558 149.951 42.0205 149.658C41.6885 149.362 41.5225 148.988 41.5225 148.535C41.5225 147.985 41.7308 147.559 42.1475 147.256C42.5674 146.95 43.1566 146.797 43.915 146.797H44.7939V146.382C44.7939 146.066 44.6995 145.815 44.5107 145.63C44.3219 145.441 44.0436 145.347 43.6758 145.347C43.3535 145.347 43.0833 145.428 42.8652 145.591C42.6471 145.754 42.5381 145.951 42.5381 146.182H41.6299C41.6299 145.918 41.7227 145.664 41.9082 145.42C42.097 145.173 42.3509 144.977 42.6699 144.834C42.9922 144.691 43.3454 144.619 43.7295 144.619C44.3382 144.619 44.8151 144.772 45.1602 145.078C45.5052 145.381 45.6842 145.799 45.6973 146.333V148.765C45.6973 149.25 45.7591 149.635 45.8828 149.922V150H44.9355ZM43.4365 149.312C43.7197 149.312 43.9883 149.238 44.2422 149.092C44.4961 148.945 44.68 148.755 44.7939 148.521V147.437H44.0859C42.9792 147.437 42.4258 147.76 42.4258 148.408C42.4258 148.691 42.5202 148.913 42.709 149.072C42.8978 149.232 43.1403 149.312 43.4365 149.312ZM48.0947 150H47.1914V142.5H48.0947V150Z" fill="black"/>
<path d="M129.289 150H128.347V146.714H124.763V150H123.825V142.891H124.763V145.947H128.347V142.891H129.289V150ZM130.573 147.31C130.573 146.792 130.674 146.326 130.876 145.913C131.081 145.5 131.364 145.181 131.726 144.956C132.09 144.731 132.505 144.619 132.971 144.619C133.69 144.619 134.271 144.868 134.714 145.366C135.16 145.864 135.383 146.527 135.383 147.354V147.417C135.383 147.931 135.284 148.394 135.085 148.804C134.89 149.211 134.608 149.528 134.24 149.756C133.876 149.984 133.456 150.098 132.98 150.098C132.264 150.098 131.683 149.849 131.237 149.351C130.795 148.853 130.573 148.193 130.573 147.373V147.31ZM131.481 147.417C131.481 148.003 131.617 148.473 131.887 148.828C132.16 149.183 132.525 149.36 132.98 149.36C133.439 149.36 133.804 149.181 134.074 148.823C134.344 148.462 134.479 147.957 134.479 147.31C134.479 146.73 134.341 146.261 134.064 145.903C133.791 145.542 133.426 145.361 132.971 145.361C132.525 145.361 132.165 145.539 131.892 145.894C131.618 146.248 131.481 146.756 131.481 147.417ZM138.181 148.774L139.489 144.717H140.412L138.518 150H137.829L135.915 144.717H136.838L138.181 148.774ZM143.405 150.098C142.689 150.098 142.106 149.863 141.657 149.395C141.208 148.923 140.983 148.293 140.983 147.505V147.339C140.983 146.815 141.083 146.348 141.281 145.938C141.483 145.524 141.763 145.202 142.121 144.971C142.482 144.736 142.873 144.619 143.293 144.619C143.98 144.619 144.514 144.845 144.895 145.298C145.275 145.75 145.466 146.398 145.466 147.241V147.617H141.887C141.9 148.138 142.051 148.56 142.341 148.882C142.634 149.201 143.005 149.36 143.454 149.36C143.773 149.36 144.043 149.295 144.265 149.165C144.486 149.035 144.68 148.862 144.846 148.647L145.397 149.077C144.955 149.757 144.291 150.098 143.405 150.098ZM143.293 145.361C142.928 145.361 142.622 145.495 142.375 145.762C142.128 146.025 141.975 146.396 141.916 146.875H144.562V146.807C144.536 146.348 144.413 145.993 144.191 145.742C143.97 145.488 143.671 145.361 143.293 145.361ZM149.069 145.527C148.933 145.505 148.785 145.493 148.625 145.493C148.033 145.493 147.631 145.745 147.419 146.25V150H146.516V144.717H147.395L147.409 145.327C147.705 144.855 148.125 144.619 148.669 144.619C148.845 144.619 148.978 144.642 149.069 144.688V145.527Z" fill="black"/>
<path d="M230.825 150V142.891H232.832C233.451 142.891 233.997 143.027 234.473 143.301C234.948 143.574 235.314 143.963 235.571 144.468C235.832 144.972 235.964 145.552 235.967 146.206V146.66C235.967 147.331 235.837 147.918 235.576 148.423C235.319 148.927 234.95 149.315 234.468 149.585C233.989 149.855 233.431 149.993 232.793 150H230.825ZM231.763 143.662V149.233H232.749C233.472 149.233 234.033 149.009 234.434 148.56C234.837 148.11 235.039 147.471 235.039 146.641V146.226C235.039 145.418 234.849 144.792 234.468 144.346C234.09 143.896 233.553 143.669 232.856 143.662H231.763ZM238.228 150H237.324V144.717H238.228V150ZM237.251 143.315C237.251 143.169 237.295 143.045 237.383 142.944C237.474 142.843 237.607 142.793 237.783 142.793C237.959 142.793 238.092 142.843 238.184 142.944C238.275 143.045 238.32 143.169 238.32 143.315C238.32 143.462 238.275 143.584 238.184 143.682C238.092 143.779 237.959 143.828 237.783 143.828C237.607 143.828 237.474 143.779 237.383 143.682C237.295 143.584 237.251 143.462 237.251 143.315ZM242.754 148.599C242.754 148.354 242.661 148.166 242.476 148.032C242.293 147.896 241.973 147.778 241.514 147.681C241.058 147.583 240.695 147.466 240.425 147.329C240.158 147.192 239.959 147.03 239.829 146.841C239.702 146.652 239.639 146.427 239.639 146.167C239.639 145.734 239.821 145.368 240.186 145.068C240.553 144.769 241.022 144.619 241.592 144.619C242.191 144.619 242.676 144.774 243.047 145.083C243.421 145.392 243.608 145.788 243.608 146.27H242.7C242.7 146.022 242.594 145.809 242.383 145.63C242.174 145.451 241.911 145.361 241.592 145.361C241.263 145.361 241.006 145.433 240.82 145.576C240.635 145.719 240.542 145.907 240.542 146.138C240.542 146.356 240.628 146.52 240.801 146.631C240.973 146.742 241.284 146.847 241.733 146.948C242.186 147.049 242.552 147.17 242.832 147.31C243.112 147.45 243.319 147.619 243.452 147.817C243.589 148.013 243.657 148.252 243.657 148.535C243.657 149.007 243.468 149.386 243.091 149.673C242.713 149.956 242.223 150.098 241.621 150.098C241.198 150.098 240.824 150.023 240.498 149.873C240.173 149.723 239.917 149.515 239.731 149.248C239.549 148.978 239.458 148.687 239.458 148.374H240.361C240.378 148.677 240.498 148.918 240.723 149.097C240.951 149.272 241.25 149.36 241.621 149.36C241.963 149.36 242.236 149.292 242.441 149.155C242.65 149.015 242.754 148.83 242.754 148.599ZM248.096 150C248.044 149.896 248.001 149.71 247.969 149.443C247.549 149.88 247.048 150.098 246.465 150.098C245.944 150.098 245.516 149.951 245.181 149.658C244.849 149.362 244.683 148.988 244.683 148.535C244.683 147.985 244.891 147.559 245.308 147.256C245.728 146.95 246.317 146.797 247.075 146.797H247.954V146.382C247.954 146.066 247.86 145.815 247.671 145.63C247.482 145.441 247.204 145.347 246.836 145.347C246.514 145.347 246.243 145.428 246.025 145.591C245.807 145.754 245.698 145.951 245.698 146.182H244.79C244.79 145.918 244.883 145.664 245.068 145.42C245.257 145.173 245.511 144.977 245.83 144.834C246.152 144.691 246.506 144.619 246.89 144.619C247.498 144.619 247.975 144.772 248.32 145.078C248.665 145.381 248.844 145.799 248.857 146.333V148.765C248.857 149.25 248.919 149.635 249.043 149.922V150H248.096ZM246.597 149.312C246.88 149.312 247.148 149.238 247.402 149.092C247.656 148.945 247.84 148.755 247.954 148.521V147.437H247.246C246.139 147.437 245.586 147.76 245.586 148.408C245.586 148.691 245.68 148.913 245.869 149.072C246.058 149.232 246.3 149.312 246.597 149.312ZM254.746 147.417C254.746 148.224 254.561 148.874 254.189 149.365C253.818 149.854 253.32 150.098 252.695 150.098C252.028 150.098 251.512 149.862 251.147 149.39L251.104 150H250.273V142.5H251.177V145.298C251.541 144.845 252.044 144.619 252.686 144.619C253.327 144.619 253.83 144.862 254.194 145.347C254.562 145.832 254.746 146.496 254.746 147.339V147.417ZM253.843 147.314C253.843 146.699 253.724 146.224 253.486 145.889C253.249 145.553 252.907 145.386 252.461 145.386C251.865 145.386 251.437 145.662 251.177 146.216V148.501C251.453 149.054 251.885 149.331 252.471 149.331C252.904 149.331 253.241 149.163 253.481 148.828C253.722 148.493 253.843 147.988 253.843 147.314ZM256.87 150H255.967V142.5H256.87V150ZM260.513 150.098C259.797 150.098 259.214 149.863 258.765 149.395C258.315 148.923 258.091 148.293 258.091 147.505V147.339C258.091 146.815 258.19 146.348 258.389 145.938C258.59 145.524 258.87 145.202 259.229 144.971C259.59 144.736 259.98 144.619 260.4 144.619C261.087 144.619 261.621 144.845 262.002 145.298C262.383 145.75 262.573 146.398 262.573 147.241V147.617H258.994C259.007 148.138 259.159 148.56 259.448 148.882C259.741 149.201 260.112 149.36 260.562 149.36C260.881 149.36 261.151 149.295 261.372 149.165C261.593 149.035 261.787 148.862 261.953 148.647L262.505 149.077C262.062 149.757 261.398 150.098 260.513 150.098ZM260.4 145.361C260.036 145.361 259.73 145.495 259.482 145.762C259.235 146.025 259.082 146.396 259.023 146.875H261.67V146.807C261.644 146.348 261.52 145.993 261.299 145.742C261.077 145.488 260.778 145.361 260.4 145.361ZM263.403 147.314C263.403 146.504 263.595 145.853 263.979 145.361C264.364 144.867 264.867 144.619 265.488 144.619C266.107 144.619 266.597 144.831 266.958 145.254V142.5H267.861V150H267.031L266.987 149.434C266.626 149.876 266.123 150.098 265.479 150.098C264.867 150.098 264.367 149.847 263.979 149.346C263.595 148.844 263.403 148.19 263.403 147.383V147.314ZM264.307 147.417C264.307 148.016 264.43 148.485 264.678 148.823C264.925 149.162 265.267 149.331 265.703 149.331C266.276 149.331 266.694 149.074 266.958 148.56V146.133C266.688 145.635 266.273 145.386 265.713 145.386C265.27 145.386 264.925 145.557 264.678 145.898C264.43 146.24 264.307 146.746 264.307 147.417Z" fill="black"/>
<path d="M0.84375 97.4316C0.84375 97.2441 0.898438 97.0879 1.00781 96.9629C1.12109 96.8379 1.28906 96.7754 1.51172 96.7754C1.73438 96.7754 1.90234 96.8379 2.01562 96.9629C2.13281 97.0879 2.19141 97.2441 2.19141 97.4316C2.19141 97.6113 2.13281 97.7617 2.01562 97.8828C1.90234 98.0039 1.73438 98.0645 1.51172 98.0645C1.28906 98.0645 1.12109 98.0039 1.00781 97.8828C0.898438 97.7617 0.84375 97.6113 0.84375 97.4316ZM9.35156 94.9004C9.35156 95.8691 9.12891 96.6484 8.68359 97.2383C8.23828 97.8242 7.64062 98.1172 6.89062 98.1172C6.08984 98.1172 5.4707 97.834 5.0332 97.2676L4.98047 98H3.98438V89H5.06836V92.3574C5.50586 91.8145 6.10938 91.543 6.87891 91.543C7.64844 91.543 8.25195 91.834 8.68945 92.416C9.13086 92.998 9.35156 93.7949 9.35156 94.8066V94.9004ZM8.26758 94.7773C8.26758 94.0391 8.125 93.4688 7.83984 93.0664C7.55469 92.6641 7.14453 92.4629 6.60938 92.4629C5.89453 92.4629 5.38086 92.7949 5.06836 93.459V96.2012C5.40039 96.8652 5.91797 97.1973 6.62109 97.1973C7.14062 97.1973 7.54492 96.9961 7.83398 96.5938C8.12305 96.1914 8.26758 95.5859 8.26758 94.7773ZM12.1934 90.125V91.6602H13.377V92.498H12.1934V96.4297C12.1934 96.6836 12.2461 96.875 12.3516 97.0039C12.457 97.1289 12.6367 97.1914 12.8906 97.1914C13.0156 97.1914 13.1875 97.168 13.4062 97.1211V98C13.1211 98.0781 12.8438 98.1172 12.5742 98.1172C12.0898 98.1172 11.7246 97.9707 11.4785 97.6777C11.2324 97.3848 11.1094 96.9688 11.1094 96.4297V92.498H9.95508V91.6602H11.1094V90.125H12.1934ZM15.6738 91.6602L15.709 92.457C16.1934 91.8477 16.8262 91.543 17.6074 91.543C18.9473 91.543 19.623 92.2988 19.6348 93.8105V98H18.5508V93.8047C18.5469 93.3477 18.4414 93.0098 18.2344 92.791C18.0312 92.5723 17.7129 92.4629 17.2793 92.4629C16.9277 92.4629 16.6191 92.5566 16.3535 92.7441C16.0879 92.9316 15.8809 93.1777 15.7324 93.4824V98H14.6484V91.6602H15.6738ZM21.293 97.4316C21.293 97.2441 21.3477 97.0879 21.457 96.9629C21.5703 96.8379 21.7383 96.7754 21.9609 96.7754C22.1836 96.7754 22.3516 96.8379 22.4648 96.9629C22.582 97.0879 22.6406 97.2441 22.6406 97.4316C22.6406 97.6113 22.582 97.7617 22.4648 97.8828C22.3516 98.0039 22.1836 98.0645 21.9609 98.0645C21.7383 98.0645 21.5703 98.0039 21.457 97.8828C21.3477 97.7617 21.293 97.6113 21.293 97.4316ZM29.8008 94.9004C29.8008 95.8691 29.5781 96.6484 29.1328 97.2383C28.6875 97.8242 28.0898 98.1172 27.3398 98.1172C26.5391 98.1172 25.9199 97.834 25.4824 97.2676L25.4297 98H24.4336V89H25.5176V92.3574C25.9551 91.8145 26.5586 91.543 27.3281 91.543C28.0977 91.543 28.7012 91.834 29.1387 92.416C29.5801 92.998 29.8008 93.7949 29.8008 94.8066V94.9004ZM28.7168 94.7773C28.7168 94.0391 28.5742 93.4688 28.2891 93.0664C28.0039 92.6641 27.5938 92.4629 27.0586 92.4629C26.3438 92.4629 25.8301 92.7949 25.5176 93.459V96.2012C25.8496 96.8652 26.3672 97.1973 27.0703 97.1973C27.5898 97.1973 27.9941 96.9961 28.2832 96.5938C28.5723 96.1914 28.7168 95.5859 28.7168 94.7773ZM35.0859 97.373C34.6641 97.8691 34.0449 98.1172 33.2285 98.1172C32.5527 98.1172 32.0371 97.9219 31.6816 97.5312C31.3301 97.1367 31.1523 96.5547 31.1484 95.7852V91.6602H32.2324V95.7559C32.2324 96.7168 32.623 97.1973 33.4043 97.1973C34.2324 97.1973 34.7832 96.8887 35.0566 96.2715V91.6602H36.1406V98H35.1094L35.0859 97.373ZM39.2637 90.125V91.6602H40.4473V92.498H39.2637V96.4297C39.2637 96.6836 39.3164 96.875 39.4219 97.0039C39.5273 97.1289 39.707 97.1914 39.9609 97.1914C40.0859 97.1914 40.2578 97.168 40.4766 97.1211V98C40.1914 98.0781 39.9141 98.1172 39.6445 98.1172C39.1602 98.1172 38.7949 97.9707 38.5488 97.6777C38.3027 97.3848 38.1797 96.9688 38.1797 96.4297V92.498H37.0254V91.6602H38.1797V90.125H39.2637ZM43.1895 90.125V91.6602H44.373V92.498H43.1895V96.4297C43.1895 96.6836 43.2422 96.875 43.3477 97.0039C43.4531 97.1289 43.6328 97.1914 43.8867 97.1914C44.0117 97.1914 44.1836 97.168 44.4023 97.1211V98C44.1172 98.0781 43.8398 98.1172 43.5703 98.1172C43.0859 98.1172 42.7207 97.9707 42.4746 97.6777C42.2285 97.3848 42.1055 96.9688 42.1055 96.4297V92.498H40.9512V91.6602H42.1055V90.125H43.1895ZM45.2402 94.7715C45.2402 94.1504 45.3613 93.5918 45.6035 93.0957C45.8496 92.5996 46.1895 92.2168 46.623 91.9473C47.0605 91.6777 47.5586 91.543 48.1172 91.543C48.9805 91.543 49.6777 91.8418 50.209 92.4395C50.7441 93.0371 51.0117 93.832 51.0117 94.8242V94.9004C51.0117 95.5176 50.8926 96.0723 50.6543 96.5645C50.4199 97.0527 50.082 97.4336 49.6406 97.707C49.2031 97.9805 48.6992 98.1172 48.1289 98.1172C47.2695 98.1172 46.5723 97.8184 46.0371 97.2207C45.5059 96.623 45.2402 95.832 45.2402 94.8477V94.7715ZM46.3301 94.9004C46.3301 95.6035 46.4922 96.168 46.8164 96.5938C47.1445 97.0195 47.582 97.2324 48.1289 97.2324C48.6797 97.2324 49.1172 97.0176 49.4414 96.5879C49.7656 96.1543 49.9277 95.5488 49.9277 94.7715C49.9277 94.0762 49.7617 93.5137 49.4297 93.084C49.1016 92.6504 48.6641 92.4336 48.1172 92.4336C47.582 92.4336 47.1504 92.6465 46.8223 93.0723C46.4941 93.498 46.3301 94.1074 46.3301 94.9004ZM53.3965 91.6602L53.4316 92.457C53.916 91.8477 54.5488 91.543 55.3301 91.543C56.6699 91.543 57.3457 92.2988 57.3574 93.8105V98H56.2734V93.8047C56.2695 93.3477 56.1641 93.0098 55.957 92.791C55.7539 92.5723 55.4355 92.4629 55.002 92.4629C54.6504 92.4629 54.3418 92.5566 54.0762 92.7441C53.8105 92.9316 53.6035 93.1777 53.4551 93.4824V98H52.3711V91.6602H53.3965ZM61.248 94.8184H58.3887V93.9336H61.248V94.8184ZM66 96.3184C66 96.0254 65.8887 95.7988 65.666 95.6387C65.4473 95.4746 65.0625 95.334 64.5117 95.2168C63.9648 95.0996 63.5293 94.959 63.2051 94.7949C62.8848 94.6309 62.6465 94.4355 62.4902 94.209C62.3379 93.9824 62.2617 93.7129 62.2617 93.4004C62.2617 92.8809 62.4805 92.4414 62.918 92.082C63.3594 91.7227 63.9219 91.543 64.6055 91.543C65.3242 91.543 65.9062 91.7285 66.3516 92.0996C66.8008 92.4707 67.0254 92.9453 67.0254 93.5234H65.9355C65.9355 93.2266 65.8086 92.9707 65.5547 92.7559C65.3047 92.541 64.9883 92.4336 64.6055 92.4336C64.2109 92.4336 63.9023 92.5195 63.6797 92.6914C63.457 92.8633 63.3457 93.0879 63.3457 93.3652C63.3457 93.627 63.4492 93.8242 63.6562 93.957C63.8633 94.0898 64.2363 94.2168 64.7754 94.3379C65.3184 94.459 65.7578 94.6035 66.0938 94.7715C66.4297 94.9395 66.6777 95.1426 66.8379 95.3809C67.002 95.6152 67.084 95.9023 67.084 96.2422C67.084 96.8086 66.8574 97.2637 66.4043 97.6074C65.9512 97.9473 65.3633 98.1172 64.6406 98.1172C64.1328 98.1172 63.6836 98.0273 63.293 97.8477C62.9023 97.668 62.5957 97.418 62.373 97.0977C62.1543 96.7734 62.0449 96.4238 62.0449 96.0488H63.1289C63.1484 96.4121 63.293 96.7012 63.5625 96.916C63.8359 97.127 64.1953 97.2324 64.6406 97.2324C65.0508 97.2324 65.3789 97.1504 65.625 96.9863C65.875 96.8184 66 96.5957 66 96.3184ZM69.5156 91.6602L69.5449 92.3633C70.0098 91.8164 70.6367 91.543 71.4258 91.543C72.3125 91.543 72.916 91.8828 73.2363 92.5625C73.4473 92.2578 73.7207 92.0117 74.0566 91.8242C74.3965 91.6367 74.7969 91.543 75.2578 91.543C76.6484 91.543 77.3555 92.2793 77.3789 93.752V98H76.2949V93.8164C76.2949 93.3633 76.1914 93.0254 75.9844 92.8027C75.7773 92.5762 75.4297 92.4629 74.9414 92.4629C74.5391 92.4629 74.2051 92.584 73.9395 92.8262C73.6738 93.0645 73.5195 93.3867 73.4766 93.793V98H72.3867V93.8457C72.3867 92.9238 71.9355 92.4629 71.0332 92.4629C70.3223 92.4629 69.8359 92.7656 69.5742 93.3711V98H68.4902V91.6602H69.5156ZM82.9336 98C82.8711 97.875 82.8203 97.6523 82.7812 97.332C82.2773 97.8555 81.6758 98.1172 80.9766 98.1172C80.3516 98.1172 79.8379 97.9414 79.4355 97.5898C79.0371 97.2344 78.8379 96.7852 78.8379 96.2422C78.8379 95.582 79.0879 95.0703 79.5879 94.707C80.0918 94.3398 80.7988 94.1562 81.709 94.1562H82.7637V93.6582C82.7637 93.2793 82.6504 92.9785 82.4238 92.7559C82.1973 92.5293 81.8633 92.416 81.4219 92.416C81.0352 92.416 80.7109 92.5137 80.4492 92.709C80.1875 92.9043 80.0566 93.1406 80.0566 93.418H78.9668C78.9668 93.1016 79.0781 92.7969 79.3008 92.5039C79.5273 92.207 79.832 91.9727 80.2148 91.8008C80.6016 91.6289 81.0254 91.543 81.4863 91.543C82.2168 91.543 82.7891 91.7266 83.2031 92.0938C83.6172 92.457 83.832 92.959 83.8477 93.5996V96.5176C83.8477 97.0996 83.9219 97.5625 84.0703 97.9062V98H82.9336ZM81.1348 97.1738C81.4746 97.1738 81.7969 97.0859 82.1016 96.9102C82.4062 96.7344 82.627 96.5059 82.7637 96.2246V94.9238H81.9141C80.5859 94.9238 79.9219 95.3125 79.9219 96.0898C79.9219 96.4297 80.0352 96.6953 80.2617 96.8867C80.4883 97.0781 80.7793 97.1738 81.1348 97.1738ZM86.7246 98H85.6406V89H86.7246V98ZM89.6426 98H88.5586V89H89.6426V98Z" fill="black"/>
<rect x="16.5" y="110.5" width="62" height="25" fill="#5091CD" stroke="#5091CD"/>
<path d="M28.5267 120.1H30.4227V125.524H33.7947V127H28.5267V120.1ZM40.218 125.632H36.99L36.414 127H34.578L37.674 120.1H39.546L42.654 127H40.782L40.218 125.632ZM39.642 124.264L38.61 121.768L37.566 124.264H39.642ZM49.5813 123.4C49.9653 123.544 50.2613 123.76 50.4693 124.048C50.6853 124.336 50.7933 124.688 50.7933 125.104C50.7933 125.704 50.5453 126.172 50.0493 126.508C49.5613 126.836 48.8493 127 47.9133 127H44.1933V120.1H47.7213C48.6093 120.1 49.2853 120.264 49.7493 120.592C50.2133 120.92 50.4453 121.36 50.4453 121.912C50.4453 122.24 50.3693 122.532 50.2173 122.788C50.0733 123.044 49.8613 123.248 49.5813 123.4ZM46.0653 121.432V122.884H47.4813C47.8253 122.884 48.0893 122.824 48.2733 122.704C48.4573 122.576 48.5493 122.396 48.5493 122.164C48.5493 121.924 48.4573 121.744 48.2733 121.624C48.0973 121.496 47.8333 121.432 47.4813 121.432H46.0653ZM47.7813 125.668C48.5173 125.668 48.8853 125.416 48.8853 124.912C48.8853 124.408 48.5173 124.156 47.7813 124.156H46.0653V125.668H47.7813ZM58.3677 125.548V127H52.8117V120.1H58.2357V121.552H54.6837V122.812H57.8277V124.192H54.6837V125.548H58.3677ZM60.4692 120.1H62.3652V125.524H65.7372V127H60.4692V120.1Z" fill="white"/>
<rect x="123.5" y="110.5" width="62" height="25" fill="#295E8E" stroke="#295E8E"/>
<path d="M135.527 120.1H137.423V125.524H140.795V127H135.527V120.1ZM147.218 125.632H143.99L143.414 127H141.578L144.674 120.1H146.546L149.654 127H147.782L147.218 125.632ZM146.642 124.264L145.61 121.768L144.566 124.264H146.642ZM156.581 123.4C156.965 123.544 157.261 123.76 157.469 124.048C157.685 124.336 157.793 124.688 157.793 125.104C157.793 125.704 157.545 126.172 157.049 126.508C156.561 126.836 155.849 127 154.913 127H151.193V120.1H154.721C155.609 120.1 156.285 120.264 156.749 120.592C157.213 120.92 157.445 121.36 157.445 121.912C157.445 122.24 157.369 122.532 157.217 122.788C157.073 123.044 156.861 123.248 156.581 123.4ZM153.065 121.432V122.884H154.481C154.825 122.884 155.089 122.824 155.273 122.704C155.457 122.576 155.549 122.396 155.549 122.164C155.549 121.924 155.457 121.744 155.273 121.624C155.097 121.496 154.833 121.432 154.481 121.432H153.065ZM154.781 125.668C155.517 125.668 155.885 125.416 155.885 124.912C155.885 124.408 155.517 124.156 154.781 124.156H153.065V125.668H154.781ZM165.368 125.548V127H159.812V120.1H165.236V121.552H161.684V122.812H164.828V124.192H161.684V125.548H165.368ZM167.469 120.1H169.365V125.524H172.737V127H167.469V120.1Z" fill="white"/>
<rect x="230" y="110" width="63" height="26" fill="#5091CD" fill-opacity="0.65"/>
<path d="M242.527 120.1H244.423V125.524H247.795V127H242.527V120.1ZM254.218 125.632H250.99L250.414 127H248.578L251.674 120.1H253.546L256.654 127H254.782L254.218 125.632ZM253.642 124.264L252.61 121.768L251.566 124.264H253.642ZM263.581 123.4C263.965 123.544 264.261 123.76 264.469 124.048C264.685 124.336 264.793 124.688 264.793 125.104C264.793 125.704 264.545 126.172 264.049 126.508C263.561 126.836 262.849 127 261.913 127H258.193V120.1H261.721C262.609 120.1 263.285 120.264 263.749 120.592C264.213 120.92 264.445 121.36 264.445 121.912C264.445 122.24 264.369 122.532 264.217 122.788C264.073 123.044 263.861 123.248 263.581 123.4ZM260.065 121.432V122.884H261.481C261.825 122.884 262.089 122.824 262.273 122.704C262.457 122.576 262.549 122.396 262.549 122.164C262.549 121.924 262.457 121.744 262.273 121.624C262.097 121.496 261.833 121.432 261.481 121.432H260.065ZM261.781 125.668C262.517 125.668 262.885 125.416 262.885 124.912C262.885 124.408 262.517 124.156 261.781 124.156H260.065V125.668H261.781ZM272.368 125.548V127H266.812V120.1H272.236V121.552H268.684V122.812H271.828V124.192H268.684V125.548H272.368ZM274.469 120.1H276.365V125.524H279.737V127H274.469V120.1Z" fill="white"/>
<path d="M0.84375 188.432C0.84375 188.244 0.898438 188.088 1.00781 187.963C1.12109 187.838 1.28906 187.775 1.51172 187.775C1.73438 187.775 1.90234 187.838 2.01562 187.963C2.13281 188.088 2.19141 188.244 2.19141 188.432C2.19141 188.611 2.13281 188.762 2.01562 188.883C1.90234 189.004 1.73438 189.064 1.51172 189.064C1.28906 189.064 1.12109 189.004 1.00781 188.883C0.898438 188.762 0.84375 188.611 0.84375 188.432ZM9.35156 185.9C9.35156 186.869 9.12891 187.648 8.68359 188.238C8.23828 188.824 7.64062 189.117 6.89062 189.117C6.08984 189.117 5.4707 188.834 5.0332 188.268L4.98047 189H3.98438V180H5.06836V183.357C5.50586 182.814 6.10938 182.543 6.87891 182.543C7.64844 182.543 8.25195 182.834 8.68945 183.416C9.13086 183.998 9.35156 184.795 9.35156 185.807V185.9ZM8.26758 185.777C8.26758 185.039 8.125 184.469 7.83984 184.066C7.55469 183.664 7.14453 183.463 6.60938 183.463C5.89453 183.463 5.38086 183.795 5.06836 184.459V187.201C5.40039 187.865 5.91797 188.197 6.62109 188.197C7.14062 188.197 7.54492 187.996 7.83398 187.594C8.12305 187.191 8.26758 186.586 8.26758 185.777ZM14.6367 188.373C14.2148 188.869 13.5957 189.117 12.7793 189.117C12.1035 189.117 11.5879 188.922 11.2324 188.531C10.8809 188.137 10.7031 187.555 10.6992 186.785V182.66H11.7832V186.756C11.7832 187.717 12.1738 188.197 12.9551 188.197C13.7832 188.197 14.334 187.889 14.6074 187.271V182.66H15.6914V189H14.6602L14.6367 188.373ZM18.8145 181.125V182.66H19.998V183.498H18.8145V187.43C18.8145 187.684 18.8672 187.875 18.9727 188.004C19.0781 188.129 19.2578 188.191 19.5117 188.191C19.6367 188.191 19.8086 188.168 20.0273 188.121V189C19.7422 189.078 19.4648 189.117 19.1953 189.117C18.7109 189.117 18.3457 188.971 18.0996 188.678C17.8535 188.385 17.7305 187.969 17.7305 187.43V183.498H16.5762V182.66H17.7305V181.125H18.8145ZM22.7402 181.125V182.66H23.9238V183.498H22.7402V187.43C22.7402 187.684 22.793 187.875 22.8984 188.004C23.0039 188.129 23.1836 188.191 23.4375 188.191C23.5625 188.191 23.7344 188.168 23.9531 188.121V189C23.668 189.078 23.3906 189.117 23.1211 189.117C22.6367 189.117 22.2715 188.971 22.0254 188.678C21.7793 188.385 21.6562 187.969 21.6562 187.43V183.498H20.502V182.66H21.6562V181.125H22.7402ZM24.791 185.771C24.791 185.15 24.9121 184.592 25.1543 184.096C25.4004 183.6 25.7402 183.217 26.1738 182.947C26.6113 182.678 27.1094 182.543 27.668 182.543C28.5312 182.543 29.2285 182.842 29.7598 183.439C30.2949 184.037 30.5625 184.832 30.5625 185.824V185.9C30.5625 186.518 30.4434 187.072 30.2051 187.564C29.9707 188.053 29.6328 188.434 29.1914 188.707C28.7539 188.98 28.25 189.117 27.6797 189.117C26.8203 189.117 26.123 188.818 25.5879 188.221C25.0566 187.623 24.791 186.832 24.791 185.848V185.771ZM25.8809 185.9C25.8809 186.604 26.043 187.168 26.3672 187.594C26.6953 188.02 27.1328 188.232 27.6797 188.232C28.2305 188.232 28.668 188.018 28.9922 187.588C29.3164 187.154 29.4785 186.549 29.4785 185.771C29.4785 185.076 29.3125 184.514 28.9805 184.084C28.6523 183.65 28.2148 183.434 27.668 183.434C27.1328 183.434 26.7012 183.646 26.373 184.072C26.0449 184.498 25.8809 185.107 25.8809 185.9ZM32.9473 182.66L32.9824 183.457C33.4668 182.848 34.0996 182.543 34.8809 182.543C36.2207 182.543 36.8965 183.299 36.9082 184.811V189H35.8242V184.805C35.8203 184.348 35.7148 184.01 35.5078 183.791C35.3047 183.572 34.9863 183.463 34.5527 183.463C34.2012 183.463 33.8926 183.557 33.627 183.744C33.3613 183.932 33.1543 184.178 33.0059 184.482V189H31.9219V182.66H32.9473ZM40.7988 185.818H37.9395V184.934H40.7988V185.818ZM42.8789 182.66L42.9082 183.363C43.373 182.816 44 182.543 44.7891 182.543C45.6758 182.543 46.2793 182.883 46.5996 183.562C46.8105 183.258 47.084 183.012 47.4199 182.824C47.7598 182.637 48.1602 182.543 48.6211 182.543C50.0117 182.543 50.7188 183.279 50.7422 184.752V189H49.6582V184.816C49.6582 184.363 49.5547 184.025 49.3477 183.803C49.1406 183.576 48.793 183.463 48.3047 183.463C47.9023 183.463 47.5684 183.584 47.3027 183.826C47.0371 184.064 46.8828 184.387 46.8398 184.793V189H45.75V184.846C45.75 183.924 45.2988 183.463 44.3965 183.463C43.6855 183.463 43.1992 183.766 42.9375 184.371V189H41.8535V182.66H42.8789ZM55.0137 189.117C54.1543 189.117 53.4551 188.836 52.916 188.273C52.377 187.707 52.1074 186.951 52.1074 186.006V185.807C52.1074 185.178 52.2266 184.617 52.4648 184.125C52.707 183.629 53.043 183.242 53.4727 182.965C53.9062 182.684 54.375 182.543 54.8789 182.543C55.7031 182.543 56.3438 182.814 56.8008 183.357C57.2578 183.9 57.4863 184.678 57.4863 185.689V186.141H53.1914C53.207 186.766 53.3887 187.271 53.7363 187.658C54.0879 188.041 54.5332 188.232 55.0723 188.232C55.4551 188.232 55.7793 188.154 56.0449 187.998C56.3105 187.842 56.543 187.635 56.7422 187.377L57.4043 187.893C56.873 188.709 56.0762 189.117 55.0137 189.117ZM54.8789 183.434C54.4414 183.434 54.0742 183.594 53.7773 183.914C53.4805 184.23 53.2969 184.676 53.2266 185.25H56.4023V185.168C56.3711 184.617 56.2227 184.191 55.957 183.891C55.6914 183.586 55.332 183.434 54.8789 183.434ZM58.4824 185.777C58.4824 184.805 58.7129 184.023 59.1738 183.434C59.6348 182.84 60.2383 182.543 60.9844 182.543C61.7266 182.543 62.3145 182.797 62.748 183.305V180H63.832V189H62.8359L62.7832 188.32C62.3496 188.852 61.7461 189.117 60.9727 189.117C60.2383 189.117 59.6387 188.816 59.1738 188.215C58.7129 187.613 58.4824 186.828 58.4824 185.859V185.777ZM59.5664 185.9C59.5664 186.619 59.7148 187.182 60.0117 187.588C60.3086 187.994 60.7188 188.197 61.2422 188.197C61.9297 188.197 62.4316 187.889 62.748 187.271V184.359C62.4238 183.762 61.9258 183.463 61.2539 183.463C60.7227 183.463 60.3086 183.668 60.0117 184.078C59.7148 184.488 59.5664 185.096 59.5664 185.9ZM66.6973 189H65.6133V182.66H66.6973V189ZM65.5254 180.979C65.5254 180.803 65.5781 180.654 65.6836 180.533C65.793 180.412 65.9531 180.352 66.1641 180.352C66.375 180.352 66.5352 180.412 66.6445 180.533C66.7539 180.654 66.8086 180.803 66.8086 180.979C66.8086 181.154 66.7539 181.301 66.6445 181.418C66.5352 181.535 66.375 181.594 66.1641 181.594C65.9531 181.594 65.793 181.535 65.6836 181.418C65.5781 181.301 65.5254 181.154 65.5254 180.979ZM72.3516 188.373C71.9297 188.869 71.3105 189.117 70.4941 189.117C69.8184 189.117 69.3027 188.922 68.9473 188.531C68.5957 188.137 68.418 187.555 68.4141 186.785V182.66H69.498V186.756C69.498 187.717 69.8887 188.197 70.6699 188.197C71.498 188.197 72.0488 187.889 72.3223 187.271V182.66H73.4062V189H72.375L72.3516 188.373ZM76.0781 182.66L76.1074 183.363C76.5723 182.816 77.1992 182.543 77.9883 182.543C78.875 182.543 79.4785 182.883 79.7988 183.562C80.0098 183.258 80.2832 183.012 80.6191 182.824C80.959 182.637 81.3594 182.543 81.8203 182.543C83.2109 182.543 83.918 183.279 83.9414 184.752V189H82.8574V184.816C82.8574 184.363 82.7539 184.025 82.5469 183.803C82.3398 183.576 81.9922 183.463 81.5039 183.463C81.1016 183.463 80.7676 183.584 80.502 183.826C80.2363 184.064 80.082 184.387 80.0391 184.793V189H78.9492V184.846C78.9492 183.924 78.498 183.463 77.5957 183.463C76.8848 183.463 76.3984 183.766 76.1367 184.371V189H75.0527V182.66H76.0781Z" fill="black"/>
<path d="M22.2891 242H21.3467L17.7676 236.521V242H16.8252V234.891H17.7676L21.3564 240.394V234.891H22.2891V242ZM23.5732 239.31C23.5732 238.792 23.6742 238.326 23.876 237.913C24.0811 237.5 24.3643 237.181 24.7256 236.956C25.0902 236.731 25.5052 236.619 25.9707 236.619C26.6901 236.619 27.2712 236.868 27.7139 237.366C28.1598 237.864 28.3828 238.527 28.3828 239.354V239.417C28.3828 239.931 28.2835 240.394 28.085 240.804C27.8896 241.211 27.6081 241.528 27.2402 241.756C26.8757 241.984 26.4557 242.098 25.9805 242.098C25.2643 242.098 24.6833 241.849 24.2373 241.351C23.7946 240.853 23.5732 240.193 23.5732 239.373V239.31ZM24.4814 239.417C24.4814 240.003 24.6165 240.473 24.8867 240.828C25.1602 241.183 25.5247 241.36 25.9805 241.36C26.4395 241.36 26.804 241.181 27.0742 240.823C27.3444 240.462 27.4795 239.957 27.4795 239.31C27.4795 238.73 27.3411 238.261 27.0645 237.903C26.791 237.542 26.4264 237.361 25.9707 237.361C25.5247 237.361 25.165 237.539 24.8916 237.894C24.6182 238.248 24.4814 238.756 24.4814 239.417ZM32.0693 237.527C31.9326 237.505 31.7845 237.493 31.625 237.493C31.0326 237.493 30.6305 237.745 30.4189 238.25V242H29.5156V236.717H30.3945L30.4092 237.327C30.7054 236.855 31.1253 236.619 31.6689 236.619C31.8447 236.619 31.9782 236.642 32.0693 236.688V237.527ZM33.7539 236.717L33.7783 237.303C34.1657 236.847 34.6882 236.619 35.3457 236.619C36.0846 236.619 36.5876 236.902 36.8545 237.469C37.0303 237.215 37.2581 237.01 37.5381 236.854C37.8213 236.697 38.1549 236.619 38.5391 236.619C39.6979 236.619 40.2871 237.233 40.3066 238.46V242H39.4033V238.514C39.4033 238.136 39.3171 237.854 39.1445 237.669C38.972 237.48 38.6823 237.386 38.2754 237.386C37.9401 237.386 37.6618 237.487 37.4404 237.688C37.2191 237.887 37.0905 238.156 37.0547 238.494V242H36.1465V238.538C36.1465 237.77 35.7705 237.386 35.0186 237.386C34.4261 237.386 34.0208 237.638 33.8027 238.143V242H32.8994V236.717H33.7539ZM44.9355 242C44.8835 241.896 44.8411 241.71 44.8086 241.443C44.3887 241.88 43.8874 242.098 43.3047 242.098C42.7839 242.098 42.3558 241.951 42.0205 241.658C41.6885 241.362 41.5225 240.988 41.5225 240.535C41.5225 239.985 41.7308 239.559 42.1475 239.256C42.5674 238.95 43.1566 238.797 43.915 238.797H44.7939V238.382C44.7939 238.066 44.6995 237.815 44.5107 237.63C44.3219 237.441 44.0436 237.347 43.6758 237.347C43.3535 237.347 43.0833 237.428 42.8652 237.591C42.6471 237.754 42.5381 237.951 42.5381 238.182H41.6299C41.6299 237.918 41.7227 237.664 41.9082 237.42C42.097 237.173 42.3509 236.977 42.6699 236.834C42.9922 236.691 43.3454 236.619 43.7295 236.619C44.3382 236.619 44.8151 236.772 45.1602 237.078C45.5052 237.381 45.6842 237.799 45.6973 238.333V240.765C45.6973 241.25 45.7591 241.635 45.8828 241.922V242H44.9355ZM43.4365 241.312C43.7197 241.312 43.9883 241.238 44.2422 241.092C44.4961 240.945 44.68 240.755 44.7939 240.521V239.437H44.0859C42.9792 239.437 42.4258 239.76 42.4258 240.408C42.4258 240.691 42.5202 240.913 42.709 241.072C42.8978 241.232 43.1403 241.312 43.4365 241.312ZM48.0947 242H47.1914V234.5H48.0947V242Z" fill="black"/>
<path d="M129.289 242H128.347V238.714H124.763V242H123.825V234.891H124.763V237.947H128.347V234.891H129.289V242ZM130.573 239.31C130.573 238.792 130.674 238.326 130.876 237.913C131.081 237.5 131.364 237.181 131.726 236.956C132.09 236.731 132.505 236.619 132.971 236.619C133.69 236.619 134.271 236.868 134.714 237.366C135.16 237.864 135.383 238.527 135.383 239.354V239.417C135.383 239.931 135.284 240.394 135.085 240.804C134.89 241.211 134.608 241.528 134.24 241.756C133.876 241.984 133.456 242.098 132.98 242.098C132.264 242.098 131.683 241.849 131.237 241.351C130.795 240.853 130.573 240.193 130.573 239.373V239.31ZM131.481 239.417C131.481 240.003 131.617 240.473 131.887 240.828C132.16 241.183 132.525 241.36 132.98 241.36C133.439 241.36 133.804 241.181 134.074 240.823C134.344 240.462 134.479 239.957 134.479 239.31C134.479 238.73 134.341 238.261 134.064 237.903C133.791 237.542 133.426 237.361 132.971 237.361C132.525 237.361 132.165 237.539 131.892 237.894C131.618 238.248 131.481 238.756 131.481 239.417ZM138.181 240.774L139.489 236.717H140.412L138.518 242H137.829L135.915 236.717H136.838L138.181 240.774ZM143.405 242.098C142.689 242.098 142.106 241.863 141.657 241.395C141.208 240.923 140.983 240.293 140.983 239.505V239.339C140.983 238.815 141.083 238.348 141.281 237.938C141.483 237.524 141.763 237.202 142.121 236.971C142.482 236.736 142.873 236.619 143.293 236.619C143.98 236.619 144.514 236.845 144.895 237.298C145.275 237.75 145.466 238.398 145.466 239.241V239.617H141.887C141.9 240.138 142.051 240.56 142.341 240.882C142.634 241.201 143.005 241.36 143.454 241.36C143.773 241.36 144.043 241.295 144.265 241.165C144.486 241.035 144.68 240.862 144.846 240.647L145.397 241.077C144.955 241.757 144.291 242.098 143.405 242.098ZM143.293 237.361C142.928 237.361 142.622 237.495 142.375 237.762C142.128 238.025 141.975 238.396 141.916 238.875H144.562V238.807C144.536 238.348 144.413 237.993 144.191 237.742C143.97 237.488 143.671 237.361 143.293 237.361ZM149.069 237.527C148.933 237.505 148.785 237.493 148.625 237.493C148.033 237.493 147.631 237.745 147.419 238.25V242H146.516V236.717H147.395L147.409 237.327C147.705 236.855 148.125 236.619 148.669 236.619C148.845 236.619 148.978 236.642 149.069 236.688V237.527Z" fill="black"/>
<path d="M230.825 242V234.891H232.832C233.451 234.891 233.997 235.027 234.473 235.301C234.948 235.574 235.314 235.963 235.571 236.468C235.832 236.972 235.964 237.552 235.967 238.206V238.66C235.967 239.331 235.837 239.918 235.576 240.423C235.319 240.927 234.95 241.315 234.468 241.585C233.989 241.855 233.431 241.993 232.793 242H230.825ZM231.763 235.662V241.233H232.749C233.472 241.233 234.033 241.009 234.434 240.56C234.837 240.11 235.039 239.471 235.039 238.641V238.226C235.039 237.418 234.849 236.792 234.468 236.346C234.09 235.896 233.553 235.669 232.856 235.662H231.763ZM238.228 242H237.324V236.717H238.228V242ZM237.251 235.315C237.251 235.169 237.295 235.045 237.383 234.944C237.474 234.843 237.607 234.793 237.783 234.793C237.959 234.793 238.092 234.843 238.184 234.944C238.275 235.045 238.32 235.169 238.32 235.315C238.32 235.462 238.275 235.584 238.184 235.682C238.092 235.779 237.959 235.828 237.783 235.828C237.607 235.828 237.474 235.779 237.383 235.682C237.295 235.584 237.251 235.462 237.251 235.315ZM242.754 240.599C242.754 240.354 242.661 240.166 242.476 240.032C242.293 239.896 241.973 239.778 241.514 239.681C241.058 239.583 240.695 239.466 240.425 239.329C240.158 239.192 239.959 239.03 239.829 238.841C239.702 238.652 239.639 238.427 239.639 238.167C239.639 237.734 239.821 237.368 240.186 237.068C240.553 236.769 241.022 236.619 241.592 236.619C242.191 236.619 242.676 236.774 243.047 237.083C243.421 237.392 243.608 237.788 243.608 238.27H242.7C242.7 238.022 242.594 237.809 242.383 237.63C242.174 237.451 241.911 237.361 241.592 237.361C241.263 237.361 241.006 237.433 240.82 237.576C240.635 237.719 240.542 237.907 240.542 238.138C240.542 238.356 240.628 238.52 240.801 238.631C240.973 238.742 241.284 238.847 241.733 238.948C242.186 239.049 242.552 239.17 242.832 239.31C243.112 239.45 243.319 239.619 243.452 239.817C243.589 240.013 243.657 240.252 243.657 240.535C243.657 241.007 243.468 241.386 243.091 241.673C242.713 241.956 242.223 242.098 241.621 242.098C241.198 242.098 240.824 242.023 240.498 241.873C240.173 241.723 239.917 241.515 239.731 241.248C239.549 240.978 239.458 240.687 239.458 240.374H240.361C240.378 240.677 240.498 240.918 240.723 241.097C240.951 241.272 241.25 241.36 241.621 241.36C241.963 241.36 242.236 241.292 242.441 241.155C242.65 241.015 242.754 240.83 242.754 240.599ZM248.096 242C248.044 241.896 248.001 241.71 247.969 241.443C247.549 241.88 247.048 242.098 246.465 242.098C245.944 242.098 245.516 241.951 245.181 241.658C244.849 241.362 244.683 240.988 244.683 240.535C244.683 239.985 244.891 239.559 245.308 239.256C245.728 238.95 246.317 238.797 247.075 238.797H247.954V238.382C247.954 238.066 247.86 237.815 247.671 237.63C247.482 237.441 247.204 237.347 246.836 237.347C246.514 237.347 246.243 237.428 246.025 237.591C245.807 237.754 245.698 237.951 245.698 238.182H244.79C244.79 237.918 244.883 237.664 245.068 237.42C245.257 237.173 245.511 236.977 245.83 236.834C246.152 236.691 246.506 236.619 246.89 236.619C247.498 236.619 247.975 236.772 248.32 237.078C248.665 237.381 248.844 237.799 248.857 238.333V240.765C248.857 241.25 248.919 241.635 249.043 241.922V242H248.096ZM246.597 241.312C246.88 241.312 247.148 241.238 247.402 241.092C247.656 240.945 247.84 240.755 247.954 240.521V239.437H247.246C246.139 239.437 245.586 239.76 245.586 240.408C245.586 240.691 245.68 240.913 245.869 241.072C246.058 241.232 246.3 241.312 246.597 241.312ZM254.746 239.417C254.746 240.224 254.561 240.874 254.189 241.365C253.818 241.854 253.32 242.098 252.695 242.098C252.028 242.098 251.512 241.862 251.147 241.39L251.104 242H250.273V234.5H251.177V237.298C251.541 236.845 252.044 236.619 252.686 236.619C253.327 236.619 253.83 236.862 254.194 237.347C254.562 237.832 254.746 238.496 254.746 239.339V239.417ZM253.843 239.314C253.843 238.699 253.724 238.224 253.486 237.889C253.249 237.553 252.907 237.386 252.461 237.386C251.865 237.386 251.437 237.662 251.177 238.216V240.501C251.453 241.054 251.885 241.331 252.471 241.331C252.904 241.331 253.241 241.163 253.481 240.828C253.722 240.493 253.843 239.988 253.843 239.314ZM256.87 242H255.967V234.5H256.87V242ZM260.513 242.098C259.797 242.098 259.214 241.863 258.765 241.395C258.315 240.923 258.091 240.293 258.091 239.505V239.339C258.091 238.815 258.19 238.348 258.389 237.938C258.59 237.524 258.87 237.202 259.229 236.971C259.59 236.736 259.98 236.619 260.4 236.619C261.087 236.619 261.621 236.845 262.002 237.298C262.383 237.75 262.573 238.398 262.573 239.241V239.617H258.994C259.007 240.138 259.159 240.56 259.448 240.882C259.741 241.201 260.112 241.36 260.562 241.36C260.881 241.36 261.151 241.295 261.372 241.165C261.593 241.035 261.787 240.862 261.953 240.647L262.505 241.077C262.062 241.757 261.398 242.098 260.513 242.098ZM260.4 237.361C260.036 237.361 259.73 237.495 259.482 237.762C259.235 238.025 259.082 238.396 259.023 238.875H261.67V238.807C261.644 238.348 261.52 237.993 261.299 237.742C261.077 237.488 260.778 237.361 260.4 237.361ZM263.403 239.314C263.403 238.504 263.595 237.853 263.979 237.361C264.364 236.867 264.867 236.619 265.488 236.619C266.107 236.619 266.597 236.831 266.958 237.254V234.5H267.861V242H267.031L266.987 241.434C266.626 241.876 266.123 242.098 265.479 242.098C264.867 242.098 264.367 241.847 263.979 241.346C263.595 240.844 263.403 240.19 263.403 239.383V239.314ZM264.307 239.417C264.307 240.016 264.43 240.485 264.678 240.823C264.925 241.162 265.267 241.331 265.703 241.331C266.276 241.331 266.694 241.074 266.958 240.56V238.133C266.688 237.635 266.273 237.386 265.713 237.386C265.27 237.386 264.925 237.557 264.678 237.898C264.43 238.24 264.307 238.746 264.307 239.417Z" fill="black"/>
<rect x="230" y="201" width="62" height="27" fill="#5091CD" fill-opacity="0.65"/>
<path d="M239.232 210.8H241.76V218.032H246.256V220H239.232V210.8ZM253.54 218.176H249.236L248.468 220H246.02L250.148 210.8H252.644L256.788 220H254.292L253.54 218.176ZM252.772 216.352L251.396 213.024L250.004 216.352H252.772ZM264.745 215.2C265.257 215.392 265.651 215.68 265.929 216.064C266.217 216.448 266.361 216.917 266.361 217.472C266.361 218.272 266.03 218.896 265.369 219.344C264.718 219.781 263.769 220 262.521 220H257.561V210.8H262.265C263.449 210.8 264.35 211.019 264.969 211.456C265.587 211.893 265.897 212.48 265.897 213.216C265.897 213.653 265.795 214.043 265.593 214.384C265.401 214.725 265.118 214.997 264.745 215.2ZM260.057 212.576V214.512H261.945C262.403 214.512 262.755 214.432 263.001 214.272C263.246 214.101 263.369 213.861 263.369 213.552C263.369 213.232 263.246 212.992 263.001 212.832C262.766 212.661 262.414 212.576 261.945 212.576H260.057ZM262.345 218.224C263.326 218.224 263.817 217.888 263.817 217.216C263.817 216.544 263.326 216.208 262.345 216.208H260.057V218.224H262.345ZM275.18 218.064V220H267.772V210.8H275.004V212.736H270.268V214.416H274.46V216.256H270.268V218.064H275.18ZM276.702 210.8H279.23V218.032H283.726V220H276.702V210.8Z" fill="white"/>
<rect x="126.5" y="201.5" width="61" height="26" fill="#295E8E" stroke="#295E8E"/>
<path d="M135.232 210.8H137.76V218.032H142.256V220H135.232V210.8ZM149.54 218.176H145.236L144.468 220H142.02L146.148 210.8H148.644L152.788 220H150.292L149.54 218.176ZM148.772 216.352L147.396 213.024L146.004 216.352H148.772ZM160.745 215.2C161.257 215.392 161.651 215.68 161.929 216.064C162.217 216.448 162.361 216.917 162.361 217.472C162.361 218.272 162.03 218.896 161.369 219.344C160.718 219.781 159.769 220 158.521 220H153.561V210.8H158.265C159.449 210.8 160.35 211.019 160.969 211.456C161.587 211.893 161.897 212.48 161.897 213.216C161.897 213.653 161.795 214.043 161.593 214.384C161.401 214.725 161.118 214.997 160.745 215.2ZM156.057 212.576V214.512H157.945C158.403 214.512 158.755 214.432 159.001 214.272C159.246 214.101 159.369 213.861 159.369 213.552C159.369 213.232 159.246 212.992 159.001 212.832C158.766 212.661 158.414 212.576 157.945 212.576H156.057ZM158.345 218.224C159.326 218.224 159.817 217.888 159.817 217.216C159.817 216.544 159.326 216.208 158.345 216.208H156.057V218.224H158.345ZM171.18 218.064V220H163.772V210.8H171.004V212.736H166.268V214.416H170.46V216.256H166.268V218.064H171.18ZM172.702 210.8H175.23V218.032H179.726V220H172.702V210.8Z" fill="white"/>
<rect x="16.5" y="201.5" width="61" height="26" fill="#5091CD" stroke="#5091CD"/>
<path d="M25.232 210.8H27.76V218.032H32.256V220H25.232V210.8ZM39.5404 218.176H35.2364L34.4684 220H32.0204L36.1484 210.8H38.6444L42.7884 220H40.2924L39.5404 218.176ZM38.7724 216.352L37.3964 213.024L36.0044 216.352H38.7724ZM50.7448 215.2C51.2568 215.392 51.6514 215.68 51.9288 216.064C52.2168 216.448 52.3608 216.917 52.3608 217.472C52.3608 218.272 52.0301 218.896 51.3688 219.344C50.7181 219.781 49.7688 220 48.5208 220H43.5608V210.8H48.2648C49.4488 210.8 50.3501 211.019 50.9688 211.456C51.5874 211.893 51.8968 212.48 51.8968 213.216C51.8968 213.653 51.7954 214.043 51.5928 214.384C51.4008 214.725 51.1181 214.997 50.7448 215.2ZM46.0568 212.576V214.512H47.9448C48.4034 214.512 48.7554 214.432 49.0008 214.272C49.2461 214.101 49.3688 213.861 49.3688 213.552C49.3688 213.232 49.2461 212.992 49.0008 212.832C48.7661 212.661 48.4141 212.576 47.9448 212.576H46.0568ZM48.3448 218.224C49.3261 218.224 49.8168 217.888 49.8168 217.216C49.8168 216.544 49.3261 216.208 48.3448 216.208H46.0568V218.224H48.3448ZM61.18 218.064V220H53.772V210.8H61.004V212.736H56.268V214.416H60.46V216.256H56.268V218.064H61.18ZM62.702 210.8H65.23V218.032H69.726V220H62.702V210.8Z" fill="white"/>
<path d="M0.84375 280.432C0.84375 280.244 0.898438 280.088 1.00781 279.963C1.12109 279.838 1.28906 279.775 1.51172 279.775C1.73438 279.775 1.90234 279.838 2.01562 279.963C2.13281 280.088 2.19141 280.244 2.19141 280.432C2.19141 280.611 2.13281 280.762 2.01562 280.883C1.90234 281.004 1.73438 281.064 1.51172 281.064C1.28906 281.064 1.12109 281.004 1.00781 280.883C0.898438 280.762 0.84375 280.611 0.84375 280.432ZM9.35156 277.9C9.35156 278.869 9.12891 279.648 8.68359 280.238C8.23828 280.824 7.64062 281.117 6.89062 281.117C6.08984 281.117 5.4707 280.834 5.0332 280.268L4.98047 281H3.98438V272H5.06836V275.357C5.50586 274.814 6.10938 274.543 6.87891 274.543C7.64844 274.543 8.25195 274.834 8.68945 275.416C9.13086 275.998 9.35156 276.795 9.35156 277.807V277.9ZM8.26758 277.777C8.26758 277.039 8.125 276.469 7.83984 276.066C7.55469 275.664 7.14453 275.463 6.60938 275.463C5.89453 275.463 5.38086 275.795 5.06836 276.459V279.201C5.40039 279.865 5.91797 280.197 6.62109 280.197C7.14062 280.197 7.54492 279.996 7.83398 279.594C8.12305 279.191 8.26758 278.586 8.26758 277.777ZM14.6367 280.373C14.2148 280.869 13.5957 281.117 12.7793 281.117C12.1035 281.117 11.5879 280.922 11.2324 280.531C10.8809 280.137 10.7031 279.555 10.6992 278.785V274.66H11.7832V278.756C11.7832 279.717 12.1738 280.197 12.9551 280.197C13.7832 280.197 14.334 279.889 14.6074 279.271V274.66H15.6914V281H14.6602L14.6367 280.373ZM18.8145 273.125V274.66H19.998V275.498H18.8145V279.43C18.8145 279.684 18.8672 279.875 18.9727 280.004C19.0781 280.129 19.2578 280.191 19.5117 280.191C19.6367 280.191 19.8086 280.168 20.0273 280.121V281C19.7422 281.078 19.4648 281.117 19.1953 281.117C18.7109 281.117 18.3457 280.971 18.0996 280.678C17.8535 280.385 17.7305 279.969 17.7305 279.43V275.498H16.5762V274.66H17.7305V273.125H18.8145ZM22.7402 273.125V274.66H23.9238V275.498H22.7402V279.43C22.7402 279.684 22.793 279.875 22.8984 280.004C23.0039 280.129 23.1836 280.191 23.4375 280.191C23.5625 280.191 23.7344 280.168 23.9531 280.121V281C23.668 281.078 23.3906 281.117 23.1211 281.117C22.6367 281.117 22.2715 280.971 22.0254 280.678C21.7793 280.385 21.6562 279.969 21.6562 279.43V275.498H20.502V274.66H21.6562V273.125H22.7402ZM24.791 277.771C24.791 277.15 24.9121 276.592 25.1543 276.096C25.4004 275.6 25.7402 275.217 26.1738 274.947C26.6113 274.678 27.1094 274.543 27.668 274.543C28.5312 274.543 29.2285 274.842 29.7598 275.439C30.2949 276.037 30.5625 276.832 30.5625 277.824V277.9C30.5625 278.518 30.4434 279.072 30.2051 279.564C29.9707 280.053 29.6328 280.434 29.1914 280.707C28.7539 280.98 28.25 281.117 27.6797 281.117C26.8203 281.117 26.123 280.818 25.5879 280.221C25.0566 279.623 24.791 278.832 24.791 277.848V277.771ZM25.8809 277.9C25.8809 278.604 26.043 279.168 26.3672 279.594C26.6953 280.02 27.1328 280.232 27.6797 280.232C28.2305 280.232 28.668 280.018 28.9922 279.588C29.3164 279.154 29.4785 278.549 29.4785 277.771C29.4785 277.076 29.3125 276.514 28.9805 276.084C28.6523 275.65 28.2148 275.434 27.668 275.434C27.1328 275.434 26.7012 275.646 26.373 276.072C26.0449 276.498 25.8809 277.107 25.8809 277.9ZM32.9473 274.66L32.9824 275.457C33.4668 274.848 34.0996 274.543 34.8809 274.543C36.2207 274.543 36.8965 275.299 36.9082 276.811V281H35.8242V276.805C35.8203 276.348 35.7148 276.01 35.5078 275.791C35.3047 275.572 34.9863 275.463 34.5527 275.463C34.2012 275.463 33.8926 275.557 33.627 275.744C33.3613 275.932 33.1543 276.178 33.0059 276.482V281H31.9219V274.66H32.9473ZM40.7988 277.818H37.9395V276.934H40.7988V277.818ZM43.0371 281H41.9531V272H43.0371V281ZM48.6914 281C48.6289 280.875 48.5781 280.652 48.5391 280.332C48.0352 280.855 47.4336 281.117 46.7344 281.117C46.1094 281.117 45.5957 280.941 45.1934 280.59C44.7949 280.234 44.5957 279.785 44.5957 279.242C44.5957 278.582 44.8457 278.07 45.3457 277.707C45.8496 277.34 46.5566 277.156 47.4668 277.156H48.5215V276.658C48.5215 276.279 48.4082 275.979 48.1816 275.756C47.9551 275.529 47.6211 275.416 47.1797 275.416C46.793 275.416 46.4688 275.514 46.207 275.709C45.9453 275.904 45.8145 276.141 45.8145 276.418H44.7246C44.7246 276.102 44.8359 275.797 45.0586 275.504C45.2852 275.207 45.5898 274.973 45.9727 274.801C46.3594 274.629 46.7832 274.543 47.2441 274.543C47.9746 274.543 48.5469 274.727 48.9609 275.094C49.375 275.457 49.5898 275.959 49.6055 276.6V279.518C49.6055 280.1 49.6797 280.562 49.8281 280.906V281H48.6914ZM46.8926 280.174C47.2324 280.174 47.5547 280.086 47.8594 279.91C48.1641 279.734 48.3848 279.506 48.5215 279.225V277.924H47.6719C46.3438 277.924 45.6797 278.312 45.6797 279.09C45.6797 279.43 45.793 279.695 46.0195 279.887C46.2461 280.078 46.5371 280.174 46.8926 280.174ZM54.3691 275.633C54.2051 275.605 54.0273 275.592 53.8359 275.592C53.125 275.592 52.6426 275.895 52.3887 276.5V281H51.3047V274.66H52.3594L52.377 275.393C52.7324 274.826 53.2363 274.543 53.8887 274.543C54.0996 274.543 54.2598 274.57 54.3691 274.625V275.633ZM54.9961 277.777C54.9961 276.789 55.2246 276.004 55.6816 275.422C56.1387 274.836 56.7441 274.543 57.498 274.543C58.2715 274.543 58.875 274.816 59.3086 275.363L59.3613 274.66H60.3516V280.848C60.3516 281.668 60.1074 282.314 59.6191 282.787C59.1348 283.26 58.4824 283.496 57.6621 283.496C57.2051 283.496 56.7578 283.398 56.3203 283.203C55.8828 283.008 55.5488 282.74 55.3184 282.4L55.8809 281.75C56.3457 282.324 56.9141 282.611 57.5859 282.611C58.1133 282.611 58.5234 282.463 58.8164 282.166C59.1133 281.869 59.2617 281.451 59.2617 280.912V280.367C58.8281 280.867 58.2363 281.117 57.4863 281.117C56.7441 281.117 56.1426 280.818 55.6816 280.221C55.2246 279.623 54.9961 278.809 54.9961 277.777ZM56.0859 277.9C56.0859 278.615 56.2324 279.178 56.5254 279.588C56.8184 279.994 57.2285 280.197 57.7559 280.197C58.4395 280.197 58.9414 279.887 59.2617 279.266V276.371C58.9297 275.766 58.4316 275.463 57.7676 275.463C57.2402 275.463 56.8281 275.668 56.5312 276.078C56.2344 276.488 56.0859 277.096 56.0859 277.9ZM64.623 281.117C63.7637 281.117 63.0645 280.836 62.5254 280.273C61.9863 279.707 61.7168 278.951 61.7168 278.006V277.807C61.7168 277.178 61.8359 276.617 62.0742 276.125C62.3164 275.629 62.6523 275.242 63.082 274.965C63.5156 274.684 63.9844 274.543 64.4883 274.543C65.3125 274.543 65.9531 274.814 66.4102 275.357C66.8672 275.9 67.0957 276.678 67.0957 277.689V278.141H62.8008C62.8164 278.766 62.998 279.271 63.3457 279.658C63.6973 280.041 64.1426 280.232 64.6816 280.232C65.0645 280.232 65.3887 280.154 65.6543 279.998C65.9199 279.842 66.1523 279.635 66.3516 279.377L67.0137 279.893C66.4824 280.709 65.6855 281.117 64.623 281.117ZM64.4883 275.434C64.0508 275.434 63.6836 275.594 63.3867 275.914C63.0898 276.23 62.9062 276.676 62.8359 277.25H66.0117V277.168C65.9805 276.617 65.832 276.191 65.5664 275.891C65.3008 275.586 64.9414 275.434 64.4883 275.434Z" fill="black"/>
<path d="M22.2891 347H21.3467L17.7676 341.521V347H16.8252V339.891H17.7676L21.3564 345.394V339.891H22.2891V347ZM23.5732 344.31C23.5732 343.792 23.6742 343.326 23.876 342.913C24.0811 342.5 24.3643 342.181 24.7256 341.956C25.0902 341.731 25.5052 341.619 25.9707 341.619C26.6901 341.619 27.2712 341.868 27.7139 342.366C28.1598 342.864 28.3828 343.527 28.3828 344.354V344.417C28.3828 344.931 28.2835 345.394 28.085 345.804C27.8896 346.211 27.6081 346.528 27.2402 346.756C26.8757 346.984 26.4557 347.098 25.9805 347.098C25.2643 347.098 24.6833 346.849 24.2373 346.351C23.7946 345.853 23.5732 345.193 23.5732 344.373V344.31ZM24.4814 344.417C24.4814 345.003 24.6165 345.473 24.8867 345.828C25.1602 346.183 25.5247 346.36 25.9805 346.36C26.4395 346.36 26.804 346.181 27.0742 345.823C27.3444 345.462 27.4795 344.957 27.4795 344.31C27.4795 343.73 27.3411 343.261 27.0645 342.903C26.791 342.542 26.4264 342.361 25.9707 342.361C25.5247 342.361 25.165 342.539 24.8916 342.894C24.6182 343.248 24.4814 343.756 24.4814 344.417ZM32.0693 342.527C31.9326 342.505 31.7845 342.493 31.625 342.493C31.0326 342.493 30.6305 342.745 30.4189 343.25V347H29.5156V341.717H30.3945L30.4092 342.327C30.7054 341.855 31.1253 341.619 31.6689 341.619C31.8447 341.619 31.9782 341.642 32.0693 341.688V342.527ZM33.7539 341.717L33.7783 342.303C34.1657 341.847 34.6882 341.619 35.3457 341.619C36.0846 341.619 36.5876 341.902 36.8545 342.469C37.0303 342.215 37.2581 342.01 37.5381 341.854C37.8213 341.697 38.1549 341.619 38.5391 341.619C39.6979 341.619 40.2871 342.233 40.3066 343.46V347H39.4033V343.514C39.4033 343.136 39.3171 342.854 39.1445 342.669C38.972 342.48 38.6823 342.386 38.2754 342.386C37.9401 342.386 37.6618 342.487 37.4404 342.688C37.2191 342.887 37.0905 343.156 37.0547 343.494V347H36.1465V343.538C36.1465 342.77 35.7705 342.386 35.0186 342.386C34.4261 342.386 34.0208 342.638 33.8027 343.143V347H32.8994V341.717H33.7539ZM44.9355 347C44.8835 346.896 44.8411 346.71 44.8086 346.443C44.3887 346.88 43.8874 347.098 43.3047 347.098C42.7839 347.098 42.3558 346.951 42.0205 346.658C41.6885 346.362 41.5225 345.988 41.5225 345.535C41.5225 344.985 41.7308 344.559 42.1475 344.256C42.5674 343.95 43.1566 343.797 43.915 343.797H44.7939V343.382C44.7939 343.066 44.6995 342.815 44.5107 342.63C44.3219 342.441 44.0436 342.347 43.6758 342.347C43.3535 342.347 43.0833 342.428 42.8652 342.591C42.6471 342.754 42.5381 342.951 42.5381 343.182H41.6299C41.6299 342.918 41.7227 342.664 41.9082 342.42C42.097 342.173 42.3509 341.977 42.6699 341.834C42.9922 341.691 43.3454 341.619 43.7295 341.619C44.3382 341.619 44.8151 341.772 45.1602 342.078C45.5052 342.381 45.6842 342.799 45.6973 343.333V345.765C45.6973 346.25 45.7591 346.635 45.8828 346.922V347H44.9355ZM43.4365 346.312C43.7197 346.312 43.9883 346.238 44.2422 346.092C44.4961 345.945 44.68 345.755 44.7939 345.521V344.437H44.0859C42.9792 344.437 42.4258 344.76 42.4258 345.408C42.4258 345.691 42.5202 345.913 42.709 346.072C42.8978 346.232 43.1403 346.312 43.4365 346.312ZM48.0947 347H47.1914V339.5H48.0947V347Z" fill="black"/>
<path d="M150.289 347H149.347L145.768 341.521V347H144.825V339.891H145.768L149.356 345.394V339.891H150.289V347ZM151.573 344.31C151.573 343.792 151.674 343.326 151.876 342.913C152.081 342.5 152.364 342.181 152.726 341.956C153.09 341.731 153.505 341.619 153.971 341.619C154.69 341.619 155.271 341.868 155.714 342.366C156.16 342.864 156.383 343.527 156.383 344.354V344.417C156.383 344.931 156.284 345.394 156.085 345.804C155.89 346.211 155.608 346.528 155.24 346.756C154.876 346.984 154.456 347.098 153.98 347.098C153.264 347.098 152.683 346.849 152.237 346.351C151.795 345.853 151.573 345.193 151.573 344.373V344.31ZM152.481 344.417C152.481 345.003 152.617 345.473 152.887 345.828C153.16 346.183 153.525 346.36 153.98 346.36C154.439 346.36 154.804 346.181 155.074 345.823C155.344 345.462 155.479 344.957 155.479 344.31C155.479 343.73 155.341 343.261 155.064 342.903C154.791 342.542 154.426 342.361 153.971 342.361C153.525 342.361 153.165 342.539 152.892 342.894C152.618 343.248 152.481 343.756 152.481 344.417ZM160.069 342.527C159.933 342.505 159.785 342.493 159.625 342.493C159.033 342.493 158.631 342.745 158.419 343.25V347H157.516V341.717H158.395L158.409 342.327C158.705 341.855 159.125 341.619 159.669 341.619C159.845 341.619 159.978 341.642 160.069 341.688V342.527ZM161.754 341.717L161.778 342.303C162.166 341.847 162.688 341.619 163.346 341.619C164.085 341.619 164.588 341.902 164.854 342.469C165.03 342.215 165.258 342.01 165.538 341.854C165.821 341.697 166.155 341.619 166.539 341.619C167.698 341.619 168.287 342.233 168.307 343.46V347H167.403V343.514C167.403 343.136 167.317 342.854 167.145 342.669C166.972 342.48 166.682 342.386 166.275 342.386C165.94 342.386 165.662 342.487 165.44 342.688C165.219 342.887 165.09 343.156 165.055 343.494V347H164.146V343.538C164.146 342.77 163.771 342.386 163.019 342.386C162.426 342.386 162.021 342.638 161.803 343.143V347H160.899V341.717H161.754ZM172.936 347C172.883 346.896 172.841 346.71 172.809 346.443C172.389 346.88 171.887 347.098 171.305 347.098C170.784 347.098 170.356 346.951 170.021 346.658C169.688 346.362 169.522 345.988 169.522 345.535C169.522 344.985 169.731 344.559 170.147 344.256C170.567 343.95 171.157 343.797 171.915 343.797H172.794V343.382C172.794 343.066 172.7 342.815 172.511 342.63C172.322 342.441 172.044 342.347 171.676 342.347C171.354 342.347 171.083 342.428 170.865 342.591C170.647 342.754 170.538 342.951 170.538 343.182H169.63C169.63 342.918 169.723 342.664 169.908 342.42C170.097 342.173 170.351 341.977 170.67 341.834C170.992 341.691 171.345 341.619 171.729 341.619C172.338 341.619 172.815 341.772 173.16 342.078C173.505 342.381 173.684 342.799 173.697 343.333V345.765C173.697 346.25 173.759 346.635 173.883 346.922V347H172.936ZM171.437 346.312C171.72 346.312 171.988 346.238 172.242 346.092C172.496 345.945 172.68 345.755 172.794 345.521V344.437H172.086C170.979 344.437 170.426 344.76 170.426 345.408C170.426 345.691 170.52 345.913 170.709 346.072C170.898 346.232 171.14 346.312 171.437 346.312ZM176.095 347H175.191V339.5H176.095V347Z" fill="black"/>
<path d="M278.289 347H277.347L273.768 341.521V347H272.825V339.891H273.768L277.356 345.394V339.891H278.289V347ZM279.573 344.31C279.573 343.792 279.674 343.326 279.876 342.913C280.081 342.5 280.364 342.181 280.726 341.956C281.09 341.731 281.505 341.619 281.971 341.619C282.69 341.619 283.271 341.868 283.714 342.366C284.16 342.864 284.383 343.527 284.383 344.354V344.417C284.383 344.931 284.284 345.394 284.085 345.804C283.89 346.211 283.608 346.528 283.24 346.756C282.876 346.984 282.456 347.098 281.98 347.098C281.264 347.098 280.683 346.849 280.237 346.351C279.795 345.853 279.573 345.193 279.573 344.373V344.31ZM280.481 344.417C280.481 345.003 280.617 345.473 280.887 345.828C281.16 346.183 281.525 346.36 281.98 346.36C282.439 346.36 282.804 346.181 283.074 345.823C283.344 345.462 283.479 344.957 283.479 344.31C283.479 343.73 283.341 343.261 283.064 342.903C282.791 342.542 282.426 342.361 281.971 342.361C281.525 342.361 281.165 342.539 280.892 342.894C280.618 343.248 280.481 343.756 280.481 344.417ZM288.069 342.527C287.933 342.505 287.785 342.493 287.625 342.493C287.033 342.493 286.631 342.745 286.419 343.25V347H285.516V341.717H286.395L286.409 342.327C286.705 341.855 287.125 341.619 287.669 341.619C287.845 341.619 287.978 341.642 288.069 341.688V342.527ZM289.754 341.717L289.778 342.303C290.166 341.847 290.688 341.619 291.346 341.619C292.085 341.619 292.588 341.902 292.854 342.469C293.03 342.215 293.258 342.01 293.538 341.854C293.821 341.697 294.155 341.619 294.539 341.619C295.698 341.619 296.287 342.233 296.307 343.46V347H295.403V343.514C295.403 343.136 295.317 342.854 295.145 342.669C294.972 342.48 294.682 342.386 294.275 342.386C293.94 342.386 293.662 342.487 293.44 342.688C293.219 342.887 293.09 343.156 293.055 343.494V347H292.146V343.538C292.146 342.77 291.771 342.386 291.019 342.386C290.426 342.386 290.021 342.638 289.803 343.143V347H288.899V341.717H289.754ZM300.936 347C300.883 346.896 300.841 346.71 300.809 346.443C300.389 346.88 299.887 347.098 299.305 347.098C298.784 347.098 298.356 346.951 298.021 346.658C297.688 346.362 297.522 345.988 297.522 345.535C297.522 344.985 297.731 344.559 298.147 344.256C298.567 343.95 299.157 343.797 299.915 343.797H300.794V343.382C300.794 343.066 300.7 342.815 300.511 342.63C300.322 342.441 300.044 342.347 299.676 342.347C299.354 342.347 299.083 342.428 298.865 342.591C298.647 342.754 298.538 342.951 298.538 343.182H297.63C297.63 342.918 297.723 342.664 297.908 342.42C298.097 342.173 298.351 341.977 298.67 341.834C298.992 341.691 299.345 341.619 299.729 341.619C300.338 341.619 300.815 341.772 301.16 342.078C301.505 342.381 301.684 342.799 301.697 343.333V345.765C301.697 346.25 301.759 346.635 301.883 346.922V347H300.936ZM299.437 346.312C299.72 346.312 299.988 346.238 300.242 346.092C300.496 345.945 300.68 345.755 300.794 345.521V344.437H300.086C298.979 344.437 298.426 344.76 298.426 345.408C298.426 345.691 298.52 345.913 298.709 346.072C298.898 346.232 299.14 346.312 299.437 346.312ZM304.095 347H303.191V339.5H304.095V347Z" fill="black"/>
<rect x="272" y="293" width="100" height="40" fill="#5091CD" fill-opacity="0.65"/>
<path d="M292.386 308.65H295.23V316.786H300.288V319H292.386V308.65ZM310.463 316.948H305.621L304.757 319H302.003L306.647 308.65H309.455L314.117 319H311.309L310.463 316.948ZM309.599 314.896L308.051 311.152L306.485 314.896H309.599ZM325.048 313.6C325.624 313.816 326.068 314.14 326.38 314.572C326.704 315.004 326.866 315.532 326.866 316.156C326.866 317.056 326.494 317.758 325.75 318.262C325.018 318.754 323.95 319 322.546 319H316.966V308.65H322.258C323.59 308.65 324.604 308.896 325.3 309.388C325.996 309.88 326.344 310.54 326.344 311.368C326.344 311.86 326.23 312.298 326.002 312.682C325.786 313.066 325.468 313.372 325.048 313.6ZM319.774 310.648V312.826H321.898C322.414 312.826 322.81 312.736 323.086 312.556C323.362 312.364 323.5 312.094 323.5 311.746C323.5 311.386 323.362 311.116 323.086 310.936C322.822 310.744 322.426 310.648 321.898 310.648H319.774ZM322.348 317.002C323.452 317.002 324.004 316.624 324.004 315.868C324.004 315.112 323.452 314.734 322.348 314.734H319.774V317.002H322.348ZM338.768 316.822V319H330.434V308.65H338.57V310.828H333.242V312.718H337.958V314.788H333.242V316.822H338.768ZM342.46 308.65H345.304V316.786H350.362V319H342.46V308.65Z" fill="white"/>
<rect x="144.5" y="293.5" width="99" height="39" fill="#295E8E" stroke="#295E8E"/>
<path d="M164.386 308.65H167.23V316.786H172.288V319H164.386V308.65ZM182.463 316.948H177.621L176.757 319H174.003L178.647 308.65H181.455L186.117 319H183.309L182.463 316.948ZM181.599 314.896L180.051 311.152L178.485 314.896H181.599ZM197.048 313.6C197.624 313.816 198.068 314.14 198.38 314.572C198.704 315.004 198.866 315.532 198.866 316.156C198.866 317.056 198.494 317.758 197.75 318.262C197.018 318.754 195.95 319 194.546 319H188.966V308.65H194.258C195.59 308.65 196.604 308.896 197.3 309.388C197.996 309.88 198.344 310.54 198.344 311.368C198.344 311.86 198.23 312.298 198.002 312.682C197.786 313.066 197.468 313.372 197.048 313.6ZM191.774 310.648V312.826H193.898C194.414 312.826 194.81 312.736 195.086 312.556C195.362 312.364 195.5 312.094 195.5 311.746C195.5 311.386 195.362 311.116 195.086 310.936C194.822 310.744 194.426 310.648 193.898 310.648H191.774ZM194.348 317.002C195.452 317.002 196.004 316.624 196.004 315.868C196.004 315.112 195.452 314.734 194.348 314.734H191.774V317.002H194.348ZM210.768 316.822V319H202.434V308.65H210.57V310.828H205.242V312.718H209.958V314.788H205.242V316.822H210.768ZM214.46 308.65H217.304V316.786H222.362V319H214.46V308.65Z" fill="white"/>
<rect x="16.5" y="293.5" width="99" height="39" fill="#5091CD" stroke="#5091CD"/>
<path d="M36.386 308.65H39.23V316.786H44.288V319H36.386V308.65ZM54.4629 316.948H49.6209L48.7569 319H46.0029L50.6469 308.65H53.4549L58.1169 319H55.3089L54.4629 316.948ZM53.5989 314.896L52.0509 311.152L50.4849 314.896H53.5989ZM69.0478 313.6C69.6238 313.816 70.0678 314.14 70.3798 314.572C70.7038 315.004 70.8658 315.532 70.8658 316.156C70.8658 317.056 70.4938 317.758 69.7498 318.262C69.0178 318.754 67.9498 319 66.5458 319H60.9658V308.65H66.2578C67.5898 308.65 68.6038 308.896 69.2998 309.388C69.9958 309.88 70.3438 310.54 70.3438 311.368C70.3438 311.86 70.2298 312.298 70.0018 312.682C69.7858 313.066 69.4678 313.372 69.0478 313.6ZM63.7738 310.648V312.826H65.8978C66.4138 312.826 66.8098 312.736 67.0858 312.556C67.3618 312.364 67.4998 312.094 67.4998 311.746C67.4998 311.386 67.3618 311.116 67.0858 310.936C66.8218 310.744 66.4258 310.648 65.8978 310.648H63.7738ZM66.3478 317.002C67.4518 317.002 68.0038 316.624 68.0038 315.868C68.0038 315.112 67.4518 314.734 66.3478 314.734H63.7738V317.002H66.3478ZM82.7675 316.822V319H74.4335V308.65H82.5695V310.828H77.2415V312.718H81.9575V314.788H77.2415V316.822H82.7675ZM86.4597 308.65H89.3037V316.786H94.3618V319H86.4597V308.65Z" fill="white"/>
</svg>
