<svg width="78" height="27" viewBox="0 0 78 27" fill="none" xmlns="http://www.w3.org/2000/svg">
<rect width="78" height="27" fill="#5091CD"/>
<path d="M13.992 19C15.784 19 16.708 17.88 16.708 16.466C16.708 15.304 15.924 14.338 14.916 14.184C15.798 14.002 16.526 13.204 16.526 12.042C16.526 10.796 15.616 9.662 13.838 9.662H8.924V19H13.992ZM13.404 13.372H10.912V11.412H13.404C14.076 11.412 14.496 11.818 14.496 12.392C14.496 12.994 14.076 13.372 13.404 13.372ZM13.488 17.25H10.912V15.122H13.488C14.258 15.122 14.678 15.598 14.678 16.186C14.678 16.858 14.23 17.25 13.488 17.25ZM23.4012 19.168C26.2432 19.168 27.6152 17.572 27.6152 15.262V9.662H25.5852V15.206C25.5852 16.508 24.8432 17.404 23.4012 17.404C21.9592 17.404 21.2032 16.508 21.2032 15.206V9.662H19.1872V15.262C19.1872 17.572 20.5592 19.168 23.4012 19.168ZM34.6065 19V11.412H37.3225V9.662H29.8745V11.412H32.6045V19H34.6065ZM43.7349 19V11.412H46.4509V9.662H39.0029V11.412H41.7329V19H43.7349ZM53.1433 19.168C55.9573 19.168 58.0153 17.152 58.0153 14.338C58.0153 11.524 55.9573 9.508 53.1433 9.508C50.3153 9.508 48.2573 11.524 48.2573 14.338C48.2573 17.152 50.3153 19.168 53.1433 19.168ZM53.1433 17.404C51.4073 17.404 50.3013 16.074 50.3013 14.338C50.3013 12.588 51.4073 11.272 53.1433 11.272C54.8653 11.272 55.9713 12.588 55.9713 14.338C55.9713 16.074 54.8653 17.404 53.1433 17.404ZM68.7484 19V9.662H66.7604V15.528L62.4344 9.662H60.3904V19H62.3784V12.91L66.8304 19H68.7484Z" fill="white"/>
</svg>
