<svg width="27" height="22" fill="none" xmlns="http://www.w3.org/2000/svg"><path d="M22.3 16.4c.5-.8.9-1.8.9-2.8 0-2.8-2.3-5.1-5.1-5.1S13 10.8 13 13.6s2.3 5.1 5.1 5.1c1.2 0 2.3-.4 3.2-1.1l1-1.2zm-1.1 1.2l3.9 3.5c.2.1.3.2.5.2s.4-.1.6-.3c.3-.3.3-.8-.1-1.1l-3.9-3.5-1 1.2zm-3.2.3c-2.4 0-4.3-1.9-4.3-4.3s1.9-4.3 4.3-4.3 4.3 1.9 4.3 4.3-1.9 4.3-4.3 4.3z" fill="#5091CD"/><path d="M12.9 1v5.1h5" stroke="#5091CD" stroke-width=".9" stroke-miterlimit="10"/><path d="M17.9 18.1v3H1V1h12.2l4.7 5v2.6" stroke="#5091CD" stroke-width=".9" stroke-miterlimit="10"/></svg>