<svg width="23" height="19" fill="none" xmlns="http://www.w3.org/2000/svg"><path d="M7.1 4.1c-2.9 0-5.2 2.3-5.2 5.2 0 2.9 2.3 5.2 5.2 5.2 2.9 0 5.2-2.3 5.2-5.2 0-2.9-2.3-5.2-5.2-5.2zm0 8.2c-.3 0-.6-.3-.6-.6s.3-.6.6-.6.6.3.6.6-.2.6-.6.6z" stroke="#5091CD" stroke-width=".2" stroke-miterlimit="10"/><path d="M7.1 3.2C3.7 3.2 1 5.9 1 9.3c0 3.4 2.7 6.1 6.1 6.1 3.4 0 6.1-2.7 6.1-6.1 0-3.4-2.7-6.1-6.1-6.1zm0 .9c2.9 0 5.2 2.3 5.2 5.2 0 2.9-2.3 5.2-5.2 5.2-2.9 0-5.2-2.3-5.2-5.2 0-2.9 2.3-5.2 5.2-5.2z" fill="#5091CD" stroke="#5091CD" stroke-width=".2" stroke-miterlimit="10"/><path d="M6.4 11.6c0-.4.3-.7.7-.7.4 0 .7.3.7.7 0 .4-.3.7-.7.7-.4 0-.7-.3-.7-.7zm.2-1.3l-.2-4h1.4l-.2 4h-1z" fill="#5091CD" stroke="#5091CD" stroke-width=".2" stroke-miterlimit="10"/><path d="M15.6 1v6.2h6.1" stroke="#5091CD" stroke-width="1.1" stroke-miterlimit="10"/><path d="M7.1 15.2v2.4h14.6V7l-5.9-5.9H7.1v2.5" stroke="#5091CD" stroke-width="1.1" stroke-miterlimit="10"/></svg>