<svg width="57" height="46" fill="none" xmlns="http://www.w3.org/2000/svg"><path d="M34.794 31.8c5.854 0 10.6-4.746 10.6-10.6 0-5.854-4.746-10.6-10.6-10.6-5.855 0-10.6 4.746-10.6 10.6 0 5.854 4.745 10.6 10.6 10.6zm-10-8.6l-16.4 2.7m.218.656a2.3 2.3 0 1 0-4.57-.53 2.3 2.3 0 0 0 4.57.53zM44.594 17.5l6.1-3.9m-22.4-1l-3.9-6.4m1.4 20.1l-19.4 13m5.8-34.3l13.5 10.7m28.014-2.376a1.8 1.8 0 1 0-3.415-1.14 1.8 1.8 0 0 0 3.415 1.14zM10.394 5.6a2.3 2.3 0 1 0 0-4.6 2.3 2.3 0 0 0 0 4.6zm13.1.7a2.3 2.3 0 1 0 0-4.6 2.3 2.3 0 0 0 0 4.6zM5.874 43.483a2.9 2.9 0 1 0-3.6-4.548 2.9 2.9 0 0 0 3.6 4.548zM41.993 29l9.6 9.4m2 4.9a2.9 2.9 0 1 0 0-5.8 2.9 2.9 0 0 0 0 5.8z" stroke="#5091CD" stroke-width=".75" stroke-miterlimit="10"/><path d="M30.194 18.3v-1.7c0-.3.2-.5.4-.5s.4.2.4.5v2.3h1.6v-2.1c0-1.1-.9-2-2-2s-2 .9-2 2v1.6c0 1.1 2.4 3.2 2.4 4.4v3.1c0 .3-.2.5-.4.5s-.4-.2-.4-.5v-3.2h-1.6v3.1c0 1.1.9 2 2 2s2-.9 2-2v-3.1c.1-1.4-2.4-3.3-2.4-4.4zm7.2 3.1l-.9 6.4h-1.6l-1.2-13h1.6l.6 6.6.7-6.6h1.6l.6 6.6.6-6.6h1.7l-1.3 13h-1.6l-.8-6.4z" fill="#5091CD"/></svg>