<svg width="64" height="57" viewBox="0 0 64 57" fill="none" xmlns="http://www.w3.org/2000/svg">
<path d="M45.3 55.6H1.3V1.3H45.3V10.5H46.6V0H0V56.9H46.6V32.4H45.3V55.6Z" fill="#5091CD"/>
<path d="M26.8 34.6L23 44.7L32.7 41.3L57 17.1L50.9 11L26.8 34.6ZM32.2 40.1C26.5 40.6 28 35.3 28 35.3L50.9 12.8L55.2 17.1L32.2 40.1Z" fill="#5091CD"/>
<path d="M62.9 9.90001L57.7 4.70001C57.2 4.20001 56.5 4.20001 56.1 4.70001L52.7 8.00001C52.5 8.20001 52.4 8.50001 52.4 8.80001C52.4 9.10001 52.5 9.40001 52.7 9.60001L58 14.9C58.2 15.1 58.5 15.2 58.8 15.2C59.1 15.2 59.4 15.1 59.6 14.9L62.9 11.6C63.1 11.4 63.2 11.1 63.2 10.8C63.3 10.4 63.2 10.1 62.9 9.90001Z" fill="#5091CD"/>
</svg>
