<svg width="74" height="58" viewBox="0 0 74 58" fill="none" xmlns="http://www.w3.org/2000/svg">
<path d="M38.3999 32.2H7.3999V33.5H38.3999V32.2Z" fill="#5091CD"/>
<path d="M38.3999 24.7H7.3999V26H38.3999V24.7Z" fill="#5091CD"/>
<path d="M38.3999 39.4H7.3999V40.7H38.3999V39.4Z" fill="#5091CD"/>
<path d="M30.7999 46.6H7.3999V47.9H30.7999V46.6Z" fill="#5091CD"/>
<path d="M73.1 53.8L63.7 45.3C65 43.3 65.8 40.9 65.8 38.3C65.8 31.4 60.2 25.8 53.3 25.8C51.4 25.8 49.7 26.2 48.1 26.9V11.4L37.3 0H0V56.9H48.1V49.8C49.7 50.5 51.4 50.9 53.3 50.9C56.2 50.9 58.9 49.9 61 48.2L70.4 56.7C70.8 57 71.2 57.2 71.7 57.2C72.2 57.2 72.8 57 73.2 56.6C73.9 55.8 73.9 54.5 73.1 53.8ZM37.7 2.3L46.1 11.2H37.7V2.3ZM46.8 55.6H1.3V1.3H36.4V12.5H46.8V27.7C43.2 29.9 40.8 33.9 40.8 38.4C40.8 42.9 43.2 46.9 46.8 49.1V55.6ZM53.3 49.4C47.2 49.4 42.3 44.5 42.3 38.4C42.3 32.3 47.2 27.4 53.3 27.4C59.4 27.4 64.3 32.3 64.3 38.4C64.3 44.4 59.3 49.4 53.3 49.4Z" fill="#5091CD"/>
</svg>
