<svg width="72" height="55" viewBox="0 0 72 55" fill="none" xmlns="http://www.w3.org/2000/svg">
<path d="M38.6427 31.5769V31.1947C38.256 31.1947 38.1271 31.1947 37.7403 31.1947C35.5488 31.1947 33.8729 29.5384 33.8729 27.3726C33.8729 26.0985 34.5175 24.9519 35.5488 24.1875C34.2597 22.4038 32.7127 20.875 31.0368 19.7283L30.3923 19.3461C29.7477 20.3654 28.5875 20.875 27.2983 20.875C25.1068 20.875 23.4309 19.2187 23.4309 17.0529C23.4309 16.9255 23.4309 16.7981 23.4309 16.6707H15.4383C15.1805 16.6707 15.5672 16.6707 15.3094 16.6707C15.3094 16.7981 15.3094 17.0529 15.3094 17.0529C15.3094 19.2187 13.6335 20.875 11.442 20.875C10.4107 20.875 9.50829 20.4928 8.86372 19.8558C7.05893 21.1298 5.51197 22.786 4.22284 24.5697C5.25414 25.2067 5.89871 26.3533 5.89871 27.7548C5.89871 29.9207 4.22284 31.5769 2.03131 31.5769C1.77348 31.5769 1.51565 31.5769 1.38674 31.4495C1.12891 32.5961 1 33.8702 1 35.1442C1 36.4183 1.12891 37.5649 1.38674 38.8389C1.64457 38.8389 1.77348 38.7115 2.03131 38.7115C4.22284 38.7115 5.89871 40.3678 5.89871 42.5336C5.89871 43.8077 5.25414 44.9543 4.22284 45.7187C5.38306 47.5024 6.93002 49.0312 8.73481 50.3053C9.37937 49.5408 10.4107 49.1586 11.442 49.1586C13.6335 49.1586 15.3094 50.8149 15.3094 52.9807C15.3094 53.1082 15.3094 53.2356 15.3094 53.363C16.8564 53.7452 18.4033 54 20.0792 54C21.2394 54 22.3996 53.8726 23.5599 53.6178C23.5599 53.363 23.5599 53.1082 23.5599 52.8533C23.5599 50.6875 25.2357 49.0312 27.4273 49.0312C28.7164 49.0312 30.0055 49.6683 30.6501 50.6875C32.7127 49.286 34.5175 47.5024 35.9355 45.4639C34.7753 44.8269 34.0018 43.5529 34.0018 42.1514C34.0018 39.9856 35.6777 38.3293 37.8692 38.3293C38.256 38.3293 38.5138 38.3293 38.7716 38.4567C39.0295 37.3101 39.1584 36.1634 39.1584 35.0168C39.0295 33.8702 38.9006 32.7235 38.6427 31.5769ZM19.6925 41.0048C16.2118 41.0048 13.3757 38.2019 13.3757 34.762C13.3757 31.3221 16.2118 28.5192 19.6925 28.5192C23.1731 28.5192 26.0092 31.3221 26.0092 34.762C26.0092 38.2019 23.1731 41.0048 19.6925 41.0048Z" stroke="#5091CD" stroke-width="1.25" stroke-miterlimit="10" stroke-linejoin="round"/>
<path d="M52.5654 14.887L52.6943 14.6322C52.5654 14.6322 52.4365 14.5048 52.3076 14.3774C51.4052 13.7404 51.1473 12.4663 51.7919 11.5745C52.1786 11.0649 52.8232 10.6827 53.4678 10.6827C53.4678 9.53606 53.3389 8.51683 52.9521 7.37019L52.8232 6.98798C52.1786 7.24279 51.663 7.11539 51.0184 6.73317C50.116 6.09615 49.8582 4.82212 50.5028 3.93029C50.5028 3.93029 50.5028 3.80288 50.6317 3.80288L47.151 1.63702C47.0221 1.50962 47.2799 1.63702 47.151 1.63702L47.0221 1.76442C46.3775 2.65625 45.0884 2.91106 44.186 2.27404C43.7993 2.01923 43.5414 1.50962 43.4125 1C42.2523 1 41.0921 1.25481 40.0608 1.63702C40.3186 2.27404 40.1897 2.91106 39.803 3.42067C39.1584 4.3125 37.8693 4.56731 36.9669 3.93029C36.8379 3.80289 36.8379 3.80288 36.709 3.67548C36.1934 4.05769 35.8066 4.56731 35.4199 5.07692C35.0332 5.58654 34.7753 6.22356 34.5175 6.73317C34.6464 6.73317 34.7753 6.86058 34.7753 6.86058C35.6777 7.4976 35.9356 8.77164 35.291 9.66346C34.9042 10.1731 34.2597 10.5553 33.6151 10.5553C33.6151 11.7019 33.744 12.8486 34.1308 13.8678C34.6464 13.7404 35.1621 13.8678 35.6777 14.25C36.5801 14.887 36.8379 16.1611 36.1934 17.0529C36.1934 17.1803 36.0645 17.1803 36.0645 17.1803C36.5801 17.8173 37.2247 18.3269 37.8693 18.8365C38.3849 19.2188 38.9006 19.4736 39.4162 19.7284C39.4162 19.601 39.5451 19.4736 39.674 19.4736C40.3186 18.5817 41.6077 18.3269 42.5101 18.9639C43.0258 19.3462 43.4125 19.9832 43.4125 20.6202C44.7017 20.6202 45.9908 20.4928 47.2799 19.9832C47.0221 19.3462 47.0221 18.5817 47.4089 17.9447C48.0534 17.0529 49.3426 16.7981 50.2449 17.4351C50.3739 17.5625 50.5028 17.6899 50.6317 17.8173C51.0184 17.4351 51.4052 16.9255 51.7919 16.4159C51.9208 15.9063 52.3076 15.3966 52.5654 14.887Z" stroke="#5091CD" stroke-width="1.25" stroke-miterlimit="10" stroke-linejoin="round"/>
<path d="M43.4127 14.25C45.335 14.25 46.8933 12.7099 46.8933 10.8101C46.8933 8.91031 45.335 7.37021 43.4127 7.37021C41.4904 7.37021 39.932 8.91031 39.932 10.8101C39.932 12.7099 41.4904 14.25 43.4127 14.25Z" stroke="#5091CD" stroke-width="1.25" stroke-miterlimit="10" stroke-linejoin="round"/>
<path d="M65.9725 24.9519L65.7147 24.8245C65.5858 24.9519 65.4569 25.0793 65.3279 25.2067C64.1677 26.226 62.4918 26.0986 61.4605 24.9519C60.816 24.3149 60.6871 23.2957 60.9449 22.5312C59.5268 22.149 57.9799 22.0216 56.4329 22.149H55.9173C56.0462 23.0409 55.6594 23.8053 55.0149 24.3149C53.8546 25.3341 52.1788 25.2067 51.1475 24.0601C51.0185 23.9327 51.0185 23.9327 50.8896 23.8053L46.6355 27.3726C46.5066 27.5 46.7644 27.2452 46.6355 27.5L46.7644 27.7548C47.7957 28.9014 47.6668 30.5577 46.5066 31.5769C45.9909 32.0865 45.3464 32.2139 44.5729 32.2139C44.1861 33.7428 44.0572 35.2716 44.315 36.8005C45.2174 36.6731 45.9909 37.0553 46.6355 37.6923C47.6668 38.8389 47.5379 40.4952 46.3777 41.5144C46.2487 41.6418 46.1198 41.6418 45.9909 41.7692C46.3777 42.5337 46.8933 43.1707 47.5379 43.9351C48.0535 44.5721 48.6981 45.2091 49.4716 45.7187C49.6005 45.5913 49.7294 45.4639 49.8583 45.3365C51.0185 44.3173 52.6944 44.4447 53.7257 45.5913C54.3703 46.2284 54.4992 47.2476 54.2414 48.012C55.6594 48.3942 57.2064 48.5216 58.7534 48.3942C58.7534 47.6298 59.1401 46.9928 59.6557 46.4832C60.816 45.4639 62.4918 45.5913 63.5232 46.738C63.6521 46.8654 63.6521 46.8654 63.6521 46.9928C64.6834 46.4832 65.5858 45.9736 66.4882 45.2091C67.1327 44.6995 67.6484 44.0625 68.164 43.4255C68.0351 43.2981 67.9062 43.1707 67.7773 43.0433C66.746 41.8966 66.8749 40.2404 68.0351 39.2211C68.8086 38.5841 69.711 38.4567 70.4845 38.7115C71.0001 37.0553 71.129 35.2716 70.8712 33.488C69.9688 33.6154 68.9375 33.3606 68.2929 32.5962C67.2616 31.4495 67.3906 29.7933 68.5508 28.774C68.6797 28.6466 68.9375 28.5192 69.0664 28.3918C68.6797 27.7548 68.164 26.9904 67.6484 26.3534C67.2616 26.0986 66.6171 25.4615 65.9725 24.9519Z" stroke="#5091CD" stroke-width="1.25" stroke-miterlimit="10" stroke-linejoin="round"/>
<path d="M57.593 39.8582C60.0849 39.8582 62.105 37.8618 62.105 35.399C62.105 32.9363 60.0849 30.9399 57.593 30.9399C55.1011 30.9399 53.0811 32.9363 53.0811 35.399C53.0811 37.8618 55.1011 39.8582 57.593 39.8582Z" stroke="#5091CD" stroke-width="1.25" stroke-miterlimit="10" stroke-linejoin="round"/>
</svg>
