<svg width="57" height="57" fill="none" xmlns="http://www.w3.org/2000/svg"><path d="M1.3 55.3V34.2l11-6.5c.6 1.5 2.1 2.6 3.8 2.6 1.7 0 3.1-1 3.8-2.5l12.1 6c0 .2-.1.4-.1.5 0 2.3 1.9 4.2 4.1 4.2 2.2 0 4.1-1.9 4.1-4.2 0-.5-.1-1-.3-1.5l10.3-10.3c.5.3 1.2.4 1.8.4 2.3 0 4.1-1.9 4.1-4.2 0-2.3-1.9-4.2-4.1-4.2-2.2 0-3.9 2-3.9 4.3 0 1.2.5 2.2 1.3 3l-9.9 9.9c-.8-.9-1.9-1.5-3.2-1.5-1.6 0-3 1-3.7 2.3l-12.2-6v-.4c0-2.3-1.9-4.2-4.1-4.2-2.2 0-4.2 2-4.2 4.2v.2L1.3 32.7V0H0v56.6h56.6v-1.3H1.3zM52.1 16c1.6 0 2.9 1.3 2.9 2.8 0 1.5-1.3 2.8-2.9 2.8-1.6 0-2.9-1.3-2.9-2.8 0-1.5 1.4-2.8 2.9-2.8zm-16 15.5c1.6 0 2.9 1.3 2.9 2.8 0 1.5-1.3 2.8-2.9 2.8-1.6 0-2.9-1.3-2.9-2.8 0-1.5 1.4-2.8 2.9-2.8zm-16-4.2v-.1.1zm-4-4c1.6 0 2.9 1.3 2.9 2.8 0 1.5-1.3 2.9-2.9 2.9-1.6 0-2.9-1.3-2.9-2.8 0-1.5 1.4-2.9 2.9-2.9z" fill="#5091CD"/></svg>