<svg width="15" height="15" fill="none" xmlns="http://www.w3.org/2000/svg"><path d="M7.9 2.75l-7.8 7.8c-.1.1-.1.2-.1.3v3.9h3.9c.1 0 .2 0 .2-.1l7.8-7.8.1-.1c-1.3-1.4-2.6-2.8-4.1-4 .1-.1.1-.1 0 0zm-4.3 10.6H2.5v-1.2H1.3v-1.1l.8-.8 2.3 2.3-.8.8zm4.5-9c.2-.2.3-.2.4-.1.1.1.1.2-.1.4-.9 1-1.8 1.9-2.8 2.8-.7.8-1.5 1.6-2.3 2.3 0 .1-.1.2-.2.2-.2 0-.3-.2-.2-.3 0-.1.1-.1.1-.2 1.7-1.7 3.4-3.3 5.1-5.1 0 .1 0 .1 0 0zm6.3-1.6c-.3-.3-.6-.6-.8-.9-.5-.5-1-.9-1.4-1.4-.6-.6-1.4-.6-1.9 0-.6.5-1 1-1.5 1.4l-.1.1 4 4 1.7-1.7c.3-.4.3-1.1 0-1.5z" fill="#5091CD"/></svg>