<svg width="25" height="23" viewBox="0 0 25 23" fill="none" xmlns="http://www.w3.org/2000/svg">
<path d="M2.69991 17.5146C3.59991 17.5146 4.39991 16.6561 4.39991 15.6902C4.39991 14.7244 3.59991 13.8658 2.69991 13.8658C1.79991 13.8658 0.999913 14.7244 0.999913 15.6902C0.899913 16.6561 1.69991 17.5146 2.69991 17.5146Z" stroke="white" stroke-width="0.9" stroke-miterlimit="10"/>
<path d="M8.79985 10.861C9.69985 10.861 10.4999 10.1097 10.4999 9.03658C10.4999 8.07073 9.69985 7.21219 8.79985 7.21219C7.79985 7.21219 7.09985 8.07073 7.09985 9.03658C7.09985 10.1097 7.79985 10.861 8.79985 10.861Z" stroke="white" stroke-width="0.9" stroke-miterlimit="10"/>
<path d="M15.8999 13.7585C16.7999 13.7585 17.5999 12.9 17.5999 11.9341C17.5999 10.9683 16.7999 10.1097 15.8999 10.1097C15 10.1097 14.2 10.9683 14.2 11.9341C14.3 12.9 15 13.7585 15.8999 13.7585Z" stroke="white" stroke-width="0.9" stroke-miterlimit="10"/>
<path d="M22.5999 4.63657C23.4999 4.63657 24.2999 3.77804 24.2999 2.81218C24.2999 1.84633 23.4999 0.987793 22.5999 0.987793C21.6999 0.987793 20.8999 1.84633 20.8999 2.81218C20.9999 3.77804 21.6999 4.63657 22.5999 4.63657Z" stroke="white" stroke-width="0.9" stroke-miterlimit="10"/>
<path d="M1.19995 21.9146H24.9" stroke="white" stroke-width="0.9" stroke-miterlimit="10"/>
<path d="M17.2998 10.4317L21.7998 4.42194" stroke="white" stroke-width="0.9" stroke-miterlimit="10"/>
<path d="M10.5999 9.78778L14.5999 11.3975" stroke="white" stroke-width="0.9" stroke-miterlimit="10"/>
<path d="M3.59985 14.2951L7.49985 10.539" stroke="white" stroke-width="0.9" stroke-miterlimit="10"/>
</svg>
