<svg width="27" height="22" viewBox="0 0 27 22" fill="none" xmlns="http://www.w3.org/2000/svg">
<path d="M3 4.92439V1.06097H23.9V16.9439H3V13.7244V4.92439Z" stroke="white" stroke-miterlimit="10"/>
<path d="M0.5 20.9146H26.4" stroke="white" stroke-miterlimit="10"/>
<path d="M6.89995 8.03659L7.19995 9.43171C7.29995 9.75366 7.39995 10.1829 7.39995 10.5049C7.49995 10.1829 7.59995 9.75366 7.69995 9.43171L7.99995 8.03659H8.59995L8.99995 9.43171C9.09995 9.75366 9.19995 10.1829 9.19995 10.5049C9.19995 10.1829 9.29995 9.86098 9.39995 9.43171L9.79995 8.03659H10.4999L9.59995 11.1488H8.89995L8.49995 9.86098C8.49995 9.53903 8.39995 9.3244 8.29995 8.89513C8.19995 9.3244 8.19995 9.64635 8.09995 9.86098L7.69995 11.1488H6.99995L6.19995 8.03659H6.89995Z" fill="white"/>
<path d="M11.8001 8.03659L12.1001 9.43171C12.2001 9.75366 12.2001 10.0756 12.3001 10.3976C12.4001 10.1829 12.5001 9.75366 12.5001 9.43171L12.9001 8.03659H13.5001L13.9001 9.43171C14.0001 9.75366 14.1001 10.1829 14.1001 10.5049C14.1001 10.1829 14.2001 9.86098 14.3001 9.43171L14.7001 8.03659H15.4001L14.5001 11.1488H13.8001L13.5001 9.86098C13.4001 9.53903 13.3001 9.21708 13.3001 8.89513C13.2001 9.3244 13.2001 9.53903 13.1001 9.86098L12.7001 11.1488H12.0001L11.1001 8.03659H11.8001Z" fill="white"/>
<path d="M16.6999 8.03659L16.9999 9.43171C17.0999 9.75366 17.0999 10.0756 17.1999 10.3976C17.2999 10.0756 17.3999 9.75366 17.3999 9.43171L17.7999 8.03659H18.3999L18.7999 9.43171C18.8999 9.75366 18.9999 10.1829 18.9999 10.5049C18.9999 10.1829 19.0999 9.86098 19.1999 9.43171L19.4999 8.03659H20.1999L19.2999 11.1488H18.5999L18.2999 9.86098C18.1999 9.53903 18.0999 9.21708 18.0999 8.89513C17.9999 9.3244 17.9999 9.53903 17.8999 9.86098L17.4999 11.1488H16.7999L15.8999 8.03659H16.6999Z" fill="white"/>
</svg>
