<svg width="23" height="23" viewBox="0 0 23 23" fill="none" xmlns="http://www.w3.org/2000/svg">
<path d="M21.6489 9.43129L21.5705 9.19355C21.4139 9.2728 21.2572 9.2728 21.1005 9.2728C19.9254 9.2728 18.9854 8.32186 18.9854 7.13318C18.9854 6.41997 19.3771 5.78601 19.9254 5.38978C19.2204 4.43884 18.3587 3.56714 17.4186 2.85393L17.1053 2.61619C16.7136 3.17091 16.1652 3.48789 15.3819 3.48789C14.2068 3.48789 13.2667 2.53695 13.2667 1.34827C13.2667 1.26903 13.2667 1.18978 13.2667 1.11053H8.87984C8.72316 1.11053 8.95818 1.11053 8.8015 1.11053C8.8015 1.11053 8.8015 1.26903 8.8015 1.34827C8.8015 2.53695 7.86145 3.48789 6.68639 3.48789C6.05969 3.48789 5.58966 3.25016 5.19797 2.93318C4.17958 3.64638 3.31787 4.51808 2.69117 5.54827C3.23953 5.9445 3.63122 6.57846 3.63122 7.29167C3.63122 8.48035 2.69117 9.43129 1.51611 9.43129C1.35943 9.43129 1.28109 9.43129 1.12442 9.43129C0.967742 10.0653 0.889404 10.7785 0.889404 11.4917C0.889404 12.2049 0.967742 12.9181 1.12442 13.552C1.28109 13.552 1.35943 13.552 1.51611 13.552C2.69117 13.552 3.63122 14.503 3.63122 15.6917C3.63122 16.4049 3.23953 17.0388 2.69117 17.4351C3.39621 18.4653 4.17958 19.3369 5.19797 20.0502C5.58966 19.6539 6.13802 19.4162 6.68639 19.4162C7.86145 19.4162 8.8015 20.3671 8.8015 21.5558C8.8015 21.6351 8.8015 21.7143 8.8015 21.7936C9.66321 22.0313 10.5249 22.1105 11.3866 22.1105C12.0917 22.1105 12.7184 22.0313 13.3451 21.952C13.3451 21.7936 13.3451 21.7143 13.3451 21.5558C13.3451 20.3671 14.2851 19.4162 15.4602 19.4162C16.1652 19.4162 16.8703 19.8124 17.262 20.3671C18.437 19.5747 19.3771 18.6237 20.1605 17.4351C19.5338 17.0388 19.0637 16.4049 19.0637 15.6124C19.0637 14.4237 20.0038 13.4728 21.1788 13.4728C21.3355 13.4728 21.5705 13.4728 21.7272 13.552C21.8055 12.9181 21.8839 12.2841 21.8839 11.6502C21.8055 10.7785 21.7272 10.1445 21.6489 9.43129Z" stroke="white" stroke-width="0.9" stroke-miterlimit="10" stroke-linejoin="round"/>
<path d="M11.3863 15.0577C13.29 15.0577 14.8332 13.4966 14.8332 11.5709C14.8332 9.6452 13.29 8.08411 11.3863 8.08411C9.48266 8.08411 7.93945 9.6452 7.93945 11.5709C7.93945 13.4966 9.48266 15.0577 11.3863 15.0577Z" stroke="white" stroke-width="0.9" stroke-miterlimit="10" stroke-linejoin="round"/>
</svg>
