<svg width="14" height="18" viewBox="0 0 14 18" fill="none" xmlns="http://www.w3.org/2000/svg">
<path d="M10.4 4.2C10.4 6 9 7.5 7.2 7.5C5.4 7.5 4 6 4 4.2C4 2.4 5.5 0.999998 7.2 0.999998C9 0.899998 10.4 2.4 10.4 4.2Z" stroke="white" stroke-width="0.9" stroke-miterlimit="10"/>
<path d="M9.40005 9.39999C9.20005 9.39999 9.00005 9.29999 8.90005 9.29999C8.30005 9.49999 7.80005 9.69999 7.20005 9.69999C6.60005 9.69999 6.00005 9.49999 5.50005 9.29999C5.30005 9.29999 5.20005 9.39999 5.00005 9.39999C-0.0999475 10.2 1.00005 16 1.00005 16C2.30005 17.3 12.2001 17.3 13.4001 16C13.5001 15.9 14.5001 10.1 9.40005 9.39999Z" stroke="white" stroke-width="0.9" stroke-miterlimit="10"/>
</svg>
