<svg width="22" height="21" viewBox="0 0 22 21" fill="none" xmlns="http://www.w3.org/2000/svg">
<path d="M9.8 19.8C5.9 18.8 3.1 15.3 3 11.2" stroke="white" stroke-width="0.9" stroke-miterlimit="10"/>
<path d="M5.3 12.1L3.4 7.70001L0.5 11.5L5.3 12.1Z" fill="white"/>
<path d="M21.3001 9.10001C21.4001 9.70001 21.5001 10.2 21.5001 10.9C21.5001 14.2 19.7001 17.1 17.1001 18.7" stroke="white" stroke-width="0.9" stroke-miterlimit="10"/>
<path d="M16.7 16.1L13.8 20L18.6 20.6L16.7 16.1Z" fill="white"/>
<path d="M5.8999 4.00001C7.4999 2.50001 9.7999 1.60001 12.1999 1.60001C13.7999 1.60001 15.3999 2.00001 16.6999 2.70001" stroke="white" stroke-width="0.9" stroke-miterlimit="10"/>
<path d="M14.5 4.3L19.3 4.9L17.5 0.5L14.5 4.3Z" fill="white"/>
</svg>
