<svg width="50" height="50" fill="none" xmlns="http://www.w3.org/2000/svg"><path d="M16.13 17.13c.4-.7.9-1.3 1.6-1.7.7-.4 1.4-.6 2.3-.6 1.3 0 2.3.4 3.2 1.3.8.9 1.2 2 1.2 3.4 0 1.3-.4 2.5-1.2 3.3-.8.9-1.9 1.3-3.2 1.3-.8 0-1.6-.2-2.3-.6-.7-.4-1.2-1-1.6-1.7-.4-.7-.6-1.5-.6-2.4 0-.9.3-1.6.6-2.3zm6.3-.3c-.6-.8-1.5-1.1-2.5-1.1s-1.8.4-2.5 1.1c-.7.7-1 1.7-1 2.7 0 1 .3 1.9 1 2.7.6.8 1.5 1.1 2.5 1.1s1.8-.4 2.5-1.1c.6-.7 1-1.6 1-2.7s-.3-2-1-2.7zm8-1.7h1.1l-12.3 19.1h-1l12.2-19.1zm-4.8 12.4c.4-.7.9-1.3 1.6-1.7.7-.4 1.4-.6 2.3-.6.9 0 1.6.2 2.3.6.7.4 1.2 1 1.6 1.7.4.7.6 1.5.6 2.4 0 .9-.2 1.7-.6 2.4-.4.7-.9 1.3-1.6 1.7-.7.4-1.4.6-2.3.6-.9 0-1.6-.2-2.3-.6-.7-.4-1.2-1-1.6-1.7-.4-.7-.6-1.5-.6-2.4 0-.9.2-1.6.6-2.4zm6.3-.3c-.6-.8-1.5-1.1-2.5-1.1s-1.8.4-2.5 1.1c-.6.8-1 1.7-1 2.7 0 1.1.3 2 1 2.7.6.7 1.5 1.1 2.5 1.1s1.8-.4 2.5-1.1c.6-.7 1-1.6 1-2.7 0-1-.3-2-1-2.7z" fill="#5091CD"/><path d="M46.88 27.306c1.423-12.233-7.34-23.304-19.574-24.728C15.073 1.154 4.002 9.918 2.578 22.15 1.154 34.384 9.918 45.455 22.15 46.879c12.233 1.424 23.304-7.34 24.728-19.573z" stroke="#5091CD" stroke-width=".75" stroke-miterlimit="10"/></svg>