<svg width="22" height="23" viewBox="0 0 22 23" fill="none" xmlns="http://www.w3.org/2000/svg">
<path d="M11 22C16.5228 22 21 17.5228 21 12C21 6.47715 16.5228 2 11 2C5.47715 2 1 6.47715 1 12C1 17.5228 5.47715 22 11 22Z" stroke="white" stroke-width="0.9" stroke-miterlimit="10"/>
<path d="M11.0001 15.2135C10.3821 15.2135 9.8877 15.7079 9.8877 16.3258C9.8877 16.9438 10.3821 17.4382 11.0001 17.4382C11.618 17.4382 12.1124 16.9438 12.1124 16.3258C12.1124 15.7079 11.618 15.2135 11.0001 15.2135Z" fill="white"/>
<path d="M11.1235 6.5618C9.76397 6.5618 8.52801 7.17978 7.66284 8.16854L8.7752 9.4045C9.26958 8.78652 10.0112 8.29214 10.9999 8.29214C11.9887 8.29214 12.4831 8.78652 12.4831 9.4045C12.4831 10.764 9.88756 10.8876 9.88756 12.8652C9.88756 13.3596 10.1348 13.8539 10.5055 14.2247L11.8651 13.7303C11.6179 13.6067 11.4943 13.236 11.4943 12.9888C11.4943 11.6292 14.337 11.382 14.337 9.03371C14.337 7.67416 13.101 6.5618 11.1235 6.5618Z" fill="white"/>
</svg>
