<svg width="70" height="64" fill="none" xmlns="http://www.w3.org/2000/svg"><path d="M56.1 5.8v1.3h7.7V15H5.1V7.1h8V5.8H3.9v10.5h61.2V5.8h-9z" fill="#5091CD"/><path d="M49.6 5.8H19v1.3h30.6V5.8zM3.9 60.4h50.6l10.7-9.9V19.6H3.9v40.8zm50.9-2.1v-7.8h8.4l-8.4 7.8zM5.1 20.9h58.7v28.3H53.5v10H5.1V20.9zM16.1 10.6c.8 0 1.5-.7 1.5-1.5V3.8c0-.8-.7-1.5-1.5-1.5s-1.5.7-1.5 1.5v5.4c0 .7.6 1.4 1.5 1.4zM52.8 10.6c.8 0 1.5-.7 1.5-1.5V3.8c0-.8-.7-1.5-1.5-1.5s-1.5.7-1.5 1.5v5.4c0 .7.7 1.4 1.5 1.4z" fill="#5091CD"/><path d="M10.2 32.2h6.4v-6.4h-6.4v6.4zm1.3-5.1h3.8v3.8h-3.8v-3.8zM20.7 31.9h6.4v-6.4h-6.4v6.4zm1.3-5h3.8v3.8H22v-3.8zM31.2 32h6.4v-6.4h-6.4V32zm1.3-5.1h3.8v3.8h-3.8v-3.8zM58.6 25.7h-6.4v6.4h6.4v-6.4zm-1.3 5.1h-3.8V27h3.8v3.8zM41.7 31.9h6.4v-6.4h-6.4v6.4zm1.3-5.1h3.8v3.8H43v-3.8zM10.2 41.3h6.4V35h-6.4v6.3zm1.3-5h3.8V40h-3.8v-3.7zM20.7 41.1h6.4v-6.4h-6.4v6.4zM22 36h3.8v3.8H22V36zM31.2 41.2h6.4v-6.4h-6.4v6.4zm1.3-5.1h3.8v3.8h-3.8v-3.8zM58.6 34.9h-6.4v6.4h6.4v-6.4zM57.3 40h-3.8v-3.8h3.8V40zM41.7 41.1h6.4v-6.4h-6.4v6.4zM43 36h3.8v3.8H43V36zM10.2 51.5h6.4v-6.4h-6.4v6.4zm1.3-5.1h3.8v3.8h-3.8v-3.8zM20.7 51.2h6.4v-6.4h-6.4v6.4zm1.3-5h3.8V50H22v-3.8zM31.2 51.3h6.4v-6.4h-6.4v6.4zm1.3-5.1h3.8V50h-3.8v-3.8z" fill="#5091CD"/></svg>