<svg width="27" height="17" fill="none" xmlns="http://www.w3.org/2000/svg"><path d="M3.6 12.7c.3-.2.6-.4 1-.6l.1-.1c.4-.2.7-.4 1.1-.6 0 0 .1 0 .1-.1.4-.2.9-.4 1.4-.6.8-1.5 1.4-2.9 1.8-4.2.1-.4.3-.8.4-1.2-.2-.2-.3-.7-.5-1.1 0-.1-.1-.2-.1-.3-.1-.4-.2-.9-.3-1.3-.1-.5-.1-.9-.1-1.3v-.1c0-.4 0-.8.1-1.1H0v16h1.4v-.7c.1-.7.5-1.3 1.3-2 .3-.2.5-.4.9-.7-.1.1 0 0 0 0z" fill="#5091CD"/><path d="M11.8.1c.1 1.6-.4 3.7-.7 4.9v.1c0 .1-.1.3-.1.4.1.3.3.6.5.9.5.9 1.3 1.9 2.3 2.7 1.5-.3 2.8-.4 3.9-.4.8 0 1.5.1 2 .2.3.1.5.2.7.3.1.1.2.1.3.2l.2.2c.2.3.4.8.1 1.5 0 .1-.1.2-.2.2-.1.1-.2.1-.3.1-.4.1-.9.2-1.3.3-.4.1-.8.1-1.2.1-1.6 0-3.2-.5-4.5-1.4-1.7.3-3.4.8-5 1.4-.3.4-.5.9-.8 1.2-.1.1-.2.2-.2.3-.2.3-.4.5-.6.8l-.3.3c-.2.2-.4.5-.7.7l-.2.2c-.3.3-.6.5-.9.7h21.8V.1H11.8zM10 .1c-.1.3-.1.7-.1 1.1V2.1c0 .2.1.5.1.7 0-.3.1-.5.1-.8v-.2c0-.2 0-.4.1-.6v-.1V0" fill="#5091CD"/><path d="M17.9 10.6h.4c.3 0 .6-.1.9-.1.1 0 .3 0 .4-.1v-.1c-.1-.1-.5-.3-1.5-.4h-.5c-.6 0-1.4.1-2.2.2.8.3 1.7.5 2.5.5zM6.2 12.8l-.6.3c-.8.4-1.5.9-2 1.4-.2.2-.4.5-.5.7-.1.1-.1.2-.1.4.3-.1.6-.2.8-.4.7-.5 1.6-1.3 2.4-2.4zM10.4 7.3c-.3.9-.7 1.9-1.2 2.9.9-.3 1.9-.6 2.8-.8-.6-.6-1.1-1.4-1.6-2.1z" fill="#5091CD"/></svg>