<svg width="21" height="18" fill="none" xmlns="http://www.w3.org/2000/svg"><path d="M14.1.1v6.1h6l-6-6.1zM5.4 13.9h.5c.2 0 .3-.1.5-.1h.2c.2-.1.3-.1.5-.2.6-.3 1.1-.6 1.6-1.1.5-.5.8-1 1.1-1.6.1-.2.1-.4.2-.5v-.1c0-.2.1-.3.1-.5v-.1-.5V9v-.4-.3-.2c-.1-.5-.2-1-.4-1.4-.1-.3-.2-.5-.3-.6V6c-.1-.1-.2-.3-.3-.4-.4-.4-.8-.8-1.2-1.1 0 0-.1 0-.1-.1-.2 0-.3-.1-.4-.2 0 0-.1 0-.1-.1-.2 0-.3-.1-.5-.1h-.1c-.3-.1-.7-.2-1-.3h-.6c-.3 0-.5 0-.8.1h-.2c-.2.1-.5.1-.7.2-.1 0-.2 0-.2.1-.3.1-.5.2-.7.3 0 .1-.1.1-.2.2-.3.1-.5.3-.8.6-.2.2-.4.4-.6.7 0 .1-.1.1-.1.2-.1.2-.3.4-.4.7v.1c-.1.3-.2.5-.3.7 0 .1 0 .2-.1.3v1.5c0 .1 0 .3.1.4 0 .2.1.4.1.6v.2c.1.1.1.3.2.4 0 0 0 .1.1.1.1.1.1.3.2.4 0 0 0 .1.1.1.3.4.6.9 1.1 1.2.1.1.3.2.4.3h.1c.2.1.3.2.5.3.5.2 1 .4 1.5.5h1zm.5-8.2l-.2 4H4.5v-.1l-.2-3.9h1.6zm-1.6 5.4c0-.5.4-.8.8-.8s.8.4.8.8-.4.8-.8.8-.8-.3-.8-.8z" fill="#5091CD"/><path d="M13 7.3V0H4.6v2.7c.6-.1 1.3 0 2 .1 2.3.5 4.1 2.4 4.6 4.6.5 2.1-.1 4.3-1.7 5.8C8.3 14.4 6.7 15 5.1 15h-.5v2.6h15.6V7.3H13z" fill="#5091CD"/></svg>