<svg width="127" height="45" fill="none" xmlns="http://www.w3.org/2000/svg"><path d="M4.6 15.5V11c0-.8.5-1.4 1-1.4.6 0 1 .6 1 1.4v6.2H11v-5.6c0-3-2.4-5.5-5.5-5.5-3 0-5.5 2.4-5.5 5.5V16c.2 3.2 6.7 8.7 6.7 12v8.3c0 .8-.5 1.4-1 1.4-.6 0-1-.6-1-1.4v-8.9H.2v8.3c0 3 2.4 5.5 5.5 5.5 3 0 5.5-2.4 5.5-5.5v-8.3c-.1-3.9-6.6-9-6.6-11.9z" fill="#5091CD"/><path d="M82 36.3c0 .8-.5 1.4-1 1.4-.6 0-1-.6-1-1.4V11c0-.8.5-1.4 1-1.4.6 0 1 .6 1 1.4v25.3zm4.4-24.6c0-3-2.4-5.5-5.5-5.5-3 0-5.5 2.4-5.5 5.5v23.9c0 3 2.4 5.5 5.5 5.5 3 0 5.5-2.4 5.5-5.5V11.7zM118.5 15.5V11c0-.8.5-1.4 1-1.4.6 0 1 .6 1 1.4v6.2h4.4v-5.6c0-3-2.4-5.5-5.5-5.5-3 0-5.5 2.4-5.5 5.5V16c0 3.1 6.5 8.7 6.5 11.9v8.3c0 .8-.5 1.4-1 1.4-.6 0-1-.6-1-1.4v-8.9H114v8.3c0 3 2.4 5.5 5.5 5.5 3 0 5.5-2.4 5.5-5.5v-8.3c0-3.8-6.5-8.9-6.5-11.8z" fill="#000"/><path d="M18.4 25.1v11.1c0 .8.5 1.4 1 1.4.6 0 1-.6 1-1.4V21.9c.1 0-2 1.2-2 3.2zm2.1 14.2c-.3.7-1.1 1.7-2.5 1.7-2.2 0-4-2.1-4-5.1V25.1c0-4.9 6.5-7.4 6.5-7.4V11c0-.8-.5-1.4-1-1.4-.6 0-1 .6-1 1.4v4.1h-4.4v-3.4c0-3 2.4-5.5 5.5-5.5 3 0 5.5 2.4 5.5 5.5v29.4h-4.4l-.2-1.8zM34.4 11c0-.8-.5-1.4-1-1.4-.6 0-1 .6-1 1.4v23c0 .8.5 1.4 1 1.4s1-.6 1-1.4V11zm-7.2 32.2l1.5-2.6s1.5 1 3.5 1c1.3 0 2.2-1.1 2.2-2.7v-1.7c-.3.7-1.1 1.7-2.5 1.7-2.2 0-4-2.1-4-5.1V11.4c0-3 1.8-5.1 4-5.1 1.4 0 2.2 1 2.5 1.7V6.3h4.4v33.8c0 1.7-2.4 4.6-6.2 4.6-2.8 0-5.4-1.5-5.4-1.5zM46.1 36.3c0 .8.5 1.4 1 1.4.6 0 1-.6 1-1.4v-8.9h4.4v8.3c0 3-2.4 5.5-5.5 5.5s-5.3-2.6-5.3-5.6V11.7c0-3 2.4-5.5 5.5-5.5s5.5 2.4 5.5 5.5v11.2h-6.5l-.1 13.4zM48.2 11c0-.8-.5-1.4-1-1.4-.6 0-1 .6-1 1.4v8.5h2.1l-.1-8.5z" fill="#5091CD"/><path d="M99.2 19.5h-4.4V11c0-.8-.5-1.4-1-1.4-.6 0-1 .6-1 1.4v30h-4.4V6.2h4.3v1.7c.3-.6 1.1-1.7 2.5-1.7 2.2 0 4 2.1 4 5.1v8.2zM64 23.9l-2.2 17.2h-4.4L54.1 6.2h4.4l1.7 17.7 1.6-17.7h4.4l1.7 17.7 1.6-17.7h4.4l-3.3 34.9h-4.4L64 23.9zM105.5 25.1v16h-4.4V0h4.4v18.5l2.4-12.3h4.4L109.5 22l2.8 19.1h-4.4l-2.4-16z" fill="#000"/><path d="M125.5 4.5c.2 0 .4.1.6.2.2.1.3.3.5.5.1.2.2.4.2.6 0 .2-.1.4-.2.6-.1.2-.3.3-.5.5-.2.1-.4.2-.6.2-.2 0-.4-.1-.6-.2-.2-.1-.3-.3-.5-.5-.1-.2-.2-.4-.2-.6 0-.2.1-.4.2-.6.1-.2.3-.3.5-.5s.4-.2.6-.2zm0 .2c-.3 0-.5.1-.7.3-.2.2-.3.4-.3.7 0 .3.1.5.3.7.2.2.4.3.7.3.3 0 .5-.1.7-.3.2-.2.3-.4.3-.7 0-.3-.1-.5-.3-.7-.1-.2-.4-.3-.7-.3zm-.2 1.7h-.2V5.1h.8c.1 0 .1.1.2.1 0 .1.1.1.1.2s0 .2-.1.3c-.1.1-.2.1-.3.1.1 0 .1.1.1.1l.2.2.2.3h-.3l-.2-.2c-.1-.1-.2-.2-.2-.3 0 0-.1-.1-.2-.1h-.1v.6zm0-1.2v.4h.5c.1 0 .1-.1.1-.2s0-.1-.1-.2h-.5z" fill="#231F20"/></svg>